<svg width="219" height="151" viewBox="0 0 219 151" fill="none" xmlns="http://www.w3.org/2000/svg">
<path d="M0 8C0 3.58172 3.58172 0 8 0H54.8185C57.9768 0 60.5371 2.56031 60.5371 5.71862C60.5371 8.87693 63.0974 11.4372 66.2558 11.4372H211C215.418 11.4372 219 15.019 219 19.4372V143C219 147.418 215.418 151 211 151H8C3.58172 151 0 147.418 0 143V8Z" fill="url(#paint0_linear_4835_394531)" fill-opacity="0.8"/>
<path d="M0 26.7827C0 22.3644 3.58172 18.7827 8 18.7827H211C215.418 18.7827 219 22.3644 219 26.7827V142.999C219 147.417 215.418 150.999 211 150.999H8C3.58172 150.999 0 147.417 0 142.999V26.7827Z" fill="#D0D0D0"/>
<defs>
<linearGradient id="paint0_linear_4835_394531" x1="109.5" y1="0" x2="109.5" y2="25.4782" gradientUnits="userSpaceOnUse">
<stop stop-color="#C4C4C4"/>
<stop offset="1" stop-color="#C4C4C4" stop-opacity="0"/>
</linearGradient>
</defs>
</svg>
