<svg width="46" height="46" viewBox="0 0 46 46" fill="none" xmlns="http://www.w3.org/2000/svg">
<path d="M3 23C3 11.9543 11.9543 3 23 3C34.0457 3 43 11.9543 43 23C43 34.0457 34.0457 43 23 43C11.9543 43 3 34.0457 3 23Z" fill="#F2F4F7"/>
<g clip-path="url(#clip0_5408_33271)">
<path d="M26.3335 26.3334L23.0002 23M23.0002 23L19.6669 26.3334M23.0002 23V30.5M29.9919 28.325C30.8047 27.8819 31.4467 27.1808 31.8168 26.3322C32.1868 25.4837 32.2637 24.5361 32.0354 23.6389C31.807 22.7418 31.2865 21.9463 30.5558 21.3779C29.8251 20.8095 28.9259 20.5006 28.0002 20.5H26.9502C26.698 19.5244 26.2278 18.6186 25.5752 17.8509C24.9225 17.0831 24.1043 16.4732 23.182 16.0672C22.2597 15.6612 21.2573 15.4695 20.2503 15.5066C19.2433 15.5437 18.2578 15.8086 17.3679 16.2814C16.478 16.7542 15.7068 17.4226 15.1124 18.2363C14.518 19.0501 14.1158 19.988 13.936 20.9795C13.7563 21.9711 13.8036 22.9905 14.0746 23.9611C14.3455 24.9317 14.8329 25.8282 15.5002 26.5834" stroke="#475467" stroke-width="1.66667" stroke-linecap="round" stroke-linejoin="round"/>
</g>
<path d="M23 40C13.6112 40 6 32.3888 6 23H0C0 35.7025 10.2975 46 23 46V40ZM40 23C40 32.3888 32.3888 40 23 40V46C35.7025 46 46 35.7025 46 23H40ZM23 6C32.3888 6 40 13.6112 40 23H46C46 10.2975 35.7025 0 23 0V6ZM23 0C10.2975 0 0 10.2975 0 23H6C6 13.6112 13.6112 6 23 6V0Z" fill="#F9FAFB"/>
<defs>
<clipPath id="clip0_5408_33271">
<rect width="20" height="20" fill="white" transform="translate(13 13)"/>
</clipPath>
</defs>
</svg>
