<?xml version="1.0" encoding="UTF-8"?>
<svg xmlns="http://www.w3.org/2000/svg" xmlns:xlink="http://www.w3.org/1999/xlink" width="573pt" height="460pt" viewBox="0 0 573 460" version="1.1">
<defs>
<clipPath id="clip1">
  <path d="M 0 0.496094 L 573 0.496094 L 573 459.503906 L 0 459.503906 Z M 0 0.496094 "/>
</clipPath>
</defs>
<g id="surface1">
<g clip-path="url(#clip1)" clip-rule="nonzero">
<path style=" stroke:none;fill-rule:evenodd;fill:rgb(0%,0%,0%);fill-opacity:1;" d="M 286.394531 459.457031 C 210.519531 459.457031 134.644531 459.457031 58.773438 459.457031 C 35.269531 459.457031 16.621094 451.695312 6.1875 431.902344 C 2.394531 424.527344 0.378906 416.363281 0.296875 408.070312 C -0.0664062 289.28125 -0.125 170.449219 0.113281 51.582031 C 0.148438 22.757812 21.3125 2.652344 52.585938 0.742188 C 55.5625 0.496094 58.492188 0.496094 61.40625 0.496094 C 211.5625 0.496094 361.683594 0.496094 511.773438 0.496094 C 525.847656 0.496094 539.34375 2.144531 550.894531 10.183594 C 565.542969 20.484375 572.835938 34.34375 572.851562 51.140625 C 572.941406 170.203125 572.941406 289.269531 572.851562 408.332031 C 572.851562 438.90625 549.808594 459.175781 515.558594 459.421875 C 485.835938 459.621094 456.128906 459.421875 426.421875 459.421875 Z M 53.984375 140.066406 C 53.820312 142.589844 53.605469 144.5 53.605469 146.410156 C 53.605469 231.011719 53.605469 315.570312 53.605469 400.09375 C 53.605469 409.488281 55.121094 410.773438 65.882812 410.773438 L 506.835938 410.773438 C 518.507812 410.773438 519.492188 409.832031 519.492188 399.039062 L 519.492188 140.066406 Z M 349.496094 98.867188 L 438.566406 98.867188 C 460.046875 98.867188 481.523438 98.867188 503.003906 98.867188 C 513.882812 98.867188 518.933594 94.464844 519.34375 85.007812 C 519.574219 79.683594 519.34375 74.328125 519.34375 68.988281 C 519.34375 52.871094 515.410156 49.210938 497.949219 49.210938 L 200.53125 49.210938 C 198.667969 49.210938 196.808594 49.210938 194.964844 49.210938 C 184.433594 49.738281 179.429688 54.054688 178.855469 63.628906 C 178.492188 69.449219 178.707031 75.28125 178.738281 81.117188 C 178.835938 94.710938 183.363281 98.816406 198.375 98.816406 Z M 89.648438 98.867188 C 96.230469 98.867188 102.816406 98.980469 109.496094 98.867188 C 119.519531 98.652344 124.96875 94.234375 125.480469 85.253906 C 125.941406 77.75 125.941406 70.226562 125.480469 62.722656 C 124.9375 54.484375 119.75 49.539062 110.765625 49.390625 C 96.496094 49.027344 82.175781 48.964844 67.972656 49.390625 C 58.855469 49.703125 54.082031 54.664062 53.785156 63.003906 C 53.523438 70.503906 53.472656 78.035156 53.785156 85.535156 C 54.148438 93.972656 59.035156 98.40625 68.320312 98.71875 C 75.347656 99.0625 82.507812 98.832031 89.648438 98.847656 Z M 89.648438 98.867188 "/>
</g>
</g>
</svg>
