<?xml version="1.0" encoding="UTF-8"?>
<svg xmlns="http://www.w3.org/2000/svg" xmlns:xlink="http://www.w3.org/1999/xlink" width="368pt" height="459pt" viewBox="0 0 368 459" version="1.1">
<g id="surface1">
<path style=" stroke:none;fill-rule:nonzero;fill:rgb(0%,0%,0%);fill-opacity:1;" d="M 59.507812 200.90625 C 59.507812 180.367188 59.507812 160.992188 59.507812 141.652344 C 59.507812 119.617188 62.6875 98.414062 71.316406 78.242188 C 95.941406 20.472656 155.886719 -11.191406 212.746094 3.640625 C 266.332031 17.628906 309.125 70.695312 308.507812 138.042969 C 308.359375 155.855469 308.507812 173.648438 308.507812 191.460938 L 308.507812 200.90625 C 315.367188 200.90625 321.394531 200.789062 327.40625 200.90625 C 350.882812 201.421875 367.550781 219.199219 367.667969 244.726562 C 367.914062 301.332031 367.914062 357.933594 367.667969 414.53125 C 367.570312 440.675781 351.019531 458.816406 327.191406 458.867188 C 231.625 459.042969 136.058594 459.042969 40.492188 458.867188 C 16.980469 458.867188 0.53125 440.691406 0.363281 414.996094 C 0.121094 358.125 0.121094 301.25 0.363281 244.375 C 0.480469 219.265625 17.117188 201.585938 40.226562 200.9375 C 46.269531 200.753906 52.347656 200.90625 59.507812 200.90625 Z M 242.667969 200.554688 C 242.992188 199.222656 243.214844 197.867188 243.335938 196.5 C 243.335938 176.542969 243.550781 156.6875 243.335938 136.78125 C 243.121094 120.015625 238.339844 105 227.535156 92.695312 C 211.484375 74.5 192.085938 67.21875 169.855469 73.503906 C 146.542969 80.15625 129.894531 97.136719 126.5625 122.960938 C 123.230469 147.90625 125.332031 173.765625 125.082031 199.207031 C 125.082031 199.609375 125.648438 200.007812 126.046875 200.554688 Z M 217.492188 330.269531 C 217.128906 321.023438 217.308594 311.675781 216.261719 302.480469 C 214.28125 285.183594 200.574219 272.546875 184.492188 272.363281 C 167.449219 272.207031 153.226562 285.320312 152.023438 302.296875 C 150.804688 320.570312 150.804688 338.902344 152.023438 357.175781 C 153.019531 374.246094 167.203125 387.554688 184.324219 387.492188 C 200.441406 387.324219 214.296875 374.671875 216.195312 357.476562 C 217.195312 348.476562 217.058594 339.398438 217.445312 330.335938 Z M 217.492188 330.269531 "/>
</g>
</svg>
