<?xml version="1.0" encoding="utf-8"?>
<!-- Generator: Adobe Illustrator 22.1.0, SVG Export Plug-In . SVG Version: 6.00 Build 0)  -->
<svg version="1.1" xmlns="http://www.w3.org/2000/svg" xmlns:xlink="http://www.w3.org/1999/xlink" x="0px" y="0px"
	 viewBox="0 0 1200 1200" style="enable-background:new 0 0 1200 1200;" xml:space="preserve">
<style type="text/css">
	.st0{fill:#EBDEDE;}
	.st1{opacity:0.5;}
	.st2{fill:#FFFFFF;}
	.st3{fill:none;}
	.st4{opacity:0.42;}
	.st5{fill:#BDD3DE;}
	.st6{fill:#EEEDEE;}
	.st7{opacity:0.42;fill:#BDD3DE;}
	.st8{opacity:0.5;fill:#FFFFFF;}
	.st9{fill:#DFDED9;}
	.st10{opacity:0.16;fill:#253041;}
	.st11{opacity:0.34;fill:#253041;}
	.st12{opacity:0.12;fill:#253041;}
	.st13{opacity:0.47;fill:#253041;}
	.st14{fill:#E2C8C0;}
	.st15{fill:#5A142A;}
	.st16{opacity:8.000000e-02;fill:#19233D;}
	.st17{opacity:0.32;fill:url(#SVGID_1_);}
	.st18{opacity:6.000000e-02;fill:#253041;}
	.st19{opacity:0.39;fill:url(#SVGID_2_);}
	.st20{fill:#791D2C;}
	.st21{opacity:0.2;}
	.st22{fill:#E6E3F4;}
	.st23{opacity:0.32;fill:url(#SVGID_3_);}
	.st24{fill:#19233D;}
	.st25{opacity:5.000000e-02;fill:url(#SVGID_4_);}
	.st26{opacity:5.000000e-02;fill:url(#SVGID_5_);}
	.st27{fill:#000105;}
	.st28{fill:#C0846F;}
	.st29{opacity:0.28;fill:url(#SVGID_6_);}
	.st30{fill:#0D2A28;}
	.st31{fill:#336859;}
	.st32{opacity:9.000000e-02;fill:#2A303D;}
	.st33{opacity:0.11;fill:url(#SVGID_7_);}
	.st34{opacity:5.000000e-02;fill:url(#SVGID_8_);}
	.st35{opacity:5.000000e-02;fill:url(#SVGID_9_);}
	.st36{fill:#F2BE54;}
	.st37{opacity:0.3;fill:url(#SVGID_10_);}
	.st38{fill:#CD907F;}
	.st39{opacity:0.13;fill:url(#SVGID_11_);}
	.st40{opacity:0.3;}
	.st41{opacity:0.51;fill:#19233D;}
	.st42{opacity:0.17;fill:url(#SVGID_12_);}
	.st43{opacity:7.000000e-02;fill:url(#SVGID_13_);}
	.st44{opacity:0.17;fill:url(#SVGID_14_);}
	.st45{opacity:0.15;fill:#19233D;}
	.st46{opacity:0.13;fill:url(#SVGID_15_);}
	.st47{fill:url(#hair_2_);}
	.st48{fill:url(#SVGID_16_);}
	.st49{fill:url(#SVGID_17_);}
	.st50{fill:url(#SVGID_18_);}
	.st51{fill:url(#SVGID_19_);}
	.st52{fill:url(#beard_1_);}
	.st53{fill:#A2625E;}
	.st54{opacity:0.13;fill:url(#SVGID_20_);}
	.st55{opacity:0.16;fill:#BDD3DE;}
	.st56{opacity:0.24;fill:#2A303D;}
	.st57{opacity:0.13;fill:url(#SVGID_21_);}
	.st58{opacity:5.000000e-02;fill:url(#SVGID_22_);}
	.st59{opacity:0.5;fill:url(#SVGID_23_);}
</style>
<g id="background">
	<g id="general">
		<path id="figure2" class="st0" d="M1168.9,193.2c0.9,2.7,13.8,45.7-8.8,84.8c-47.6,82.4-196.5,51-352.8,68.8
			c-301.9,34.5-442.3,231.2-473.7,196.8c-41.6-45.6,167.2-433.8,483.3-470.5C942.3,58.6,1137.1,93.4,1168.9,193.2z"/>
		<path id="figure3" class="st0" d="M1120.1,451.3c42.3,53.5,35.7,142.7-0.7,195c-17.1,24.6-54,59.8-274.6,77.9
			c-241.2,19.8-339.4-10.6-415.5,63.5c-41.6,40.4-50.5,86.6-67.9,82.7c-28.1-6.3-48.8-136.8-3.4-241.6
			c81.3-187.6,345.5-226,476.9-245c30.1-4.4,118.7-15.3,213.8,21.9C1096.6,424.4,1113,442.4,1120.1,451.3z"/>
		<path class="st0" d="M1166,903.9c-0.2,5.8-0.8,15.4-2.4,27.4c-0.4,2.5-0.8,5.2-1.2,8c-5.7,35-20.2,85.9-57.4,128.6
			c-3.1,3.6-6.4,7-9.8,10.5c-2.8,2.8-5.7,5.6-8.8,8.3c-0.7,0.6-5.7,5.4-11.5,9.5c-15.1,10.7-39.5,21.7-88.7,27.7
			c-2.6,0.3-5.3,0.6-8,0.9c-32,3.4-73.7,4.8-128.8,2.9c-2.6-0.1-5.3-0.2-8-0.3c-12-0.5-24.5-1.1-37.8-1.8
			c-20.4-1.2-40.7-2.1-60.8-2.8c-2.7-0.1-5.4-0.2-8.1-0.3c-52-1.7-102.4-2-148.2-1.5c-2.7,0-5.4,0.1-8,0.1c-44.1,0.6-83.7,2-116,3.6
			c-2.7,0.1-5.4,0.3-8,0.4c-33.6,1.8-58.5,3.8-71.2,5.4c-14.7,1.8-30.2,3.9-46,5.9c-2.6,0.3-5.3,0.7-8,1c-47.3,5.8-96,9.6-131.3-0.9
			c-2.9-0.9-5.8-1.8-8.5-2.9c-12.3-4.8-22.6-11.6-30.1-21.2c-3.5-4.4-15.2-19.2-11-32.9c3.4-11.2,15.3-14.7,31-17.8
			c2.5-0.5,5.2-1,7.9-1.5c20.1-3.7,44.6-8.4,65.5-26.5c8.5-7.3,13.7-14.5,17.4-21.7c1.3-2.6,2.5-5.2,3.5-7.8
			c6.9-17.5,8.9-35.6,32.3-56.5c3.5-3.2,6.9-5.8,10.2-8.1c6.5-4.5,12.7-7.5,18.8-10c13.8-5.5,27.9-8.4,47.9-20.4
			c41.8-25.1,56-58.1,72.6-82.9c2-3,4-5.9,6.1-8.6c1.5-2,3.1-3.9,4.8-5.8C492.9,781.8,530,775,584,773.6c2.6-0.1,5.3-0.1,8-0.2
			c31.3-0.5,68.1,0.4,111.6-0.5c2.7-0.1,5.3-0.1,8-0.2c37.5-0.9,79.9-3.3,127.9-9c0.2,0,0.5,0,0.7-0.1c2.5-0.3,4.9-0.6,7.3-0.9
			c53.3-6.7,95.6-15.3,130.2-22.6c2.7-0.6,5.4-1.1,8-1.7c65.2-13.7,101.7-21.1,133.6,3.4c1.4,1.1,2.8,2.2,4.2,3.4c1.1,1,2.3,2,3.3,3
			c27.2,25.9,36.3,64.7,39,99.7c0.2,2.7,0.4,5.4,0.5,8C1167.2,874.3,1166.5,891.1,1166,903.9z"/>
		<g id="floor_lines" class="st1">
			<path class="st2" d="M198,1136.5c-2.9-0.9-5.8-1.8-8.5-2.9l-10.1-72c2.5-0.5,5.2-1,7.9-1.5L198,1136.5z"/>
			<path class="st2" d="M1119.2,854l47.1,2c-0.1-2.7-0.3-5.3-0.5-8l-46-1.9l7-97.8c-1.1-1-2.2-2.1-3.3-3c-1.4-1.2-2.8-2.4-4.2-3.4
				l-7.4,103.9l-126-5.3l-0.1-102c-2.6,0.6-5.3,1.1-8,1.7l0.1,100l-130-5.4l-0.4-72c-2.4,0.3-4.8,0.6-7.3,0.9
				c-0.2,0-0.5,0.1-0.7,0.1l0.4,70.7l-123.2-5.2l-5-56.5c-2.7,0.1-5.4,0.1-8,0.2l5,56L591.2,824l0.8-50.5c-2.7,0-5.4,0.1-8,0.2
				l-0.8,50l-117.2-4.9l0.1-6.8c-1.6,1.8-3.2,3.8-4.8,5.8c-2.1,2.7-4.1,5.6-6.1,8.6l2.7,0.1l-1.2,103.4l-122-0.2
				c-6.2,2.5-12.3,5.4-18.8,10l4.6,68.2l-47-3.6c-1,2.6-2.1,5.2-3.5,7.8l51,3.9l8.2,121.5c2.7-0.3,5.3-0.7,8-1l-8.1-119.9l126.5,9.7
				l-1.2,98.9c2.6-0.1,5.3-0.3,8-0.4l1.1-97.9l116.3,8.9l-1.4,85.4c2.7,0,5.3-0.1,8-0.1l1.3-84.7L728,1047l6.7,75.4
				c2.7,0.1,5.4,0.2,8.1,0.3l-6.7-75l104.9,8l0.4,71.7c2.7,0.1,5.4,0.2,8,0.3l-0.4-71.3l129.1,9.9l0.1,58.6c2.7-0.3,5.4-0.6,8-0.9
				l-0.1-57.1l109.3,8.4l-0.2,3.2c3.4-3.4,6.7-6.9,9.8-10.5l-1-0.1l9.2-128.6l49.2,0.1c0.4-2.8,0.8-5.5,1.2-8l-49.8-0.1L1119.2,854z
				 M455.7,1018.1l-127.1-9.7l-4.8-70.8l132.8,0.3L455.7,1018.1z M580,1027.7l-116.3-8.9l0.9-80.9l116.8,0.2L580,1027.7z
				 M581.5,930.1l-116.8-0.2l1.2-103.1l117.1,4.9L581.5,930.1z M839.9,842.4l0.4,88.2l-114.7-0.2l-8.3-93.1L839.9,842.4z M591.1,832
				l118.2,4.9l8.3,93.5l-128.1-0.3L591.1,832z M588,1028.3l1.4-90.2l128.9,0.3l8.9,100.6L588,1028.3z M735.4,1039.6l-9-101.2
				l114,0.2l0.5,109L735.4,1039.6z M847.9,842.7l129.9,5.4l0.1,82.8l-129.6-0.3L847.9,842.7z M848.9,1048.2l-0.5-109.6l129.5,0.3
				l0.2,119.2L848.9,1048.2z M1095.9,1067.1l-109.8-8.4l-0.2-119.8l119.2,0.2L1095.9,1067.1z M1105.7,931.1l-119.8-0.2l-0.1-82.4
				l125.4,5.2L1105.7,931.1z"/>
		</g>
		<path class="st3" d="M1166,903.9c-0.2,5.8-0.8,15.4-2.4,27.4c-0.4,2.5-0.8,5.2-1.2,8c-5.7,35-20.2,85.9-57.4,128.6
			c-3.1,3.6-6.4,7-9.8,10.5c-2.8,2.8-5.7,5.6-8.8,8.3c-0.7,0.6-5.7,5.4-11.5,9.5c-15.1,10.7-39.5,21.7-88.7,27.7
			c-2.6,0.3-5.3,0.6-8,0.9c-32,3.4-73.7,4.8-128.8,2.9c-2.6-0.1-5.3-0.2-8-0.3c-12-0.5-24.5-1.1-37.8-1.8
			c-20.4-1.2-40.7-2.1-60.8-2.8c-2.7-0.1-5.4-0.2-8.1-0.3c-52-1.7-102.4-2-148.2-1.5c-2.7,0-5.4,0.1-8,0.1c-44.1,0.6-83.7,2-116,3.6
			c-2.7,0.1-5.4,0.3-8,0.4c-33.6,1.8-58.5,3.8-71.2,5.4c-14.7,1.8-30.2,3.9-46,5.9c-2.6,0.3-5.3,0.7-8,1c-47.3,5.8-96,9.6-131.3-0.9
			c-2.9-0.9-5.8-1.8-8.5-2.9c-12.3-4.8-22.6-11.6-30.1-21.2c-3.5-4.4-15.2-19.2-11-32.9c3.4-11.2,15.3-14.7,31-17.8
			c2.5-0.5,5.2-1,7.9-1.5c20.1-3.7,44.6-8.4,65.5-26.5c8.5-7.3,13.7-14.5,17.4-21.7c1.3-2.6,2.5-5.2,3.5-7.8
			c6.9-17.5,8.9-35.6,32.3-56.5c3.5-3.2,6.9-5.8,10.2-8.1c6.5-4.5,12.7-7.5,18.8-10c13.8-5.5,27.9-8.4,47.9-20.4
			c41.8-25.1,56-58.1,72.6-82.9c2-3,4-5.9,6.1-8.6c1.5-2,3.1-3.9,4.8-5.8C492.9,781.8,530,775,584,773.6c2.6-0.1,5.3-0.1,8-0.2
			c31.3-0.5,68.1,0.4,111.6-0.5c2.7-0.1,5.3-0.1,8-0.2c37.5-0.9,79.9-3.3,127.9-9c0.2,0,0.5,0,0.7-0.1c2.5-0.3,4.9-0.6,7.3-0.9
			c53.3-6.7,95.6-15.3,130.2-22.6c2.7-0.6,5.4-1.1,8-1.7c65.2-13.7,101.7-21.1,133.6,3.4c1.4,1.1,2.8,2.2,4.2,3.4c1.1,1,2.3,2,3.3,3
			c27.2,25.9,36.3,64.7,39,99.7c0.2,2.7,0.4,5.4,0.5,8C1167.2,874.3,1166.5,891.1,1166,903.9z"/>
		<g>
			<g class="st4">
				<path class="st2" d="M1028,416.5v230.1H553.8V453c1.8-0.8,3.7-1.6,5.5-2.3c26.9-11.4,54.6-20.8,82.1-28.7
					c6.7-1.9,13.3-3.8,20-5.5H1028z"/>
				<path class="st5" d="M1028,411H683.2c-7.2,1.7-14.5,3.6-21.9,5.5c-6.6,1.7-13.3,3.6-20,5.5h381.1v219.1H559.3V450.7
					c-1.8,0.8-3.7,1.5-5.5,2.3c-1.8,0.8-3.7,1.6-5.5,2.4v191.2c0,3,2.5,5.5,5.5,5.5H1028c3,0,5.5-2.5,5.5-5.5V416.5
					C1033.5,413.5,1031,411,1028,411z"/>
			</g>
			<g id="stickers">
				
					<rect x="595.1" y="442.9" transform="matrix(0.9971 7.649400e-02 -7.649400e-02 0.9971 37.6964 -46.1462)" class="st6" width="52.2" height="52.2"/>
				
					<rect x="669.3" y="442.9" transform="matrix(0.9925 0.1225 -0.1225 0.9925 62.7102 -81.681)" class="st0" width="52.2" height="52.2"/>
				<rect x="740.6" y="442.9" class="st0" width="52.2" height="52.2"/>
				
					<rect x="596.6" y="521.4" transform="matrix(0.9959 -8.996757e-02 8.996757e-02 0.9959 -46.7305 58.2418)" class="st6" width="52.2" height="52.2"/>
				<rect x="670.8" y="528.1" class="st6" width="52.2" height="52.2"/>
				<rect x="742.1" y="521.4" class="st0" width="52.2" height="52.2"/>
				
					<rect x="814.6" y="447.5" transform="matrix(0.9807 -0.1957 0.1957 0.9807 -76.4307 173.6889)" class="st6" width="52.2" height="52.2"/>
			</g>
		</g>
		<path class="st3" d="M1121.2,645.8c-17.1,24.6-54.1,59.8-274.6,77.9c-241.2,19.8-339.4-10.6-415.5,63.5
			c-41.6,40.4-50.5,86.6-67.9,82.7c-28.1-6.3-48.8-136.8-3.4-241.6c36-83.2,108-137,188.5-172.9c1.8-0.8,3.7-1.6,5.5-2.4
			c1.8-0.8,3.7-1.6,5.5-2.3c26.9-11.4,54.6-20.8,82.1-28.7c6.7-1.9,13.3-3.8,20-5.5c7.3-1.9,14.6-3.8,21.9-5.5
			c57.7-13.8,112.1-21.7,153.4-27.7c30.1-4.4,118.7-15.3,213.8,21.9c47.9,18.8,64.3,36.8,71.4,45.8
			C1164.1,504.3,1157.6,593.6,1121.2,645.8z"/>
		<path id="figure1" class="st0" d="M389.4,63c10,3.3,63.6,22.2,81.6,70c34.3,91-126.4,145.9-177.8,323.2
			c-35,120.9,20.5,158.3-13.6,383.1c-15.4,101.7-23.1,152.6-43.2,155.7c-70.6,11-335-519.3-138.7-787.1
			C154.6,130.5,284,28.4,389.4,63z"/>
		<g>
			<path class="st7" d="M181.9,306.6c-12.7,34.5,48.4-16.8,67.6,21.4c19.2,38.2-94.4,72.9-90.9,105.3s65.8-26.9,53.8,25.5
				c-7.3,31.8-47.6,74.9-78.2,103.8h28.5l-9.2,31.7v0l-0.4,1.2l-2.1,7.3c2.3,4.8,4.9,10.3,7.7,16.4c5.5,12.1,11.9,26.6,18.5,43.2
				c0.1,0.2,0.2,0.4,0.2,0.5c1.8,4.6,3.6,9,5.4,13.3c2.6,6.4,5,12.5,7.3,18.3v0c3.5,8.9,6.7,17.1,9.7,24.9
				c14.8,39.2,21.8,64.7,19.5,86.9c-0.1,1.1-0.3,2.3-0.4,3.4c-2.1,13.8-7.4,26.2-14.9,37.3c-1.8,2.7-3.8,5.3-5.9,7.8
				c-8.6,10.3-19.2,19.2-31,26.6c-6.9,4.4-14.2,8.3-21.8,11.7c-29.7-53.5-59.8-123.9-82.3-201.2c-4.2-14.5-8.1-29.2-11.8-44
				C14.3,496.2,11,326.4,97.8,207.9c30.5-41.7,82.1-90.5,139.7-121.3c6.2,3.1,8.3,9.5,4.9,19.5C225.5,155.3,174,209.6,205.2,210
				c31.2,0.4,67.1-48,73.1,0.2C284.2,258.4,194.6,272,181.9,306.6z"/>
			<path class="st8" d="M75.5,671.2c0,9-5.1,16.8-12.6,20.7c-4.2-14.5-8.1-29.2-11.8-44c0.3,0,0.7,0,1,0
				C65,647.8,75.5,658.3,75.5,671.2z"/>
			<path class="st8" d="M162.6,562.7l-9.2,31.7v0l-0.4,1.2c-6.5-4.1-10.8-11.4-10.8-19.7c0-4.9,1.5-9.5,4.1-13.2H162.6z"/>
			<path class="st8" d="M219.1,806.4c-0.1,1.1-0.3,2.3-0.4,3.4c-2.1,13.8-7.4,26.2-14.9,37.3c-4.7-4.3-7.7-10.5-7.7-17.3
				C196.1,817,206.4,806.6,219.1,806.4z"/>
			<circle class="st8" cx="130.4" cy="806.4" r="23.3"/>
			<path class="st8" d="M199.7,719.6c-3.2,1.7-6.9,2.6-10.8,2.6c-12.9,0-23.3-10.5-23.3-23.3c0-10.7,7.2-19.8,17.1-22.5
				c2.6,6.4,5,12.5,7.3,18.3v0C193.5,703.6,196.8,711.8,199.7,719.6z"/>
		</g>
		<path class="st3" d="M293.2,456.2c-35,120.9,20.5,158.2-13.6,383.1C264.2,941,256.5,991.9,236.5,995
			c-19.9,3.1-55.3-36.9-91.3-101.9c-29.7-53.5-59.8-123.9-82.3-201.2c-4.2-14.5-8.1-29.2-11.8-44C14.3,496.2,11,326.4,97.8,207.9
			c30.5-41.7,82.1-90.5,139.7-121.3C286.9,60.2,340.7,47,389.4,63c10,3.3,63.6,22.2,81.6,70C505.3,224,344.6,278.9,293.2,456.2z"/>
		<g>
			<path class="st7" d="M627.3,258.2c0,48.1-39,87.2-87.2,87.2c-38.4,0-71-24.8-82.6-59.3c24.1-28,51.3-55.6,81.1-81.2
				c1-0.9,2-1.7,3-2.6c10.1-8.6,20.5-16.9,31.2-24.9C604.8,190.3,627.3,221.6,627.3,258.2z"/>
			<path class="st5" d="M601.8,258.2c0,0.8-0.7,1.5-1.5,1.5h-60.1c-0.8,0-1.5-0.7-1.5-1.5v-53.4c1-0.9,2-1.7,3-2.6v54.4h58.6
				C601.2,256.7,601.8,257.4,601.8,258.2z"/>
		</g>
		<path class="st3" d="M1160.1,278.9c-47.6,82.4-196.5,51-352.9,68.8c-301.9,34.5-442.3,231.2-473.7,196.8
			c-22.1-24.2,26.4-145,124.1-258.5c24.1-28,51.3-55.6,81.1-81.2c1-0.9,2-1.7,3-2.6c10.1-8.6,20.5-16.9,31.2-24.9
			c70-52.7,152.5-92.7,244-103.3c125.5-14.6,320.3,20.1,352.1,120C1169.7,196.8,1182.7,239.7,1160.1,278.9z"/>
		<g id="docs">
			<g>
				<path class="st6" d="M1114.1,127.6v78.8h-51V102C1081.8,109.2,1099.1,117.7,1114.1,127.6z"/>
				<circle class="st7" cx="1088.6" cy="185.1" r="11.2"/>
			</g>
			<g>
				<path class="st6" d="M1000.6,83.5v122.9h-51V74.7C966.8,76.9,983.9,79.8,1000.6,83.5z"/>
				<circle class="st7" cx="975.1" cy="185.1" r="11.2"/>
			</g>
			<path class="st6" d="M908.3,71v135.4h-51V70.3C873.8,69.8,890.9,70,908.3,71z"/>
			<circle class="st7" cx="882.8" cy="185.1" r="11.2"/>
			<path class="st6" d="M851.3,70.5v135.9h-51V75.5c5.5-0.8,11-1.6,16.5-2.2C827.8,71.9,839.3,71,851.3,70.5z"/>
			<circle class="st7" cx="825.8" cy="185.1" r="11.2"/>
			<g>
				<path class="st6" d="M1057.8,100v106.4h-51V84.9C1024.5,89,1041.7,94,1057.8,100z"/>
				<circle class="st7" cx="1032.3" cy="185.1" r="11.2"/>
			</g>
			<path id="shelf" class="st9" d="M1134,222.5H779.2c-3.1,0-5.5-2.5-5.5-5.5v-11.2c0-3.1,2.5-5.5,5.5-5.5H1134
				c3.1,0,5.5,2.5,5.5,5.5V217C1139.5,220,1137,222.5,1134,222.5z"/>
		</g>
		<path class="st3" d="M1160.1,278c-47.6,82.4-196.5,51-352.9,68.8c-301.9,34.5-442.3,231.2-473.7,196.8
			c-40.9-44.8,160-420.2,466.7-468.2c5.5-0.8,11-1.6,16.5-2.2c11-1.3,22.5-2.2,34.5-2.7c2-0.1,4-0.2,6.1-0.2
			c16.5-0.5,33.6-0.3,51,0.7c13.7,0.8,27.5,2,41.3,3.7c17.2,2.1,34.3,5,51,8.7c2.1,0.5,4.2,0.9,6.2,1.4c17.7,4.1,34.9,9.1,51,15.1
			c1.8,0.7,3.5,1.3,5.3,2c18.7,7.2,36,15.8,51,25.6c26.7,17.5,46.4,39.3,54.8,65.6C1169.7,196,1182.7,238.9,1160.1,278z"/>
	</g>
</g>
<g id="main">
	<g id="general_1_">
		<g id="chair">
			<path class="st5" d="M1016,760.3l-12.7,226h-10.6l-10.5-182.1c-9.2,7.4-19.3,13.4-30.1,18.1c-0.3,0.1-0.6,0.2-0.9,0.4
				c-0.6,0.2-1.1,0.5-1.7,0.7c-3.5,1.4-7,2.7-10.5,3.9l-7.3,130.3h-10.6L913.9,833c-0.8,0.1-1.6,0.2-2.3,0.3
				c-1.1,0.1-2.2,0.2-3.2,0.4c0,0,0,0,0,0c-1,0.1-2,0.2-2.9,0.3c-1.7,0.1-3.2,0.2-4.5,0.3c-0.4,0-0.8,0-1.2,0.1c-0.2,0-0.5,0-0.7,0
				l-12.2,217.2h-10.6l-12.8-220.1c-5.9-1.2-11.7-2.9-17.4-4.9c-0.3-0.1-0.6-0.2-0.9-0.3c-2-0.7-3.9-1.5-5.8-2.3
				c-4-1.7-8.9-3.7-13.9-6.2l-9.3,165.3h-10.6l-11.2-192.8c-0.7-1.8-1.3-3.7-1.7-5.7c-0.9-4.6-0.6-9.4,0.5-14.2l-1.1-18.3h9.7
				c14.5-20.9,43-39.6,69.8-45.9c4.5-1,9-1.8,13.6-2.2c-4.6-60.6-11.6-164.1,14.7-188.2c31.5-28.9,139.9-19.2,172.5,9.3
				c5.5,4.8,8.9,10.2,9.3,16.1C1084.3,575.8,1030.6,721.4,1016,760.3z"/>
			<path class="st10" d="M1016,760.3l-12.7,226h-10.6l-10.5-182.1c30.2-31.9,79.2-232.2,90.4-279.2c5.5,4.8,8.9,10.2,9.3,16.1
				C1084.3,575.8,1030.6,721.4,1016,760.3z"/>
			<polygon class="st11" points="794.5,790.2 825.5,817.7 816.3,983.1 805.7,983.1 			"/>
			<path class="st12" d="M899,834.3l-12.2,217.2h-10.6l-12.8-220.1C857.6,830.1,890,834.6,899,834.3z"/>
			<path class="st13" d="M949.5,823.4c-3.5,1.4-7,2.7-10.5,3.9l-7.3,130.3h-10.6L913.9,833C928.7,830.9,940.8,827,949.5,823.4z"/>
			<path class="st12" d="M807.8,774.8c0,0,64.8,31.5,97.5,31c32.7-0.5,70.1-1.5,76.9-28.3c6.8-26.7,2.1-63.1,2.1-63.1L807.8,774.8z"
				/>
		</g>
		<g id="woman">
			<g id="hand_back_1_">
				<path class="st14" d="M813.4,560.8l-10.8,5.4c-0.5-2.8-1.5-5.4-3.5-7.2c-0.1-0.1-0.2-0.2-0.3-0.3c-1.1-0.9-2.5-1.5-3.9-1.8
					c-5.1-1.2-11.8,0.6-19.4,2.6c-9.5,2.5-14.5,4.6-19.2,4.8c-0.5,0-1,0-1.5,0c-11.8-0.5-18.5-7.4-19.1-9c-0.1-0.2-0.2-0.7,0-0.9
					c0.5-0.6,2.4,0.1,3.4,0.6c-2-2.2-3.8-4.7-3.2-5.9c0.6-1.3,3.4,1.3,6,4.1c-0.9-1.3-1.4-2.5-1.1-3.2c1-2.2,8.5,7,10.2,9.1
					c1.3,0.2,2.7,0.3,4.2,0.2c1-0.1,1.9-0.3,2.8-0.5c0,0,0.1,0,0.3-0.1c0.2-0.1,0.5-0.2,0.7-0.2c0.1,0,0.2-0.1,0.2-0.1
					c3.1-1.2,6.1-3.5,10-6.5c2.4-1.8,4.3-3.6,5.6-4.8c0.1-0.1,0.1-0.1,0.2-0.2c-4.5-1.3-8-1.5-10.4-1.3c-1.5,0.1-4.1,0.4-6.1-1.2
					c-0.5-0.4-1.4-1.2-1.3-1.9c0.5-2.2,11.4-1.6,19.2-1.1c0.8,0,8.4,0.4,15.8,2.3c1,0.2,1.8,0.5,2.7,0.8c1.7,0.6,4.7,1.8,8.2,4.2
					c0.5,0.3,0.9,0.7,1.4,1c0.7,0.6,1.5,1.2,2.3,1.9l3.8,4.9C811.5,557.6,812.4,559.2,813.4,560.8z"/>
				<path class="st15" d="M926.2,486.2c-10.7,65.7-21,113.5-24.9,128.4c-1.4,5.4-5.8,21.5-18,31.1c-2.3,1.8-15.4,12.2-30.2,9.7
					c-23-3.8-35.8-36.6-50-73.2c-4-10.3-6.8-19.1-8.7-25.4c3.9-2,7.9-4,11.8-6c1.9,1.8,4.2,4.2,6.7,7c3.6,4.2,6.1,7.7,7.2,9.2
					c4.1,6,6.9,11.4,11,19.6c0.2,0.5,0.4,0.8,0.5,1c0.5,1,17.1,33.9,26.2,32.9c12.2-1.4,13.4-64.4,32.6-103.6
					c4.9-9.9,12.5-21.7,25.8-27.6C920.2,487.5,923.8,486.6,926.2,486.2z"/>
				<path class="st16" d="M926.2,486.2c-10.7,65.7-21,113.5-24.9,128.4c-1.4,5.4-5.8,21.5-18,31.1c-2.3,1.8-15.4,12.2-30.2,9.7
					c-6.7-1.1-12.5-4.7-17.8-10.1c-12.8-13.2-22.1-37.2-32.2-63.1c-4-10.3-6.8-19.1-8.7-25.4c1.6-0.8,3.1-1.6,4.7-2.4
					c2.4-1.2,4.7-2.4,7.1-3.6c1.9,1.8,4.2,4.2,6.7,7c3.6,4.2,6.1,7.7,7.2,9.2c4.1,6,6.9,11.4,11,19.6c0.2,0.5,0.4,0.8,0.5,1
					c0.5,1,17.1,34,26.2,32.9c12.2-1.4,13.4-64.4,32.6-103.6c4.9-9.9,12.5-21.7,25.8-27.6C920.2,487.5,923.8,486.6,926.2,486.2z"/>
				<linearGradient id="SVGID_1_" gradientUnits="userSpaceOnUse" x1="794.4467" y1="599.8661" x2="844.4732" y2="599.8661">
					<stop  offset="0" style="stop-color:#5A142A;stop-opacity:0.2"/>
					<stop  offset="1" style="stop-color:#FC860A;stop-opacity:0.2"/>
				</linearGradient>
				<path class="st17" d="M844.5,642.5l-9.1,2.8c-12.8-13.2-22.1-37.2-32.2-63.1c-4-10.3-6.8-19.1-8.7-25.4c1.6-0.8,3.1-1.6,4.7-2.4
					L844.5,642.5z"/>
				<path class="st18" d="M813.4,560.8l-10.8,5.4c-0.5-2.8-1.5-5.4-3.5-7.2c-0.1-0.1-0.2-0.2-0.3-0.3c-1.1-0.9-2.5-1.5-3.9-1.8
					c-5.1-1.2-11.8,0.6-19.4,2.6c-9.5,2.5-14.5,4.6-19.2,4.8l46.9-15.8c0.5,0.3,0.9,0.7,1.4,1c0.7,0.6,1.5,1.2,2.3,1.9l3.8,4.9
					C811.5,557.6,812.4,559.2,813.4,560.8z"/>
				<linearGradient id="SVGID_2_" gradientUnits="userSpaceOnUse" x1="759.2639" y1="552.4982" x2="778.3047" y2="552.4982">
					<stop  offset="0" style="stop-color:#E2C8C0"/>
					<stop  offset="1" style="stop-color:#DD8093;stop-opacity:0.4"/>
				</linearGradient>
				<path class="st19" d="M778.3,548.4c-0.4,3.1-14.6,8.2-19,9.7c3.1-1.2,6.1-3.5,10-6.5c2.4-1.8,4.3-3.6,5.6-4.8
					C776.9,546.7,778.5,547,778.3,548.4z"/>
			</g>
			<g id="neck_1_">
				<path class="st14" d="M968.7,441.9l-4.8,23.1L929,472l-1.9-14.7c3.1-3.6,14.4-16,31.3-16.6C962.2,440.7,965.7,441.2,968.7,441.9
					z"/>
				<path class="st18" d="M968.7,441.9l-4.8,23.1L929,472l-1.9-14.7c3.1-3.6,14.4-16,31.3-16.6C962.2,440.7,965.7,441.2,968.7,441.9
					z"/>
			</g>
			<g id="body">
				<path class="st20" d="M1060.7,621.6L1060.7,621.6c0-0.5-0.1-1-0.1-1.5c-0.4-4.2-1.1-8.9-2.1-14c-0.2-1-0.4-2-0.6-3
					c-1-5.1-2.2-10.7-3.6-16.7v0c-0.1-0.5-0.2-0.9-0.3-1.4v0c-2.5-10.8-5.6-23-9.1-36.8c-1.5-5.9-3.1-11.9-5.2-17.9
					c-0.2-0.5-0.4-1.1-0.6-1.6c-1.7-4.8-3.8-9.6-6.2-14.3c-0.8-1.6-1.7-3.2-2.7-4.8c-3.4-5.6-7.5-10.9-12.6-15.9
					c-0.8-0.8-1.6-1.5-2.4-2.3c-0.5-0.5-1.1-1-1.6-1.4c-4.6-4-8.9-6.7-11.9-8.5c-0.3-0.1-0.6-0.2-0.9-0.4c-4.2-1.6-10.1-3.4-17.4-4
					c-2.2-0.2-4-0.2-5.9-0.1c0,0,0,0,0-0.1c0.2-1.6,0-3-0.3-4c-0.8-2.3-1.4-3.6-2-5c-1.8-4-0.1-6.3-0.7-9.9c-0.4-2.5-2-5.8-7.2-9.3
					c-2.2,1.3-5.6,3.1-9.9,4.5c-2.9,0.9-6.2,1.7-9.8,2.1c-8.3,0.8-15.1-0.7-19-1.9c-1,1.5-2.3,3.8-2.8,7c-0.5,3.2,0.2,4.8,0.1,8.5
					c-0.1,2.9-0.6,4.5-1.2,6.4c-0.2,0.7-0.4,1.4-0.6,2.3c0,0.2-0.1,0.3-0.1,0.5c-0.4,2.1-0.6,4.8-0.3,8c0,0.2,0,0.5,0.1,0.8
					c0,0,0,0,0,0c-4.8,3.5-8.2,9.3-14.8,21c-0.1,0.2-0.2,0.3-0.3,0.5v0c-0.5,0.8-0.9,1.6-1.3,2.3c-2.8,5.1-4.8,9.5-7.6,15.7
					c0,0,0,0,0,0c-0.6,1.4-1.3,2.8-2,4.4c-0.3,0.8-0.7,1.5-1,2.2c-0.5,1-0.9,2.1-1.4,3.1c-2.6,5.8-4.7,10.3-6.3,14
					c-0.4,0.9-0.8,1.7-1.1,2.5c-1,2.1-1.7,3.8-2.4,5.3c-0.5,1-0.9,1.9-1.2,2.7c-0.6,1.3-1.1,2.3-1.4,3.1c-0.9,2.1-1.3,3.1-1.7,4.8
					c-2.6,9.3-3,17.8-2.8,24.7c0,0.1,0,0.3,0,0.4c0.2,5.7,0.9,10.5,1.1,13.9c0.1,0.7,0.1,1.4,0.2,2.2c0,0,0,0,0,0c0.1,1,0.1,2,0.2,3
					c0.2,4.3,0.4,9.2,0.5,14.7c0,1,0,2,0,3.1c0,4.5-0.1,9.3-0.3,14.6c0,1.6-0.1,3.2-0.2,4.8c-0.2,4.3-0.4,8.9-0.8,13.8v0
					c0,0.6-0.1,1.2-0.1,1.7c-0.9,13.6-2.4,29.4-4.5,47.8v0c-0.3,2.5-0.6,5.1-0.9,7.8c-0.2,1.8-0.5,3.7-0.7,5.6
					c10.7-0.5,21.4-0.9,32.1-1.4c0.6,0,1.2-0.1,1.8-0.1c4-0.2,7.9-0.3,11.9-0.5c2.2-0.1,4.4-0.2,6.6-0.3c3.9-0.2,7.9-0.4,11.8-0.5
					c0,0,0,0,0,0c0.6,0,1.2,0,1.8-0.1c12-0.5,24-1.1,36-1.6c1.6-5.9,3.1-11.7,4.6-17.4c0.2-0.9,0.5-1.8,0.7-2.7
					c0.6-2.3,1.2-4.6,1.8-6.8c2.6-10.1,5.1-19.9,7.5-29.4c0.3-1.2,0.6-2.4,0.9-3.7v0c1.2-4.9,2.5-9.8,3.6-14.5
					c2.4,1,5.3,2.1,8.6,3.2c0.5,0.2,1.1,0.4,1.6,0.6c1.5,0.5,3.1,1,4.8,1.4c3.5,1,7.2,1.9,11,2.6c0,0,0,0,0,0
					c5,0.9,10.2,1.3,15.1,1.1c0.5,0,1-0.1,1.5-0.1c6.6-0.6,12.8-2.6,17.5-6.8c2.1-1.8,3.6-4.1,4.7-6.8
					C1061,637.3,1061.4,630.5,1060.7,621.6z M1001.8,615.7c0-0.1,0-0.1,0-0.2c0.2-0.7,0.3-1.4,0.5-2.1c0.2-0.7,0.4-1.5,0.5-2.2
					c0-0.1,0-0.2,0.1-0.2c0-0.1,0-0.2,0.1-0.3c1.8-7.5,3.5-14.8,5.2-21.9c0-0.1,0-0.2,0.1-0.3c0.4-1.7,0.8-3.4,1.2-5
					c0,0.1,0.1,0.2,0.1,0.2c8.8,17,14.8,27.4,10.4,32.3c-1,1.1-2.2,1.7-4.5,1.8c-0.2,0-0.3,0-0.5,0
					C1012.3,618,1008.2,617.2,1001.8,615.7z"/>
				<g class="st21">
					<g>
						<path class="st22" d="M934.9,465.1c0.4-0.6,1.2-1.8,2.7-2.6c1-0.6,1.9-0.8,2.5-1c-0.6-0.4-1.6-1.2-2.4-2.4
							c-0.7-1.1-1-2.1-1.2-2.7c-0.4,0.6-1.1,1.6-2.3,2.4c-1.1,0.8-2.2,1.1-2.9,1.2c0.6,0.5,1.5,1.3,2.2,2.4
							C934.2,463.4,934.6,464.4,934.9,465.1z"/>
						<path class="st22" d="M950.5,467.4c0.4-0.6,1.2-1.8,2.7-2.6c1-0.6,1.9-0.8,2.5-1c-0.6-0.4-1.6-1.2-2.4-2.4
							c-0.7-1.1-1-2.1-1.2-2.7c-0.4,0.6-1.1,1.6-2.3,2.4c-1.1,0.8-2.2,1.1-2.9,1.2c0.6,0.5,1.5,1.3,2.2,2.4
							C949.8,465.7,950.2,466.6,950.5,467.4z"/>
						<path class="st22" d="M966,469.4c0.4-0.6,1.2-1.8,2.7-2.6c1-0.6,1.9-0.8,2.5-1c-0.6-0.4-1.6-1.2-2.4-2.4
							c-0.7-1.1-1-2.1-1.2-2.7c-0.4,0.6-1.1,1.6-2.3,2.4c-1.1,0.8-2.2,1.1-2.9,1.2c0.6,0.5,1.5,1.3,2.2,2.4
							C965.4,467.7,965.8,468.7,966,469.4z"/>
						<path class="st22" d="M926.5,477.1c-0.6,0.1-1.5,0.4-2.5,1c0,0-0.1,0-0.1,0.1c0-0.2,0.1-0.3,0.1-0.5c0.2-0.8,0.4-1.6,0.6-2.3
							C925.3,476.1,926,476.7,926.5,477.1z"/>
						<path class="st22" d="M939.6,474.8c-0.4,0.6-1.1,1.6-2.3,2.4c-1.1,0.8-2.2,1.1-2.9,1.2c0.6,0.5,1.5,1.3,2.2,2.4
							c0.7,1,1.1,2,1.4,2.7c0.4-0.6,1.2-1.8,2.7-2.6c1-0.6,1.9-0.8,2.5-1c-0.6-0.4-1.6-1.2-2.4-2.4
							C940.1,476.5,939.8,475.5,939.6,474.8z"/>
						<path class="st22" d="M955.2,477.1c-0.4,0.6-1.1,1.6-2.3,2.4c-1.1,0.8-2.2,1.1-2.9,1.2c0.6,0.5,1.5,1.3,2.2,2.4
							c0.7,1,1.1,2,1.4,2.7c0.4-0.6,1.2-1.8,2.7-2.6c1-0.6,1.9-0.8,2.5-1c-0.6-0.4-1.6-1.2-2.4-2.4
							C955.7,478.7,955.4,477.7,955.2,477.1z"/>
						<path class="st22" d="M970.8,479.1c-0.4,0.6-1.1,1.6-2.3,2.4c-1.1,0.8-2.2,1.1-2.9,1.2c0.6,0.5,1.5,1.3,2.2,2.4
							c0.7,1,1.1,2,1.4,2.7c0.4-0.6,1.2-1.8,2.7-2.6c1-0.6,1.9-0.8,2.5-1c-0.6-0.4-1.6-1.2-2.4-2.4
							C971.3,480.8,970.9,479.8,970.8,479.1z"/>
						<path class="st22" d="M986.4,481.4c-0.4,0.6-1.1,1.6-2.3,2.4c-1.1,0.8-2.2,1.1-2.9,1.2c0.6,0.5,1.5,1.3,2.2,2.4
							c0.7,1,1.1,2,1.4,2.7c0.4-0.6,1.2-1.8,2.7-2.6c1-0.6,1.9-0.8,2.5-1c-0.6-0.4-1.6-1.2-2.4-2.4C986.9,483,986.6,482,986.4,481.4
							z"/>
						<path class="st22" d="M1002.1,484.5c-0.4,0.6-1.1,1.6-2.3,2.4c-1.1,0.8-2.2,1.1-2.9,1.2c0.6,0.5,1.5,1.3,2.2,2.4
							c0.7,1,1.1,2,1.4,2.7c0.4-0.6,1.2-1.8,2.7-2.6c1-0.6,1.9-0.8,2.5-1c-0.6-0.4-1.6-1.2-2.4-2.4
							C1002.6,486.2,1002.3,485.2,1002.1,484.5z"/>
						<path class="st22" d="M1017.6,493.8c-0.7,0.6-1.2,1.3-1.5,1.7c-0.3-0.7-0.7-1.7-1.4-2.7c-0.8-1.1-1.6-1.9-2.2-2.4
							c0.3-0.1,0.6-0.1,1-0.3c0.5,0.5,1.1,0.9,1.6,1.4C1016,492.2,1016.8,493,1017.6,493.8z"/>
						<path class="st22" d="M925.8,493c-0.7-1.1-1-2.1-1.2-2.7c-0.4,0.6-1.1,1.6-2.3,2.4c-1.1,0.8-2.2,1.1-2.9,1.2
							c0.6,0.5,1.5,1.3,2.2,2.4c0.7,1,1.1,2,1.4,2.7c0.4-0.6,1.2-1.8,2.7-2.6c1-0.6,1.9-0.8,2.5-1C927.6,495,926.6,494.3,925.8,493z
							"/>
						<path class="st22" d="M938.7,501.2c0.4-0.6,1.2-1.8,2.7-2.6c1-0.6,1.9-0.8,2.5-1c-0.6-0.4-1.6-1.2-2.4-2.4
							c-0.7-1.1-1-2.1-1.2-2.7c-0.4,0.6-1.1,1.6-2.3,2.4c-1.1,0.8-2.2,1.1-2.9,1.2c0.6,0.5,1.5,1.3,2.2,2.4
							C938,499.6,938.4,500.5,938.7,501.2z"/>
						<path class="st22" d="M954.2,503.3c0.4-0.6,1.2-1.8,2.7-2.6c1-0.6,1.9-0.8,2.5-1c-0.6-0.4-1.6-1.2-2.4-2.4
							c-0.7-1.1-1-2.1-1.2-2.7c-0.4,0.6-1.1,1.6-2.3,2.4c-1.1,0.8-2.2,1.1-2.9,1.2c0.6,0.5,1.5,1.3,2.2,2.4
							C953.6,501.6,954,502.6,954.2,503.3z"/>
						<path class="st22" d="M969.8,505.5c0.4-0.6,1.2-1.8,2.7-2.6c1-0.6,1.9-0.8,2.5-1c-0.6-0.4-1.6-1.2-2.4-2.4
							c-0.7-1.1-1-2.1-1.2-2.7c-0.4,0.6-1.1,1.6-2.3,2.4c-1.1,0.8-2.2,1.1-2.9,1.2c0.6,0.5,1.5,1.3,2.2,2.4
							C969.2,503.8,969.6,504.8,969.8,505.5z"/>
						<path class="st22" d="M985.5,508.7c0.4-0.6,1.2-1.8,2.7-2.6c1-0.6,1.9-0.8,2.5-1c-0.6-0.4-1.6-1.2-2.4-2.4
							c-0.7-1.1-1-2.1-1.2-2.7c-0.4,0.6-1.1,1.6-2.3,2.4c-1.1,0.8-2.2,1.1-2.9,1.2c0.6,0.5,1.5,1.3,2.2,2.4
							C984.9,507,985.3,508,985.5,508.7z"/>
						<path class="st22" d="M1001.2,511c0.4-0.6,1.2-1.8,2.7-2.6c1-0.6,1.9-0.8,2.5-1c-0.6-0.4-1.6-1.2-2.4-2.4
							c-0.7-1.1-1-2.1-1.2-2.7c-0.4,0.6-1.1,1.6-2.3,2.4c-1.1,0.8-2.2,1.1-2.9,1.2c0.6,0.5,1.5,1.3,2.2,2.4
							C1000.5,509.3,1000.9,510.2,1001.2,511z"/>
						<path class="st22" d="M1016.7,513c0.4-0.6,1.2-1.8,2.7-2.6c1-0.6,1.9-0.8,2.5-1c-0.6-0.4-1.6-1.2-2.4-2.4
							c-0.7-1.1-1-2.1-1.2-2.7c-0.4,0.6-1.1,1.6-2.3,2.4c-1.1,0.8-2.2,1.1-2.9,1.2c0.6,0.5,1.5,1.3,2.2,2.4
							C1016,511.3,1016.5,512.3,1016.7,513z"/>
						<path class="st22" d="M1032.9,514.5c-0.2,0.3-0.4,0.6-0.6,0.8c-0.3-0.7-0.7-1.7-1.4-2.7c-0.8-1.1-1.6-1.9-2.2-2.5
							c0.4-0.1,0.9-0.2,1.4-0.4C1031.2,511.2,1032.1,512.8,1032.9,514.5z"/>
						<path class="st22" d="M914.7,510.9c-0.6,0.1-1.5,0.4-2.5,1c-1.4,0.9-2.3,2-2.7,2.6c-0.3-0.7-0.7-1.7-1.3-2.7
							c-0.3-0.4-0.6-0.8-0.9-1.1c0.4-0.8,0.8-1.5,1.3-2.3v0c0.1,0,0.2-0.1,0.2-0.2c1.2-0.8,1.9-1.8,2.3-2.4c0.2,0.7,0.5,1.7,1.2,2.7
							C913.1,509.8,914.1,510.5,914.7,510.9z"/>
						<path class="st22" d="M927.8,508.7c-0.4,0.6-1.1,1.6-2.3,2.4c-1.1,0.8-2.2,1.1-2.9,1.2c0.6,0.5,1.5,1.3,2.2,2.4
							c0.7,1,1.1,2,1.4,2.7c0.4-0.6,1.2-1.8,2.7-2.6c1-0.6,1.9-0.8,2.5-1c-0.6-0.4-1.6-1.2-2.4-2.4
							C928.3,510.4,928,509.4,927.8,508.7z"/>
						<path class="st22" d="M943.4,510.9c-0.4,0.6-1.1,1.6-2.3,2.4c-1.1,0.8-2.2,1.1-2.9,1.2c0.6,0.5,1.5,1.3,2.2,2.4
							c0.7,1,1.1,2,1.4,2.7c0.4-0.6,1.2-1.8,2.7-2.6c1-0.6,1.9-0.8,2.5-1c-0.6-0.4-1.6-1.2-2.4-2.4
							C943.9,512.6,943.6,511.6,943.4,510.9z"/>
						<path class="st22" d="M959,513c-0.4,0.6-1.1,1.6-2.3,2.4c-1.1,0.8-2.2,1.1-2.9,1.2c0.6,0.5,1.5,1.3,2.2,2.4
							c0.7,1,1.1,2,1.4,2.7c0.4-0.6,1.2-1.8,2.7-2.6c1-0.6,1.9-0.8,2.5-1c-0.6-0.4-1.6-1.2-2.4-2.4C959.5,514.7,959.1,513.7,959,513
							z"/>
						<path class="st22" d="M974.6,515.2c-0.4,0.6-1.1,1.6-2.3,2.4c-1.1,0.8-2.2,1.1-2.9,1.2c0.6,0.5,1.5,1.3,2.2,2.4
							c0.7,1,1.1,2,1.4,2.7c0.4-0.6,1.2-1.8,2.7-2.6c1-0.6,1.9-0.8,2.5-1c-0.6-0.4-1.6-1.2-2.4-2.4
							C975.1,516.9,974.8,515.9,974.6,515.2z"/>
						<path class="st22" d="M990.3,518.4c-0.4,0.6-1.1,1.6-2.3,2.4c-1.1,0.8-2.2,1.1-2.9,1.2c0.6,0.5,1.5,1.3,2.2,2.4
							c0.7,1,1.1,2,1.4,2.7c0.4-0.6,1.2-1.8,2.7-2.6c1-0.6,1.9-0.8,2.5-1c-0.6-0.4-1.6-1.2-2.4-2.4
							C990.8,520.1,990.5,519.1,990.3,518.4z"/>
						<path class="st22" d="M1005.9,520.6c-0.4,0.6-1.1,1.6-2.3,2.4c-1.1,0.8-2.2,1.1-2.9,1.2c0.6,0.5,1.5,1.3,2.2,2.4
							c0.7,1,1.1,2,1.4,2.7c0.4-0.6,1.2-1.8,2.7-2.6c1-0.6,1.9-0.8,2.5-1c-0.6-0.4-1.6-1.2-2.4-2.4
							C1006.4,522.3,1006.1,521.3,1005.9,520.6z"/>
						<path class="st22" d="M1021.5,522.7c-0.4,0.6-1.1,1.6-2.3,2.4c-1.1,0.8-2.2,1.1-2.9,1.2c0.6,0.5,1.5,1.3,2.2,2.4
							c0.7,1,1.1,2,1.4,2.7c0.4-0.6,1.2-1.8,2.7-2.6c1-0.6,1.9-0.8,2.5-1c-0.6-0.4-1.6-1.2-2.4-2.4
							C1021.9,524.4,1021.6,523.4,1021.5,522.7z"/>
						<path class="st22" d="M1039.7,530.4c-0.5,0.2-1,0.4-1.5,0.7c-1.4,0.8-2.3,2-2.7,2.6c-0.3-0.7-0.7-1.7-1.4-2.7
							c-0.8-1.1-1.6-1.9-2.2-2.4c0.7-0.1,1.8-0.4,2.9-1.2c1.2-0.8,1.9-1.8,2.3-2.4c0.2,0.7,0.5,1.7,1.2,2.7c0.3,0.4,0.6,0.8,0.9,1.1
							C1039.3,529.3,1039.5,529.8,1039.7,530.4z"/>
						<path class="st22" d="M899.8,526.4C899.7,526.4,899.7,526.4,899.8,526.4C899.7,526.4,899.7,526.4,899.8,526.4
							C899.7,526.4,899.7,526.4,899.8,526.4z"/>
						<path class="st22" d="M910.2,532.2c0.4-0.6,1.2-1.8,2.7-2.6c1-0.6,1.9-0.8,2.5-1c-0.6-0.4-1.6-1.2-2.4-2.4
							c-0.7-1.1-1-2.1-1.2-2.7c-0.4,0.6-1.1,1.6-2.3,2.4c-1.1,0.8-2.2,1.1-2.9,1.2c0.6,0.5,1.5,1.3,2.2,2.4
							C909.6,530.5,910,531.5,910.2,532.2z"/>
						<path class="st22" d="M926.9,535.1c0.4-0.6,1.2-1.8,2.7-2.6c1-0.6,1.9-0.8,2.5-1c-0.6-0.4-1.6-1.2-2.4-2.4
							c-0.7-1.1-1-2.1-1.2-2.7c-0.4,0.6-1.1,1.6-2.3,2.4c-1.1,0.8-2.2,1.1-2.9,1.2c0.6,0.5,1.5,1.3,2.2,2.4
							C926.2,533.4,926.7,534.4,926.9,535.1z"/>
						<path class="st22" d="M942.5,537.4c0.4-0.6,1.2-1.8,2.7-2.6c1-0.6,1.9-0.8,2.5-1c-0.6-0.4-1.6-1.2-2.4-2.4
							c-0.7-1.1-1-2.1-1.2-2.7c-0.4,0.6-1.1,1.6-2.3,2.4c-1.1,0.8-2.2,1.1-2.9,1.2c0.6,0.5,1.5,1.3,2.2,2.4
							C941.9,535.7,942.3,536.6,942.5,537.4z"/>
						<path class="st22" d="M958,539.4c0.4-0.6,1.2-1.8,2.7-2.6c1-0.6,1.9-0.8,2.5-1c-0.6-0.4-1.6-1.2-2.4-2.4
							c-0.7-1.1-1-2.1-1.2-2.7c-0.4,0.6-1.1,1.6-2.3,2.4c-1.1,0.8-2.2,1.1-2.9,1.2c0.6,0.5,1.5,1.3,2.2,2.4
							C957.4,537.7,957.8,538.7,958,539.4z"/>
						<path class="st22" d="M973.7,541.7c0.4-0.6,1.2-1.8,2.7-2.6c1-0.6,1.9-0.8,2.5-1c-0.6-0.4-1.6-1.2-2.4-2.4
							c-0.7-1.1-1-2.1-1.2-2.7c-0.4,0.6-1.1,1.6-2.3,2.4c-1.1,0.8-2.2,1.1-2.9,1.2c0.6,0.5,1.5,1.3,2.2,2.4
							C973,540,973.4,540.9,973.7,541.7z"/>
						<path class="st22" d="M989.4,544.8c0.4-0.6,1.2-1.8,2.7-2.6c1-0.6,1.9-0.8,2.5-1c-0.6-0.4-1.6-1.2-2.4-2.4
							c-0.7-1.1-1-2.1-1.2-2.7c-0.4,0.6-1.1,1.6-2.3,2.4c-1.1,0.8-2.2,1.1-2.9,1.2c0.6,0.5,1.5,1.3,2.2,2.4
							C988.7,543.1,989.1,544.1,989.4,544.8z"/>
						<path class="st22" d="M1005,547.1c0.4-0.6,1.2-1.8,2.7-2.6c1-0.6,1.9-0.8,2.5-1c-0.6-0.4-1.6-1.2-2.4-2.4
							c-0.7-1.1-1-2.1-1.2-2.7c-0.4,0.6-1.1,1.6-2.3,2.4c-1.1,0.8-2.2,1.1-2.9,1.2c0.6,0.5,1.5,1.3,2.2,2.4
							C1004.3,545.4,1004.7,546.3,1005,547.1z"/>
						<path class="st22" d="M1020.5,549.1c0.4-0.6,1.2-1.8,2.7-2.6c1-0.6,1.9-0.8,2.5-1c-0.6-0.4-1.6-1.2-2.4-2.4
							c-0.7-1.1-1-2.1-1.2-2.7c-0.4,0.6-1.1,1.6-2.3,2.4c-1.1,0.8-2.2,1.1-2.9,1.2c0.6,0.5,1.5,1.3,2.2,2.4
							C1019.9,547.4,1020.3,548.4,1020.5,549.1z"/>
						<path class="st22" d="M1036.1,551.4c0.4-0.6,1.2-1.8,2.7-2.6c1-0.6,1.9-0.8,2.5-1c-0.6-0.4-1.6-1.2-2.4-2.4
							c-0.7-1.1-1-2.1-1.2-2.7c-0.4,0.6-1.1,1.6-2.3,2.4c-1.1,0.8-2.2,1.1-2.9,1.2c0.6,0.5,1.5,1.3,2.2,2.4
							C1035.5,549.7,1035.9,550.6,1036.1,551.4z"/>
						<path class="st22" d="M899.3,539.7c-0.4,0.6-1.1,1.6-2.3,2.4c-1.1,0.8-2.2,1.1-2.9,1.2c0.6,0.5,1.5,1.3,2.2,2.4
							c0.7,1,1.1,2,1.4,2.7c0.4-0.6,1.2-1.8,2.7-2.6c1-0.6,1.9-0.8,2.5-1c-0.6-0.4-1.6-1.2-2.4-2.4
							C899.8,541.4,899.5,540.3,899.3,539.7z"/>
						<path class="st22" d="M914.8,542.5c-0.3,0.6-1,1.5-2.2,2.3c-1.1,0.8-2.2,1.1-2.8,1.2c0.6,0.5,1.4,1.3,2.2,2.4
							c0.7,1,1.1,1.9,1.3,2.7c0.4-0.6,1.2-1.7,2.6-2.6c0.9-0.6,1.8-0.8,2.5-0.9c-0.6-0.4-1.6-1.2-2.4-2.4
							C915.2,544.2,914.9,543.2,914.8,542.5z"/>
						<path class="st22" d="M931.7,544.8c-0.4,0.6-1.1,1.6-2.3,2.4c-1.1,0.8-2.2,1.1-2.9,1.2c0.6,0.5,1.5,1.3,2.2,2.4
							c0.7,1,1.1,2,1.4,2.7c0.4-0.6,1.2-1.8,2.7-2.6c1-0.6,1.9-0.8,2.5-1c-0.6-0.4-1.6-1.2-2.4-2.4
							C932.1,546.5,931.8,545.5,931.7,544.8z"/>
						<path class="st22" d="M947.3,547.1c-0.4,0.6-1.1,1.6-2.3,2.4c-1.1,0.8-2.2,1.1-2.9,1.2c0.6,0.5,1.5,1.3,2.2,2.4
							c0.7,1,1.1,2,1.4,2.7c0.4-0.6,1.2-1.8,2.7-2.6c1-0.6,1.9-0.8,2.5-1c-0.6-0.4-1.6-1.2-2.4-2.4
							C947.8,548.8,947.5,547.8,947.3,547.1z"/>
						<path class="st22" d="M962.8,549.1c-0.4,0.6-1.1,1.6-2.3,2.4c-1.1,0.8-2.2,1.1-2.9,1.2c0.6,0.5,1.5,1.3,2.2,2.4
							c0.7,1,1.1,2,1.4,2.7c0.4-0.6,1.2-1.8,2.7-2.6c1-0.6,1.9-0.8,2.5-1c-0.6-0.4-1.6-1.2-2.4-2.4
							C963.3,550.8,963,549.8,962.8,549.1z"/>
						<path class="st22" d="M978.4,551.4c-0.4,0.6-1.1,1.6-2.3,2.4c-1.1,0.8-2.2,1.1-2.9,1.2c0.6,0.5,1.5,1.3,2.2,2.4
							c0.7,1,1.1,2,1.4,2.7c0.4-0.6,1.2-1.8,2.7-2.6c1-0.6,1.9-0.8,2.5-1c-0.6-0.4-1.6-1.2-2.4-2.4C978.9,553,978.6,552,978.4,551.4
							z"/>
						<path class="st22" d="M994.1,554.5c-0.4,0.6-1.1,1.6-2.3,2.4c-1.1,0.8-2.2,1.1-2.9,1.2c0.6,0.5,1.5,1.3,2.2,2.4
							c0.7,1,1.1,2,1.4,2.7c0.4-0.6,1.2-1.8,2.7-2.6c1-0.6,1.9-0.8,2.5-1c-0.6-0.4-1.6-1.2-2.4-2.4
							C994.6,556.2,994.3,555.2,994.1,554.5z"/>
						<path class="st22" d="M1009.7,556.8c-0.4,0.6-1.1,1.6-2.3,2.4c-1.1,0.8-2.2,1.1-2.9,1.2c0.6,0.5,1.5,1.3,2.2,2.4
							c0.7,1,1.1,2,1.4,2.7c0.4-0.6,1.2-1.8,2.7-2.6c1-0.6,1.9-0.8,2.5-1c-0.6-0.4-1.6-1.2-2.4-2.4
							C1010.2,558.5,1009.9,557.4,1009.7,556.8z"/>
						<path class="st22" d="M1025.3,558.8c-0.4,0.6-1.1,1.6-2.3,2.4c-1.1,0.8-2.2,1.1-2.9,1.2c0.6,0.5,1.5,1.3,2.2,2.4
							c0.7,1,1.1,2,1.4,2.7c0.4-0.6,1.2-1.8,2.7-2.6c1-0.6,1.9-0.8,2.5-1c-0.6-0.4-1.6-1.2-2.4-2.4
							C1025.8,560.5,1025.4,559.5,1025.3,558.8z"/>
						<path class="st22" d="M1040.9,561.1c-0.4,0.6-1.1,1.6-2.3,2.4c-1.1,0.8-2.2,1.1-2.9,1.2c0.6,0.5,1.5,1.3,2.2,2.4
							c0.7,1,1.1,2,1.4,2.7c0.4-0.6,1.2-1.8,2.7-2.6c1-0.6,1.9-0.8,2.5-1c-0.6-0.4-1.6-1.2-2.4-2.4
							C1041.4,562.7,1041,561.7,1040.9,561.1z"/>
						<path class="st22" d="M888.1,560.6c-0.6,0.1-1.5,0.4-2.5,0.9c-1.4,0.9-2.2,2-2.6,2.6c-0.1-0.2-0.1-0.4-0.2-0.6
							c0.4-0.8,0.8-1.8,1.4-3.1c0.4-0.8,0.8-1.7,1.2-2.7c0.1,0.2,0.2,0.3,0.3,0.5C886.6,559.5,887.5,560.2,888.1,560.6z"/>
						<path class="st22" d="M898.4,566.4c0.4-0.6,1.2-1.7,2.6-2.6c0.9-0.6,1.8-0.8,2.5-0.9c-0.6-0.4-1.6-1.2-2.4-2.4
							c-0.7-1-1-2-1.2-2.7c-0.3,0.6-1,1.5-2.2,2.3c-1.1,0.8-2.2,1.1-2.8,1.2c0.6,0.5,1.4,1.3,2.2,2.4
							C897.8,564.7,898.2,565.6,898.4,566.4z"/>
						<path class="st22" d="M917.6,563.3c-0.7-1-1-2-1.2-2.7c-0.3,0.6-1,1.5-2.2,2.3c-1.1,0.8-2.2,1.1-2.8,1.2
							c0.6,0.5,1.4,1.3,2.2,2.4c0.7,1,1.1,1.9,1.3,2.7c0.4-0.6,1.2-1.7,2.6-2.6c0.9-0.6,1.8-0.8,2.5-0.9
							C919.4,565.3,918.4,564.6,917.6,563.3z"/>
						<path class="st22" d="M932.3,562.6c-0.4,0.6-1.1,1.6-2.3,2.4c-1.1,0.8-2.2,1.1-2.9,1.2c0.6,0.5,1.5,1.3,2.2,2.4
							c0.7,1,1.1,2,1.4,2.7c0.4-0.6,1.2-1.8,2.7-2.6c1-0.6,1.9-0.8,2.5-1c-0.6-0.4-1.6-1.2-2.4-2.4
							C932.8,564.2,932.5,563.2,932.3,562.6z"/>
						<path class="st22" d="M947.9,564.6c-0.4,0.6-1.1,1.6-2.3,2.4c-1.1,0.8-2.2,1.1-2.9,1.2c0.6,0.5,1.5,1.3,2.2,2.4
							c0.7,1,1.1,2,1.4,2.7c0.4-0.6,1.2-1.8,2.7-2.6c1-0.6,1.9-0.8,2.5-1c-0.6-0.4-1.6-1.2-2.4-2.4
							C948.3,566.3,948,565.3,947.9,564.6z"/>
						<path class="st22" d="M963.4,566.8c-0.4,0.6-1.1,1.6-2.3,2.4c-1.1,0.8-2.2,1.1-2.9,1.2c0.6,0.5,1.5,1.3,2.2,2.4
							c0.7,1,1.1,2,1.4,2.7c0.4-0.6,1.2-1.8,2.7-2.6c1-0.6,1.9-0.8,2.5-1c-0.6-0.4-1.6-1.2-2.4-2.4
							C963.9,568.5,963.6,567.5,963.4,566.8z"/>
						<path class="st22" d="M979.1,570c-0.4,0.6-1.1,1.6-2.3,2.4c-1.1,0.8-2.2,1.1-2.9,1.2c0.6,0.5,1.5,1.3,2.2,2.4
							c0.7,1,1.1,2,1.4,2.7c0.4-0.6,1.2-1.8,2.7-2.6c1-0.6,1.9-0.8,2.5-1c-0.6-0.4-1.6-1.2-2.4-2.4
							C979.6,571.7,979.3,570.7,979.1,570z"/>
						<path class="st22" d="M994.7,572.2c-0.4,0.6-1.1,1.6-2.3,2.4c-1.1,0.8-2.2,1.1-2.9,1.2c0.6,0.5,1.5,1.3,2.2,2.4
							c0.7,1,1.1,2,1.4,2.7c0.4-0.6,1.2-1.8,2.7-2.6c1-0.6,1.9-0.8,2.5-1c-0.6-0.4-1.6-1.2-2.4-2.4
							C995.2,573.9,994.9,572.9,994.7,572.2z"/>
						<path class="st22" d="M1011.4,580.4c1-0.6,1.9-0.8,2.5-1c-0.6-0.4-1.6-1.2-2.4-2.4c-0.7-1.1-1-2.1-1.2-2.7
							c-0.4,0.6-1.1,1.6-2.3,2.4c-1.1,0.8-2.2,1.1-2.9,1.2c0.6,0.5,1.5,1.3,2.2,2.4c0.7,1,1.1,2,1.4,2.7
							C1009.1,582.4,1009.9,581.3,1011.4,580.4z"/>
						<path class="st22" d="M1024.3,585.3c0.4-0.6,1.2-1.8,2.7-2.6c1-0.6,1.9-0.8,2.5-1c-0.6-0.4-1.6-1.2-2.4-2.4
							c-0.7-1.1-1-2.1-1.2-2.7c-0.4,0.6-1.1,1.6-2.3,2.4c-1.1,0.8-2.2,1.1-2.9,1.2c0.6,0.5,1.5,1.3,2.2,2.4
							C1023.7,583.6,1024.1,584.5,1024.3,585.3z"/>
						<path class="st22" d="M1043.8,582.2c-0.7-1.1-1-2.1-1.2-2.7c-0.4,0.6-1.1,1.6-2.3,2.4c-1.1,0.8-2.2,1.1-2.9,1.2
							c0.6,0.5,1.5,1.3,2.2,2.4c0.7,1,1.1,2,1.4,2.7c0.4-0.6,1.2-1.8,2.7-2.6c1-0.6,1.9-0.8,2.5-1
							C1045.6,584.2,1044.6,583.4,1043.8,582.2z"/>
						<path class="st22" d="M1054.3,586.4c-0.4-0.5-0.9-0.9-1.2-1.2c0.2-0.1,0.5-0.1,0.9-0.2C1054.1,585.5,1054.2,586,1054.3,586.4z
							"/>
						<path class="st22" d="M887.7,573.7c-0.3,0.6-1,1.5-2.2,2.3c-1.1,0.8-2.2,1.1-2.8,1.2c0.6,0.5,1.4,1.3,2.2,2.4
							c0.7,1,1.1,1.9,1.3,2.7c0.4-0.6,1.2-1.7,2.6-2.6c0.9-0.6,1.8-0.8,2.5-0.9c-0.6-0.4-1.6-1.2-2.4-2.4
							C888.2,575.4,887.9,574.4,887.7,573.7z"/>
						<path class="st22" d="M904.2,581.9c1-0.6,1.9-0.8,2.5-1c-0.6-0.4-1.6-1.2-2.4-2.4c-0.7-1.1-1-2.1-1.2-2.7
							c-0.4,0.6-1.1,1.6-2.3,2.4c-1.1,0.8-2.2,1.1-2.9,1.2c0.6,0.5,1.5,1.3,2.2,2.4c0.7,1,1.1,2,1.4,2.7
							C902,583.9,902.8,582.8,904.2,581.9z"/>
						<path class="st22" d="M918.3,587.5c0.4-0.6,1.2-1.8,2.7-2.6c1-0.6,1.9-0.8,2.5-1c-0.6-0.4-1.6-1.2-2.4-2.4
							c-0.7-1.1-1-2.1-1.2-2.7c-0.4,0.6-1.1,1.6-2.3,2.4c-1.1,0.8-2.2,1.1-2.9,1.2c0.6,0.5,1.5,1.3,2.2,2.4
							C917.6,585.8,918,586.7,918.3,587.5z"/>
						<path class="st22" d="M933.9,589.7c0.4-0.6,1.2-1.8,2.7-2.6c1-0.6,1.9-0.8,2.5-1c-0.6-0.4-1.6-1.2-2.4-2.4
							c-0.7-1.1-1-2.1-1.2-2.7c-0.4,0.6-1.1,1.6-2.3,2.4c-1.1,0.8-2.2,1.1-2.9,1.2c0.6,0.5,1.5,1.3,2.2,2.4
							C933.2,588,933.6,589,933.9,589.7z"/>
						<path class="st22" d="M949.5,591.8c0.4-0.6,1.2-1.8,2.7-2.6c1-0.6,1.9-0.8,2.5-1c-0.6-0.4-1.6-1.2-2.4-2.4
							c-0.7-1.1-1-2.1-1.2-2.7c-0.4,0.6-1.1,1.6-2.3,2.4c-1.1,0.8-2.2,1.1-2.9,1.2c0.6,0.5,1.5,1.3,2.2,2.4
							C948.8,590.1,949.2,591,949.5,591.8z"/>
						<path class="st22" d="M965.1,594c0.4-0.6,1.2-1.8,2.7-2.6c1-0.6,1.9-0.8,2.5-1c-0.6-0.4-1.6-1.2-2.4-2.4
							c-0.7-1.1-1-2.1-1.2-2.7c-0.4,0.6-1.1,1.6-2.3,2.4c-1.1,0.8-2.2,1.1-2.9,1.2c0.6,0.5,1.5,1.3,2.2,2.4
							C964.4,592.3,964.8,593.3,965.1,594z"/>
						<path class="st22" d="M980.8,597.2c0.4-0.6,1.2-1.8,2.7-2.6c1-0.6,1.9-0.8,2.5-1c-0.6-0.4-1.6-1.2-2.4-2.4
							c-0.7-1.1-1-2.1-1.2-2.7c-0.4,0.6-1.1,1.6-2.3,2.4c-1.1,0.8-2.2,1.1-2.9,1.2c0.6,0.5,1.5,1.3,2.2,2.4
							C980.1,595.5,980.5,596.5,980.8,597.2z"/>
						<path class="st22" d="M996.3,599.4c0.4-0.6,1.2-1.8,2.7-2.6c1-0.6,1.9-0.8,2.5-1c-0.6-0.4-1.6-1.2-2.4-2.4
							c-0.7-1.1-1-2.1-1.2-2.7c-0.4,0.6-1.1,1.6-2.3,2.4c-1.1,0.8-2.2,1.1-2.9,1.2c0.6,0.5,1.5,1.3,2.2,2.4
							C995.7,597.7,996.1,598.6,996.3,599.4z"/>
						<path class="st22" d="M1030.2,601.1c1-0.6,1.9-0.8,2.5-1c-0.6-0.4-1.6-1.2-2.4-2.4c-0.7-1.1-1-2.1-1.2-2.7
							c-0.4,0.6-1.1,1.6-2.3,2.4c-1.1,0.8-2.2,1.1-2.9,1.2c0.6,0.5,1.5,1.3,2.2,2.4c0.7,1,1.1,2,1.4,2.7
							C1027.9,603,1028.7,601.9,1030.2,601.1z"/>
						<path class="st22" d="M1044.2,606.6c0.4-0.6,1.2-1.8,2.7-2.6c1-0.6,1.9-0.8,2.5-1c-0.6-0.4-1.6-1.2-2.4-2.4
							c-0.7-1.1-1-2.1-1.2-2.7c-0.4,0.6-1.1,1.6-2.3,2.4c-1.1,0.8-2.2,1.1-2.9,1.2c0.6,0.5,1.5,1.3,2.2,2.4
							C1043.5,604.9,1043.9,605.9,1044.2,606.6z"/>
						<path class="st22" d="M1058.4,606.1c-0.8-1.1-1.6-1.9-2.2-2.4c0.4-0.1,1-0.2,1.7-0.5C1058.1,604.2,1058.3,605.2,1058.4,606.1z
							"/>
						<path class="st22" d="M878.8,593.5c-0.1,0-0.3,0.1-0.4,0.1c0-0.1,0-0.3,0-0.4C878.5,593.3,878.6,593.4,878.8,593.5z"/>
						<path class="st22" d="M889.2,599.3c0.4-0.6,1.2-1.8,2.7-2.6c1-0.6,1.9-0.8,2.5-1c-0.6-0.4-1.6-1.2-2.4-2.4
							c-0.7-1.1-1-2.1-1.2-2.7c-0.4,0.6-1.1,1.6-2.3,2.4c-1.1,0.8-2.2,1.1-2.9,1.2c0.6,0.5,1.5,1.3,2.2,2.4
							C888.6,597.6,889,598.5,889.2,599.3z"/>
						<path class="st22" d="M905.9,602.2c0.4-0.6,1.2-1.8,2.7-2.6c1-0.6,1.9-0.8,2.5-1c-0.6-0.4-1.6-1.2-2.4-2.4
							c-0.7-1.1-1-2.1-1.2-2.7c-0.4,0.6-1.1,1.6-2.3,2.4c-1.1,0.8-2.2,1.1-2.9,1.2c0.6,0.5,1.5,1.3,2.2,2.4
							C905.3,600.5,905.7,601.5,905.9,602.2z"/>
						<path class="st22" d="M921.6,604.4c0.4-0.6,1.2-1.8,2.7-2.6c1-0.6,1.9-0.8,2.5-1c-0.6-0.4-1.6-1.2-2.4-2.4
							c-0.7-1.1-1-2.1-1.2-2.7c-0.4,0.6-1.1,1.6-2.3,2.4c-1.1,0.8-2.2,1.1-2.9,1.2c0.6,0.5,1.5,1.3,2.2,2.4
							C920.9,602.8,921.3,603.7,921.6,604.4z"/>
						<path class="st22" d="M937.1,606.5c0.4-0.6,1.2-1.8,2.7-2.6c1-0.6,1.9-0.8,2.5-1c-0.6-0.4-1.6-1.2-2.4-2.4
							c-0.7-1.1-1-2.1-1.2-2.7c-0.4,0.6-1.1,1.6-2.3,2.4c-1.1,0.8-2.2,1.1-2.9,1.2c0.6,0.5,1.5,1.3,2.2,2.4
							C936.4,604.8,936.9,605.8,937.1,606.5z"/>
						<path class="st22" d="M952.7,608.7c0.4-0.6,1.2-1.8,2.7-2.6c1-0.6,1.9-0.8,2.5-1c-0.6-0.4-1.6-1.2-2.4-2.4
							c-0.7-1.1-1-2.1-1.2-2.7c-0.4,0.6-1.1,1.6-2.3,2.4c-1.1,0.8-2.2,1.1-2.9,1.2c0.6,0.5,1.5,1.3,2.2,2.4
							C952.1,607,952.5,608,952.7,608.7z"/>
						<path class="st22" d="M968.5,611.9c0.4-0.6,1.2-1.8,2.7-2.6c1-0.6,1.9-0.8,2.5-1c-0.6-0.4-1.6-1.2-2.4-2.4
							c-0.7-1.1-1-2.1-1.2-2.7c-0.4,0.6-1.1,1.6-2.3,2.4c-1.1,0.8-2.2,1.1-2.9,1.2c0.6,0.5,1.5,1.3,2.2,2.4
							C967.8,610.2,968.2,611.2,968.5,611.9z"/>
						<path class="st22" d="M984.1,614.2c0.4-0.6,1.2-1.8,2.7-2.6c1-0.6,1.9-0.8,2.5-1c-0.6-0.4-1.6-1.2-2.4-2.4
							c-0.7-1.1-1-2.1-1.2-2.7c-0.4,0.6-1.1,1.6-2.3,2.4c-1.1,0.8-2.2,1.1-2.9,1.2c0.6,0.5,1.5,1.3,2.2,2.4
							C983.4,612.5,983.8,613.4,984.1,614.2z"/>
						<path class="st22" d="M1003.5,611.6c-0.1,0.5-0.2,1-0.4,1.5c-0.3,0.1-0.6,0.3-0.9,0.5c-1.4,0.9-2.3,2-2.7,2.6
							c-0.3-0.7-0.7-1.7-1.4-2.7c-0.8-1.1-1.6-1.9-2.2-2.4c0.7-0.1,1.7-0.4,2.9-1.2c1.2-0.8,1.9-1.8,2.3-2.4
							c0.2,0.7,0.5,1.7,1.2,2.7C1002.7,610.7,1003.1,611.2,1003.5,611.6z"/>
						<path class="st22" d="M1015.6,617.7c-0.2,0.2-0.3,0.5-0.4,0.7c-0.1-0.2-0.2-0.4-0.3-0.7
							C1015.2,617.7,1015.4,617.7,1015.6,617.7z"/>
						<path class="st22" d="M1031.9,621.3c0.4-0.6,1.2-1.8,2.7-2.6c1-0.6,1.9-0.8,2.5-1c-0.6-0.4-1.6-1.2-2.4-2.4
							c-0.7-1.1-1-2.1-1.2-2.7c-0.4,0.6-1.1,1.6-2.3,2.4c-1.1,0.8-2.2,1.1-2.9,1.2c0.6,0.5,1.5,1.3,2.2,2.4
							C1031.2,619.6,1031.6,620.6,1031.9,621.3z"/>
						<path class="st22" d="M1047.5,623.6c0.4-0.6,1.2-1.8,2.7-2.6c1-0.6,1.9-0.8,2.5-1c-0.6-0.4-1.6-1.2-2.4-2.4
							c-0.7-1.1-1-2.1-1.2-2.7c-0.4,0.6-1.1,1.6-2.3,2.4c-1.1,0.8-2.2,1.1-2.9,1.2c0.6,0.5,1.5,1.3,2.2,2.4
							C1046.8,621.9,1047.2,622.8,1047.5,623.6z"/>
						<path class="st22" d="M1060.7,621.6c-0.4-0.5-0.9-0.9-1.2-1.2c0.3-0.1,0.7-0.1,1.1-0.3
							C1060.6,620.7,1060.6,621.1,1060.7,621.6z"/>
						<path class="st22" d="M882,611.9c-0.5,0.1-1.3,0.3-2.1,0.7c-0.1-1-0.1-2-0.2-3C880.5,610.8,881.4,611.5,882,611.9z"/>
						<path class="st22" d="M892.4,617.7c0.4-0.6,1.2-1.8,2.7-2.6c1-0.6,1.9-0.8,2.5-1c-0.6-0.4-1.6-1.2-2.4-2.4
							c-0.7-1.1-1-2.1-1.2-2.7c-0.4,0.6-1.1,1.6-2.3,2.4c-1.1,0.8-2.2,1.1-2.9,1.2c0.6,0.5,1.5,1.3,2.2,2.4
							C891.8,616,892.2,617,892.4,617.7z"/>
						<path class="st22" d="M910.7,611.9c-0.4,0.6-1.1,1.6-2.3,2.4c-1.1,0.8-2.2,1.1-2.9,1.2c0.6,0.5,1.5,1.3,2.2,2.4
							c0.7,1,1.1,2,1.4,2.7c0.4-0.6,1.2-1.8,2.7-2.6c1-0.6,1.9-0.8,2.5-1c-0.6-0.4-1.6-1.2-2.4-2.4
							C911.2,613.6,910.8,612.6,910.7,611.9z"/>
						<path class="st22" d="M927.5,616.9c-0.7-1.1-1-2.1-1.2-2.7c-0.4,0.6-1.1,1.6-2.3,2.4c-1.1,0.8-2.2,1.1-2.9,1.2
							c0.6,0.5,1.5,1.3,2.2,2.4c0.7,1,1.1,2,1.4,2.7c0.4-0.6,1.2-1.8,2.7-2.6c1-0.6,1.9-0.8,2.5-1
							C929.3,618.9,928.3,618.1,927.5,616.9z"/>
						<path class="st22" d="M941.9,616.2c-0.4,0.6-1.1,1.6-2.3,2.4c-1.1,0.8-2.2,1.1-2.9,1.2c0.6,0.5,1.5,1.3,2.2,2.4
							c0.7,1,1.1,2,1.4,2.7c0.4-0.6,1.2-1.8,2.7-2.6c1-0.6,1.9-0.8,2.5-1c-0.6-0.4-1.6-1.2-2.4-2.4
							C942.4,617.9,942,616.9,941.9,616.2z"/>
						<path class="st22" d="M957.5,618.4c-0.4,0.6-1.1,1.6-2.3,2.4c-1.1,0.8-2.2,1.1-2.9,1.2c0.6,0.5,1.5,1.3,2.2,2.4
							c0.7,1,1.1,2,1.4,2.7c0.4-0.6,1.2-1.8,2.7-2.6c1-0.6,1.9-0.8,2.5-1c-0.6-0.4-1.6-1.2-2.4-2.4
							C958,620.1,957.7,619.1,957.5,618.4z"/>
						<path class="st22" d="M973.2,621.6c-0.4,0.6-1.1,1.6-2.3,2.4c-1.1,0.8-2.2,1.1-2.9,1.2c0.6,0.5,1.5,1.3,2.2,2.4
							c0.7,1,1.1,2,1.4,2.7c0.4-0.6,1.2-1.8,2.7-2.6c1-0.6,1.9-0.8,2.5-1c-0.6-0.4-1.6-1.2-2.4-2.4
							C973.7,623.3,973.4,622.3,973.2,621.6z"/>
						<path class="st22" d="M988.8,623.8c-0.4,0.6-1.1,1.6-2.3,2.4c-1.1,0.8-2.2,1.1-2.9,1.2c0.6,0.5,1.5,1.3,2.2,2.4
							c0.7,1,1.1,2,1.4,2.7c0.4-0.6,1.2-1.8,2.7-2.6c1-0.6,1.9-0.8,2.5-1c-0.6-0.4-1.6-1.2-2.4-2.4
							C989.2,625.5,988.9,624.5,988.8,623.8z"/>
						<path class="st22" d="M1004.3,625.8c-0.4,0.6-1.1,1.6-2.3,2.4c-1.1,0.8-2.2,1.1-2.9,1.2c0.6,0.5,1.5,1.3,2.2,2.4
							c0.7,1,1.1,2,1.4,2.7c0.4-0.6,1.2-1.8,2.7-2.6c1-0.6,1.9-0.8,2.5-1c-0.6-0.4-1.6-1.2-2.4-2.4
							C1004.8,627.5,1004.5,626.5,1004.3,625.8z"/>
						<path class="st22" d="M1018.3,636.8c0.4-0.6,1.2-1.8,2.7-2.6c1-0.6,1.9-0.8,2.5-1c-0.6-0.4-1.6-1.2-2.4-2.4
							c-0.7-1.1-1-2.1-1.2-2.7c-0.4,0.6-1.1,1.6-2.3,2.4c-1.1,0.8-2.2,1.1-2.9,1.2c0.6,0.5,1.5,1.3,2.2,2.4
							C1017.7,635.1,1018.1,636.1,1018.3,636.8z"/>
						<path class="st22" d="M1036.6,631c-0.4,0.6-1.1,1.6-2.3,2.4c-1.1,0.8-2.2,1.1-2.9,1.2c0.6,0.5,1.5,1.3,2.2,2.4
							c0.7,1,1.1,2,1.4,2.7c0.4-0.6,1.2-1.8,2.7-2.6c1-0.6,1.9-0.8,2.5-1c-0.6-0.4-1.6-1.2-2.4-2.4
							C1037.1,632.7,1036.8,631.7,1036.6,631z"/>
						<path class="st22" d="M1053.4,636c-0.7-1.1-1-2.1-1.2-2.7c-0.4,0.6-1.1,1.6-2.3,2.4c-1.1,0.8-2.2,1.1-2.9,1.2
							c0.6,0.5,1.5,1.3,2.2,2.4c0.7,1,1.1,2,1.4,2.7c0.4-0.6,1.2-1.8,2.7-2.6c1-0.6,1.9-0.8,2.5-1
							C1055.2,638,1054.2,637.2,1053.4,636z"/>
						<path class="st22" d="M882.6,629.6c-0.6,0.1-1.4,0.3-2.3,0.8c0-1,0-2.1,0-3.1C881.1,628.5,882,629.2,882.6,629.6z"/>
						<path class="st22" d="M894.1,636.1c0.4-0.6,1.2-1.8,2.7-2.6c1-0.6,1.9-0.8,2.5-1c-0.6-0.4-1.6-1.2-2.4-2.4
							c-0.7-1.1-1-2.1-1.2-2.7c-0.4,0.6-1.1,1.6-2.3,2.4c-1.1,0.8-2.2,1.1-2.9,1.2c0.6,0.5,1.5,1.3,2.2,2.4
							C893.5,634.4,893.9,635.4,894.1,636.1z"/>
						<path class="st22" d="M909.7,638.4c0.4-0.6,1.2-1.8,2.7-2.6c1-0.6,1.9-0.8,2.5-1c-0.6-0.4-1.6-1.2-2.4-2.4
							c-0.7-1.1-1-2.1-1.2-2.7c-0.4,0.6-1.1,1.6-2.3,2.4c-1.1,0.8-2.2,1.1-2.9,1.2c0.6,0.5,1.5,1.3,2.2,2.4
							C909.1,636.7,909.5,637.6,909.7,638.4z"/>
						<path class="st22" d="M925.3,640.4c0.4-0.6,1.2-1.8,2.7-2.6c1-0.6,1.9-0.8,2.5-1c-0.6-0.4-1.6-1.2-2.4-2.4
							c-0.7-1.1-1-2.1-1.2-2.7c-0.4,0.6-1.1,1.6-2.3,2.4c-1.1,0.8-2.2,1.1-2.9,1.2c0.6,0.5,1.5,1.3,2.2,2.4
							C924.6,638.7,925,639.7,925.3,640.4z"/>
						<path class="st22" d="M940.9,642.6c0.4-0.6,1.2-1.8,2.7-2.6c1-0.6,1.9-0.8,2.5-1c-0.6-0.4-1.6-1.2-2.4-2.4
							c-0.7-1.1-1-2.1-1.2-2.7c-0.4,0.6-1.1,1.6-2.3,2.4c-1.1,0.8-2.2,1.1-2.9,1.2c0.6,0.5,1.5,1.3,2.2,2.4
							C940.2,640.9,940.6,641.8,940.9,642.6z"/>
						<path class="st22" d="M956.6,645.8c0.4-0.6,1.2-1.8,2.7-2.6c1-0.6,1.9-0.8,2.5-1c-0.6-0.4-1.6-1.2-2.4-2.4
							c-0.7-1.1-1-2.1-1.2-2.7c-0.4,0.6-1.1,1.6-2.3,2.4c-1.1,0.8-2.2,1.1-2.9,1.2c0.6,0.5,1.5,1.3,2.2,2.4
							C956,644.1,956.4,645.1,956.6,645.8z"/>
						<path class="st22" d="M972.3,648.1c0.4-0.6,1.2-1.8,2.7-2.6c1-0.6,1.9-0.8,2.5-1c-0.6-0.4-1.6-1.2-2.4-2.4
							c-0.7-1.1-1-2.1-1.2-2.7c-0.4,0.6-1.1,1.6-2.3,2.4c-1.1,0.8-2.2,1.1-2.9,1.2c0.6,0.5,1.5,1.3,2.2,2.4
							C971.6,646.4,972,647.3,972.3,648.1z"/>
						<path class="st22" d="M987.7,650c0.4-0.6,1.2-1.8,2.7-2.6c1-0.6,1.9-0.8,2.5-1c-0.6-0.4-1.6-1.2-2.4-2.4
							c-0.7-1.1-1-2.1-1.2-2.7c-0.4,0.6-1.1,1.6-2.3,2.4c-1.1,0.8-2.2,1.1-2.9,1.2c0.6,0.5,1.5,1.3,2.2,2.4
							C987.1,648.3,987.5,649.3,987.7,650z"/>
						<path class="st22" d="M1008.5,648.7c-0.6,0.1-1.5,0.4-2.5,1c-0.8,0.5-1.5,1.1-1.9,1.6c-0.5-0.2-0.9-0.3-1.4-0.5
							c-0.2-0.4-0.4-0.8-0.7-1.2c-0.8-1.1-1.6-1.9-2.2-2.4c0.7-0.1,1.7-0.4,2.9-1.2c1.2-0.8,1.9-1.8,2.3-2.4
							c0.2,0.7,0.5,1.7,1.2,2.7C1006.9,647.5,1007.9,648.3,1008.5,648.7z"/>
						<path class="st22" d="M1020,655.2c0.4-0.6,1.2-1.8,2.7-2.6c1-0.6,1.9-0.8,2.5-1c-0.6-0.4-1.6-1.2-2.4-2.4
							c-0.7-1.1-1-2.1-1.2-2.7c-0.4,0.6-1.1,1.6-2.3,2.4c-1.1,0.8-2.2,1.1-2.9,1.2c0.6,0.5,1.5,1.3,2.2,2.4
							C1019.4,653.5,1019.8,654.5,1020,655.2z"/>
						<path class="st22" d="M1040.8,653.9c-0.6,0.1-1.5,0.4-2.5,1c-0.7,0.4-1.2,0.9-1.6,1.3c-0.5,0-1,0.1-1.5,0.1
							c-0.2-0.5-0.5-1-0.9-1.5c-0.8-1.1-1.6-1.9-2.2-2.4c0.7-0.1,1.8-0.4,2.9-1.2c1.2-0.8,1.9-1.8,2.3-2.4c0.2,0.7,0.5,1.7,1.2,2.7
							C1039.2,652.7,1040.2,653.5,1040.8,653.9z"/>
						<path class="st22" d="M885.8,648c-0.6,0.1-1.5,0.4-2.5,1c-1.5,0.8-2.3,2-2.7,2.6c-0.2-0.5-0.4-1-0.7-1.7
							c0.1-1.6,0.1-3.2,0.2-4.8c1.1-0.8,1.8-1.7,2.1-2.3c0.2,0.7,0.5,1.7,1.2,2.7C884.2,646.8,885.1,647.6,885.8,648z"/>
						<path class="st22" d="M898.9,645.7c-0.4,0.6-1.1,1.6-2.3,2.4c-1.1,0.8-2.2,1.1-2.9,1.2c0.6,0.5,1.5,1.3,2.2,2.4
							c0.7,1,1.1,2,1.4,2.7c0.4-0.6,1.2-1.8,2.7-2.6c1-0.6,1.9-0.8,2.5-1c-0.6-0.4-1.6-1.2-2.4-2.4
							C899.3,647.4,899,646.4,898.9,645.7z"/>
						<path class="st22" d="M914.5,648c-0.4,0.6-1.1,1.6-2.3,2.4c-1.1,0.8-2.2,1.1-2.9,1.2c0.6,0.5,1.5,1.3,2.2,2.4
							c0.7,1,1.1,2,1.4,2.7c0.4-0.6,1.2-1.8,2.7-2.6c1-0.6,1.9-0.8,2.5-1c-0.6-0.4-1.6-1.2-2.4-2.4C915,649.7,914.6,648.6,914.5,648
							z"/>
						<path class="st22" d="M930,650c-0.4,0.6-1.1,1.6-2.3,2.4c-1.1,0.8-2.2,1.1-2.9,1.2c0.6,0.5,1.5,1.3,2.2,2.4
							c0.7,1,1.1,2,1.4,2.7c0.4-0.6,1.2-1.8,2.7-2.6c1-0.6,1.9-0.8,2.5-1c-0.6-0.4-1.6-1.2-2.4-2.4C930.5,651.7,930.2,650.7,930,650
							z"/>
						<path class="st22" d="M945.6,652.3c-0.4,0.6-1.1,1.6-2.3,2.4c-1.1,0.8-2.2,1.1-2.9,1.2c0.6,0.5,1.5,1.3,2.2,2.4
							c0.7,1,1.1,2,1.4,2.7c0.4-0.6,1.2-1.8,2.7-2.6c1-0.6,1.9-0.8,2.5-1c-0.6-0.4-1.6-1.2-2.4-2.4
							C946.1,653.9,945.8,652.9,945.6,652.3z"/>
						<path class="st22" d="M961.3,655.4c-0.4,0.6-1.1,1.6-2.3,2.4c-1.1,0.8-2.2,1.1-2.9,1.2c0.6,0.5,1.5,1.3,2.2,2.4
							c0.7,1,1.1,2,1.4,2.7c0.4-0.6,1.2-1.8,2.7-2.6c1-0.6,1.9-0.8,2.5-1c-0.6-0.4-1.6-1.2-2.4-2.4
							C961.8,657.1,961.5,656.1,961.3,655.4z"/>
						<path class="st22" d="M977,657.7c-0.4,0.6-1.1,1.6-2.3,2.4c-1.1,0.8-2.2,1.1-2.9,1.2c0.6,0.5,1.5,1.3,2.2,2.4
							c0.7,1,1.1,2,1.4,2.7c0.4-0.6,1.2-1.8,2.7-2.6c1-0.6,1.9-0.8,2.5-1c-0.6-0.4-1.6-1.2-2.4-2.4
							C977.4,659.4,977.1,658.4,977,657.7z"/>
						<path class="st22" d="M990.4,662c-0.3,1.2-0.6,2.4-0.9,3.7c-0.7-1.1-1.5-1.8-2.2-2.3c0.7-0.1,1.7-0.4,2.9-1.2
							C990.3,662.1,990.4,662,990.4,662z"/>
						<path class="st22" d="M886.4,665.7c-0.6,0.1-1.5,0.4-2.5,1c-1.4,0.9-2.3,2-2.7,2.6c-0.2-0.7-0.7-1.7-1.3-2.7
							c-0.3-0.4-0.6-0.8-0.9-1.1c0-0.6,0.1-1.2,0.1-1.7v0c0.4-0.2,0.9-0.4,1.4-0.8c1.2-0.8,1.9-1.8,2.3-2.4c0.2,0.7,0.5,1.7,1.2,2.7
							C884.8,664.5,885.8,665.3,886.4,665.7z"/>
						<path class="st22" d="M897.9,672.2c0.4-0.6,1.2-1.8,2.7-2.6c1-0.6,1.9-0.8,2.5-1c-0.6-0.4-1.6-1.2-2.4-2.4
							c-0.7-1.1-1-2.1-1.2-2.7c-0.4,0.6-1.1,1.6-2.3,2.4c-1.1,0.8-2.2,1.1-2.9,1.2c0.6,0.5,1.5,1.3,2.2,2.4
							C897.3,670.5,897.7,671.4,897.9,672.2z"/>
						<path class="st22" d="M913.5,674.4c0.4-0.6,1.2-1.8,2.7-2.6c1-0.6,1.9-0.8,2.5-1c-0.6-0.4-1.6-1.2-2.4-2.4
							c-0.7-1.1-1-2.1-1.2-2.7c-0.4,0.6-1.1,1.6-2.3,2.4c-1.1,0.8-2.2,1.1-2.9,1.2c0.6,0.5,1.5,1.3,2.2,2.4
							C912.9,672.7,913.3,673.7,913.5,674.4z"/>
						<path class="st22" d="M929.1,676.5c0.4-0.6,1.2-1.8,2.7-2.6c1-0.6,1.9-0.8,2.5-1c-0.6-0.4-1.6-1.2-2.4-2.4
							c-0.7-1.1-1-2.1-1.2-2.7c-0.4,0.6-1.1,1.6-2.3,2.4c-1.1,0.8-2.2,1.1-2.9,1.2c0.6,0.5,1.5,1.3,2.2,2.4
							C928.4,674.8,928.8,675.7,929.1,676.5z"/>
						<path class="st22" d="M944.7,678.7c0.4-0.6,1.2-1.8,2.7-2.6c1-0.6,1.9-0.8,2.5-1c-0.6-0.4-1.6-1.2-2.4-2.4
							c-0.7-1.1-1-2.1-1.2-2.7c-0.4,0.6-1.1,1.6-2.3,2.4c-1.1,0.8-2.2,1.1-2.9,1.2c0.6,0.5,1.5,1.3,2.2,2.4
							C944,677,944.4,678,944.7,678.7z"/>
						<path class="st22" d="M960.4,681.9c0.4-0.6,1.2-1.8,2.7-2.6c1-0.6,1.9-0.8,2.5-1c-0.6-0.4-1.6-1.2-2.4-2.4
							c-0.7-1.1-1-2.1-1.2-2.7c-0.4,0.6-1.1,1.6-2.3,2.4c-1.1,0.8-2.2,1.1-2.9,1.2c0.6,0.5,1.5,1.3,2.2,2.4
							C959.7,680.2,960.1,681.1,960.4,681.9z"/>
						<path class="st22" d="M976,684.1c0.4-0.6,1.2-1.8,2.7-2.6c1-0.6,1.9-0.8,2.5-1c-0.6-0.4-1.6-1.2-2.4-2.4
							c-0.7-1.1-1-2.1-1.2-2.7c-0.4,0.6-1.1,1.6-2.3,2.4c-1.1,0.8-2.2,1.1-2.9,1.2c0.6,0.5,1.5,1.3,2.2,2.4
							C975.4,682.4,975.8,683.4,976,684.1z"/>
					</g>
					<path class="st22" d="M885.1,687.5c0.4-0.6,1.2-1.8,2.7-2.6c1-0.6,1.9-0.8,2.5-1c-0.6-0.4-1.6-1.2-2.4-2.4
						c-0.7-1.1-1-2.1-1.2-2.7c-0.4,0.6-1.1,1.6-2.3,2.4c-1.1,0.8-2.2,1.1-2.9,1.2c0.6,0.5,1.5,1.3,2.2,2.4
						C884.5,685.8,884.9,686.7,885.1,687.5z"/>
					<path class="st22" d="M903.4,681.7c-0.4,0.6-1.1,1.6-2.3,2.4c-1.1,0.8-2.2,1.1-2.9,1.2c0.6,0.5,1.5,1.3,2.2,2.4
						c0.7,1,1.1,2,1.4,2.7c0.4-0.6,1.2-1.8,2.7-2.6c1-0.6,1.9-0.8,2.5-1c-0.6-0.4-1.6-1.2-2.4-2.4
						C903.9,683.3,903.5,682.3,903.4,681.7z"/>
					<path class="st22" d="M919,683.9c-0.4,0.6-1.1,1.6-2.3,2.4c-1.1,0.8-2.2,1.1-2.9,1.2c0.6,0.5,1.5,1.3,2.2,2.4
						c0.7,1,1.1,2,1.4,2.7c0.4-0.6,1.2-1.8,2.7-2.6c1-0.6,1.9-0.8,2.5-1c-0.6-0.4-1.6-1.2-2.4-2.4
						C919.5,685.6,919.2,684.6,919,683.9z"/>
					<path class="st22" d="M934.5,686c-0.4,0.6-1.1,1.6-2.3,2.4c-1.1,0.8-2.2,1.1-2.9,1.2c0.6,0.5,1.5,1.3,2.2,2.4
						c0.7,1,1.1,2,1.4,2.7c0.4-0.6,1.2-1.8,2.7-2.6c1-0.6,1.9-0.8,2.5-1c-0.6-0.4-1.6-1.2-2.4-2.4C935,687.6,934.7,686.6,934.5,686z
						"/>
					<path class="st22" d="M950.2,688.2c-0.4,0.6-1.1,1.6-2.3,2.4c-1.1,0.8-2.2,1.1-2.9,1.2c0.6,0.5,1.5,1.3,2.2,2.4
						c0.7,1,1.1,2,1.4,2.7c0.4-0.6,1.2-1.8,2.7-2.6c1-0.6,1.9-0.8,2.5-1c-0.6-0.4-1.6-1.2-2.4-2.4
						C950.6,689.9,950.3,688.9,950.2,688.2z"/>
					<path class="st22" d="M965.9,691.4c-0.4,0.6-1.1,1.6-2.3,2.4c-1.1,0.8-2.2,1.1-2.9,1.2c0.6,0.5,1.5,1.3,2.2,2.4
						c0.7,1,1.1,2,1.4,2.7c0.4-0.6,1.2-1.8,2.7-2.6c1-0.6,1.9-0.8,2.5-1c-0.6-0.4-1.6-1.2-2.4-2.4C966.3,693,966,692,965.9,691.4z"
						/>
					<path class="st22" d="M982,695.1c-0.6,2.3-1.2,4.5-1.8,6.8c-0.1,0.2-0.2,0.3-0.3,0.4c-0.2-0.7-0.7-1.7-1.4-2.7
						c-0.8-1.1-1.6-1.9-2.2-2.4c0.6-0.1,1.7-0.4,2.9-1.2c1.2-0.8,1.9-1.8,2.3-2.4C981.6,694,981.7,694.5,982,695.1z"/>
					<path class="st22" d="M886.8,705.9c0.4-0.6,1.2-1.8,2.7-2.6c1-0.6,1.9-0.8,2.5-1c-0.6-0.4-1.6-1.2-2.4-2.4
						c-0.7-1.1-1-2.1-1.2-2.7c-0.4,0.6-1.1,1.6-2.3,2.4c-1.1,0.8-2.2,1.1-2.9,1.2c0.6,0.5,1.5,1.3,2.2,2.4
						C886.2,704.2,886.6,705.1,886.8,705.9z"/>
					<path class="st22" d="M902.4,708.1c0.4-0.6,1.2-1.8,2.7-2.6c1-0.6,1.9-0.8,2.5-1c-0.6-0.4-1.6-1.2-2.4-2.4
						c-0.7-1.1-1-2.1-1.2-2.7c-0.4,0.6-1.1,1.6-2.3,2.4c-1.1,0.8-2.2,1.1-2.9,1.2c0.6,0.5,1.5,1.3,2.2,2.4
						C901.8,706.4,902.2,707.4,902.4,708.1z"/>
					<path class="st22" d="M918,710.2c0.4-0.6,1.2-1.8,2.7-2.6c1-0.6,1.9-0.8,2.5-1c-0.6-0.4-1.6-1.2-2.4-2.4
						c-0.7-1.1-1-2.1-1.2-2.7c-0.4,0.6-1.1,1.6-2.3,2.4c-1.1,0.8-2.2,1.1-2.9,1.2c0.6,0.5,1.5,1.3,2.2,2.4
						C917.3,708.5,917.7,709.4,918,710.2z"/>
					<path class="st22" d="M933.6,712.4c0.4-0.6,1.2-1.8,2.7-2.6c1-0.6,1.9-0.8,2.5-1c-0.6-0.4-1.6-1.2-2.4-2.4
						c-0.7-1.1-1-2.1-1.2-2.7c-0.4,0.6-1.1,1.6-2.3,2.4c-1.1,0.8-2.2,1.1-2.9,1.2c0.6,0.5,1.5,1.3,2.2,2.4
						C932.9,710.7,933.3,711.7,933.6,712.4z"/>
					<path class="st22" d="M949.3,715.6c0.4-0.6,1.2-1.8,2.7-2.6c1-0.6,1.9-0.8,2.5-1c-0.6-0.4-1.6-1.2-2.4-2.4
						c-0.7-1.1-1-2.1-1.2-2.7c-0.4,0.6-1.1,1.6-2.3,2.4c-1.1,0.8-2.2,1.1-2.9,1.2c0.6,0.5,1.5,1.3,2.2,2.4
						C948.6,713.9,949,714.8,949.3,715.6z"/>
					<path class="st22" d="M964.9,717.8c0.4-0.6,1.2-1.8,2.7-2.6c1-0.6,1.9-0.8,2.5-1c-0.6-0.4-1.6-1.2-2.4-2.4
						c-0.7-1.1-1-2.1-1.2-2.7c-0.4,0.6-1.1,1.6-2.3,2.4c-1.1,0.8-2.2,1.1-2.9,1.2c0.6,0.5,1.5,1.3,2.2,2.4
						C964.3,716.1,964.7,717.1,964.9,717.8z"/>
					<path class="st22" d="M878.5,717.8c-0.6,0.1-1.5,0.4-2.5,1c-1.2,0.7-1.9,1.5-2.4,2.2c0.3-2.6,0.6-5.2,0.9-7.8v0
						c0.2-0.2,0.3-0.4,0.4-0.5c0.2,0.7,0.5,1.7,1.2,2.7C876.9,716.6,877.8,717.4,878.5,717.8z"/>
					<path class="st22" d="M892.7,718.3c-0.7-1.1-1-2.1-1.2-2.7c-0.4,0.6-1.1,1.6-2.3,2.4c-1.1,0.8-2.2,1.1-2.9,1.2
						c0.6,0.5,1.5,1.3,2.2,2.4c0.7,1,1.1,2,1.4,2.7c0.4-0.6,1.2-1.8,2.7-2.6c1-0.6,1.9-0.8,2.5-1
						C894.5,720.3,893.6,719.5,892.7,718.3z"/>
					<path class="st22" d="M910.8,723c-0.6,0.1-1.5,0.4-2.5,0.9c-0.6,0.4-1.1,0.7-1.5,1.1c-0.6,0-1.2,0.1-1.8,0.1
						c-0.2-0.4-0.5-0.8-0.8-1.3c-0.8-1.1-1.6-1.9-2.2-2.5c0.7-0.1,1.7-0.4,2.9-1.2c1.2-0.8,1.9-1.8,2.3-2.4c0.2,0.7,0.5,1.7,1.2,2.7
						C909.2,721.8,910.2,722.5,910.8,723z"/>
					<path class="st22" d="M925.3,724.2c-2.2,0.1-4.4,0.2-6.6,0.3c-0.4-0.4-0.8-0.8-1.1-1.1c0.6-0.1,1.7-0.4,2.9-1.2
						c1.2-0.8,1.9-1.8,2.3-2.4c0.2,0.7,0.5,1.7,1.2,2.7C924.3,723.3,924.8,723.8,925.3,724.2z"/>
					<path class="st22" d="M938.9,723.6c-0.6,0-1.2,0.1-1.8,0.1c0.6-0.6,1-1.2,1.3-1.6C938.5,722.5,938.6,723,938.9,723.6z"/>
				</g>
				<path class="st16" d="M994.1,647.4c-4.5,18.1-9.4,37.2-14.6,57.1l-12.5-3.4l-26.7-82.5C940.2,618.6,997.9,649,994.1,647.4z"/>
				<path class="st16" d="M1009.7,583.5l0,0.3c0-0.1-0.1-0.2-0.1-0.2c-0.4,1.7-0.8,3.3-1.2,5c0,0.1,0,0.2-0.1,0.3
					c-1.7,7.1-3.4,14.4-5.2,21.9c0,0.2-0.1,0.3-0.1,0.5c-0.3,1.4-0.7,2.8-1,4.3l-46.1-12.4l33.9-30.1L1009.7,583.5z"/>
				<path class="st16" d="M1058.9,642.5c-8.9-26.3-18.2-53-28-80.1c-9.9-27.6-20-54.7-30.1-81.2c0.3,0.1,0.6,0.2,0.9,0.4
					c3.4,2,8.3,5.2,13.5,10c18.2,16.5,24.7,37.3,29.6,56.8C1057.6,598.5,1064.9,627.5,1058.9,642.5z"/>
				<path class="st16" d="M977.5,476.9c-8.2,2.4-16.2,4.2-16.2,4.2l-4-27.9c4.4-1.4,7.7-3.2,9.9-4.5c5.2,3.5,6.7,6.8,7.2,9.3
					c0.7,3.6-1.1,6,0.7,9.9c0.6,1.4,1.2,2.7,2,5C977.5,474,977.7,475.3,977.5,476.9z"/>
				<linearGradient id="SVGID_3_" gradientUnits="userSpaceOnUse" x1="884.256" y1="523.2701" x2="941.7919" y2="523.2701">
					<stop  offset="0" style="stop-color:#5A142A;stop-opacity:0.2"/>
					<stop  offset="1" style="stop-color:#FC860A;stop-opacity:0.2"/>
				</linearGradient>
				<path class="st23" d="M941.8,515.3c0,14.2-34.9,33.8-57.5,45.1c0.9-1.9,2-4.4,3.6-7.9c0.4-0.8,0.7-1.6,1.1-2.5
					c1.7-3.7,3.8-8.2,6.3-14c0.4-1,0.9-2,1.4-3.1c0.3-0.7,0.7-1.5,1-2.2c4.5-10,6.8-15.3,11.2-23c6.7-11.6,10-17.5,14.8-21
					c0,0,0,0,0,0c0-0.3-0.1-0.5-0.1-0.8C933.1,495,941.8,505.8,941.8,515.3z"/>
			</g>
			<g id="head_general_1_">
				<g id="hair_1_">
					<polygon class="st5" points="994.2,367.4 986.1,377.4 977.5,370.9 966.2,362.4 974.2,355.4 986.2,362.6 					"/>
					<polygon class="st18" points="994.2,367.4 986.1,377.4 977.5,370.9 986.2,362.6 					"/>
					<path class="st24" d="M1013.2,364.3c-9.4,8.2-22.5,5.6-30.2,0.6c-0.8-0.5-11.3-7.6-12.1-20.4c0-0.6-0.1-1.2-0.1-1.8
						c0.1-13.2,10.6-25.2,19.2-25.9c5-0.4,8.6,2.2,8.6,2.2c2.4,1.7,2.8,3.5,4.2,5.6c0.3,0.4,0.5,0.8,0.8,1.1
						c4.6,5.7,11,4.8,14.9,9.3C1023.8,341,1022.7,356.1,1013.2,364.3z"/>
					<path class="st24" d="M979.5,427.3L979.5,427.3c-4,3.3-21.4,16.6-22.1,17c-6.6-9.7-13.2-19.5-19.8-29.2c0,0,0,0,0,0l-1.1-1.7
						L924,393.7l-0.7-1.1c0,0,0,0,0,0c-1.3-1.8-2.6-3.7-4-5.9c-1-1.7-2-3.4-2.8-5c0,0,0,0,0,0c-0.4-0.9-1.6-4.3-0.7-8.3
						c0-0.1,0-0.1,0-0.2c0.1-0.5,0.3-1,0.5-1.5c0-0.1,0.1-0.3,0.1-0.4c2.8-6.8,10.3-8.3,10.8-8.3c0.4-1,1.1-2.5,2.3-4
						c4.6-5.8,11.9-6.7,15.1-7.1c4.5-0.6,11.1,0.4,17.9,3.2c2.6,1,5.2,2.3,7.8,3.8c3.9,2.3,7.6,5.2,10.9,8.6
						c2.4,2.5,4.5,5.3,6.2,8.4c1.8,3.3,3.3,6.9,4.1,10.9C996.1,408,981.4,425.1,979.5,427.3z"/>
					<linearGradient id="SVGID_4_" gradientUnits="userSpaceOnUse" x1="915.5149" y1="367.8162" x2="962.5931" y2="367.8162">
						<stop  offset="0" style="stop-color:#FFFFFF"/>
						<stop  offset="1" style="stop-color:#9375A1"/>
					</linearGradient>
					<path class="st25" d="M962.6,354.9c-1.5,0-20.1-0.2-29.3,14.1c-3.7,5.7-4.4,11.5-4.5,15c-1.7-0.4-3.4-0.9-5.3-1.2
						c-2.4-0.5-4.7-0.9-6.9-1.1c0,0,0,0,0,0c-0.4-0.9-1.6-4.3-0.7-8.3c0-0.1,0-0.1,0-0.2c0.1-0.5,0.3-1,0.5-1.5
						c0-0.1,0.1-0.3,0.1-0.4c2.8-6.8,10.3-8.3,10.8-8.3c0.4-1,1.1-2.5,2.3-4c4.6-5.8,11.9-6.7,15.1-7.1
						C949.2,351.2,955.8,352.2,962.6,354.9z"/>
					<linearGradient id="SVGID_5_" gradientUnits="userSpaceOnUse" x1="970.8508" y1="329.6671" x2="1003.6229" y2="329.6671">
						<stop  offset="0" style="stop-color:#FFFFFF"/>
						<stop  offset="1" style="stop-color:#9375A1"/>
					</linearGradient>
					<path class="st26" d="M1003.6,325.6c-2.7-0.5-5.8-1-9.5-1.7c-8.4-1.5-17.8,10.3-23.3,18.6c0.1-13.2,10.6-25.2,19.2-25.9
						c5-0.4,8.6,2.2,8.6,2.2c2.4,1.7,2.8,3.5,4.2,5.6C1003.1,324.9,1003.3,325.3,1003.6,325.6z"/>
				</g>
				<path class="st14" d="M975.6,428.8c-1.2,1.5-2.9,3.5-5,5.7c-2.1,2.3-4.8,4.9-7.9,7.6c-1.6,1.4-3.3,2.9-5.1,4.3
					c-13.7,11.1-31.9,21.5-44.4,14.9c-7.6-4.1-10.6-13.3-11.8-16.9c-1.1-3.4-2.5-9.4,0.1-23.2c1.5-8,3.3-17.8,8.7-28.8
					c0.3-0.6,0.6-1.2,0.9-1.8c0.8-1.5,1.6-3,2.6-4.6c0.3-0.6,1.3-2.1,2.7-4.3c0,0,0.1-0.1,0.1-0.1c0,0,0,0,0,0
					c0.3,0.1,0.7,0.1,1,0.2c5.1,0.8,10.5,2,16.1,3.5c13.6,3.6,25.1,8.5,34.5,13.3c-1.7,2.6-3.9,5.7-5.7,11.1c-1,3-1.5,5.6-0.8,8.5
					c0.1,0.4,0.4,1.8,1.4,3.4c0.3,0.6,0.8,1.3,1.3,1.9c1.5,1.8,3.2,2.9,4.9,3.7C972.1,428.6,974.8,428.8,975.6,428.8z"/>
				<g id="eyes_2_">
					
						<ellipse transform="matrix(0.3213 -0.947 0.947 0.3213 246.6632 1169.6747)" class="st27" cx="939.3" cy="412.8" rx="2.8" ry="2.8"/>
					
						<ellipse transform="matrix(0.3213 -0.947 0.947 0.3213 236.5207 1140.2954)" class="st27" cx="913.7" cy="405.1" rx="2.8" ry="2.8"/>
				</g>
				<path id="nose_2_" class="st28" d="M924.5,406.5c-2.3,2.4-5.2,5.5-8.5,9.2c-4.7,5.1-6.6,7.3-6,9.8c0.3,1.5,1.4,2.5,2.8,3.8
					c2.3,2.2,4.8,3.2,6.3,3.7C921,424.1,922.7,415.3,924.5,406.5z"/>
				<path class="st27" d="M921.4,446.5c-4.2,0-7-2.4-8.1-3.4c-0.2-0.2-0.2-0.6,0-0.8c0.2-0.2,0.6-0.2,0.8,0c1,1,3.8,3.3,7.9,3.1
					c4.7-0.3,8-3.8,8.9-4.9c0.2-0.2,0.6-0.3,0.8-0.1c0.2,0.2,0.3,0.6,0.1,0.8c-1,1.2-4.5,5-9.7,5.3
					C921.9,446.4,921.7,446.5,921.4,446.5z"/>
				<g id="brows_1_">
					<path id="brow_1_" d="M936.8,397.2c0.1-0.6,4.8-0.6,9.1,1.4c4.3,2,7.5,5.4,7.1,5.9c-0.2,0.3-1.6-0.5-9.1-3.8
						C938,398,936.7,397.6,936.8,397.2z"/>
					<path id="brow_2_" d="M908.2,392c-0.1-0.6,4-2,8.3-1.6c4.3,0.4,8,2.6,7.8,3.2c-0.1,0.4-1.6,0.1-8.9-0.7
						C909.4,392.3,908.2,392.3,908.2,392z"/>
				</g>
				<g id="ear_1_">
					<path class="st14" d="M980.1,434.6c-1.5,6.2-7.6,10.1-13.8,8.8c-0.1,0-0.2,0-0.4-0.1c-1.1-0.3-2.2-0.7-3.2-1.3
						c-2.8-1.7-4.8-4.4-5.5-7.6c-0.4-1.7-0.4-3.5,0.1-5.3c0-0.2,0.1-0.4,0.2-0.6c0.9-3,2.9-5.5,5.5-6.9c2.5-1.4,5.5-1.9,8.5-1.2
						c1.9,0.4,3.5,1.3,4.9,2.5c0.9,0.8,1.7,1.7,2.3,2.7c0.3,0.5,0.6,1.1,0.9,1.7C980.4,429.5,980.7,432.1,980.1,434.6z"/>
					<linearGradient id="SVGID_6_" gradientUnits="userSpaceOnUse" x1="956.9778" y1="427.2738" x2="976.3744" y2="427.2738">
						<stop  offset="0" style="stop-color:#E2C8C0"/>
						<stop  offset="1" style="stop-color:#DD8093;stop-opacity:0.4"/>
					</linearGradient>
					<path class="st29" d="M976.4,422.9l-19.1,11.5c-0.4-1.7-0.4-3.5,0.1-5.3c0-0.2,0.1-0.4,0.2-0.6c1.8-6,7.9-9.6,14-8.1
						C973.3,420.8,975,421.7,976.4,422.9z"/>
				</g>
			</g>
			<g id="hand_front_1_">
				<path class="st14" d="M952.2,605.6c-3.1,3.8-6.2,7.5-9.4,11.3c-1.9-0.6-4.5-1.6-7.6-2.8c-2.4-1-4.3-1.8-5.9-2.7
					c-5.3-2.7-7.9-5-18.2-10.5c-2.2-1.2-11.1-5.9-10.8-8.2c0.1-0.8,0.5-1.1,0.5-1.1c0.8-0.6,2.2,0.2,2.8,0.5c1.5,0.8,7.6,4,16.6,8.7
					c0,0,0.1-0.1,0.1-0.1c-4.2-2.7-10.5-6.9-16.6-11c-1.3-0.9-4-2.7-3.7-4.2c0.1-0.3,0.3-0.7,0.6-0.9c1.1-0.8,3.2,0.4,3.9,0.8
					c2.4,1.4,9.2,5.2,18.7,10.6c0.1-0.1,0.2-0.3,0.3-0.4c-3.9-2.8-10.9-7.9-17.5-12.9c-1.3-0.9-3.9-2.9-3.5-4.4c0,0,0.1-0.5,0.7-0.9
					c0.9-0.6,4.8,0.6,23.6,14.6c0.1-0.1,0.2-0.2,0.4-0.4c-8.8-8.2-16.3-14.2-17.2-15.4c-0.7-0.8-1.1-1.7-0.9-2.4
					c0,0,0.2-0.5,0.7-0.8c1.5-0.8,5.3,2.5,5.3,2.5c2.9,2.3,7.5,5.8,13,10.5c7,5.9,11.4,10,12.3,9.2c0.8-0.7-1.7-5.4-1.9-5.7
					c-1.4-2.5-2.2-2.7-2.9-4.5c-1.2-2.8-1.1-6.6-0.1-7c1.5-0.6,4.9,5.3,8,10.6c2.3,3.8,4.7,8.4,7.1,13.7
					C951.2,603.3,951.7,604.5,952.2,605.6z"/>
				<path class="st18" d="M952.2,605.6c-3.1,3.8-6.2,7.5-9.4,11.3c-1.9-0.6-4.5-1.6-7.6-2.8c-2.4-1-4.3-1.8-5.9-2.7
					c10.3-1.4,17.6-6.2,21.3-9.2C951.2,603.3,951.7,604.5,952.2,605.6z"/>
			</g>
			<g id="leg_back">
				<path class="st30" d="M959.1,787.2c-24.1,17.5-54.8,3.8-165.2-13c-28.3-4.3-51.7-7.1-67.5-8.8c-0.1,0.2-0.4,0.6-0.6,1
					c-5.8,10.3-6.2,20.3-6.3,21.8c-1.6,22.7-42.8,64.8-42.8,64.8c-17.4,17.9-40.5,47.7-64.6,100.1c0,0.1-0.1,0.2-0.1,0.2
					c-0.8,1.7-1.6,3.4-2.3,5.2c-6.8-6.3-13.6-12.6-20.4-19c0,0,0,0,0-0.1c2.1-4.6,4.1-9.1,6-13.3c16.5-36.6,26-58.6,31.7-72.4
					c2.2-5.4,9.8-23.5,20.9-47.5c2-4.3,4-8.5,6.2-13.1c25.2-52.3,37.8-78.5,54.1-88.8c18.8-11.9,45.2-11.7,98.2-11.4
					c26.8,0.2,49.1,1.9,64.9,3.6c0.2-0.4,0.4-0.9,0.6-1.3c1.2-2.7,2.5-5.5,3.7-8.2c0.7-1.5,1.4-3.1,2.1-4.6
					c35.1,2.7,70.3,5.4,105.4,8.1c0.2,2.7,0.4,5.3,0.6,7.8c0.2,3.1,0.4,6,0.4,8.9C986,761,969.4,779.7,959.1,787.2z"/>
				<path class="st14" d="M612,953.1c0,0.1-0.1,0.2-0.1,0.2c-1,2.2-2,4.4-2.9,6.7c-0.8,1.8-1.6,3.5-2.4,5.3c-6.9-6-13.8-12-20.7-18
					c1.1-2.6,2.2-5.2,3.3-7.8c0,0,0,0,0-0.1c0.5-1.2,1.1-2.3,1.6-3.5c1.4-3.1,2.8-6.1,4.1-9l2.2,2.1C602,937.1,607,945.1,612,953.1z
					"/>
				<polygon class="st30" points="595.6,918.7 618.1,945.7 614.1,956.9 590.1,929.7 				"/>
				<path class="st18" d="M612,953.1c0,0.1-0.1,0.2-0.1,0.2c-1,2.2-2,4.4-2.9,6.7l-18.2-24c1.4-3.1,2.8-6.1,4.1-9l2.2,2.1
					C602,937.1,607,945.1,612,953.1z"/>
			</g>
			<g id="leg_front">
				<path class="st31" d="M756.8,782c4.8,13.8,10.4,34.6,10.5,60.2c0.1,20-3.1,32.1-5.8,50.7c-2.6,18.6-4.8,45.1-2.3,78.4
					c0.2,2.2,0.4,4.4,0.6,6.6c-8.1,1.7-16.2,3.4-24.4,5.1c-0.2-0.8-0.4-2.1-0.8-4c-0.5-2.4-1.1-5.7-1.9-9.7
					c-6.7-33.8-23.8-120.5-35.8-192c-1.7-9.9-2.2-25.7,3-37.3c2-4.4,4.8-8.3,8.7-10.9c9.1-6.3,25.2-6.5,37-3.7
					c6.2,1.5,10.7,3.7,11.8,4.3c12,6,30.6,14.4,30.6,14.4c14,6.3,52.5,23.7,104.2,46.9C847.1,788,801.9,785,756.8,782z"/>
				<path class="st14" d="M760.8,991.2c-7.8,0.6-15.5,1.2-23.3,1.9c-1.4-6.8-2.8-13.7-4.1-20.5c-0.5-2.5-1-5.1-1.5-7.6
					c9.2,2.6,18.4,5.2,27.5,7.8c0.1,1,0.2,2,0.2,2.9C760,980.9,760.4,986.1,760.8,991.2z"/>
				<path class="st30" d="M728.9,956.9c4.2,1.9,9.9,4,16.9,5.1c5.5,0.9,10.5,1.1,14.4,0.9c0.1,3.5,0.2,7,0.2,10.6
					c-9.7-1.5-19.5-2.9-29.2-4.4C730.5,965.1,729.7,961,728.9,956.9z"/>
				<path class="st18" d="M759.6,975.7c-5.2-0.6-19.6-2.3-26.2-3.1c-0.5-2.5-1-5.1-1.5-7.6c9.2,2.6,18.4,5.2,27.5,7.8
					C759.4,973.7,759.5,974.7,759.6,975.7z"/>
				<path class="st32" d="M756.8,782c4.8,13.8,10.4,34.6,10.5,60.2c0.1,20-3.1,32.1-5.8,50.7c-2.6,18.6-4.8,45.1-2.3,78.4l-4.2,0.2
					c0,0-19.8-173.4-23.2-192.7c-3.4-19.2,38-14.1,54.9-17.3c7.6-1.4,5.7-9.3,1.3-17.5c14.8,6.9,29.8,13.7,44.9,20.5
					c19.9,9,39.8,17.8,59.4,26.3C847.2,788,802,785,756.8,782z"/>
				<linearGradient id="SVGID_7_" gradientUnits="userSpaceOnUse" x1="695.7583" y1="855.0968" x2="739.8024" y2="855.0968">
					<stop  offset="0" style="stop-color:#FFFFFF"/>
					<stop  offset="1" style="stop-color:#9375A1"/>
				</linearGradient>
				<path class="st33" d="M738.1,970.2c-1.8-0.3-3.6-0.5-5.4-0.8c-6.7-33.8-23.8-120.5-35.8-192c-1.7-9.9-2.2-25.7,3-37.3
					c5,11,9.7,22.6,14,34.8C739.6,847.7,742.5,916.2,738.1,970.2z"/>
			</g>
			<g id="shoes_1_">
				<g>
					<path class="st24" d="M608.2,962.6c-0.1,0.5-0.3,1-0.4,1.5c-1.6,6.2-3.2,12.3-4.9,18.5c-1.9,0.6-4,1.3-6.4,2.1l-1.1-5.6l-8,8.5
						c-15.4,4.6-34.7,9.7-48.3,10.5c-4.1,0.2-8.8,0.2-10.3-2.4c-1.5-2.5,0.1-7.1,3.3-10.8c1.3-1.5,2.9-2.9,4.7-3.9
						c5.5-3.1,8.8-0.3,16.7-2.9c4.6-1.5,7.4-3.8,11.4-7c3.1-2.5,7.4-6.4,12-11.9c2.5-3,5.2-6.5,7.8-10.6c0.5-0.7,1-1.5,1.5-2.3
						C593.6,951.7,600.9,957.2,608.2,962.6z"/>
					<path class="st24" d="M607.8,964.1l-23-15.7c-1.4-0.9-1.8-2.9-0.8-4.3l0,0c0.9-1.4,2.9-1.8,4.3-0.8l23,15.7
						c1.4,0.9,1.8,2.9,0.8,4.3l0,0C611.1,964.7,609.2,965.1,607.8,964.1z"/>
				</g>
				<g>
					<path class="st24" d="M767.4,1002.1l-6.9-2.2l3.8,9.3c-0.8,1.8-1.8,3.6-2.8,5.5c-4.7,8.4-13.7,24.2-31,31.9
						c-2,0.9-16.1,7-19.9,2.3c-0.7-0.8-1-1.9-1-3.2c-0.1-3.2,1.6-7.3,4.1-10c3.5-4,7.9-4.6,10.2-5.4c5.3-2.1,10.8-10.3,11.4-37.3
						c0-2.1,0.1-4.3,0.1-6.6c0-1.3,0-2.6,0-4c8.2-0.4,16.5-0.8,24.7-1.2l2.9,3.7l7.2,9.3C769.4,996.5,768.5,999.2,767.4,1002.1z"/>
					<path class="st24" d="M762.1,985.2l-27.9,1.3c-1.7,0.1-3.1-1.2-3.2-2.9l0,0c-0.1-1.7,1.2-3.1,2.9-3.2l27.9-1.3
						c1.7-0.1,3.1,1.2,3.2,2.9l0,0C765.1,983.6,763.7,985.1,762.1,985.2z"/>
				</g>
				<linearGradient id="SVGID_8_" gradientUnits="userSpaceOnUse" x1="532.233" y1="973.148" x2="577.0961" y2="973.148">
					<stop  offset="0" style="stop-color:#FFFFFF"/>
					<stop  offset="1" style="stop-color:#9375A1"/>
				</linearGradient>
				<path class="st34" d="M577.1,959.1c-3.5,8.5-9.2,18.9-17.3,24c-10.5,6.6-21.8,3.9-27.5,1.7c1.3-1.5,2.9-2.9,4.7-3.9
					c5.5-3.1,8.8-0.3,16.7-2.9c4.6-1.5,7.4-3.8,11.4-7C568.2,968.4,572.4,964.6,577.1,959.1z"/>
				<linearGradient id="SVGID_9_" gradientUnits="userSpaceOnUse" x1="709.6311" y1="1019.3871" x2="736.7535" y2="1019.3871">
					<stop  offset="0" style="stop-color:#FFFFFF"/>
					<stop  offset="1" style="stop-color:#9375A1"/>
				</linearGradient>
				<path class="st35" d="M715.3,1045.3c-2.1,0.3-4,0.5-5.7,0.4c-0.1-3.2,1.6-7.3,4.1-10c3.5-4,7.9-4.6,10.2-5.4
					c5.3-2.1,10.8-10.3,11.4-37.3C737.8,994.6,739.9,1041.6,715.3,1045.3z"/>
			</g>
		</g>
		<g id="table">
			<path class="st36" d="M967.2,642.3v14.2c0,2.4-1.6,4.3-3.6,4.3h-25.7c0,1.5,0,3.1,0,4.9c0.1,11.4,0.1,28.1,0.1,49.6
				c0,36.2,0,86.7,0,150c-0.1,81.5-0.2,163.8-0.3,199.5c5.3,1.6,9.2,6.5,9.2,12.4c0,7.1-5.8,12.9-12.9,12.9
				c-7.1,0-12.9-5.8-12.9-12.9c0-6.2,4.4-11.4,10.2-12.6c0.3-130,0-346.8,0-403.7H434.4c0,1.5,0,3.1,0,4.9c0,1.9,0,3.9,0,6
				c0,11,0.1,25.6,0.1,43.6c0,36.2,0,86.7,0,150c-0.1,81.5-0.2,163.8-0.3,199.5c5.3,1.6,9.2,6.5,9.2,12.4c0,7.1-5.8,12.9-12.9,12.9
				c-7.1,0-12.9-5.8-12.9-12.9c0-6.2,4.4-11.4,10.2-12.6c0.2-122.5,0.1-322.2,0-392.4c0-4.3,0-8.1,0-11.3h-19.5
				c-2,0-3.6-1.9-3.6-4.3v-14.2c0-2.4,1.6-4.3,3.6-4.3h555.2C965.5,638,967.2,639.9,967.2,642.3z"/>
			<linearGradient id="SVGID_10_" gradientUnits="userSpaceOnUse" x1="648.3394" y1="864.0242" x2="967.1653" y2="864.0242">
				<stop  offset="0" style="stop-color:#FC860A"/>
				<stop  offset="1" style="stop-color:#F2BE54"/>
			</linearGradient>
			<path class="st37" d="M967.2,642.3v14.2c0,2.4-1.6,4.3-3.6,4.3h-25.7c0,1.5,0,3.1,0,4.9c0.1,11.4,0.1,28.1,0.1,49.6
				c0,36.2,0,86.7,0,150c-0.1,81.5-0.2,163.8-0.3,199.5c5.3,1.6,9.2,6.5,9.2,12.4c0,7.1-5.8,12.9-12.9,12.9
				c-7.1,0-12.9-5.8-12.9-12.9c0-6.2,4.4-11.4,10.2-12.6c0.3-130,0-346.8,0-403.7H648.3l7-22.8h308.2
				C965.5,638,967.2,639.9,967.2,642.3z"/>
			<path class="st16" d="M434.5,665.7c0,1.9,0,3.9,0,6l-6.7,0.4c0-4.3,0-8.1,0-11.3h-8.5l1-22.8h29.5c1.3,7.5,2.9,16.3,4.1,22.8
				h-19.3C434.5,662.3,434.5,663.9,434.5,665.7z"/>
		</g>
		<g id="man">
			<g id="hand_back">
				<path class="st38" d="M612.4,634.5c-0.4,0.8-1.4,1.4-2.3,1.8c-0.9,0.4-1.7,0.7-1.7,0.7c-1.1,0.7-4,1-4.4,1
					c-6.2,0.5-10.7-2.1-18-5.9c-3.2-1.6-8-4-14-6.9c-1.7,0.4-4.1,1.1-7,2.2c-3.5,1.4-6.2,2.8-8.4,4.2c9.9,0,20.3,0.3,20.7,1.6
					c0.1,0.4,0.2,0.8,0.3,1.2c0.4,2-0.2,3.5-2.2,3.5c-2,0-25.5,0.7-33.3,0.9c-0.8,0.1-1.6,0.1-2.4,0.1c0,0-0.1,0-0.1,0
					c-2-0.1-4.3-0.4-6.9-1.3c-1.6-0.5-3.3-1.2-5.2-2.1c-0.7-0.3-1.5-0.7-2.2-1.1c-25.7-31.5-45.1-54.1-59.2-70.2
					c-9.4-10.7-20.5-23.2-29.1-43.6c-2-4.8-3.6-9.4-5-13.8c-2.9-9.7-4.4-18.3-5.2-24.9c0.6-0.3,1.1-0.6,1.7-0.9
					c7.2-4.1,14.4-8.2,21.5-12.2c4.7-2.7,9.3-5.3,14-7.9c0.4,2.6,0.8,5.3,1.3,7.9c0.6,3.9,1.2,7.8,1.8,11.7c1.5,9.4,3,18.8,4.5,28.2
					c24.8,37.6,49.5,75.1,74.2,112.7c5-1.4,9.4-2.5,12.9-3.2c1.1-0.2,2.2-0.4,3.1-0.6c4.1-0.8,6.6-1.2,8.9-0.9
					c0.6,0.1,14.5-0.1,16.1,1.2c0.5,0.4,2.1,1.9,4,3.7v0c1.5,1.4,3.1,3,4.5,4.5C604.3,630,612.8,633.8,612.4,634.5z"/>
				<path class="st16" d="M527.5,635.6c-0.7-0.3-1.5-0.7-2.2-1.1c-25.7-31.5-45.1-54.1-59.2-70.2c-9.4-10.7-20.5-23.2-29.1-43.6
					c-2-4.8-3.6-9.4-5-13.8l-3.5-25.9c7.2-4.1,14.4-8.2,21.5-12.2h15.2c0.6,3.9,1.2,7.8,1.8,11.7l-19.5,12.6c0,0-4.9,27.3,8,47.5
					C467.2,558.8,517.6,623,527.5,635.6z"/>
				<path class="st16" d="M575.4,638c-2,0-25.5,0.7-33.3,0.9c-0.8,0.1-1.6,0.1-2.4,0.1c0,0-0.1,0-0.1,0c-2-0.1-4.3-0.4-6.9-1.3
					l44.9-3.2C578,636.5,577.4,638,575.4,638z"/>
				<linearGradient id="SVGID_11_" gradientUnits="userSpaceOnUse" x1="561.8553" y1="619.2658" x2="590.8589" y2="619.2658">
					<stop  offset="2.383814e-03" style="stop-color:#FF931E"/>
					<stop  offset="1" style="stop-color:#FFFFFF"/>
				</linearGradient>
				<path class="st39" d="M590.9,621.7L590.9,621.7c-12.1,0.8-22.3-1.5-29-4c4.1-0.8,6.6-1.2,8.9-0.9c0.6,0.1,14.5-0.1,16.1,1.2
					C587.4,618.4,589,619.9,590.9,621.7z"/>
			</g>
			<g id="shoes">
				<path class="st24" d="M410.2,1113.6c-33.6-0.3-67.3-0.6-100.9-1c0.2-1.9,0.5-3.9,0.7-5.8c1-8.1,2-16.2,3-24.4l0.4-2.2l0-0.3
					c0.7-2.4,1.4-4.7,2.1-7.1c13.5,1,26.9,2,40.4,3l1.6,7.7l0.2,1.1l0.9,4.3l0,0.2c0.6,0.4,1.2,0.7,1.8,1c1.7,0.9,3.4,1.7,5,2.4
					c0.8,0.3,1.6,0.7,2.4,0.9c6.1,2.2,11,2.4,14.7,2.2c2.3-0.2,5.8-0.7,11.1-0.4c6,0.4,10.2,0.7,13.3,3.6c2.6,2.5,3.5,6,3.6,9
					C410.8,1110.5,410.3,1112.9,410.2,1113.6z"/>
				<path class="st5" d="M410.6,1107.7c0.1,2.8-0.3,5.2-0.4,5.9c-33.6-0.3-67.3-0.6-100.9-1c0.2-1.9,0.5-3.9,0.7-5.8
					C326.9,1107.1,385.7,1107.5,410.6,1107.7z"/>
				<path class="st5" d="M360.6,1090l-9.5,4.2c-0.1,0-0.2,0.1-0.3,0.1c-0.4,0.1-0.8-0.2-1-0.5c-0.2-0.5,0-1,0.5-1.2l8.4-3.7l0,0.2
					C359.3,1089.4,360,1089.7,360.6,1090z"/>
				<path class="st5" d="M368,1093.3l-8.1,3.6c-0.1,0-0.2,0.1-0.3,0.1c-0.4,0.1-0.8-0.2-1-0.5c-0.2-0.5,0-1,0.5-1.2l6.4-2.9
					C366.4,1092.7,367.2,1093,368,1093.3z"/>
				<path class="st24" d="M338.2,1110.6c0,0.4,0,0.8-0.1,1.2c-0.3,2-1,3.6-1.7,4.7c-33.5-4.1-67-8.1-100.5-12.2l2-6.8l7.9-27.5
					l41.3,4l0.9,12.6l0.1,1c0.4,0.2,0.8,0.4,1.3,0.6c1.8,0.8,4.1,1.6,6.7,2.4h0c1.1,0.3,2.2,0.6,3.4,0.9c2,0.5,4.2,0.9,6.6,1.2
					c9.9,1.3,12.9-0.7,19.2,2.1C331.1,1097.2,338.4,1103.3,338.2,1110.6z"/>
				<path class="st5" d="M338.1,1111.8c-0.3,2-1,3.6-1.7,4.7c-33.5-4.1-67-8.1-100.5-12.2l2-6.8
					C254.6,1099.9,313.8,1108.3,338.1,1111.8z"/>
				<path class="st5" d="M289.3,1087.9l-10.4,3c-0.1,0-0.2,0-0.3,0c-0.4,0-0.8-0.3-0.9-0.7c-0.1-0.5,0.1-1,0.6-1.1l9.5-2.8l0.1,1
					C288.4,1087.6,288.8,1087.8,289.3,1087.9z"/>
				<path class="st5" d="M299.4,1091.3l-12.1,3.5c-0.1,0-0.2,0-0.3,0c-0.4,0-0.8-0.3-0.9-0.7c-0.1-0.5,0.1-1,0.6-1.1l9.2-2.7h0
					C297,1090.7,298.2,1091,299.4,1091.3z"/>
			</g>
			<g id="legs">
				<g id="back_leg">
					<path class="st15" d="M450.5,861.9c-3.8,18.3-7.7,27.6-39.2,99.4c-7.2,16.4-16.4,37.3-27.2,61.8c-7.8,17.7-16.5,37.4-25.9,58.7
						c-0.2,0.5-0.5,1-0.7,1.6c-0.1,0.2-0.1,0.3-0.2,0.5c-9.8-0.8-19.5-1.6-29.3-2.4c-4.9-0.4-9.8-0.8-14.7-1.2h0
						c0-0.1,0.1-0.2,0.1-0.3c0.7-2.4,1.4-4.7,2.1-7.1c22.1-74.4,44.3-148.8,66.4-223.2c-17.5-69.4-35.1-138.8-52.6-208.2
						c-1.2-4.8-2.4-9.6-3.6-14.4c33.3-5.3,66.6-10.6,99.9-15.9c1.2,4.7,2.4,9.9,3.7,15.4c2.3,10.1,4.8,21.5,7.3,34.2
						c2.8,14.6,5.6,30.7,8.2,48.3C454.7,777.1,460.2,814.9,450.5,861.9z"/>
					<path class="st16" d="M384.4,693.5c-7,17.4,2.7,33.6,10.8,58.5c13.1,40.3,12.1,73.5,11,107.6c-1.2,40.1-8.9,45.1-18.6,129.2
						c-1.7,14.4-2.8,26.3-3.6,34.3c-7.8,17.7-16.5,37.4-25.9,58.7c-15-0.5-29.9-1.1-44.9-1.6h0c0-0.1,0.1-0.2,0.1-0.3
						c0.7-2.4,1.4-4.7,2.1-7.1c22.1-74.4,44.3-148.8,66.4-223.2c-17.5-69.4-35.1-138.8-52.6-208.2l100-14.8
						c2.3,10.1,4.8,21.5,7.3,34.2C416.9,665.1,392.4,673.8,384.4,693.5z"/>
				</g>
				<g id="front_leg">
					<path class="st20" d="M397.4,573.3c-1,4.8-1.9,9.6-2.9,14.3c-19.5,96-39.6,191.9-60.4,287.7C319,945,303.6,1014.5,287.8,1084
						c-2.5,0-5.1,0.1-7.6,0.1c-12.9,0.2-25.8,0.4-38.7,0.7c2.5-78.7,5.8-145.2,8.9-198.7c1.2-20.5,2.4-39.1,3.5-55.7
						c2.1-31.2,5.5-79.4,7.9-143c0.5-14.3,1-29.5,1.4-45.3c0.2-8.9,0.4-18,0.6-27.3c0.1-3.9,0.1-7.8,0.2-11.5
						c0.3-21,0.4-38.8,0.4-52.3c26.8,4.5,53.7,9,80.5,13.6c2.7,0.5,5.4,0.9,8.2,1.4c2.7,0.5,5.4,0.9,8.2,1.4
						C373.2,569.3,385.3,571.3,397.4,573.3z"/>
					<path class="st16" d="M394.5,587.7c-19.5,96-39.6,191.9-60.4,287.7C319,945,303.6,1014.5,287.8,1084c-2.5,0-5.1,0.1-7.6,0.1
						c2.7-150.9,8.8-249.1,18.9-306.8c2.6-14.9,10-53-11.2-75.4c-7.5-7.9-16.9-12.2-26.1-14.6c0.5-14.3,1-29.5,1.4-45.3
						c20.9-35.8,53.6-78.8,89.8-76.1c2.7,0.2,5.4,0.6,8.2,1.4L394.5,587.7z"/>
				</g>
			</g>
			<g id="shirt">
				<path class="st5" d="M476.8,462.1c-2.1,4.2-4.2,8.4-6.4,12.7l-26.4,5.7c-2.8,18.7-5.4,34.5-7.4,46.1c-0.2,6.7-0.3,13.5-0.4,20.4
					c-0.1,9.6,0,19.4,0.2,29.4c0.5,24.7,1.9,48.1,3.9,70.1c-10.5,3.6-22.5,7.1-35.8,9.9c-15.9,3.4-30.6,5.1-43.3,5.9
					c1.6-6.8,3.1-13.6,4.7-20.5c-5.6,7.7-11.2,15.5-16.8,23.3c-25.1-3.5-50.2-6.9-75.4-10.2c-11.8-1.6-23.6-3.1-35.4-4.6
					c8.3-37.5,18.6-83.9,25.9-115.7c1.6-7.2,3.1-13.6,4.4-19c1.7-7.1,2.9-12.5,3.7-15.6c0.1-0.6,0.4-1.7,0.8-3.1
					c0.2-0.8,6.5-34,7.8-38.4c-2.9,2.3-5.9,4.6-8.8,7.2c-6.8,5.8-13,11.6-18.5,17.3c1.1,0.1,2.2,0.1,3.3,0.2
					c-0.9,1.7-2.1,3.6-3.8,5.7c-2,2.5-4.1,4.3-5.8,5.6c-0.1,0-0.2,0-0.3,0c-2.9,0.4-5.8,0.8-8.6,1.2c-15.1,2.1-30.3,4.2-45.4,6.3
					l-0.1-0.1c-1.1-2.6-2.4-6.4-2.9-11.2c-0.3-3.7,0-6.8,0.4-9.2c1.5,0.1,3.7,0.3,6.4,0.4c8.5-17.8,32.2-65.2,59.9-104.4
					c0,0,25.8-36.8,54.5-47.4c1.1-0.4,2.2-0.8,2.2-0.8c2-0.7,16.6-5.7,34.2-6.9c14.3-1,31.2-2.2,50.6,5.8c1.1,0.5,3.3,1.4,6.1,2.8
					c4.2,2.1,9.8,5.5,15.9,10.3c4.5,3.6,9.1,8,13.6,13.3c11.9,14.3,16,28,21.3,45c4.5,14.4,9.6,36.1,9.9,63.5
					C469,462.7,472.9,462.4,476.8,462.1z"/>
				<g class="st40">
					<path class="st24" d="M434.2,354.9c-50.9,2.2-126.5,5.5-165.3,7.4c2-2.3,4.2-4.7,6.7-7.1c40.5-2,108.9-5,152.7-6.8
						c1.9,1.9,3.8,3.9,5.6,6.1C434,354.6,434.1,354.8,434.2,354.9z"/>
					<path class="st24" d="M455.7,401.2c-56.5-4.1-176.4-12.7-205.6-14.2c1.5-2.2,2.9-4.3,4.4-6.5c37.5,2.1,155.7,10.6,199,13.8
						c0.5,1.7,1.1,3.5,1.6,5.2C455.4,400.1,455.5,400.6,455.7,401.2z"/>
					<path class="st24" d="M462.2,429.3c-70,1.3-219.9,4.1-240.8,5.1c1.2-2.3,2.5-4.6,3.9-6.9c35.7-1.3,189.6-4.1,235.8-5
						C461.4,424.7,461.8,427,462.2,429.3z"/>
					<path class="st24" d="M471.5,472.5c-0.4,0.7-0.7,1.5-1.1,2.2L455,478h0c-48.3-3.8-120.5-9.3-175.5-13.5
						c0.7-3.1,1.2-5.4,1.5-6.3c-2.4,1.9-4.8,3.8-7.3,5.9h0c-30.3-2.3-54.6-4-65.7-4.7c1.1-2.1,2.2-4.3,3.4-6.6
						C255.4,455.7,427.1,469.1,471.5,472.5z"/>
					<path class="st24" d="M442.4,491.1c-0.4,2.3-0.7,4.6-1.1,6.8c-44.7,2.3-122.8,6.3-170.6,9c0.7-2.9,1.2-5.2,1.7-6.9
						C324.2,497.1,407.5,492.9,442.4,491.1z"/>
					<path class="st24" d="M436.6,529.4c-0.1,2.2-0.1,4.5-0.2,6.8c-47.8-1.8-126.2-4.6-171.2-6c0.5-2.3,1-4.6,1.5-6.7
						C314.5,525,396.2,527.9,436.6,529.4z"/>
					<path class="st24" d="M436.2,551.9c0,2.2,0,4.5,0,6.8c-52.7,3.3-139.3,8.8-180,11.8c0.5-2.3,1-4.6,1.5-6.9
						C301.8,560.4,391.6,554.7,436.2,551.9z"/>
					<path class="st24" d="M437.4,603c-53.2-0.1-147.6-0.1-188.5,0.2c0.5-2.2,1-4.5,1.5-6.8c44.3-0.4,142.8-0.3,186.7-0.2
						C437.2,598.5,437.3,600.7,437.4,603z"/>
					<path class="st24" d="M440.2,644.5c-54.5-5.1-158.4-14.8-196.6-18c0.5-2.2,1-4.4,1.5-6.6c41.5,3.4,150.2,13.6,194.5,17.8
						C439.8,640,440,642.3,440.2,644.5z"/>
				</g>
				<path class="st3" d="M476.8,462.1c-1.8,3.5-3.5,7-5.3,10.5c-0.4,0.7-0.7,1.5-1.1,2.2L455,478h0l-11,2.4
					c-0.6,3.7-1.1,7.3-1.7,10.7c-0.4,2.3-0.7,4.6-1.1,6.8c-1.8,11.1-3.3,20.8-4.6,28.5c0,1-0.1,2-0.1,3c-0.1,2.2-0.1,4.5-0.2,6.8
					c-0.1,5.1-0.2,10.4-0.2,15.7c0,2.2,0,4.5,0,6.8c0,5.8,0.1,11.6,0.2,17.6c0.1,6.8,0.3,13.4,0.6,20c0.1,2.3,0.2,4.5,0.3,6.8
					c0.6,11.9,1.3,23.5,2.3,34.7c0.2,2.3,0.4,4.6,0.6,6.8c0,0.6,0.1,1.2,0.2,1.8c-10.5,3.6-22.5,7.1-35.8,9.9
					c-15.9,3.4-30.6,5.1-43.4,5.9c1.5-6.8,3.1-13.7,4.7-20.5c-5.6,7.8-11.2,15.5-16.8,23.3c-25.1-3.5-50.2-6.9-75.4-10.2
					c-11.8-1.6-23.6-3.1-35.4-4.6c1.7-7.5,3.4-15.5,5.2-23.5c0.5-2.2,1-4.4,1.5-6.6c1.2-5.5,2.5-11.2,3.7-16.8
					c0.5-2.2,1-4.5,1.5-6.8c2-8.8,3.9-17.6,5.8-26c0.5-2.3,1-4.6,1.5-6.9c2.4-10.5,4.6-20.4,6.6-29.1c0.3-1.4,0.6-2.8,1-4.2
					c0.5-2.3,1-4.6,1.5-6.7c1.5-6.6,2.8-12.2,3.9-16.6c0.7-2.9,1.2-5.2,1.7-6.9c0-0.1,0-0.2,0.1-0.3c0.1-0.6,0.4-1.7,0.8-3.1
					c0.1-0.6,4-21.1,6.3-32.1c0.7-3.1,1.2-5.4,1.5-6.3c-2.4,1.9-4.8,3.8-7.3,5.9h0c-0.5,0.4-1,0.9-1.5,1.3
					c-6.8,5.8-13,11.6-18.5,17.3c1.1,0.1,2.2,0.1,3.3,0.2c-0.9,1.7-2.1,3.6-3.8,5.7c-2,2.5-4.1,4.3-5.8,5.6c-0.1,0-0.2,0-0.3,0
					c-18,2.5-36.1,5-54.1,7.5l-0.1-0.1c-1.1-2.6-2.4-6.4-2.8-11.2c-0.3-3.7,0-6.8,0.4-9.2c1.5,0.1,3.7,0.3,6.4,0.5
					c2.5-5.2,6.3-12.9,11.1-22.3c1.1-2.1,2.2-4.3,3.4-6.6c3-5.8,6.4-12,10-18.5c1.2-2.3,2.5-4.6,3.9-6.9
					c7.5-13.1,15.9-27.1,24.9-40.6c1.5-2.2,2.9-4.3,4.4-6.5c0.7-1.1,1.5-2.2,2.2-3.2c0,0,4.6-6.6,12.1-15c2-2.3,4.2-4.7,6.7-7.1
					c9.8-9.9,22.4-20.4,35.8-25.3c1.1-0.4,2.1-0.8,2.1-0.8c2-0.7,16.6-5.7,34.2-6.9c14.3-1,31.2-2.2,50.6,5.8
					c3.5,1.5,16.9,7.2,30,20.3c1.9,1.9,3.8,3.9,5.6,6.1c0.1,0.1,0.2,0.3,0.3,0.4c10.4,12.6,14.8,24.9,19.3,39.4
					c0.5,1.7,1.1,3.5,1.6,5.2c0.2,0.6,0.4,1.1,0.5,1.7c1.8,6,3.7,13.2,5.3,21.4c0.4,2.2,0.8,4.4,1.2,6.7c1.6,10,2.8,21.2,2.9,33.7
					C469,462.7,472.9,462.4,476.8,462.1z"/>
				<circle class="st41" cx="390.3" cy="419.2" r="3.2"/>
				<circle class="st41" cx="390.3" cy="451.6" r="3.2"/>
				<circle class="st41" cx="382.2" cy="547.7" r="3.2"/>
				<circle class="st41" cx="376.9" cy="586.2" r="3.2"/>
				<circle class="st41" cx="370.2" cy="624.3" r="3.2"/>
				<linearGradient id="SVGID_12_" gradientUnits="userSpaceOnUse" x1="423.245" y1="379.6786" x2="463.7016" y2="467.7289">
					<stop  offset="0.149" style="stop-color:#87AEB4;stop-opacity:0.5"/>
					<stop  offset="0.8349" style="stop-color:#153E5C"/>
				</linearGradient>
				<path class="st42" d="M476.8,462.1c-2.1,4.2-4.2,8.4-6.4,12.7l-26.4,5.7c2.1-21.5,2.5-52.7-6.1-88.6
					c-4.7-19.8-11.2-36.8-17.6-50.6c4.5,3.6,9.1,8,13.6,13.3c11.9,14.3,16,28,21.3,45c4.5,14.4,9.6,36.1,9.9,63.5
					C469,462.7,472.9,462.4,476.8,462.1z"/>
				<linearGradient id="SVGID_13_" gradientUnits="userSpaceOnUse" x1="361.2972" y1="604.5076" x2="440.4009" y2="604.5076">
					<stop  offset="0.1948" style="stop-color:#87AEB4"/>
					<stop  offset="0.8349" style="stop-color:#153E5C"/>
				</linearGradient>
				<path class="st43" d="M440.4,646.3c-10.5,3.6-22.5,7.1-35.8,9.9c-15.9,3.4-30.6,5.1-43.3,5.9c1.6-6.8,3.1-13.6,4.7-20.5
					l70.3-94.9c-0.1,9.6,0,19.4,0.2,29.4C437,600.9,438.4,624.3,440.4,646.3z"/>
				<linearGradient id="SVGID_14_" gradientUnits="userSpaceOnUse" x1="238.5126" y1="468.9366" x2="299.1936" y2="468.9366">
					<stop  offset="0.1903" style="stop-color:#87AEB4;stop-opacity:0.6"/>
					<stop  offset="0.8349" style="stop-color:#153E5C"/>
				</linearGradient>
				<path class="st44" d="M268.7,515.3c1.7-7.1,2.9-12.5,3.7-15.6c0.1-0.6,0.4-1.7,0.8-3.1c0.2-0.8,6.5-34,7.8-38.4
					c-2.9,2.3-5.9,4.6-8.8,7.2c-6.8,5.8-13,11.6-18.5,17.3c1.1,0.1,2.2,0.1,3.3,0.2c-0.9,1.7-2.1,3.6-3.8,5.7
					c-2,2.5-4.1,4.3-5.8,5.6c-0.1,0-0.2,0-0.3,0c-2.9,0.4-5.8,0.8-8.6,1.2c11.4-23,41.1-79.9,53-72.2
					C306.3,432.7,300.3,488.6,268.7,515.3z"/>
			</g>
			<g>
				<polygon id="finger_front" class="st38" points="333.7,513.5 362.4,480.8 364.6,488 352,503.9 				"/>
			</g>
			<g id="coffee">
				<path class="st30" d="M408.3,465.2c-0.2,1.3-0.5,2.6-0.7,3.9c-1.5,8.3-2.9,16.6-4.3,24.9c-2.6,15.4-5.2,30.7-7.7,45.9
					c-8.1-0.8-16.2-1.6-24.4-2.3c-3.5-0.3-7-0.7-10.6-1c-0.5-20.3-1.4-59-1.7-71.4c-0.1-2.4-0.1-3.8-0.1-4c12.1,1,24.3,2,36.5,2.9
					C399.7,464.6,404,464.9,408.3,465.2z"/>
				<path class="st31" d="M412.4,464.4l-0.3,3.8c-0.1,0.8-0.8,1.4-1.5,1.3l-2.9-0.2l-13.5-1.1l-35.1-2.9l-3.8-0.3
					c-0.8-0.1-1.4-0.8-1.3-1.5l0.3-3.8c0.1-0.8,0.8-1.4,1.5-1.3l40.4,3.3l14.8,1.2C411.9,462.9,412.5,463.6,412.4,464.4z"/>
			</g>
			<path class="st45" d="M412.4,464.4l-0.3,3.8c-0.1,0.8-0.8,1.4-1.5,1.3l-2.9-0.2c-1.5,8.3-2.9,16.6-4.3,24.9
				c-2.6,15.4-5.2,30.7-7.7,45.9c-8.1-0.8-16.2-1.6-24.4-2.3c5.1-15.3,16.6-49.9,22.9-69.6c0.4-1.4,0.9-2.7,1.2-3.9
				c0.3-0.9,0.6-1.8,0.8-2.6l14.8,1.2C411.9,462.9,412.5,463.6,412.4,464.4z"/>
			<g id="hand_front">
				<path class="st38" d="M364,510.9c0.1,0.9,1,1.5,1.9,1.3c11.6-0.9,20.1-3.5,25.9-5.8c4-1.6,10.8-4.8,12.2-3
					c0.6,0.8,0,2.1-0.2,2.6c-2.9,6.8-28.9,11.5-36.1,12.7c-0.6,0.5-1.4,1.2-1.2,1.7c0.4,1.3,7,0.8,12.3-0.5
					c9.1-2.2,13.6-4.2,13.6-4.2c1.2-0.5,3.6-1.7,4.3-0.8c0.6,0.6-0.3,2.2-0.4,2.5c-1.5,2.9-4.8,4-6,4.4c-8.2,2.7-17,4.1-19.5,4.5
					c-2.7,0.5-5,0.8-7.2,1.3c-1.2,0.2-2.3,0.5-3.5,0.8c-2.5,0.7-42,3.4-45.2,3.5c-25.3,1.1-22,2-46.2,2.5c-1.4,0-2.9,0.1-4.2,0.1
					c-27.5,0.6-45.8,0.7-57.1-2.8c-5.3-1.6-9.1-4-11.5-7.5c-1.8-2.5-2.8-5.2-3.3-8.2c-0.8-4.4-0.3-9.2,0.6-14.3l0.1,0.1
					c18-2.5,36.1-5,54.1-7.5c-0.1,0.1-0.1,0.2-0.2,0.2c0.9,0,1.8,0,2.7,0.1c5.1,0.1,9.7,0.5,13.7,0.9c3.8,0.4,7.1,0.8,9.7,1.2
					c0.1,0,0.2,0,0.2,0c0,0,53.5,8.2,65.6,5.7c0,0,0,0,0,0c0.7-0.1,1.3-0.4,1.7-0.6c0.1-0.1,0.3-0.2,0.3-0.2
					c0.3-0.2,0.5-0.3,1.4-0.9c4-2.4,14-8.1,27.7-12.2c3.3-1,6.1-1.7,7.8-2.1c0,0,19.1-5.3,22.9-1.5c0.1,0.1,0.4,0.4,0.5,0.8
					c0.1,2-7,3.8-9.7,4.5c-6.8,1.8-15.8,4.2-28.3,8c-0.6,0.6-2,2-1.5,2.8c0.2,0.3,0.7,0.8,2.5,0.7c8.7-0.1,26.9-6.3,26.9-6.3
					c7.2-2.5,11.6-3.6,13.4-1.6c0.1,0.1,0.8,0.9,0.8,1.9c-0.2,3.1-7.8,4.5-16.3,7c-8.1,2.4-17.5,4.7-23.6,6.1
					C364.6,509.2,363.9,510,364,510.9z"/>
				<path class="st16" d="M249.7,494.8l-57.3,21.4c-0.8-4.4-0.3-9.2,0.6-14.3l0.1,0.1c18-2.5,36.1-5,54.1-7.5
					c-0.1,0.1-0.1,0.2-0.2,0.2C247.9,494.8,248.8,494.8,249.7,494.8z"/>
				<path class="st16" d="M363.5,527.6c-1.2,0.2-2.3,0.5-3.5,0.8c-2.5,0.7-42,3.4-45.2,3.5c-25.3,1.1-22,2-46.2,2.5
					c-1.4,0-2.9,0.1-4.2,0.1c-27.5,0.6-45.8,0.7-57.1-2.8c0,0,0,0,0,0C233.8,516.7,335.4,525,363.5,527.6z"/>
				<linearGradient id="SVGID_15_" gradientUnits="userSpaceOnUse" x1="263.4612" y1="503.9617" x2="339.055" y2="503.9617">
					<stop  offset="2.383814e-03" style="stop-color:#FF931E"/>
					<stop  offset="1" style="stop-color:#FFFFFF"/>
				</linearGradient>
				<path class="st46" d="M339.1,502.6c-29.1,21.3-62.8,2-75.6-6.9c3.8,0.4,7.1,0.8,9.7,1.2c0.1,0,0.2,0,0.2,0
					C273.5,496.9,326.9,505.2,339.1,502.6z"/>
			</g>
			<g id="head_general">
				<g id="neck">
					<path class="st38" d="M404.1,294.8c0,9.4-0.2,19.5-1,30.2c-0.4,5.8-0.9,11.7-1.6,17.8c-0.1,0.5-0.1,1.1-0.2,1.6
						c-0.8,6.7-1.7,13.2-2.7,19.4c-2.3,14.3-5.3,27.4-8.4,39.1c-3.8-5-9-11.9-15-20.1c-5.8-7.9-10.3-14.3-13.8-19.5
						c-10.6-15.8-11.9-20.6-11.7-25.8c0.3-9.7,5.2-10.1,8.6-26.5c2.4-11.2,2.2-20.9,1.6-27.5C374.7,287.3,389.4,291.1,404.1,294.8z"
						/>
					<path class="st45" d="M403.1,325c-0.4,5.8-0.9,11.7-1.6,17.8c-0.1,0.5-0.1,1.1-0.2,1.6c-12-2.4-36.5-9.9-32.1-31L403.1,325z"/>
				</g>
				<path class="st38" d="M422,294.5c-0.3,3.2-0.5,6.1-0.8,8.7c-1.1,12-2.1,18.4-4.8,21c-3.5,3.4-8.9,5.1-15.1,5.4
					c-3,0.2-6.3,0-9.6-0.5c-7-1-14.4-3.5-20.9-7.3c-4.5-2.6-8.7-5.8-12-9.6c-1.3-1.5-2.5-3.1-3.6-4.7c-1.4-2.2-2.7-5-10.6-46.3
					c-1.4-7.3-2.5-13.3-3.3-17.5c0.8-6.8,2.5-13.1,5.3-18.5l0,0c9.4-9.3,24-8.7,33.7-18c7,0.6,14,3.1,19.9,7.4
					c6.9,5.1,11.2,11.8,14.1,19.3c0.4,1,0.8,2.1,1.1,3.1c1.3,3.7,2.3,7.5,3.1,11.3c0.3,1.1,0.5,2.2,0.7,3.3c0,0,0.6,2.9,1.1,5.3
					C423.9,272.9,422,294.5,422,294.5z"/>
				<linearGradient id="hair_2_" gradientUnits="userSpaceOnUse" x1="339.6556" y1="251.8463" x2="427.7296" y2="251.8463">
					<stop  offset="0" style="stop-color:#002544"/>
					<stop  offset="0.1596" style="stop-color:#00172A"/>
					<stop  offset="0.3463" style="stop-color:#000A13"/>
					<stop  offset="0.5216" style="stop-color:#000305"/>
					<stop  offset="0.6725" style="stop-color:#000000"/>
				</linearGradient>
				<path id="hair" class="st47" d="M427.6,216.6c1.1,8.5-5.3,17-11.9,20.3c-0.9,0.5-1.8,0.8-3.6,1.4c-19.1,6.8-24.8,0.5-30.8,6.2
					c-11.1,10.4,0.1,39.1-6.2,41.1c-1,0.4-3,0.1-4.1-1c-1.4-1.4-0.4-3.6-1-6.2c-0.9-3.6-4.7-7-6.3-6.4c-4,1.4,1.4,28.6-4.9,40.2
					c-0.2,0.4-0.6,1-1.2,1.1c-3.9,0.7-12.4-21.2-15.4-43.2c-3-22.2-4.5-33.2,2.1-42.1c0.8-1.1,1.6-2,2.5-2.8l0,0
					c9.4-9.3,24-8.7,33.7-18c2.7-2.6,3.6-4.3,3.9-4.8c2.9-5.7,0.3-10.4,2.4-11.7c2.1-1.3,7.2,1.4,9.3,5.6c1.9,3.7,1.3,8.4-1.4,12.3
					c2.4-0.7,5.8-2,8.8-4.9c4.7-4.4,5-9.2,7.4-9.3c2.5,0,4.9,5.1,5.6,9.3c1.3,8.5-4.7,15.4-6.4,17.2c-0.2,0.1-0.5,0.3-0.5,0.2
					c-0.2-0.2,3.8-2.6,6.9-6.3c3.8-4.4,3.8-7.3,5.6-7.4C424.3,207.2,427,212,427.6,216.6z"/>
				<path id="smile" d="M408.4,313.3c-1.1,0-2.3-0.1-3.5-0.4c-4.7-1-7.6-3.6-8.6-4.7c-0.2-0.2-0.2-0.6,0-0.8c0.2-0.2,0.6-0.2,0.8,0
					c0.9,1,3.5,3.5,7.9,4.4c3.1,0.6,5.7,0.2,7.3-0.2c0.3-0.1,0.6,0.1,0.7,0.4c0.1,0.3-0.1,0.6-0.4,0.7
					C411.7,313,410.2,313.3,408.4,313.3z"/>
				<g id="eyes">
					
						<linearGradient id="SVGID_16_" gradientUnits="userSpaceOnUse" x1="418.7137" y1="178.9265" x2="424.1952" y2="178.9265" gradientTransform="matrix(0.9659 0.2588 0.2588 -0.9659 -59.9346 337.9048)">
						<stop  offset="5.557009e-04" style="stop-color:#000000"/>
						<stop  offset="0.8106" style="stop-color:#000000"/>
					</linearGradient>
					<circle class="st48" cx="393.5" cy="274.2" r="2.7"/>
					
						<linearGradient id="SVGID_17_" gradientUnits="userSpaceOnUse" x1="299.5372" y1="274.1554" x2="304.6659" y2="274.1554" gradientTransform="matrix(-1 0 0 1 718.7478 0)">
						<stop  offset="5.557009e-04" style="stop-color:#000000"/>
						<stop  offset="0.8106" style="stop-color:#000000"/>
					</linearGradient>
					<circle class="st49" cx="416.6" cy="274.2" r="2.6"/>
				</g>
				<g id="brows">
					
						<linearGradient id="SVGID_18_" gradientUnits="userSpaceOnUse" x1="333.225" y1="272.2069" x2="349.8937" y2="272.2069" gradientTransform="matrix(-1.0336 0.2537 0.2451 0.9697 679.2415 -87.6458)">
						<stop  offset="5.557009e-04" style="stop-color:#000000"/>
						<stop  offset="0.8106" style="stop-color:#000000"/>
					</linearGradient>
					<polygon class="st50" points="384,263.2 401.3,259.9 401.9,262.7 384.6,266 					"/>
					
						<linearGradient id="SVGID_19_" gradientUnits="userSpaceOnUse" x1="277.2859" y1="259.1913" x2="293.9546" y2="259.1913" gradientTransform="matrix(-0.8625 -7.228491e-02 -9.954590e-02 0.9946 689.9922 25.5389)">
						<stop  offset="5.557009e-04" style="stop-color:#000000"/>
						<stop  offset="0.8106" style="stop-color:#000000"/>
					</linearGradient>
					<polygon class="st51" points="411,260.3 425.1,262.4 424.7,265.1 410.6,263 					"/>
				</g>
				<linearGradient id="beard_1_" gradientUnits="userSpaceOnUse" x1="366.3241" y1="305.6893" x2="421.7818" y2="305.6893">
					<stop  offset="5.557009e-04" style="stop-color:#000000"/>
					<stop  offset="0.8106" style="stop-color:#000000"/>
				</linearGradient>
				<path id="beard" class="st52" d="M421.7,309.2c-0.1-2.5-0.3-4.5-0.4-6c-1,0.1-2.6,0.2-4.4-0.3c-4.4-1-5.6-3.9-9.1-5.2
					c-1.5-0.6-2.8-0.6-9.7,0.8c-12.3,2.5-13.7,4-15.8,3.1c-2.8-1.1-5.8-5.6-5.1-21.8c-1.6,0.5-3.2,1-4.9,1.5
					c-0.6,2.1-1.6,5.3-2.4,9.1c-3.1,13.7-4.7,20.5-2.6,26.2c4.7,12.3,24.1,16.1,36.2,14.9c4.5-0.4,12.8-1.2,16.2-6.9
					C422,320.7,421.9,315.1,421.7,309.2z M416.5,310.9c1.6,3.7-7.9,12.1-10,10.8c-1-0.7,0.3-3.4-1.5-5c-0.8-0.7-2.1-1-3.2-0.8
					c-2.7,0.6-2.7,4.4-5.1,5.1c-2.3,0.6-4.9-2.2-5.3-2.6c-3.1-3.3-3.6-9.3-1.2-11.3c1.9-1.6,3.9,0.8,8.1-0.1c5.6-1.2,7.8-6.4,10-5.5
					c1.6,0.7,0.6,3.3,2.9,6C413.3,310,415.7,309.3,416.5,310.9z"/>
				<path id="nose" class="st53" d="M407.8,274.3c1.4,7.3,3.6,12.5,5.4,16c1.1,2,2.5,4.4,1.5,6.2c-1.3,2.5-6.3,2.2-7,2.1
					c-3.9-0.2-6.7-2.3-7.6-3.2C402.7,288.5,405.2,281.4,407.8,274.3z"/>
				<g id="ear">
					<path class="st38" d="M371.6,285.8c-0.5,1.4-1.4,2.8-2.5,3.9c-4.4,4.4-11.6,4.4-16,0c-4.4-4.4-4.4-11.6,0-16
						c0.1-0.1,0.1-0.1,0.2-0.2c4.4-4.2,11.4-4.1,15.8,0.2C372.3,277,373.1,281.8,371.6,285.8z"/>
					<linearGradient id="SVGID_20_" gradientUnits="userSpaceOnUse" x1="353.2612" y1="278.1405" x2="372.3358" y2="278.1405">
						<stop  offset="2.383814e-03" style="stop-color:#FF931E"/>
						<stop  offset="1" style="stop-color:#FFFFFF"/>
					</linearGradient>
					<path class="st54" d="M371.6,285.8l-18.3-12.3c4.4-4.2,11.4-4.1,15.8,0.2C372.3,277,373.1,281.8,371.6,285.8z"/>
				</g>
				<path id="tshirt" class="st22" d="M398.6,363.8c-2.3,14.3-5.3,27.4-8.4,39.1c-3.8-5-9-11.9-15-20.1
					c-5.8-7.9-10.3-14.3-13.8-19.5c4.4,0.4,9.6,0.9,15.5,1.8C387.5,366.8,394.3,365.7,398.6,363.8z"/>
			</g>
		</g>
		<g id="paper">
			<path class="st22" d="M751.8,586.8c1.8,0,3.2,1.5,3.2,3.3c0,1.8-1.4,3.3-3.2,3.3c1.8,0,3.2,1.5,3.2,3.3c0,1.3-0.8,2.5-2,3
				c1.2,0.5,2,1.7,2,3c0,1.8-1.4,3.3-3.2,3.3c1.8,0,3.2,1.5,3.2,3.3c0,1.6-1.2,3-2.7,3.3c1.5,0.3,2.7,1.6,2.7,3.3
				c0,1.8-1.4,3.3-3.2,3.3c1.8,0,3.2,1.5,3.2,3.3c0,1.3-0.8,2.5-2,3c1.2,0.5,2,1.7,2,3c0,1.8-1.4,3.3-3.2,3.3c1.8,0,3.2,1.5,3.2,3.3
				c0,1.8-1.5,3.3-3.3,3.3H625.2c-1.8,0-3.3-1.5-3.3-3.3c0-1.8,1.4-3.3,3.2-3.3c-1.8,0-3.2-1.5-3.2-3.3c0-1.3,0.8-2.5,2-3
				c-1.2-0.5-2-1.7-2-3c0-1.8,1.4-3.3,3.2-3.3c-1.8,0-3.2-1.5-3.2-3.3c0-1.6,1.2-3,2.7-3.3c-1.5-0.3-2.7-1.6-2.7-3.3
				c0-1.8,1.4-3.3,3.2-3.3c-1.8,0-3.2-1.5-3.2-3.3c0-1.3,0.8-2.5,2-3c-1.2-0.5-2-1.7-2-3c0-1.8,1.4-3.3,3.2-3.3
				c-1.8,0-3.2-1.5-3.2-3.3c0-1.8,1.4-3.3,3.2-3.3c-1.8,0-3.2-1.5-3.2-3.3c0-1.3,0.8-2.5,2-3c-1.2-0.5-2-1.7-2-3
				c0-1.8,1.5-3.3,3.3-3.3h126.5c1.8,0,3.3,1.5,3.3,3.3c0,1.3-0.8,2.5-2,3c1.2,0.5,2,1.7,2,3C755,585.3,753.6,586.7,751.8,586.8z"/>
			<path class="st55" d="M751.8,586.8c1.8,0,3.2,1.5,3.2,3.3c0,1.8-1.4,3.3-3.2,3.3c1.8,0,3.2,1.5,3.2,3.3c0,1.3-0.8,2.5-2,3
				c1.2,0.5,2,1.7,2,3c0,1.8-1.4,3.3-3.2,3.3c1.8,0,3.2,1.5,3.2,3.3c0,1.6-1.2,3-2.7,3.3c1.5,0.3,2.7,1.6,2.7,3.3
				c0,1.8-1.4,3.3-3.2,3.3c1.8,0,3.2,1.5,3.2,3.3c0,1.3-0.8,2.5-2,3c1.2,0.5,2,1.7,2,3c0,1.8-1.4,3.3-3.2,3.3c1.8,0,3.2,1.5,3.2,3.3
				c0,1.8-1.5,3.3-3.3,3.3h-77.5l37.5-64.4h40c1.8,0,3.3,1.5,3.3,3.3c0,1.3-0.8,2.5-2,3c1.2,0.5,2,1.7,2,3
				C755,585.3,753.6,586.7,751.8,586.8z"/>
		</g>
		<g id="plant">
			<path class="st31" d="M694.8,584.1c-0.2,4.6,0.3,6-0.5,8c-0.8,2.2-3.1,4.7-9.4,6.4c-4.3,4.3-11.2,5.3-12.3,5.5
				c0-1.4,0-3.3,0.2-5.4c-2.3,1.1-5.4,2.1-9.8,2.5c0-0.1,0-0.1,0-0.2c-2.2,1.5-4.2,2.3-4.7,2.5c-0.3-0.8-0.5-1.7-0.8-2.5
				c-1.7,0.3-3.5,0.2-5.5-0.4c-1.6,1.8-3.1,3.2-3.9,3.8c-0.6-0.8-1.6-2.4-2.7-4.5c-3.2-0.8-6.8-2.4-9.5-6c-0.1-0.1-0.1-0.1-0.2-0.2
				c-4.2-5.7-3.3-12.6-2.9-15c0.5-3.7,1.7-6.5,2.7-8.4c1.3,2,3.1,4.8,5.7,7.9c0.1-0.7,0.1-1.3,0.2-2c1-6.5,3.6-11.3,5.5-14.4
				c-0.3,4.7,0.7,8,1.6,10.2c0.6,1.5,1.3,2.5,2,3.5c0.1-0.4,0.1-0.7,0.2-1.1c0.5-2.3,1.1-4.4,1.8-6.3c2.1,4,3.9,7.3,5.2,9.8
				c0.5-1.4,1-3.2,1.3-5.3c0.5-2.8,0.7-5.2,0.7-6.8c4,5.1,6.4,9.9,7.9,13.7c0.1,0.3,0.3,0.7,0.4,1c0.8-1.8,1.7-3.6,2.7-5.5
				c2.9-5.3,6.1-9.4,9-12.6c0,2.6,0,8.4,0,16v1.1c0.4-0.4,0.7-0.9,1.1-1.3c1.2-1.3,2.4-2.5,3.7-3.5c0.7,1.4,1.4,3.2,2.1,5.4
				c1.2-1.3,2.5-2.6,4-3.8c1.9-1.5,3.9-2.7,5.7-3.6C696,575,695.1,579.1,694.8,584.1z"/>
			<path class="st56" d="M694.8,584.1c-0.2,4.6,0.3,6-0.5,8c-0.8,2.2-3.1,4.7-9.4,6.4c-4.3,4.3-11.2,5.3-12.3,5.5
				c0-1.4,0-3.3,0.2-5.4c-2.3,1.1-5.4,2.1-9.8,2.5c0-0.1,0-0.1,0-0.2c-2.2,1.5-4.2,2.3-4.7,2.5c-0.3-0.8-0.5-1.7-0.8-2.5
				c-1.7,0.3-3.5,0.2-5.5-0.4c-1.6,1.8-3.1,3.2-3.9,3.8c-0.6-0.8-1.6-2.4-2.7-4.5c-3.2-0.8-6.8-2.4-9.5-6c-0.1-0.1-0.1-0.1-0.2-0.2
				c9.2,1.2,30.6,3.1,31.5-6.8c0.2-2.5,0.4-5,0.5-7.4c0.1,0.3,0.3,0.7,0.4,1c0.8-1.8,1.7-3.6,2.7-5.5c2.9-5.3,6.1-9.4,9-12.6
				c0,2.6,0,8.4,0,16v1.1c0.4-0.4,0.7-0.9,1.1-1.3c1.2-1.3,2.4-2.5,3.7-3.5c0.7,1.4,1.4,3.2,2.1,5.4c1.2-1.3,2.5-2.6,4-3.8
				c1.9-1.5,3.9-2.7,5.7-3.6C696,575,695.1,579.1,694.8,584.1z"/>
			<path class="st24" d="M691.4,598v3.2c0,0.2-0.2,0.4-0.5,0.4h-0.8l-8.1,36.9h-33.8l-2-9.3l-3-13.5l-3.1-14h-1.9
				c-0.3,0-0.5-0.2-0.5-0.4V598c0-0.2,0.2-0.4,0.5-0.4h52.6C691.2,597.5,691.4,597.7,691.4,598z"/>
			<linearGradient id="SVGID_21_" gradientUnits="userSpaceOnUse" x1="643.2776" y1="626.9945" x2="669.6763" y2="626.9945">
				<stop  offset="2.383814e-03" style="stop-color:#FF931E"/>
				<stop  offset="1" style="stop-color:#FFFFFF"/>
			</linearGradient>
			<path class="st57" d="M669.7,638.4h-21.4l-2-9.3l-3-13.5C650.9,622,662.8,632.4,669.7,638.4z"/>
			<linearGradient id="SVGID_22_" gradientUnits="userSpaceOnUse" x1="639.3797" y1="614.9352" x2="650.8024" y2="614.9352">
				<stop  offset="0" style="stop-color:#FFFFFF"/>
				<stop  offset="1" style="stop-color:#9375A1"/>
			</linearGradient>
			<path class="st58" d="M646.3,629.1l-6.1-27.6h-0.8c2.2-1,5-1.2,8.3,0.3C654.1,604.9,649.2,621.1,646.3,629.1z"/>
		</g>
		<g id="laptop_general">
			<path class="st22" d="M829,638.6H702.3c-2.6,0-5-1.7-5.8-4.2l-34.9-108.7c-0.6-1.9,0.4-4,2.4-4.6c1.9-0.6,4,0.4,4.6,2.4
				l34.6,107.8H829c2,0,3.7,1.7,3.7,3.7S831.1,638.6,829,638.6z"/>
			<linearGradient id="SVGID_23_" gradientUnits="userSpaceOnUse" x1="661.4514" y1="579.7346" x2="832.7332" y2="579.7346">
				<stop  offset="0" style="stop-color:#302E40"/>
				<stop  offset="1" style="stop-color:#9375A1;stop-opacity:0.5"/>
			</linearGradient>
			<path class="st59" d="M832.7,634.9c0,2-1.7,3.7-3.7,3.7H702.3c-1.1,0-2.2-0.3-3.1-0.8c-1.3-0.7-2.2-1.9-2.7-3.4l-34.9-108.7
				c-0.6-1.9,0.4-4,2.4-4.7c1.9-0.6,4,0.5,4.6,2.4l34.6,107.8H829C831.1,631.2,832.7,632.9,832.7,634.9z"/>
			<path class="st16" d="M832.7,634.9c0,2-1.7,3.7-3.7,3.7H702.3c-1.1,0-2.2-0.3-3.1-0.8l5.4-6.6H829
				C831.1,631.2,832.7,632.9,832.7,634.9z"/>
			<rect id="socket" x="713.9" y="633.6" width="9.5" height="1.6"/>
		</g>
	</g>
</g>
</svg>
