<?xml version="1.0" encoding="utf-8"?>
<!-- Generator: Adobe Illustrator 22.1.0, SVG Export Plug-In . SVG Version: 6.00 Build 0)  -->
<svg version="1.1" xmlns="http://www.w3.org/2000/svg" xmlns:xlink="http://www.w3.org/1999/xlink" x="0px" y="0px"
	 viewBox="0 0 1183.6 1137.8" style="enable-background:new 0 0 1183.6 1137.8;" xml:space="preserve">
<style type="text/css">
	.st0{fill:#EEEDEE;}
	.st1{opacity:0.42;fill:#BDD3DE;}
	.st2{fill:none;}
	.st3{fill:url(#SVGID_1_);}
	.st4{fill:url(#SVGID_2_);}
	.st5{fill:url(#SVGID_3_);}
	.st6{fill:url(#SVGID_4_);}
	.st7{fill:#EBDEDE;}
	.st8{opacity:0.5;fill:#FFFFFF;}
	.st9{fill:url(#SVGID_5_);}
	.st10{fill:#FFFFFF;}
	.st11{fill:#791D2C;}
	.st12{opacity:9.000000e-02;fill:url(#SVGID_6_);}
	.st13{opacity:9.000000e-02;fill:url(#SVGID_7_);}
	.st14{fill:#19233D;}
	.st15{opacity:0.2;fill:url(#SVGID_8_);}
	.st16{opacity:0.61;fill:#0B1D36;}
	.st17{fill:#153E5C;}
	.st18{opacity:0.37;fill:#0B1D36;}
	.st19{opacity:9.000000e-02;fill:url(#SVGID_9_);}
	.st20{opacity:0.35;fill:#E4C9C2;}
	.st21{opacity:0.22;fill:url(#SVGID_10_);}
	.st22{fill:#E4C9C2;}
	.st23{fill:#DF7D56;}
	.st24{opacity:9.000000e-02;fill:url(#SVGID_11_);}
	.st25{opacity:0.22;fill:url(#SVGID_12_);}
	.st26{opacity:0.22;fill:url(#SVGID_13_);}
	.st27{fill:#5A142A;}
	.st28{opacity:0.2;fill:#19233D;}
	.st29{opacity:0.2;fill:url(#SVGID_14_);}
	.st30{opacity:0.16;fill:url(#SVGID_15_);}
	.st31{fill:url(#SVGID_16_);}
	.st32{fill:url(#SVGID_17_);}
	.st33{fill:url(#SVGID_18_);}
	.st34{fill:url(#SVGID_19_);}
	.st35{fill:#9B524E;}
	.st36{opacity:0.17;fill:#9B524E;}
	.st37{fill:#E6E3F4;}
	.st38{fill:#302C34;}
	.st39{opacity:0.45;fill:url(#SVGID_20_);}
	.st40{opacity:0.22;fill:url(#SVGID_21_);}
	.st41{opacity:9.000000e-02;fill:url(#SVGID_22_);}
	.st42{opacity:0.17;fill:url(#SVGID_23_);}
	.st43{opacity:0.2;fill:url(#SVGID_24_);}
	.st44{opacity:0.2;fill:url(#SVGID_25_);}
	.st45{opacity:5.000000e-02;fill:url(#SVGID_26_);}
	.st46{opacity:9.000000e-02;fill:url(#SVGID_27_);}
</style>
<g id="background">
	<g id="general">
		<g id="figure1">
			<path class="st0" d="M607.7,238.5c-2.9,10.6-8.6,17.5-18.2,25c-6,4.7-13.5,9.6-22.8,15.7c-2.1,1.4-4.4,2.9-6.7,4.5
				c-4.9,3.3-10.3,6.9-16.1,11.1c-4.8,3.4-9.9,7.1-15.3,11.2c0,0-21.9,16.5-59.4,52.6c-3.5,3.4-7.2,7-11,10.7
				c-4.2,4.2-8.6,8.6-13.2,13.2c-0.6,0.6-1.2,1.2-1.8,1.8c-4.2,4.3-8.6,8.8-13.1,13.5c-48.5,50.4-68.1,102-81.3,146.1
				c-1.8,6-3.5,11.8-5.1,17.5c-10.8,37.8-18.8,68.7-40.7,86.3c-3.6,2.9-7.5,5.4-11.9,7.5c-3.9,1.9-8,3.4-12.3,4.6
				c-30.2,8.4-69.8-0.2-108.7-20.8c-6.1-3.2-12.2-6.7-18.2-10.5c-10.6-6.6-21-14.1-31-22.3c-5-4.1-10-8.5-14.8-13
				c-15.1-14-28.9-29.7-40.7-46.7c-5.7-8.1-10.9-16.5-15.5-25.2c-3.4-6.4-6.5-12.9-9.3-19.5c-4.1-9.8-7.5-19.9-10-30.1
				c-2-8-3.4-16-4.3-24.2c-0.1-0.8-0.2-1.5-0.2-2.3c-0.4-4.1-0.6-8.1-0.7-12.3C23.6,353.3,78.5,295.2,139,239.7
				c5.9-5.5,11.9-10.9,18-16.3c1.1-1,2.2-2,3.3-3c5.2-4.7,16.3-14.7,31.8-27.4c3.9-3.1,8-6.5,12.4-9.9
				c30.9-24.2,74.3-54.6,122.3-76.4c6.3-2.9,12.7-5.6,19.1-8.1c22.8-9,46.3-15.7,69.8-18.7c5-0.7,10.1-1.1,15.1-1.4
				c15.4-0.9,30.7,0,45.7,3c4.8,1,9.6,2.2,14.3,3.6c8.6,2.6,17,6,25.3,10.3c1.3,0.7,2.6,1.3,3.9,2.1c3.4,1.9,6.8,3.9,10.1,6.1
				c21.2,13.8,40.6,33.1,54.9,53.9c3.4,4.9,6.5,9.9,9.3,15c2.3,4.2,4.4,8.4,6.3,12.6c3.8,8.6,6.5,17.2,7.9,25.5
				c0.3,1.8,0.6,3.7,0.8,5.5c0,0.5,0.1,0.9,0.1,1.4C610,224.8,609.5,231.9,607.7,238.5z"/>
			<path class="st1" d="M600.5,185c0,0.1-0.1,0.2-0.1,0.4c-0.9,3.1-1.9,6.2-2.8,9.3c-7.4,24.2-15.9,48-25.3,71.3
				c-1.8,4.4-3.6,8.8-5.5,13.2c-0.2,0.4-0.3,0.8-0.5,1.2c9.2-6.1,16.8-11,22.8-15.7v0c0.2-0.4,0.3-0.8,0.5-1.2
				c6.8-17.4,13.1-35,18.9-52.8c0,0,0-0.1,0-0.1C607,202.3,604.3,193.7,600.5,185z M585,157.5c-0.1,0.1-0.1,0.2-0.2,0.4
				c-14.3,26-25.3,54.1-32.4,83.6c-4.2,17.4-7,35.3-8.4,53.3c0,0.3-0.1,0.6-0.1,0.9c5.8-4.1,11.2-7.8,16.1-11v0
				c0-0.3,0.1-0.6,0.1-0.9c3.9-33.6,13.2-66.5,27-96.8c2.2-4.8,4.5-9.5,6.9-14.2c0-0.1,0.1-0.2,0.2-0.3
				C591.5,167.4,588.4,162.4,585,157.5z M519.9,97.4c-1.3-0.7-2.6-1.4-3.9-2.1c0,0.2-0.1,0.5-0.1,0.7l-0.2,1.7
				c-3.7,31-8.8,61.8-15,92.2c-10.9,53.6-25.5,106.3-43.8,157.5c-0.2-8.5-0.1-17,0-25.1c1-53.7,7.6-107.7,17-160.3
				c4.4-24.9,9.1-51.2,16.5-76.3c0.1-0.2,0.1-0.5,0.2-0.7c-4.7-1.4-9.5-2.7-14.3-3.6l-0.2,0.7c-5.9,20.3-10.2,41.3-14.1,61.9
				c-11,57.7-18.7,117.2-20,176.2c-0.3,14.7-0.1,29.4,1.1,44c0.4,5.2,0.9,10.6,1.5,16c-0.5,1.3-1,2.7-1.6,4c-0.2,0.5-0.4,1-0.6,1.4
				c9.4-9.5,18.1-18.2,26.2-25.9c0.2-0.4,0.3-0.9,0.5-1.3c8.2-23,15.8-46.2,22.6-69.6c17.6-60.2,30.3-122,38.1-184.7
				c0-0.2,0.1-0.5,0.1-0.7C526.7,101.4,523.3,99.3,519.9,97.4z M213,210.5c-2-8.9-4.6-18.2-8.3-26.8c-0.1-0.2-0.2-0.4-0.3-0.6
				c-4.4,3.4-8.5,6.8-12.4,9.9c0.1,0.2,0.2,0.4,0.3,0.6c9.8,23.9,10.9,51.7,11.6,77.3c0.8,29.4,0.3,58.8-2,88.1
				c-4.4,57-16,114.3-39.1,165.9c-3.2,7.1-6.5,14.1-10.1,20.9c-1.4-12.2-2.6-24.4-3.8-36.4c-6.2-64.8-8.2-130.3-3.4-195.3
				c2.2-30.1,5.8-60.1,11.2-89.8c0.1-0.3,0.1-0.7,0.2-1c-6,5.4-12,10.9-18,16.3c-0.1,0.3-0.1,0.7-0.2,1c-0.5,2.9-0.9,5.9-1.3,8.8
				c-5.1,35.3-8,70.9-9.1,106.5c-2.1,70.5,2.7,141.2,12.2,210.9c-5.6,8.5-12.1,16.6-20.4,21.8c-4.9,3.1-9.7,4.4-14.2,4.4
				c-0.3,0-0.5,0-0.8,0c4.9,4.6,9.9,9,15,13.2c0.2-0.1,0.4-0.2,0.6-0.2c8.5-3.8,16.2-10.2,22.9-17.9c2.2,13.5,4.8,26.9,8,40.2
				c0.1,0.3,0.1,0.6,0.2,0.9c6,3.8,12.1,7.3,18.2,10.5c-0.1-0.3-0.2-0.6-0.2-0.9c-6.4-21.9-10.7-44.7-14-67.6
				c14.7-23.4,25.8-50.1,34.8-76.7c20.1-59.7,27.6-123.9,28.4-187.3C219.6,275.4,219.8,241.9,213,210.5z M105.8,343
				c-0.8-12.6-3.3-31.6-18.9-29.9c-6.9,0.8-12.2,6.7-16.5,12.2c-4.6,5.9-8.6,12.3-12,19.2c-13.8,28.2-18.8,61.9-20.5,93.5
				c-1,18.3-0.5,36.8,1.4,55.1c-3.3-6-6.3-13.7-8.9-21.2c-0.1-0.4-0.2-0.7-0.4-1.1c6.5,27.4,19.1,53.5,35.6,77.2
				c-0.1-0.4-0.3-0.8-0.4-1.2c-1.8-5.8-3.3-11.8-4.7-17.8c-0.7-3-1.3-5.9-1.9-8.9c11.5-4.7,17.4-19.5,22.2-30.9
				c6.4-15.2,11.7-30.9,15.7-47C104.6,410,107.8,376.2,105.8,343z M91,377.2c-0.7,15.6-2.6,31-5.7,46.2c-2.9,14.7-6.9,29.1-11.9,43
				c-2.4,6.6-5,13.1-7.8,19.5c-2.5,5.7-5.1,12.4-9.6,16.6c-0.1,0.1-0.2,0.2-0.3,0.2c-1.1-7.4-1.9-14.8-2.4-22.2
				c-2.2-30.9-0.3-62.2,6.3-92.3c3-13.7,7.1-27.3,13.7-39.5c2.9-5.5,6.3-10.6,10.3-15.2c0.6-0.7,3.5-4.5,4.5-4.3
				c0.5,0.1,1.4,3.6,1.7,4.9C92.5,347.9,91.7,363.3,91,377.2z M430.8,79.2c0-0.3,0-0.5,0-0.8c-5,0.3-10.1,0.8-15.1,1.4
				c0,0.3,0,0.5,0,0.8c0.3,6,0.3,12.1,0.4,18.1c0.1,33.7-3.3,67.3-7.1,100.6c-3.7,32.1-8.4,64.1-14,95.9
				c-11.2,64-26.1,127.2-44.5,189.2c-5.8,19.3-11.9,38.6-18.7,57.6c-6.2-3.8-11-10.7-14.6-17.4c-12.9-24.3-18.4-54.8-21-82.5
				c-2.9-30.9-2-62,0.2-92.9c2.2-30.8,5.4-61.5,9.9-91.9c7.9-53.8,19.9-107.5,39.2-157.8c0.1-0.3,0.2-0.6,0.4-1
				c-6.4,2.5-12.8,5.3-19.1,8.1c-0.1,0.3-0.2,0.6-0.4,1c-3.5,9.8-6.7,19.8-9.7,29.8c-19.2,64.3-28.7,131.7-34.3,199
				c-2.8,33.5-4.3,67.3-1.6,100.8c2.6,31.7,8.3,65.4,22.4,93.6c5.4,10.8,12.9,20.9,23,26.4c-11.8,31.6-25.3,62.4-41.4,91.7
				c-2,3.6-4,7.2-6,10.7c-0.2,0.3-0.3,0.6-0.5,0.9c4.5-1.2,8.9-2.8,12.9-4.8c4-2,7.7-4.3,11.1-6.9v0c0.2-0.5,0.5-0.9,0.8-1.4
				c5.8-11.1,11.3-22.4,16.4-33.8c7.7-17.2,14.9-34.7,21.5-52.4c0.9,0,1.9,0,2.8,0c0.1,0,0.2,0,0.3,0c1.6-5.7,3.3-11.6,5.1-17.6
				c-0.1,0-0.2,0.1-0.3,0.1c-0.6,0.2-1.1,0.4-1.7,0.5c13.7-39,25.2-79.1,35.4-119.2c17.5-68.8,30.8-139,39.5-209.8
				c4.5-36.1,8.5-72.5,9-108.9C431.1,98,431.3,88.7,430.8,79.2z"/>
			<path class="st2" d="M607.8,239.3c-3,10.8-8.8,17.8-18.7,25.4v0c-6,4.7-13.6,9.6-22.8,15.7c-2,1.3-4.1,2.7-6.3,4.2v0
				c-4.9,3.3-10.3,6.9-16.1,11c-4.7,3.4-9.8,7-15.2,11.1c0,0-22.1,16.7-60,53.1c-8,7.7-16.8,16.3-26.2,25.9
				c-4,4.1-8.2,8.4-12.5,12.8c-48.2,50.1-67.8,101.3-81.1,145.2c-1.8,6-3.5,11.9-5.1,17.6c-11,38.7-19.1,70.1-41.8,87.7v0
				c-3.4,2.6-7,4.9-11.1,6.9c-4.1,2-8.4,3.6-12.9,4.8v0c-30.1,8.1-69.3-0.5-107.9-20.9c-6.1-3.2-12.2-6.7-18.2-10.5
				c-10.8-6.8-21.5-14.5-31.8-22.9c-5.1-4.2-10.2-8.6-15-13.2h0c-14.6-13.7-28-29-39.6-45.4v0c-16.5-23.6-29.1-49.7-35.6-77.2
				c0,0,0,0,0,0c-1.8-7.6-3.1-15.3-3.9-23c-0.1-0.8-0.2-1.5-0.2-2.3c-0.3-3.8-0.5-7.6-0.6-11.5c-1.7-79.5,53.1-137.6,113.5-193
				c5.9-5.5,11.9-10.9,17.9-16.3c1.2-1.1,2.4-2.1,3.6-3.2c5.2-4.7,16.4-14.8,32-27.5c3.9-3.1,8-6.5,12.4-9.9
				c30.8-24.2,74-54.3,121.6-76c6.3-2.9,12.7-5.6,19.1-8.1c22.9-9.1,46.6-15.9,70.2-18.9c5-0.6,10.1-1.1,15.1-1.4
				c15.3-0.9,30.5,0,45.4,3c4.8,1,9.6,2.2,14.3,3.6c8.6,2.6,17.1,6,25.4,10.3c1.3,0.7,2.7,1.4,4,2.1c3.4,1.9,6.7,3.9,10,6
				c21.1,13.7,40.5,32.9,54.8,53.6c3.4,4.9,6.5,9.9,9.3,14.9c2.3,4.2,4.5,8.4,6.3,12.6c3.8,8.5,6.5,17.1,8,25.3
				c0.3,1.8,0.6,3.6,0.8,5.4c0,0.5,0.1,0.9,0.1,1.4C610.1,225.1,609.7,232.5,607.8,239.3z"/>
		</g>
		<path id="figure2" class="st0" d="M838.6,293.8c94.5,94.2,75.9,274.4,41.9,378c-37.2,113.5-107.3,178.9-129.1,198.1
			c-146.2,128.1-386,154.9-452.1,52.5c-34.7-53.8-31.2-155.7,10-196.1c20.9-20.4,36.6-10.6,60.3-35.9
			c26.1-27.8,18.5-51.8,45.2-129.8c16.1-47.1,24.2-70.7,42.7-88.4c32.6-31.2,56.3-14.7,85.4-44.2c29.1-29.5,15-55.6,41.3-103.3
			c2.1-3.8,39.9-69.3,105.7-84.1C766.2,223.5,830.4,285.6,838.6,293.8z"/>
		<g id="circle">
			
				<linearGradient id="SVGID_1_" gradientUnits="userSpaceOnUse" x1="543.423" y1="597.265" x2="605.738" y2="597.265" gradientTransform="matrix(0.9179 0.3967 -0.3967 0.9179 178.1056 -402.7299)">
				<stop  offset="0" style="stop-color:#F4DBA9"/>
				<stop  offset="0.998" style="stop-color:#F0E2E2"/>
			</linearGradient>
			<ellipse class="st3" cx="468.6" cy="373.5" rx="30.7" ry="33.7"/>
			
				<linearGradient id="SVGID_2_" gradientUnits="userSpaceOnUse" x1="1416.8833" y1="931.5886" x2="1548.8557" y2="931.5886" gradientTransform="matrix(0.9296 -0.3685 0.3685 0.9296 -708.2589 530.9698)">
				<stop  offset="0" style="stop-color:#F4DBA9"/>
				<stop  offset="0.998" style="stop-color:#F0E2E2"/>
			</linearGradient>
			<ellipse class="st4" cx="1013.6" cy="850.5" rx="65.1" ry="71.5"/>
		</g>
		<g id="squares">
			
				<linearGradient id="SVGID_3_" gradientUnits="userSpaceOnUse" x1="622.194" y1="1378.5199" x2="658.5793" y2="1378.5199" gradientTransform="matrix(0.978 0.2086 -0.2086 0.978 -178.5349 -655.3209)">
				<stop  offset="2.043269e-03" style="stop-color:#F0E2E2"/>
				<stop  offset="1" style="stop-color:#F4DBA9"/>
			</linearGradient>
			<polygon class="st5" points="173.8,849.6 139.1,841.5 146.5,803.3 181.2,811.4 			"/>
			
				<linearGradient id="SVGID_4_" gradientUnits="userSpaceOnUse" x1="616.9998" y1="17.4616" x2="651.6381" y2="17.4616" gradientTransform="matrix(0.866 0.5 -0.5 0.866 591.2212 -254.1538)">
				<stop  offset="2.043269e-03" style="stop-color:#F0E2E2"/>
				<stop  offset="1" style="stop-color:#F4DBA9"/>
			</linearGradient>
			<polygon class="st6" points="1137.8,102.5 1109.7,84.7 1125.9,53.8 1154,71.6 			"/>
		</g>
		<g id="lines">
			<path class="st7" d="M1098.1,1130.1c-186-97.8-322.5-96.3-413.3-76.2c-126,27.9-179.4,86.4-290.7,83.9
				C254.8,1134.6,143.7,1034,72.4,951c6.2-14.6,12.4-29.1,18.6-43.7c62.2,81.3,161.4,182.7,291.3,192.9c111.7,8.8,170-52.8,296.6-84
				c95-23.4,235-26.1,426.3,72.1C1102.8,1102.3,1100.5,1116.2,1098.1,1130.1z"/>
			<path class="st7" d="M744.2,109.3C633.1,77.7,558.7,94.6,511,116.2c-72.8,33.1-95.9,67.4-150.7,80
				c-58.4,13.4-148.9-4.5-284.7-156.6c5.8-7.1,11.7-14.1,17.5-21.2C211.7,157,295.6,177.1,351.8,167.2c62.5-11,87-58.5,170-86.1
				c85.6-28.5,166.2-13.4,222.3,4.6C744.1,93.6,744.2,101.4,744.2,109.3z"/>
		</g>
		<g id="figure3">
			<path class="st0" d="M940.9,8.6c164.6,16.8,297.5,504.7,194.5,622.8c-37.3,42.8-113.4,46-154.4,7.9c-71.1-66.2,6.7-217-71.8-349
				c-52.8-88.8-126.3-85.1-127.1-142.5C781.1,84.7,868.2,1.1,940.9,8.6z"/>
			<path class="st8" d="M1041.6,77.7l-8.7,18c-3.1,6.4-10.4,8.9-16.2,5.5l-0.7-0.4c-5.8-3.4-8.1-11.4-5-17.8l12.7-26.4
				C1029.8,63.1,1035.7,70.1,1041.6,77.7z"/>
			<path class="st8" d="M1066.3,273.8l-0.7-0.4c-5.8-3.4-8.1-11.4-5-17.8l17-35.5c3.1-6.4,10.4-8.9,16.2-5.5l0.7,0.4
				c5.8,3.4,8.1,11.4,5,17.8l-17,35.5C1079.5,274.7,1072.2,277.2,1066.3,273.8z"/>
			<path class="st8" d="M995.1,239.6l-0.7,0.5c-5.3,4.3-12.9,3.1-16.8-2.8L956,205c-3.9-5.8-2.8-14.1,2.5-18.4l0.7-0.5
				c5.3-4.3,12.9-3.1,16.8,2.8l21.7,32.3C1001.6,227,1000.4,235.3,995.1,239.6z"/>
			<path class="st8" d="M1021.2,543.3l-0.7,0.5c-5.3,4.3-12.9,3.1-16.8-2.8l-21.7-32.3c-3.9-5.8-2.8-14.1,2.5-18.4l0.7-0.5
				c5.3-4.3,12.9-3.1,16.8,2.8l21.7,32.3C1027.6,530.7,1026.5,539,1021.2,543.3z"/>
			<path class="st8" d="M1092.1,640.7l-0.8-0.2c-6.4-1.9-10.2-9.1-8.5-16.1l9.3-38.8c1.7-7,8.3-11.2,14.7-9.4l0.8,0.2
				c6.4,1.9,10.2,9.1,8.5,16.1l-9.3,38.8C1105,638.3,1098.4,642.5,1092.1,640.7z"/>
			<path class="st8" d="M1007.4,649.7l-1.5,6c-8-3.7-15.5-8.4-22.2-14.1c2.1-6.4,8.3-10.1,14.4-8.3l0.8,0.2
				C1005.3,635.4,1009.1,642.7,1007.4,649.7z"/>
			<path class="st8" d="M1094.6,363l0.5,0.7c3.9,5.8,2.8,14.1-2.5,18.4l-29.4,23.8c-5.3,4.3-12.9,3.1-16.8-2.8l-0.5-0.7
				c-3.9-5.8-2.8-14.1,2.5-18.4l29.4-23.8C1083.1,355.9,1090.7,357.1,1094.6,363z"/>
			<path class="st8" d="M1171.6,486l-22.2,18c-5.3,4.3-12.9,3.1-16.8-2.8l-0.5-0.7c-3.9-5.8-2.8-14.1,2.5-18.4l29.4-23.8
				c1.9-1.6,4.2-2.4,6.4-2.5C1171.1,466,1171.5,476.1,1171.6,486z"/>
			<path class="st8" d="M976.7,340.7l-0.1,0.9c-0.8,7.2-6.9,12.3-13.4,11.4l-28.6-4.1c-2.7-9.2-5.9-18.4-9.7-27.6
				c1.7-0.6,3.5-0.8,5.3-0.6l36.2,5.1C972.9,326.9,977.6,333.6,976.7,340.7z"/>
			<path class="st8" d="M877,162l-0.1,0.9c-0.8,7.2-6.9,12.3-13.4,11.4l-36.2-5.1c-6.5-0.9-11.2-7.6-10.4-14.8l0.1-0.9
				c0.8-7.2,6.9-12.3,13.4-11.4l36.2,5.1C873.2,148.2,877.9,154.8,877,162z"/>
			<path class="st8" d="M941.1,87l-0.8,0.3c-6.3,2.1-13-1.9-14.9-8.8L914.9,40c-1.9-6.9,1.7-14.3,8-16.4l0.8-0.3
				c6.3-2.1,13,1.9,14.9,8.8l10.5,38.4C951,77.5,947.4,84.9,941.1,87z"/>
			<path class="st2" d="M1135.4,631.3c-30.6,35.1-87.4,43.6-129.4,24.4c-8-3.7-15.5-8.4-22.2-14.1c-0.9-0.8-1.8-1.6-2.8-2.4
				c-60.8-56.5-12.9-174.7-46.4-290.2c-2.7-9.2-5.9-18.4-9.7-27.6c-4.4-10.5-9.5-20.9-15.7-31.2c-52.8-88.8-126.3-85.1-127.1-142.5
				c-1-62.9,86.1-146.5,158.8-139.1c28.9,3,56.9,20.5,82.8,48c6.1,6.5,12.1,13.5,17.9,21.1c69.5,89.6,120.6,249.1,128.8,378
				c0.7,10.3,1,20.4,1.1,30.3C1172.2,548.9,1161.2,601.7,1135.4,631.3z"/>
		</g>
	</g>
</g>
<g id="main">
	<g id="general_1_">
		<g id="search_bar">
			
				<linearGradient id="SVGID_5_" gradientUnits="userSpaceOnUse" x1="604.1553" y1="1102.9585" x2="594.9396" y2="738.9363" gradientTransform="matrix(0.9825 -7.658715e-02 7.771824e-02 0.997 -63.5868 42.2533)">
				<stop  offset="0.4284" style="stop-color:#D3E0DF"/>
				<stop  offset="0.688" style="stop-color:#D5E1DF"/>
				<stop  offset="0.9383" style="stop-color:#F1F0E2"/>
			</linearGradient>
			<path class="st9" d="M875.8,979.6c-0.8,0.5-1.7,1.1-2.5,1.7c-20.1,15.9-40.7,24.2-61.2,24.8c-13.6,0.4-25-2.8-35.6-8.6
				c-15-8.2-28.4-21.6-44.5-37.7c-24.6-24.6-52.5-52.5-94.9-70.7c-55-23.7-96.7-13.9-130.2-6.1c-32.5,7.6-56,13.1-87.4-6.6
				c-32.8-20.5-59.7-60.2-80.2-118.1c-13.2,9.5-31.9,22.4-46.4,32.4c25.9,70.3,61,119.7,104.6,147c47.6,29.8,84.9,21.1,121,12.7
				c31.7-7.4,61.7-14.4,103.3,3.5c33.4,14.4,56.2,37.2,78.3,59.3c18.5,18.5,37.4,37.4,60.8,49.2c15.7,8,33.4,12.8,54.3,12.2
				c2.1-0.1,4.3-0.2,6.4-0.3c27.3-2.1,54-13.3,79.6-33.2C893.1,1021.2,882.1,994.9,875.8,979.6z"/>
			<path class="st10" d="M850.2,1043.4l-12.9-6.9c0.1-0.2,0.1-0.4,0.2-0.6c0.9-3,0.5-6.2-1-8.9c-1.5-2.7-4-4.7-7.1-5.6
				c-3-0.9-6.2-0.5-8.9,1c-2.7,1.5-4.7,4-5.6,7.1s-0.5,6.2,1,8.9c1.5,2.7,4,4.7,7.1,5.6c1.2,0.3,2.4,0.5,3.6,0.4
				c1.8-0.1,3.7-0.6,5.3-1.5c1.3-0.7,2.5-1.7,3.4-2.8l12.9,6.9c0.3,0.2,0.7,0.3,1.1,0.2c0.7,0,1.4-0.4,1.8-1.1
				C851.6,1045.2,851.3,1043.9,850.2,1043.4z M828.9,1037.5c-1.3,0.7-2.8,0.9-4.2,0.5c-1.4-0.4-2.6-1.3-3.3-2.6
				c-0.7-1.3-0.9-2.8-0.5-4.2c0.4-1.4,1.3-2.6,2.6-3.3c0.8-0.4,1.6-0.7,2.5-0.7c0.6,0,1.1,0.1,1.7,0.2c1.4,0.4,2.6,1.3,3.3,2.6
				C832.5,1032.7,831.6,1036,828.9,1037.5z"/>
		</g>
		<g id="shoes">
			<path d="M700.7,930.1c-0.1,0.1-0.1,0.2-0.2,0.3c-0.4,0.6-0.9,1-1.5,1.4c-6.7,4.2-15.5-12.1-43.1-23.7c-1.4-0.6-2.8-1.2-4.3-1.7
				c-7-2.8-13.9-5.8-14.5-10.9c0-0.3-0.2-0.6-0.2-1.1c0-0.2,0-0.5,0-0.8c0.2-1,0.8-2.5,2.7-5.1c0.9-1.3,1.9-2.7,2.9-4.4
				c1.9-3.2,4-7.2,6.1-12.2c0.5-1.2,1.8-1.1,3-1.7c1.8-0.8,8.4-3.7,16.5-1.9c1.6,0.4,4.1,1.1,6.8,2.6c-1.5,2.4-4.6,8-4.3,15
				c0,0.4,0,0.8,0.1,1.2c0,0.3,0.1,0.7,0.1,1c0.2,1.5,0.6,3,1,4.3c0.3,0.8,0.6,1.5,0.9,2.2c2.6,5.9,7,9.7,8.6,11
				c9.3,8.2,17.3,6.1,20.2,12.9C703,922,702.8,927.1,700.7,930.1z"/>
			<path class="st11" d="M700.5,930.4c-0.4,0.6-0.9,1-1.5,1.4c-6.7,4.2-15.5-12.1-43.1-23.7c-1.4-0.6-2.8-1.2-4.3-1.7
				c-7-2.8-13.9-5.8-14.5-10.9c0-0.3-0.2-0.6-0.2-1.1c0-0.3,0-0.6,0-0.8c4.1,2.2,8.1,4.5,12.2,6.8c5.4,3.1,10.9,6.2,16.5,9.4
				C677.6,916.5,689.2,923.5,700.5,930.4z"/>
			<path class="st11" d="M670.9,887.9l-5.9-1.5c-0.6-0.1-0.9-0.7-0.8-1.3c0.1-0.5,0.7-0.9,1.3-0.7l5.2,1.3c0,0.4,0,0.8,0.1,1.2
				C670.8,887.3,670.9,887.6,670.9,887.9z"/>
			<path class="st11" d="M672.8,894.5l-7-0.9c-0.6-0.1-1-0.6-0.9-1.2c0.1-0.6,0.6-1,1.2-0.9l5.9,0.7
				C672.2,893,672.5,893.8,672.8,894.5z"/>
			<path d="M483.2,884.8c-0.5,4.3-12.4,8.8-22.1,6c-5-1.5-7.9-4.5-11.3-7.8c-1.9-1.9-3.2-3.6-4.3-5.2c-4.7-7.1-6.9-11.9-9.5-16.8
				c-1.1-2.2-2.3-4.1-3.3-5.7c-5.8-8.9-10.1-10.9-8.9-15c0.4-1.2,1-1.9,2.6-3c1.6-1.1,4.3-2.6,8.8-5.4c0.1,0,0.1-0.1,0.1-0.1
				c2.5-1.6,5.8-3.5,12-8c3.6-2.6,6.4-4.9,8.2-6.3c4.9,5.8,9.7,11.5,14.6,17.3c-1.9,1.6-4.7,4.5-6.9,8.7c-0.4,0.7-0.9,1.8-1.5,3.1
				c-0.3,0.6-0.5,1.3-0.7,2c-0.4,1.3-0.8,2.8-1,4.4c-0.1,0.7-0.2,1.4-0.2,2.1c-0.1,1.5,0,3,0.2,4.6c1.3,8.1,7.6,17.8,15,19
				c1.6,0.3,5.4,0.5,7.3,3.1c0.1,0.1,0.3,0.4,0.5,0.7C483,883.1,483.3,883.9,483.2,884.8z"/>
			<path class="st11" d="M483.2,884.8c-0.5,4.3-12.4,8.8-22.1,6c-5-1.5-7.9-4.5-11.3-7.8c-1.9-1.9-3.2-3.6-4.3-5.2
				c-4.7-7.1-6.9-11.9-9.5-16.8c-1.1-2.2-2.3-4.1-3.3-5.7c-5.8-8.9-10.1-10.9-8.9-15c0.4-1.2,1-1.9,2.6-3c0,0,3,5.4,6.9,12.5
				c6.5,11.7,15.8,27.7,18.7,30.4c4.4,4.1,14.6,14.2,30.7,2.3C483,883.1,483.3,883.9,483.2,884.8z"/>
			<path class="st11" d="M461.6,846.6c-0.3,0.6-0.5,1.3-0.7,2l-5.7-3c-0.5-0.3-0.7-0.9-0.4-1.4c0.3-0.5,0.9-0.7,1.4-0.4L461.6,846.6
				z"/>
			<path class="st11" d="M459.9,853c-0.1,0.7-0.2,1.4-0.2,2.1l-5.5-1.3c-0.6-0.1-0.9-0.7-0.8-1.3c0.1-0.6,0.7-0.9,1.3-0.8L459.9,853
				z"/>
			
				<linearGradient id="SVGID_6_" gradientUnits="userSpaceOnUse" x1="417.2932" y1="839.0536" x2="429.3266" y2="839.0536" gradientTransform="matrix(0.9994 -3.434691e-02 3.434691e-02 0.9994 -22.2275 19.7199)">
				<stop  offset="0.3481" style="stop-color:#BDD3DE"/>
				<stop  offset="0.5915" style="stop-color:#1C4461"/>
				<stop  offset="0.7729" style="stop-color:#153E5C"/>
			</linearGradient>
			<path class="st12" d="M435.3,831.9l-2,18l-0.6,5.4c-5.8-8.9-10.1-10.9-8.9-15c0.4-1.2,1-1.9,2.6-3c1.6-1.1,4.3-2.6,8.8-5.4
				C435.2,831.9,435.2,831.9,435.3,831.9z"/>
			
				<linearGradient id="SVGID_7_" gradientUnits="userSpaceOnUse" x1="628.7087" y1="897.8954" x2="642.9895" y2="897.8954" gradientTransform="matrix(0.9994 -3.434691e-02 3.434691e-02 0.9994 -22.2275 19.7199)">
				<stop  offset="0.2271" style="stop-color:#153E5C"/>
				<stop  offset="0.4085" style="stop-color:#1C4461"/>
				<stop  offset="0.6519" style="stop-color:#BDD3DE"/>
			</linearGradient>
			<path class="st13" d="M651.6,906.3c-7-2.8-13.9-5.8-14.5-10.9c0-0.3-0.2-0.6-0.2-1.1c0-0.2,0-0.5,0-0.8c0.2-1,0.8-2.5,2.7-5.1
				c0.9-1.3,1.9-2.7,2.9-4.4l6.6,16.3L651.6,906.3z"/>
		</g>
		<g id="leg_back">
			<path class="st14" d="M756.9,695c-0.4,1.3-0.1,0.2-8.2,17.8c0,0,0,0,0,0c-17.2,37.5-29.6,66.8-34.1,77.6
				c-9.7,23.1-21.6,52.6-34.5,87.6c-7.6-0.3-15.3-0.6-22.9-0.9c-5.4-0.2-10.8-0.4-16.2-0.6c21.1-92.5,29.7-128.2,32.4-138
				c0.1-0.5,0.6-2.2,1.3-4.6l0,0c0.3-1.2,0.7-2.6,1.1-4.2c1.7-6.5,3.9-15.4,6-26.2c2.7-13.8,4.3-25.2,4.6-28
				c0.3-2.9,0.3-5.8-0.1-8.7c-4.2-32.6-49.7-63.9-75.7-109.7c-4.3-7.6,6.8-25,21.4-42c6.2-7.2,13.1-14.4,19.6-20.7l35.8-8.6
				c2.9,6.3,5.6,12.4,8.2,18.3c4.1,9.3,7.9,18.1,11.3,26.2c0.8,1.8,1.5,3.6,2.2,5.3c0.6,1.4,1.2,2.9,1.8,4.3
				c2.7,6.5,5.2,12.6,7.6,18.5c3.4,8.2,6.5,15.9,9.4,23.1C757.4,654.7,763.1,674,756.9,695z"/>
			
				<linearGradient id="SVGID_8_" gradientUnits="userSpaceOnUse" x1="613.179" y1="623.1025" x2="730.4312" y2="623.1025" gradientTransform="matrix(0.9994 -3.434691e-02 3.434691e-02 0.9994 -22.2275 19.7199)">
				<stop  offset="0.2431" style="stop-color:#19233D"/>
				<stop  offset="1" style="stop-color:#5A142A;stop-opacity:0.6"/>
			</linearGradient>
			<path class="st15" d="M686.4,675.4c3.9-35.9-47.5-68.5-75.8-118.4c-4.3-7.6,6.8-25,21.4-42l63.6-11c5,11.4,9.5,21.9,13.5,31.5
				c0.6,1.4,1.2,2.9,1.8,4.3c2.7,6.5,5.2,12.6,7.6,18.5c3.4,8.2,6.5,15.9,9.4,23.1c-2.8,40.6-13.5,111-53.2,152.4
				c0.3-1.2,0.7-2.6,1.1-4.2c1.7-6.5,3.9-15.4,6-26.2C684.5,689.6,686.1,678.2,686.4,675.4z"/>
			<path class="st16" d="M748.7,712.8c-17.2,37.5-29.6,66.8-34.1,77.6c-9.7,23.1-21.6,52.6-34.5,87.6c-7.6-0.3-15.3-0.6-22.9-0.9
				c4.7-9.9,13-28.9,27.3-64.7C705.8,759.4,731.6,728.8,748.7,712.8z"/>
		</g>
		<g id="leg_front">
			<path class="st17" d="M646,550.6c-31.1,59.1-7.9,127.9-38.7,166.6c-0.7,0.9-1.8,2.2-1.9,2.4c-4.8,5.7-13.7,14.6-45,41.6
				c-39.2,33.8-72.1,60.4-94.6,78c-4.9-4.9-10.1-10.6-15.3-17.3c-3.9-4.9-7.2-9.7-10.1-14.2c27.2-37.4,45-55.3,56.5-64.7
				c2.7-2.2,11.7-10.5,24.1-21.6c7.6-6.8,13.8-13,18.9-20.9c0,0,3.4-5.3,6.1-11.3c1.6-3.6,3-7.5,4.2-11.8
				c10.5-36.8,6.1-93.8,6.1-93.8c-1.3-16.8-2.4-30.2-3.2-40.9c-2.4-32-2.6-40.1-0.5-45.1c0.6-1.4,1-2,1.6-2.9
				c2.5-3.8,6.2-6.9,10.8-9.2c31.5,3.7,63,7.4,94.5,11.1c4.9,3.8,8.4,8.1,9.7,12.8C672.4,521.2,659.4,525.2,646,550.6z"/>
			<path class="st18" d="M646,550.6c-31.1,59.1-7.9,127.9-38.7,166.6c-0.7,0.9-1.8,2.2-1.9,2.4c-4.8,5.7-13.7,14.6-45,41.6
				c-39.2,33.8-72.1,60.4-94.6,78c-4.9-4.9-10.1-10.6-15.3-17.3c-3.9-4.9-7.2-9.7-10.1-14.2c69.2-22.8,161.2-65.3,164.5-131.5
				c1.3-26-3.2-32.3,4.8-70.2c5.5-26.2,13.1-39.6,5.8-48.6c-6.9-8.4-17.7-2-42.9-8.6c-5.5-1.4-12.6-3.3-19.4-6
				c-2.4-32-2.6-40.1-0.5-45.1c0.6-1.4,1-2,1.6-2.9c2.5-3.8,6.2-6.9,10.8-9.2c31.5,3.7,63,7.4,94.5,11.1c4.9,3.8,8.4,8.1,9.7,12.8
				C672.4,521.2,659.4,525.2,646,550.6z"/>
			
				<linearGradient id="SVGID_9_" gradientUnits="userSpaceOnUse" x1="493.9279" y1="708.9023" x2="561.0229" y2="708.9023" gradientTransform="matrix(0.9994 -3.434691e-02 3.434691e-02 0.9994 -22.2275 19.7199)">
				<stop  offset="0.3481" style="stop-color:#BDD3DE"/>
				<stop  offset="0.5915" style="stop-color:#1C4461"/>
				<stop  offset="0.7729" style="stop-color:#153E5C"/>
			</linearGradient>
			<path class="st19" d="M562.3,695.5c1.4,8.2-36,30.9-65.5,47.5c8.3-7.5,16.3-14.7,24.1-21.6c7.6-6.8,13.8-13,18.9-20.9
				c0,0,3.4-5.3,6.1-11.3c1.6-3.6,3-7.5,4.2-11.8C555.7,682.5,561.2,689,562.3,695.5z"/>
		</g>
		<g id="tshirt">
			<path class="st11" d="M725.3,285.1c-1-3.5-2.9-10.2-7.9-16.9c-1.2-1.7-2.7-3.4-4.4-5c-3.2-3.1-7-5.8-10.9-8.1
				c-7.2-4.3-14.9-7.2-20.4-9.3c-1.2-0.5-2.2-0.8-2.9-1.1c-2.4-0.6-5.2-1.1-8.2-1.6c-0.7-0.1-1.4-0.2-2.1-0.3c0,0,0,0-0.1,0
				c-1.8-0.3-3.8-0.5-5.8-0.7c-7.1-0.8-15.2-1.1-24-0.5c-1,0.1-1.9,0.2-2.9,0.2c-3.6,0.8-7.1,1.8-10.3,3.1c-4,1.6-7.6,3.7-11,6.4
				c-2.1,1.7-4.1,3.5-6,5.6c-0.6,0.6-1.1,1.2-1.7,1.9c-7.6,9-14,21.8-20.5,39.2c-0.3,0.7-0.5,1.4-0.8,2.1h0
				c-4,10.8-8,23.2-12.5,37.6c-0.2,0.5-0.3,1-0.5,1.6c0,0.1-0.1,0.2-0.1,0.3c-3.8,12.1-7.8,25.5-12.1,40c-0.2,0.6-0.3,1.2-0.5,1.7
				c-2.9,9.8-5.8,20.1-8.8,30.9c1.8,0.7,3.7,1.3,5.8,1.8c0,0.1-0.1,0.2-0.1,0.3c0,0.1,0,0.1-0.1,0.2v0c-0.3,0.9-0.9,2.4-1.6,4.3
				c-0.2,0.6-0.5,1.2-0.7,1.9c-1.6,4.3-3.8,10.1-6.1,16.4c0,0,0,0.1-0.1,0.2c-6.3,17-13.8,37.4-14.4,39.6c-0.2,0.9-0.4,1.7-0.7,2.6
				c-0.2,0.7-0.4,1.5-0.5,2.2c0.3,0.3,0.8,0.8,1.3,1.4c6.1,6.3,26.5,25.7,56.3,37.1c0,0,0.1,0,0.1,0c0.5,0.2,1,0.4,1.5,0.5
				c0.3,0.1,0.7,0.2,1,0.4c0.9,0.3,1.7,0.6,2.5,0.9c1.3,0.4,2.6,0.8,3.9,1.2c0.9,0.3,1.8,0.5,2.6,0.8c2.2,0.6,4.4,1.2,6.7,1.7
				c0.5,0.1,1,0.2,1.5,0.3c1.4,0.3,2.7,0.5,4.1,0.8c0.1,0,0.2,0,0.3,0c2.7,0.5,5.5,0.9,8.4,1.2c0.1,0,0.1,0,0.1,0
				c1.9,0.2,3.9,0.3,5.8,0.5c2,0.1,4.1,0.2,6.2,0.2c0.9,0,1.7,0,2.6,0c0.3,0,0.7,0,1,0c0.4,0,0.8,0,1.2,0c0.3,0,0.5,0,0.8,0
				c0.5,0,1,0,1.5-0.1c25.9-1.6,45.2-11.2,56.2-18c-0.1-0.9-0.2-1.8-0.4-2.7c-0.2-1.9-0.5-3.7-0.7-5.5c-0.1-0.6-0.1-1.3-0.2-1.9
				c-1.6-13.8-2.5-26.1-2.8-37.2c0-0.6,0-1.3,0-1.9c-0.4-15.7,0.4-28.9,2-40.1c0,0,0,0,0-0.1c0.1-0.6,0.2-1.2,0.2-1.8
				c0.1-0.8,0.2-1.7,0.4-2.5c0.1-0.8,0.3-1.7,0.4-2.5c0.3-1.8,0.6-3.6,1-5.3c0.4-1.9,0.8-3.8,1.3-5.5c0.5-2,1-3.9,1.6-5.7
				c0.6-2.2,1.3-4.2,2-6.2c1.4-4,2.7-7.7,3.8-11.1c0.2-0.6,0.4-1.2,0.6-1.9c0.6-1.8,1.1-3.6,1.7-5.4c3.4-11.6,5.2-19.9,7.2-29
				c0.2-1.1,0.5-2.2,0.7-3.3c0.1-0.6,0.3-1.3,0.4-1.9c4.6-20.7,7.2-32,8.3-39.2c0.1-0.7,0.2-1.3,0.3-1.9
				C726.8,292,726.4,289,725.3,285.1z"/>
			<g>
				<path class="st20" d="M726,297.7c-0.1,0.6-0.2,1.2-0.3,1.9c-4-0.8-7.8-2-11.6-3.5c-6.7-2.6-10.1-5-13.4-7.3
					c-2.2-1.6-4.3-3-7.3-4.6c-8.9-4.4-15.4-3.6-22.2-2.8c-6.8,0.8-13.9,1.7-23.2-3c-5.2-2.7-8.3-5.4-11.2-8.1
					c-3.3-3-6.5-5.9-12.8-8.3c-5.3-2.1-11.1-3.1-17.2-3.2c0.6-0.7,1.1-1.3,1.7-1.9c5.8,0.2,11.2,1.4,16.3,3.3
					c6.7,2.6,9.9,5.5,13.4,8.7c2.8,2.5,5.7,5.2,10.8,7.8c8.7,4.5,15.2,3.7,22,2.8c6.9-0.9,14-1.7,23.4,3c3.1,1.6,5.4,3.2,7.6,4.7
					c3.2,2.3,6.5,4.6,13,7.1C718.5,295.8,722.2,296.9,726,297.7z"/>
				<path class="st20" d="M717.5,338.9c-0.1,0.6-0.3,1.2-0.4,1.9c-5.4-0.8-10.6-2.3-15.6-4.3c-6.5-2.6-9.8-5-13-7.3
					c-2.2-1.6-4.2-3-7.1-4.5c-8.6-4.4-14.9-3.6-21.6-2.8c-6.6,0.9-13.5,1.7-22.5-3c-5.1-2.7-8-5.4-10.9-8.1c-3.2-3-6.3-5.9-12.4-8.3
					c-8.1-3.2-17.3-4.1-27.3-2.4v0c-0.3,0-0.6,0.1-0.9,0.1c0,0-0.1,0-0.2,0c0.2-0.7,0.5-1.4,0.8-2.1c0.4-0.1,0.7-0.1,1.1-0.2
					c9.9-1.5,19-0.6,27.2,2.7c6.5,2.6,9.6,5.5,13,8.7c2.7,2.6,5.6,5.2,10.4,7.8c8.5,4.5,14.7,3.7,21.4,2.8c6.7-0.9,13.6-1.7,22.7,3
					c3.1,1.6,5.3,3.2,7.4,4.7c3.1,2.3,6.3,4.6,12.6,7.1C707.1,336.6,712.2,338,717.5,338.9z"/>
				<path class="st20" d="M707.5,378.5c-0.2,0.6-0.4,1.2-0.6,1.9c-5.8-0.8-11.4-2.3-16.8-4.4c-6.6-2.6-9.9-5-13.2-7.3
					c-2.2-1.6-4.2-3-7.2-4.5c-8.7-4.4-15.1-3.6-21.9-2.8c-6.7,0.9-13.6,1.7-22.7-3c-5.2-2.7-8.1-5.4-11-8.1c-3.3-3-6.4-5.9-12.6-8.3
					c-8.4-3.3-17.8-4.1-28.1-2.3c-0.2,0-0.3,0-0.5,0.1c-0.2,0-0.4,0-0.6-0.1c0-0.1,0.1-0.2,0.1-0.3c0.2-0.5,0.3-1,0.5-1.6
					c0.4-0.1,0.7-0.1,1.1-0.2c10.2-1.6,19.7-0.8,28.1,2.6c6.5,2.6,9.8,5.5,13.2,8.7c2.8,2.5,5.6,5.2,10.6,7.8
					c8.6,4.5,14.9,3.7,21.6,2.8c6.7-0.9,13.7-1.8,23,3c3.1,1.6,5.3,3.2,7.5,4.7c3.2,2.3,6.4,4.6,12.7,7.1
					C696.1,376.2,701.7,377.7,707.5,378.5z"/>
				<path class="st20" d="M696.5,419.2c-0.1,0.6-0.2,1.2-0.2,1.8c0,0,0,0,0,0.1c-4.2-0.8-8.4-2-12.4-3.5c-6.9-2.6-10.4-5-13.8-7.3
					c-2.3-1.6-4.5-3-7.6-4.5c-9.2-4.4-15.9-3.6-23.1-2.7c-7.1,0.9-14.3,1.8-23.9-3c-5.4-2.7-8.5-5.4-11.5-8c-3.4-3-6.7-5.9-13.2-8.3
					c-8.9-3.3-18.9-4.1-29.8-2.2c-0.1,0-0.2,0-0.3,0c-0.3,0-0.5,0-0.7-0.2c0.2-0.6,0.3-1.2,0.5-1.7c0.4-0.1,0.7-0.1,1.1-0.2
					c10.9-1.7,21-0.9,29.9,2.5c6.9,2.6,10.2,5.5,13.8,8.6c2.9,2.5,5.9,5.2,11.1,7.8c9,4.5,15.7,3.7,22.8,2.8
					c7.1-0.9,14.4-1.8,24.1,2.9c3.3,1.6,5.6,3.1,7.9,4.7c3.3,2.3,6.8,4.6,13.4,7.1C688.3,417.2,692.4,418.3,696.5,419.2z"/>
				<path class="st20" d="M694.3,463.1c-7.3-0.5-16.5-1.9-25.1-5.2c-3.8-1.5-8-3.5-8-3.5c-2.4-1.3-4.3-2.5-6.1-3.8
					c-2.3-1.6-4.6-3-7.8-4.5c-9.4-4.4-16.3-3.6-23.5-2.7c-7.2,0.9-14.6,1.8-24.4-3c-5.5-2.7-8.7-5.4-11.8-8c-3.5-3-6.8-5.9-13.5-8.3
					c-6.1-2.2-12.8-3.3-19.9-3.2c0.2-0.7,0.5-1.3,0.7-1.9c7.1,0,13.7,1.1,19.9,3.3c7,2.6,10.5,5.5,14.1,8.6c3,2.5,6,5.2,11.3,7.8
					c9.2,4.5,16,3.7,23.3,2.8c7.2-0.9,14.7-1.8,24.6,2.9c3.3,1.6,5.7,3.1,8,4.7c1.8,1.2,3.6,2.4,5.9,3.6c0,0,4,2,7.8,3.5
					c6.9,2.7,15.2,4.4,24.3,5C694.3,461.8,694.3,462.4,694.3,463.1z"/>
				<path class="st20" d="M697.4,502.2c-1.2,0-2.3,0-3.5,0c-15.1,0-28.3-1.8-36.3-4.9c-3.9-1.5-7.9-3.5-8-3.6
					c-2.4-1.3-4.2-2.5-6-3.7c-2.3-1.6-4.5-3-7.7-4.5c-9.3-4.4-16.1-3.6-23.3-2.7c-7.1,0.9-14.5,1.8-24.2-3c-5.5-2.7-8.6-5.4-11.7-8
					c-3.5-3-6.8-5.8-13.4-8.3c-7.2-2.7-15.2-3.7-23.7-3c0.3-0.7,0.5-1.3,0.8-2c8.5-0.5,16.4,0.5,23.6,3.2c7,2.6,10.4,5.5,14,8.6
					c2.9,2.5,6,5.2,11.2,7.8c9.1,4.5,15.9,3.7,23.1,2.8c7.2-0.9,14.6-1.8,24.4,2.9c3.3,1.6,5.7,3.1,7.9,4.7c1.8,1.2,3.6,2.4,5.8,3.6
					c0,0,3.9,2,7.8,3.5c8.4,3.3,22.7,5,38.8,4.8C697.2,501,697.3,501.6,697.4,502.2z"/>
			</g>
			
				<linearGradient id="SVGID_10_" gradientUnits="userSpaceOnUse" x1="645.7833" y1="402.5593" x2="738.8558" y2="402.5593" gradientTransform="matrix(0.9994 -3.434691e-02 3.434691e-02 0.9994 -22.2275 19.7199)">
				<stop  offset="5.829327e-03" style="stop-color:#19233D"/>
				<stop  offset="1" style="stop-color:#DF7D56;stop-opacity:0.6"/>
			</linearGradient>
			<path class="st21" d="M716.4,344.1c-2,9.1-3.9,17.5-7.3,29c-1.6,5.5-3.5,11.3-6,18.3c-0.7,1.9-1.4,4-2,6.2
				c-0.5,1.8-1.1,3.7-1.6,5.7c-0.4,1.8-0.9,3.6-1.3,5.6c-0.4,1.7-0.7,3.5-1,5.3c-0.1,0.8-0.3,1.7-0.4,2.5c-0.2,1.4-0.4,2.8-0.6,4.3
				c-2.8,20.7-3.2,48.6,1.9,86.7c0.1,0.9,0.2,1.8,0.4,2.7c-10.9,6.8-30.2,16.5-56.2,18c-0.3,0-0.6,0-0.8,0l76-260.2
				c5,6.7,6.9,13.3,7.9,16.9C727.9,294.2,726.4,298.4,716.4,344.1z"/>
			<path class="st22" d="M702.2,255.2c0.1,4.1-0.3,10.5-3.2,17.6c-0.3,0.6-0.7,1.6-1.3,2.9c-2.8,5.9-9.6,17.3-21.2,19.1
				c-10.8,1.6-19.7-6.1-22.8-8.8c-13.8-11.7-15.5-31.1-14.9-44.4c12.3-0.8,23.3,0.2,31.9,1.6c0.7,0.1,1.3,0.2,1.9,0.3
				c2.3,0.4,4.4,0.8,6.3,1.3c0.7,0.2,1.7,0.6,2.9,1C687.2,248,694.9,250.9,702.2,255.2z"/>
			<path class="st22" d="M698.4,510.4c-10.9,6.8-30.2,16.5-56.2,18c-0.8,0-1.6,0.1-2.4,0.1c-18.5,0.8-35.2-2.8-49.7-8.3
				c-32.6-12.4-53.9-34.5-57.6-38.5c0.4-1.6,0.8-3.2,1.2-4.8c8.4,6,20.3,13.7,35.1,21.3c4.3,2.2,23.8,12.2,41,17.1
				c5.1,1.5,13.2,3.4,24,4.2C649.8,520.8,671.7,519.5,698.4,510.4z"/>
		</g>
		<g id="hand_right">
			<g>
				<path class="st23" d="M882.4,376.1c0.3,0.2,0.5,0.4,0.5,0.6c0.1,1.7-8.3,5.4-18.6,6.5c-0.1,0-0.2,0-0.3,0
					c-6.4,0.7-9.7,1.1-13.7-0.3c-6.3-2.1-11.9-7.4-16.2-10.7c0,0-0.1,0-0.1,0c-0.7,0.5-1.3,0.9-2,1.4c-1.4,1-2.7,1.9-4.1,2.9
					c-0.3-0.3-0.6-0.6-0.9-0.9c-4.5-4.1-9-8.3-13.4-12.4c0.5-0.4,1.1-0.7,1.6-1c0.3-0.2,0.8-0.4,1.4-0.7c3.7-1.7,6.9-3.2,9.8-4.5
					c7.6-3.4,12.7-5,18-5c7.6,0.1,15.8,3.6,15.9,6.4c0,0.8-0.6,1.4-0.7,1.4c-1.9,1.7-5.8-1.8-12.5-2.1c-0.9,0-5.3-0.2-6,1.1
					c0,0,0,0.1,0,0.1c-0.3,1.2,2.4,2.5,6.5,6.4c2.1,1.9,3.6,3.7,4.5,4.8c0.2-0.1,0.3-0.2,0.6-0.3c4.5-2.2,23.1-11.1,24.2-9.1
					c0.9,1.5-9.1,7.5-16.6,11c7.6-1.3,20.2-5.2,23.4-3.1c1,0.6,1.1,1.3,0.8,1.9c0,0,0,0,0,0c-0.3,0.5-1.2,1-2.1,1.5
					c0.8,0.1,1.4,0.3,1.9,0.5C886.5,373.9,884.6,375.2,882.4,376.1z"/>
				
					<linearGradient id="SVGID_11_" gradientUnits="userSpaceOnUse" x1="848.3155" y1="374.7084" x2="862.6258" y2="374.7084" gradientTransform="matrix(0.9994 -3.434691e-02 3.434691e-02 0.9994 -22.2275 19.7199)">
					<stop  offset="5.829327e-03" style="stop-color:#19233D"/>
					<stop  offset="1" style="stop-color:#DF7D56;stop-opacity:0.6"/>
				</linearGradient>
				<path class="st24" d="M853,370.7c0,0-13.8-3.2-14.6-8.9c-0.3-2.5,1.1-3.1,2.7-3c0,0,0,0.1,0,0.1c-0.3,1.2,2.4,2.5,6.5,6.4
					c2.1,1.9,3.6,3.7,4.5,4.8c0.2-0.1,0.3-0.2,0.6-0.3L853,370.7z"/>
				
					<linearGradient id="SVGID_12_" gradientUnits="userSpaceOnUse" x1="835.9492" y1="386.0829" x2="873.5091" y2="386.0829" gradientTransform="matrix(0.9994 -3.434691e-02 3.434691e-02 0.9994 -22.2275 19.7199)">
					<stop  offset="5.829327e-03" style="stop-color:#19233D"/>
					<stop  offset="1" style="stop-color:#DF7D56;stop-opacity:0.6"/>
				</linearGradient>
				<path class="st25" d="M864.3,383.2c-0.1,0-0.2,0-0.3,0c-6.4,0.7-9.7,1.1-13.7-0.3c-6.3-2.1-11.9-7.4-16.2-10.7c0,0-0.1,0-0.1,0
					c-0.7,0.5-1.3,0.9-2,1.4c-1.4,1-2.7,1.9-4.1,2.9c-0.3-0.3-0.6-0.6-0.9-0.9l-0.7-2.5c0.9-0.8,8.6-4.7,8.6-4.7L864.3,383.2z"/>
			</g>
			
				<linearGradient id="SVGID_13_" gradientUnits="userSpaceOnUse" x1="823.5439" y1="376.1068" x2="843.6426" y2="376.1068" gradientTransform="matrix(0.9994 -3.434691e-02 3.434691e-02 0.9994 -22.2275 19.7199)">
				<stop  offset="5.829327e-03" style="stop-color:#19233D"/>
				<stop  offset="1" style="stop-color:#DF7D56;stop-opacity:0.6"/>
			</linearGradient>
			<path class="st26" d="M834,372.3c-0.7,0.5-1.3,0.9-2,1.4c-1.4,1-2.7,1.9-4.1,2.9c-4.8-4.4-9.6-8.9-14.4-13.3
				c0.5-0.4,1.1-0.7,1.6-1c0.3-0.2,0.8-0.4,1.4-0.7c3.7-1.7,6.9-3.2,9.8-4.5L834,372.3z"/>
		</g>
		<g id="hoody_right_part">
			<g>
				<path class="st27" d="M746.2,262.3c-5.9,5.8-11.9,11.6-17.8,17.4c-0.6,0.6-1.6,0.7-2.3,0.1c-2.8-2.2-5.5-4.3-8.3-6.5
					c-2-1.6-4-3.1-6-4.7c-3.7-8-9.5-16.1-9.6-16.5c0.1-0.3,0.1-0.5,0.2-0.8c2.8-2.1-1-9.3,2.7-12.4c1.5-1.2,3.4-1.2,4.6-1.1
					c0.4,0,0.7,0,1.1,0.1c5.8,0.8,7.5,6.3,14.4,11.1c0.4,0.2,0.7,0.5,1.1,0.7c1.7,1,3.2,2,4.6,2.8c0.2,0.1,0.5,0.3,0.7,0.4
					c5.2,3,8.6,4.5,12.9,6.2c0.4,0.2,0.8,0.3,1.1,0.5C746.8,259.9,747.1,261.4,746.2,262.3z"/>
			</g>
			<g>
				<path class="st27" d="M832.1,373.7c-4.4,6.4-10.9,15.6-19.1,26.3c-1.8,2.3-3.4,4.5-4.9,6.4c-5.6,7.3-9.4,12.2-13.5,16.5
					c-8.9,9.7-35.2,38.4-54.2,31.5c-7.5-2.7-13.1-11-17.1-19.3c-4.2-8.8-6.6-17.7-7.3-20.4c-1.2-5-1.9-10.1-4.9-18.4
					c-3.3-9.3-7.3-16.5-10.2-21.2c1.8-5.7,3.5-11.3,5.1-16.8c0.8-2.6,1.5-5.2,2.2-7.8c2.8-10.2,4.9-20.2,6.1-29.9
					c1.3-10.5,1.3-20.8-0.3-31.2c1.7-8.7,2.9-14.6,3-15c3.6,1.7,9,4.8,14.4,9.9c0.2,0.2,0.4,0.4,0.6,0.6c20.8,18.8,27,87.5,27,87.7
					c0.6,4.3,1,8,1.2,11.1c0.2,3.2,0.4,5.8,0.4,8c0.2,7.4-0.7,10.3,0.9,11.3c3.5,2.2,12.9-8.3,25.9-19.7c9.9-8.6,18.9-15.2,26-20
					c0.5-0.4,1.1-0.7,1.6-1c0.4-0.3,0.8-0.5,1.2-0.8c0.1,0,0.1,0.1,0.2,0.1c2.5,1.6,5.1,3.5,7.8,5.6
					C827.2,369.4,829.8,371.6,832.1,373.7C832.1,373.7,832.1,373.7,832.1,373.7z"/>
				<path class="st28" d="M832.1,373.7c-4.4,6.4-10.9,15.6-19.1,26.3c-1.8,2.3-3.4,4.5-4.9,6.4c-5.6,7.3-9.4,12.2-13.5,16.5
					c-8.9,9.7-35.2,38.4-54.2,31.5c-7.5-2.7-13.1-11-17.1-19.3c-4.2-8.8-6.6-17.7-7.3-20.4c-1.2-5-1.9-10.1-4.9-18.4
					c-3.3-9.3-7.3-16.5-10.2-21.2c1.8-5.7,3.5-11.3,5.1-16.8c0.8-2.6,1.5-5.2,2.2-7.8c2.8-10.2,4.9-20.2,6.1-29.9
					c1.3-10.5,1.3-20.8-0.3-31.2c1.7-8.7,2.9-14.6,3-15c3.6,1.7,9,4.8,14.4,9.9c0.2,0.2,0.4,0.4,0.6,0.6c20.8,18.8,27,87.5,27,87.7
					c0.6,4.3,1,8,1.2,11.1c0.2,3.2,0.4,5.8,0.4,8c0.2,7.4-0.7,10.3,0.9,11.3c3.5,2.2,12.9-8.3,25.9-19.7c9.9-8.6,18.9-15.2,26-20
					c0.5-0.4,1.1-0.7,1.6-1c0.4-0.3,0.8-0.5,1.2-0.8c0.1,0,0.1,0.1,0.2,0.1c2.4,1.6,6,4.2,7.8,5.6
					C826.2,368.6,828.8,370.7,832.1,373.7C832.1,373.7,832.1,373.7,832.1,373.7z"/>
			</g>
			<path class="st27" d="M729.5,361.7c-6.9,51-13,63.3-17.1,98.3c-3.6,31.1-2.9,57-1.7,74.1c0.5,0.3,0.9,0.8,1,1.5l0.1,1.1
				c0.1,1-0.7,1.9-1.7,2l-30.3,2.4l-5.5,0.4c-1,0.1-1.9-0.7-2-1.7l-0.1-1.1c-0.1-1,0.7-1.9,1.7-2l1-0.1c1.5-12,3-24,4.5-36.1
				c2.2-16.8,4.4-33.4,6.7-49.9c0,0,7-50.9,15-75.5c0.3-0.9,2.4-7.5,5.1-16.8c0.8-2.6,1.5-5.2,2.2-7.8c2.8-10.2,4.9-20.2,6.1-29.9
				c1.3-10.5,1.3-20.8-0.3-31.2c0-0.3-0.1-0.6-0.1-0.9c0,0-1.2-7.2-3.2-13.4c-2.6-8-8.2-17-10.5-20.4c-0.5-0.8-0.9-1.3-1-1.4
				c0.2-0.9,0.6-2.1,1.5-2.5c4.9-2.3,19.7,19.2,23,24.4C735.1,292.9,735.9,314,729.5,361.7z"/>
			<path class="st22" d="M712.8,349.2c-2.9,13.5-5.5,23.3-5.7,23.8c-4.9,18.3-12.4,57.7-24,141.9c-0.2,1.3-0.4,2.5-0.5,3.8
				c-1,7.1-2,14.6-3,22.4l-5.5,0.4c-1,0.1-1.9-0.7-2-1.7l-0.1-1.1c-0.1-1,0.7-1.9,1.7-2l1-0.1c0.6-5.2,1.3-10.4,1.9-15.5
				c-9.6,3.6-21.2,6.5-34.5,7.4c-0.8,0-1.6,0.1-2.4,0.1l-6.1-9c11.5,0.9,26.2,0.4,43.5-3.3c0.7-5.2,1.3-10.5,2-15.7
				c2.2-16.8,4.4-33.4,6.7-49.9c0,0,7-50.9,15-75.5c0.3-0.9,2.4-7.5,5.1-16.8c0.8-2.6,1.5-5.2,2.2-7.8c2.8-10.2,4.9-20.2,6.1-29.9
				c1.3-10.5,1.3-20.8-0.3-31.2c0-0.3-0.1-0.6-0.1-0.9c-0.8-6.3-2.5-11.3-3.2-13.4c-0.5-1.5-1.2-3.1-1.9-4.7
				c-3.7-8-9.5-16.1-9.6-16.5c0.1-0.3,0.1-0.5,0.2-0.8c0.4,0,0.8-0.1,1.2-0.2c0.5-0.1,1-0.2,1.5-0.3c6,8.1,10,15.8,12.7,22.6
				c3.6,9.2,4.8,16.8,5.3,22.1C721.2,310.4,718.4,323.3,712.8,349.2z"/>
			<path class="st22" d="M831.2,378.5L813,363.4c-1.1-0.9-1.2-2.5-0.3-3.6l0.1-0.2c0.9-1.1,2.5-1.2,3.6-0.3l18.2,15.1
				c1.1,0.9,1.2,2.5,0.3,3.6l-0.1,0.2C833.9,379.2,832.2,379.4,831.2,378.5z"/>
			
				<linearGradient id="SVGID_14_" gradientUnits="userSpaceOnUse" x1="730.8795" y1="438.5369" x2="816.6011" y2="438.5369" gradientTransform="matrix(0.9994 -3.434691e-02 3.434691e-02 0.9994 -22.2275 19.7199)">
				<stop  offset="0.2431" style="stop-color:#19233D"/>
				<stop  offset="1" style="stop-color:#5A142A;stop-opacity:0.6"/>
			</linearGradient>
			<path class="st29" d="M808.1,406.5c-5.6,7.3-9.4,12.2-13.5,16.5c-8.9,9.7-35.2,38.4-54.2,31.5c-7.5-2.7-13.1-11-17.1-19.3
				c11.5,4.7,20.6,4.6,26.2,4c11.6-1.3,21.2-7.5,40-19.7C797.4,414.3,803.8,409.7,808.1,406.5z"/>
		</g>
		<g id="neck">
			<path class="st23" d="M699.5,252.8c-0.1,0.3-0.1,0.5-0.2,0.8c-0.3,1.4-0.7,2.8-1.2,4.2c-1.8,6-3.2,10.8-4.5,14.5
				c-0.3,0.7-0.5,1.4-0.8,2.1c-1.6,4.2-3.2,6.8-5.2,8.4c-6.7,5-17.3,6.2-25.5,1.5c-8.1-4.6-10.4-13.1-11-15.2
				c-1.8-6.6-0.2-10.8,2.8-23.7c5.7-24.8,3.8-27.4,7.8-30.1c10.2-7,33.4,2.8,37.7,16.1c0.1,0.3,0.1,0.5,0.2,0.8
				C701.8,239.2,701.2,245.7,699.5,252.8z"/>
			<linearGradient id="SVGID_15_" gradientUnits="userSpaceOnUse" x1="673.5697" y1="258.9739" x2="714.1799" y2="258.9739">
				<stop  offset="5.829327e-03" style="stop-color:#19233D"/>
				<stop  offset="1" style="stop-color:#DF7D56;stop-opacity:0.6"/>
			</linearGradient>
			<path class="st30" d="M699.3,253.6c-0.3,1.4-0.7,2.8-1.2,4.2c-1.8,6-3.2,10.8-4.5,14.5c-4.7-3-12.3-8.9-17.2-18.9
				c-1.3-2.7-2.2-5.3-2.9-7.7c3.3,1.4,6.8,2.8,10.7,4C689.7,251.4,694.7,252.7,699.3,253.6z"/>
		</g>
		<g id="head_general">
			<path id="head" class="st23" d="M716.7,221.5c-0.5,3.1-1,4.8-1.7,8.3c-2.4,11.5-4.1,17.5-6.9,19.8c-1.7,1.3-3.6,2.3-5.9,2.9
				c-0.5,0.1-0.9,0.2-1.5,0.3c-0.8,0.2-1.5,0.3-2.1,0.3c-1.7,0.2-3.5,0.2-5.3,0.1c-2.9-0.2-5.9-0.7-8.9-1.5
				c-6.5-1.7-13.1-4.9-18.8-9.2c-4-3-7.4-6.5-10.1-10.5c0,0-1.6-2.3-2.8-5c-3.9-8.3-9.3-49.7,17.2-70.2c8.2-6.3,24.4-14.4,36.1-8
				c3.4,1.8,5.2,4.3,7,6.5C725.1,171.7,721.1,195.6,716.7,221.5z"/>
			<path id="mouth" d="M698.2,237.6c-0.1,0-0.1,0-0.2,0c-1.7-0.6-3.5-1.2-5.2-1.8c-2.7-0.9-5.3-1.8-8-2.7c-0.3-0.1-0.5-0.4-0.4-0.7
				c0.1-0.3,0.4-0.5,0.7-0.4c2.7,0.9,5.3,1.8,8,2.7c1.8,0.6,3.5,1.2,5.3,1.8c0.3,0.1,0.5,0.4,0.4,0.7
				C698.6,237.5,698.4,237.6,698.2,237.6z"/>
			<g id="eyes">
				
					<linearGradient id="SVGID_16_" gradientUnits="userSpaceOnUse" x1="561.7286" y1="408.6124" x2="566.8915" y2="408.6124" gradientTransform="matrix(0.93 0.3675 0.3675 -0.93 11.3306 370.1575)">
					<stop  offset="5.557009e-04" style="stop-color:#000000"/>
					<stop  offset="0.8106" style="stop-color:#000000"/>
				</linearGradient>
				<path class="st31" d="M683.9,196.5c-0.5,1.4,0.1,2.9,1.4,3.4c1.3,0.5,2.8-0.2,3.4-1.5c0.5-1.4-0.1-2.9-1.4-3.4
					C686,194.5,684.5,195.2,683.9,196.5z"/>
				
					<linearGradient id="SVGID_17_" gradientUnits="userSpaceOnUse" x1="109.7381" y1="178.6075" x2="114.5712" y2="178.6075" gradientTransform="matrix(-0.9935 -0.1142 -0.1142 0.9935 842.0309 35.8504)">
					<stop  offset="5.557009e-04" style="stop-color:#000000"/>
					<stop  offset="0.8106" style="stop-color:#000000"/>
				</linearGradient>
				<path class="st32" d="M712.6,200.7c0.2-1.4-0.8-2.6-2.1-2.7c-1.3-0.1-2.5,0.8-2.7,2.2c-0.2,1.4,0.8,2.6,2.1,2.7
					C711.2,203.1,712.4,202.1,712.6,200.7z"/>
			</g>
			<g id="brows">
				
					<linearGradient id="SVGID_18_" gradientUnits="userSpaceOnUse" x1="65.5803" y1="262.4008" x2="81.5272" y2="262.4008" gradientTransform="matrix(-0.9698 0.4384 0.4183 0.9085 648.6659 -83.8873)">
					<stop  offset="5.557009e-04" style="stop-color:#000000"/>
					<stop  offset="0.8106" style="stop-color:#000000"/>
				</linearGradient>
				<polygon class="st33" points="678.9,188.7 694.4,182.3 695.3,184.8 679.8,191.2 				"/>
				
					<linearGradient id="SVGID_19_" gradientUnits="userSpaceOnUse" x1="132.8822" y1="149.0888" x2="148.5762" y2="149.0888" gradientTransform="matrix(-0.7965 -0.3386 -0.4059 0.9135 888.9468 100.0666)">
					<stop  offset="5.557009e-04" style="stop-color:#000000"/>
					<stop  offset="0.8106" style="stop-color:#000000"/>
				</linearGradient>
				<polygon class="st34" points="710.9,184.3 722.9,190.5 721.7,192.9 709.7,186.7 				"/>
			</g>
			<path id="nose" class="st35" d="M701.6,198.9c0.5,7.2,1.9,12.4,3.2,16c0.8,2.1,1.8,4.5,0.7,6.2c-1.5,2.3-6.1,1.5-6.8,1.3
				c-3.7-0.6-6-2.9-6.8-3.8C695.2,212,698.4,205.5,701.6,198.9z"/>
			<path id="hair" d="M654.9,234.9c7.3-19.6,2.8-36.2,7.8-38.2c2.7-1.1,4.8,3.5,8,2.5c5.7-1.8,1-17.3,9.6-27.4
				c5.5-6.5,15.1-9.3,22.4-8.8c8.3,0.5,10.9,5,16.4,3c7.3-2.7,9.6-13,9.9-14.4c1.9-8.3-1.2-15-2.2-17c-2.5,1.6-6.5,3.9-11.6,6.1
				c-4.9,2.1-10.6,4.6-12,2.8c-1-1.3,0.9-3.6,1.6-7.4c1.1-5.6-1.1-10.7-3.1-14.1c-22.4,16.5-27.9,19.6-28.3,19.1
				c-0.4-0.6,5.5-4.7,5.2-10.5c-0.2-3.2-1.7-5.5-2.4-6.4c-23,25.9-28.8,50.4-30.7,62.5c-3.8,25.4,1,55,5.4,55.2
				C652.2,241.8,653.4,239,654.9,234.9z"/>
			<g id="ear">
				<path class="st23" d="M666.1,206.4c-0.7,1.3-1.6,2.5-2.8,3.5c-4.6,3.8-11.3,3.1-15-1.6c-3.6-4.7-2.8-11.6,1.9-15.4
					c0.1-0.1,0.1-0.1,0.2-0.2c4.6-3.6,11.2-2.8,14.7,1.8C667.8,197.9,668.1,202.6,666.1,206.4z"/>
				<path class="st36" d="M666.1,206.4l-15.7-13.7c4.6-3.6,11.2-2.8,14.7,1.8C667.8,197.9,668.1,202.6,666.1,206.4z"/>
			</g>
		</g>
		<g id="smartphone">
			<g>
				<path class="st37" d="M679.9,402.2c1.2-0.4,2.4-0.8,3.6-1.1c-5.4,8.7-10.8,17.4-16.1,26c-0.3,0.4-0.4,0.9-0.4,1.4l-0.6-3.3
					c-0.1-0.6,0-1.2,0.3-1.7C671.1,416.4,675.5,409.3,679.9,402.2z"/>
				<path class="st37" d="M702.2,378.7c-0.1-0.1-0.1-0.2-0.2-0.3c-0.3-0.3-1.5-1.5-3.3-1.6c-1.9-0.1-3.7,0.9-4.8,2.7
					c-3,4.9-6.1,9.8-9.1,14.7c-1.7,2.7-3.3,5.3-4.9,8c1.2-0.4,2.4-0.8,3.6-1.1c1.5-2.4,3-4.8,4.4-7.2c3.1-5,6.2-10.1,9.3-15.1
					C698.3,377.2,700.8,377.2,702.2,378.7C702.3,378.8,702.3,378.8,702.2,378.7z"/>
				<path class="st38" d="M712.7,392c-0.3-0.3-0.5-0.6-0.7-1c-0.2-0.3-0.5-0.6-0.8-0.9c-0.1-0.1-0.2-0.2-0.3-0.4
					c-2-2.6-5.3-6.8-7.9-10c-0.2-0.2-0.4-0.5-0.6-0.7c-0.1-0.1-0.1-0.2-0.2-0.2c0,0,0,0,0,0c0,0,0,0,0,0c-1.4-1.6-4-1.6-5,0
					c-3.1,5-6.2,10.1-9.3,15.1c-1.5,2.4-3,4.8-4.4,7.2c-5.4,8.7-10.8,17.4-16.1,26c-0.3,0.4-0.4,0.9-0.4,1.4c0,0.1,0,0.1,0,0.2
					c0,0.1,0,0.2,0,0.3c0,0.1,0,0.2,0.1,0.3c0,0.2,0.1,0.3,0.2,0.5c0.1,0.2,0.2,0.3,0.3,0.4c0.1,0.1,0.2,0.3,0.3,0.4
					c0.1,0.1,0.3,0.3,0.4,0.4c4.2,3.1,8.4,6.2,12.6,9.2c1.5,1.1,3.5,0.9,4.4-0.5c9.2-14.8,18.4-29.7,27.6-44.5
					C713.6,394.2,713.5,393,712.7,392z"/>
			</g>
			
				<linearGradient id="SVGID_20_" gradientUnits="userSpaceOnUse" x1="592.2107" y1="368.3136" x2="627.7071" y2="368.3136" gradientTransform="matrix(0.9628 0.2703 -0.2703 0.9628 203.0487 -110.4077)">
				<stop  offset="0" style="stop-color:#002544"/>
				<stop  offset="0.9174" style="stop-color:#271C41"/>
			</linearGradient>
			<path class="st39" d="M713,395.2c-9.2,14.8-18.4,29.7-27.6,44.5c-0.9,1.4-2.9,1.6-4.4,0.5c-4.2-3.1-8.4-6.1-12.6-9.2
				c-0.2-0.1-0.3-0.2-0.4-0.4c-0.1-0.1-0.3-0.3-0.3-0.4c-0.1-0.1-0.2-0.3-0.3-0.4c-0.1-0.1-0.1-0.3-0.2-0.5
				c-0.1-0.1-0.1-0.2-0.1-0.3c0-0.1,0-0.2,0-0.3c0-0.1,0-0.1,0-0.2c0-0.5,0.1-1,0.4-1.4c10-16.1,19.9-32.2,29.9-48.3
				c1-1.6,3.5-1.6,5,0c0.1,0.1,0.1,0.1,0.1,0.2c0.2,0.2,0.4,0.5,0.6,0.7c2.6,3.4,5.3,6.7,7.9,10c0.1,0.1,0.2,0.3,0.3,0.4
				c0.2,0.3,0.5,0.6,0.7,1c0.2,0.3,0.5,0.6,0.7,1C713.5,393,713.6,394.2,713,395.2z"/>
		</g>
		<g id="hand_left">
			<path class="st23" d="M714,398.1c-0.7-1.8-6.1-1.2-8.1-1c-1.5,0.2-3.1,0.3-4.8,0.5c-0.6,0.1-1.2,0.1-1.8,0.2
				c-2.1,0.3-4.2,0.5-6.5,0.8c-1,0.1-2,0.3-3.1,0.4c-2.8,0.4-5.7,0.8-8.6,1.1c1.2-2,2.4-4,3.7-5.9c-1.3,0.1-2.7,0.2-4.2,0.2
				c-5.8,0.1-8.3-0.5-13.2-0.2c-3.3,0.2-7.9,0.9-13.3,3c0,0,0,0.1,0,0.1c0.1,1.5,0.3,3.8,0.6,6.5c0,0.2,0,0.3,0,0.5
				c0.2,1.9,0.3,3.9,0.5,5.8c0,0.1,0,0.1,0,0.2c0.3,3.9,0.6,7.2,0.6,7.7c8.1,2.2,13.7,4.1,17.6,5.7c1.8,0.7,3.2,1.3,4.3,1.9h0
				c1.5,0.8,2.5,1.4,3.2,2c0,0,0,0,0,0c0.4,0.3,2.3,1.9,5.1,2.5c0.9,0.2,4.3,0.9,6.3-1.1c1.1-1.1,1.7-2.9,1.4-3
				c-0.1-0.1-0.3,0.3-0.7,0.5c-0.7,0.4-1.7,0.5-3.9-0.3c-1.3-0.5-3.1-1.3-5.3-3c0-0.2,0.1-0.5,0.2-0.8c0.8-1.3,3.1-1,7.4-1.1
				c0.4,0,0.9,0,1.3,0c0.3,0,0.6,0,0.9-0.1c0.5,0,1-0.1,1.4-0.1c0.3,0,0.6-0.1,0.8-0.1c0.1,0,0.3-0.1,0.4-0.1
				c0.3-0.1,0.5-0.1,0.8-0.2c0.3-0.1,0.5-0.2,0.7-0.3c0.2-0.1,0.5-0.2,0.7-0.3c0.6-0.3,1.4-1,2-2c0.9-1.4,1.1-3.2,0.9-3.8
				c0.5-0.1,1.1-0.3,1.7-0.5c0.5-0.2,0.9-0.5,1.3-0.8c3.2-2.3,3.8-9,3.1-9.3c-0.3-0.1-0.6,1.4-2.5,3.3c-1,1-2.1,1.7-2.9,2.2
				c0,0-0.1,0-0.3,0c0,0-0.1,0-0.1,0c-0.3,0-0.9-0.1-1.5-0.1c-0.2,0-0.3,0-0.5,0c-0.3,0-0.5,0-0.8-0.1c-0.3,0-0.5,0-0.8-0.1
				c-0.5,0-0.9-0.1-1.4-0.1c-0.1,0-0.2,0-0.3,0c-0.6-0.1-1.2-0.1-1.8-0.2c-0.6-0.1-1.2-0.1-1.8-0.2c-3-0.3-5.5-0.7-5.6-0.9
				c0,0,0-0.1,0-0.1c0,0,0-0.1,0.1-0.2c0.9-1.5,4.5-2.6,8.2-3.3c1.4-0.3,2.7-0.5,3.9-0.6c1.8-0.3,3.3-0.4,4-0.5c0.1,0,2-0.4,5.4-1
				c2.2-0.4,3.7-0.6,4.6-1.9C713.6,399.9,714.3,398.9,714,398.1z M689.6,413.7c2.5,0,5.5,0.3,7.6,0.5c0.8,0.1,1.4,0.2,1.9,0.2
				c0.3,0,1,0.1,1.9,0c-0.3,0.4-0.8,1.1-1.5,1.6c-0.7,0.5-1.2,0.6-2.6,0.6c-1.2,0-3-0.1-6-0.3c-0.9,0-1.8-0.1-2.7-0.3
				c-1.1-0.2-2.1-0.6-2.8-1.4c-0.2-0.3-0.3-0.4-0.3-0.5C685.2,413.8,687.1,413.7,689.6,413.7z"/>
			
				<linearGradient id="SVGID_21_" gradientUnits="userSpaceOnUse" x1="663.3593" y1="418.6705" x2="685.6888" y2="418.6705" gradientTransform="matrix(0.9994 -3.434691e-02 3.434691e-02 0.9994 -22.2275 19.7199)">
				<stop  offset="5.829327e-03" style="stop-color:#19233D"/>
				<stop  offset="1" style="stop-color:#DF7D56;stop-opacity:0.6"/>
			</linearGradient>
			<path class="st40" d="M677.8,425.6L677.8,425.6c-1.1-0.6-2.6-1.2-4.3-1.9c-3.9-1.6-9.5-3.4-17.6-5.7c0-0.5-0.3-3.8-0.6-7.7
				c0-0.1,0-0.1,0-0.2c-0.2-1.9-0.3-3.9-0.5-5.8c0.2,0.1,8.6,7.7,12.2,11.2C670.6,419,674.2,422.4,677.8,425.6z"/>
			
				<linearGradient id="SVGID_22_" gradientUnits="userSpaceOnUse" x1="662.9736" y1="405.8102" x2="701.6384" y2="405.8102" gradientTransform="matrix(0.9994 -3.434691e-02 3.434691e-02 0.9994 -22.2275 19.7199)">
				<stop  offset="0" style="stop-color:#DF7D56;stop-opacity:0.6"/>
				<stop  offset="0.7241" style="stop-color:#19233D"/>
			</linearGradient>
			<path class="st41" d="M692.8,398.6c-12.5,3.9-25.1,7.8-37.6,11.7c0-0.1,0-0.1,0-0.2c-0.2-2-0.4-4.3-0.5-6.3
				c-0.2-2.6-0.4-5-0.6-6.5c0,0,0-0.1,0-0.1c5.5-2.1,10-2.8,13.3-3c4.9-0.3,7.4,0.3,13.2,0.2c1.5,0,2.9-0.1,4.2-0.2
				c-1.2,2-2.5,4-3.7,5.9c2.9-0.4,5.8-0.8,8.6-1.1C690.8,398.9,691.8,398.8,692.8,398.6z"/>
			<linearGradient id="SVGID_23_" gradientUnits="userSpaceOnUse" x1="711.968" y1="422.3776" x2="687.0359" y2="413.547">
				<stop  offset="5.829327e-03" style="stop-color:#19233D"/>
				<stop  offset="1" style="stop-color:#DF7D56;stop-opacity:0.6"/>
			</linearGradient>
			<path class="st42" d="M704.6,413c-0.4,0.3-0.8,0.6-1.3,0.8c-0.6,0.3-1.1,0.4-1.7,0.5c0.2,0.6,0,2.4-0.9,3.8c-0.6,1-1.4,1.7-2,2
				c-0.2,0.1-0.5,0.2-0.7,0.3c-0.2,0.1-0.5,0.2-0.7,0.3c-0.2,0.1-0.5,0.2-0.8,0.2c-0.4,0.1-0.8,0.2-1.3,0.2
				c-0.5,0.1-0.9,0.1-1.4,0.1c-0.3,0-0.6,0-0.9,0.1c-0.4,0-0.8,0-1.3,0c-4.4,0.1-6.7-0.2-7.4,1.1c-0.2,0.3-0.2,0.6-0.2,0.8
				c2.1,1.6,4,2.5,5.3,3c2.2,0.8,3.2,0.8,3.9,0.3c0.4-0.2,0.6-0.5,0.7-0.5c0.2,0.1-0.3,1.9-1.4,3c-2,2-5.4,1.2-6.3,1.1
				c-2.9-0.6-4.8-2.2-5.1-2.5c1.7-2.7,4.3-7,7.1-11.5c0.9,0.2,1.8,0.2,2.7,0.3c3,0.2,4.8,0.3,6,0.3c1.4,0,2-0.1,2.6-0.6
				c0.8-0.6,1.2-1.3,1.5-1.6c-0.8,0.1-1.5,0-1.9,0c-0.5,0-1.1-0.1-1.9-0.2c-2.1-0.2-5.2-0.4-7.6-0.5c1.1-1.8,2.2-3.6,3.3-5.3
				c0.6,0.1,1.2,0.1,1.8,0.2c0.6,0.1,1.2,0.1,1.8,0.2c0.1,0,0.2,0,0.3,0c0.8,0.1,1.5,0.1,2.2,0.2c0.3,0,0.5,0,0.8,0.1
				c0.2,0,0.3,0,0.5,0c0.7,0.1,1.2,0.1,1.5,0.1c0,0,0.1,0,0.1,0c0.2,0,0.3,0,0.3,0c0.8-0.4,1.8-1.1,2.9-2.2c1.9-1.9,2.2-3.4,2.5-3.3
				C708.4,404,707.8,410.8,704.6,413z"/>
		</g>
		<g id="hoody_left_part">
			<path class="st27" d="M675.1,230.1c-0.3,1-0.7,1.9-1,2.9c0,0-2,3.2-5.6,9.9c-0.4,0.7-0.8,1.5-1.2,2.3c-0.2,0.4-0.4,0.8-0.6,1.2
				c-0.2,0.4-0.4,0.8-0.6,1.3c-0.2,0.4-0.4,0.8-0.4,0.8c-0.5,1-0.9,1.9-1.3,2.7c0,0,0,0,0,0.1c-0.1,0.2-0.2,0.3-0.2,0.5v0
				c-0.7,1.4-1.3,2.8-1.9,4.2c-0.1,0.1-0.1,0.3-0.2,0.4c-0.1,0.3-0.3,0.7-0.4,1c-0.3,0.6-0.5,1.2-0.8,1.9c-0.9,2.2-1.6,4.3-2.3,6.4
				c-0.2,0.7-0.5,1.4-0.7,2c-0.1,0.3-0.2,0.5-0.2,0.8c-0.1,0.5-0.3,0.9-0.4,1.4c-0.1,0.3-0.2,0.6-0.3,0.9c-0.7,2.3-1.2,4.5-1.8,6.8
				c-0.6,2.6-1.1,5.2-1.6,7.8c-0.1,0.7-0.3,1.5-0.4,2.2c-0.4,2.6-0.8,5.2-1.1,7.7c-0.3,2.2-0.6,4.5-0.8,6.7
				c-0.6,5.3-1.2,10.7-2,16.4c-0.2,1.4-0.4,2.8-0.6,4.3c-0.2,1-0.3,2.1-0.5,3.2c0,0.1,0,0.1,0,0.2c0,0,0,0.1,0,0.1
				c-0.3,2.1-0.7,4.2-1.1,6.4c0,0.2-0.1,0.4-0.1,0.7c0,0.2-0.1,0.5-0.1,0.7c-0.1,0.4-0.1,0.7-0.2,0.9c-2.6,13.1-7.4,32.2-17.8,55h0
				v0c0,0.1-0.1,0.2-0.2,0.4v0c-0.1,0.1,0,0.3,0,0.4c0,0,0,0,0.1,0.1c0,0,0.1,0,0.1,0.1c0.8,0.3,1.6,0.5,2.4,0.7
				c0.1,0,0.3,0.1,0.4,0.1v0c2.3,0.9,5.6,1.9,9.8,2.6c7,1.2,11,0.4,12.6,3c0.5,0.7,0.2,0.8,0.6,6.6c0.1,0.8,0.2,2.6,0.5,6.3
				c0.7,7.7,0.7,7.6,0.6,7.9c-0.7,1.9-3.4,4.9-24.8,6.4c-3.7,0.3-6.2,0.3-7.9,0.4c0,0,0,0,0,0c-1,0-1.7,0-2.3,0
				c-1.4,0-1.9-0.1-2.4,0c-0.2,0-0.4,0.1-0.7,0.2c-3.2,8.9-5.6,16.2-7,20.8c-6.6,21.4-8.8,34.3-17.3,63.9c-0.4,1.4-0.8,2.9-1.3,4.4
				c-0.1,0.5-0.2,0.8-0.3,1l-1.5,5.2v0l-0.1,0.4l-4.4,14.8c0,0,0,0.1,0,0.1c0,0.1,0,0.2,0.1,0.3c0,0,0.1,0.1,0.1,0.1
				c0.5,0.2,0.8,0.6,1.1,1c0,0,0,0.1,0.1,0.1c0.3,0.6,0.3,1.3,0,1.9l-0.1,0.3c-0.5,1.1-1.9,1.7-3,1.2l-6.3-2.8L518,510.8l-0.3-0.2
				c-0.8-0.3-1.2-1-1.3-1.8c0-0.2,0-0.3,0-0.5c0-0.2,0.1-0.5,0.2-0.7l0.3-0.6c0.4-0.8,1.2-1.2,2.1-1.1c0.2,0,0.4,0,0.4-0.2
				c3.4-7.5,6.7-15,10-22.7c0.5-1.2,1.1-2.5,1.6-3.7c0-0.1,0.1-0.2,0.1-0.3c0.8-1.9,3-7.1,5.5-13.3c4.1-10,9.2-22.6,11.5-28.5
				c0,0,0-0.1,0.1-0.1c2.9-7.5,5.8-14.9,8.5-22.3c0,0,0-0.1,0-0.1c0,0,0,0,0,0c0,0,0,0,0,0c0-0.1,0-0.1-0.1-0.2v0c0,0,0-0.1-0.1-0.1
				c0,0-0.1-0.1-0.2-0.1c-0.6-0.2-1.2-0.3-1.7-0.5c-1.3-0.4-2.5-0.8-3.6-1.2c-0.2-0.1-0.4-0.2-0.6-0.2c0,0,0,0-0.1,0
				c-27.9-10-34.4-25.2-36.1-29.7c-3.4-9.4-2.3-19.4,1.8-29.7c6.1-15.6,18.8-32.2,32.7-49.5c1.4-1.8,2.9-3.6,4.3-5.4
				c17.5-21.7,34.8-37.4,47.5-47.7c0.1-0.1,0.2-0.3,0.1-0.4l0-0.1l-1.7-8.4c0,0,0-0.1,0-0.1c0,0,0-0.1,0-0.1c0,0,0-0.1,0.1-0.1
				c0,0,0.1-0.1,0.1-0.1c0,0,0.1,0,0.1-0.1c0,0,0.1,0,0.1,0c13.1-3.1,27.6-5.9,43.4-7.9c6.7-0.9,19.3-1.8,26-2.3
				c2.3-0.2,3.9-0.3,4.3-0.4C674,230.3,674.7,230.1,675.1,230.1C675.1,230.1,675.1,230.1,675.1,230.1z"/>
			
				<linearGradient id="SVGID_24_" gradientUnits="userSpaceOnUse" x1="569.4467" y1="327.8618" x2="618.2455" y2="350.5603" gradientTransform="matrix(0.9994 -3.434691e-02 3.434691e-02 0.9994 -22.2275 19.7199)">
				<stop  offset="0.1088" style="stop-color:#19233D;stop-opacity:0.7"/>
				<stop  offset="0.7073" style="stop-color:#5A142A;stop-opacity:0.6"/>
			</linearGradient>
			<path class="st43" d="M581.4,363.1c0,0-20.6-4.6-18.5-13.2c2.1-8.6,38.7-29.9,38.7-29.9L581.4,363.1z"/>
			<path class="st22" d="M674.1,233c0,0-2,3.2-5.6,9.9c-0.4,0.7-0.8,1.5-1.2,2.3c-0.2,0.4-0.4,0.8-0.6,1.2c-0.2,0.4-0.4,0.8-0.6,1.3
				c-0.2,0.4-0.4,0.8-0.4,0.8c-0.5,1-0.9,1.9-1.3,2.7c0,0,0,0,0,0.1c-0.1,0.2-0.2,0.3-0.2,0.5v0c-0.7,1.4-1.3,2.8-1.9,4.2
				c-0.1,0.1-0.1,0.3-0.2,0.4h0c-0.1,0.3-0.3,0.7-0.4,1c-0.3,0.6-0.5,1.2-0.8,1.9c-0.9,2.2-1.6,4.3-2.3,6.4c-0.2,0.7-0.5,1.4-0.7,2
				c-0.1,0.3-0.2,0.5-0.2,0.8c-0.1,0.5-0.3,0.9-0.4,1.4c-0.1,0.3-0.2,0.6-0.3,0.9c-0.7,2.3-1.2,4.5-1.8,6.8
				c-0.6,2.6-1.1,5.2-1.6,7.8c-0.1,0.7-0.3,1.5-0.4,2.2c-0.4,2.6-0.8,5.2-1.1,7.7c-0.3,2.2-0.6,4.5-0.8,6.7
				c-0.6,5.3-1.2,10.7-2,16.4c-0.2,1.4-0.4,2.8-0.6,4.3c-0.2,1-0.3,2.1-0.5,3.2c0,0.1,0,0.1,0,0.2c0,0,0,0.1,0,0.1
				c-0.5,2.6-0.8,4.8-1.1,6.4c0,0.2-0.1,0.4-0.1,0.7c0,0.2-0.1,0.5-0.1,0.7c-0.1,0.4-0.1,0.7-0.2,0.9c-2.6,13.1-7.4,32.2-17.8,55
				c0,0,0,0,0,0c-0.1,0.1-0.1,0.2-0.2,0.4c0,0.1-0.1,0.2-0.1,0.3c-0.7-0.2-1.3-0.4-2-0.6c-1.1-0.3-2.3-0.6-3.4-1
				c10.8-22.9,15.8-42.1,18.5-55.2c5.7-28.5,3.7-46.5,14.4-75.7c0.3-0.8,0.6-1.5,0.8-2.2c2-5.1,4-9.8,5.9-13.8
				c2.2-4.6,4.3-8.4,6-11.3c1.8-0.2,3.3-0.5,4.3-0.7c1.1-0.2,1.8-0.4,2.1,0c0,0,0,0,0,0C675.6,230.7,674.6,232.2,674.1,233z"/>
			<path class="st22" d="M618.8,424.7c-8.9,29.8-17.7,59.7-26.6,89.5c0,0-0.3,1-0.3,1.1l-1.6,5.6l-4.4,14.8c0,0,0,0.1,0,0.1
				c0,0,0,0.1,0,0.1c0,0.1,0.1,0.2,0.2,0.3c0.4,0.2,0.8,0.5,1,0.8c0,0,0,0.1,0.1,0.1c0.3,0.6,0.4,1.3,0.1,2l-0.1,0.3
				c-0.5,1.1-1.9,1.7-3,1.1l-6.4-2.9c0,0,0-0.1,0-0.1c9.5-34.8,16.4-53.8,27.7-90.7c1.6-5.2,4-13.1,6.9-22.8
				c0.8,0.1,1.7,0.2,2.6,0.3C616.2,424.6,617.5,424.7,618.8,424.7z"/>
			<path class="st22" d="M652.4,420l-0.8-23.6c0-1.4,1.1-2.6,2.4-2.6l0.2,0c1.4,0,2.6,1.1,2.6,2.4l0.8,23.6c0,1.4-1.1,2.6-2.4,2.6
				l-0.2,0C653.6,422.5,652.4,421.4,652.4,420z"/>
			<linearGradient id="SVGID_25_" gradientUnits="userSpaceOnUse" x1="599.0253" y1="243.2228" x2="675.2443" y2="243.2228">
				<stop  offset="0.1088" style="stop-color:#19233D;stop-opacity:0.7"/>
				<stop  offset="0.7073" style="stop-color:#5A142A;stop-opacity:0.6"/>
			</linearGradient>
			<path class="st44" d="M674.1,233c0,0-2,3.2-5.6,9.9c-0.4,0.7-0.8,1.5-1.2,2.3c-0.2,0.4-0.4,0.8-0.6,1.2c-0.2,0.4-0.4,0.8-0.6,1.3
				c-0.2,0.4-0.4,0.8-0.4,0.8c-0.5,1-0.9,1.9-1.3,2.7c0,0,0,0,0,0.1c-0.1,0.2-0.2,0.3-0.2,0.5v0c-0.7,1.4-1.3,2.8-1.9,4.2
				c-0.1,0.1-0.1,0.3-0.2,0.4h0l-5.1-0.5l-42.2-4.6l-13.8-1.5l-1.7-8.4c0,0,0-0.1,0-0.1c0,0,0-0.1,0-0.1c0,0,0-0.1,0.1-0.1
				c0,0,0.1-0.1,0.1-0.1c0,0,0.1,0,0.1-0.1c0,0,0.1,0,0.1,0c13.1-3.1,27.6-5.9,43.4-7.9c6.7-0.9,19.3-1.8,26-2.3
				c1.8-0.2,3.3-0.5,4.3-0.7c1.1-0.2,1.8-0.4,2.1,0c0,0,0,0,0,0C675.6,230.7,674.6,232.2,674.1,233z"/>
			
				<linearGradient id="SVGID_26_" gradientUnits="userSpaceOnUse" x1="526.5465" y1="327.3815" x2="560.9061" y2="327.3815" gradientTransform="matrix(0.9994 -3.434691e-02 3.434691e-02 0.9994 -22.2275 19.7199)">
				<stop  offset="0.6011" style="stop-color:#BDD3DE"/>
				<stop  offset="0.9804" style="stop-color:#153E5C"/>
			</linearGradient>
			<path class="st45" d="M548.8,303.5c-0.7,8.4-2.2,18.2-5.1,28.6C539,349,527.2,353,516.1,353C522.2,337.4,534.9,320.7,548.8,303.5
				z"/>
			<linearGradient id="SVGID_27_" gradientUnits="userSpaceOnUse" x1="561.0957" y1="425.4455" x2="560.8881" y2="481.824">
				<stop  offset="0.2431" style="stop-color:#19233D"/>
				<stop  offset="1" style="stop-color:#5A142A;stop-opacity:0.6"/>
			</linearGradient>
			<path class="st46" d="M592.6,422.6c0,1.7-1.4,35.8-30.8,52.6c-8.7,5-18.3,7.6-28.1,7.9c-1.5,0-3,0-4.5,0c0.5-1.2,1.1-2.5,1.6-3.7
				c0-0.1,0.1-0.2,0.1-0.3c0.8-1.9,3-7.1,5.5-13.3c4.1-10,9.2-22.6,11.5-28.5c0,0,0-0.1,0.1-0.1c3.9-10.6,7.4-19.9,8.4-22.7
				c3.5,1.1,7.2,2.1,11,3.1C576.6,419.9,585,421.5,592.6,422.6z"/>
		</g>
	</g>
</g>
</svg>
