<svg id="Layer_1" data-name="Layer 1" xmlns="http://www.w3.org/2000/svg" viewBox="0 0 570.47 83.2"><defs><style>.cls-1{fill:#fff;}</style></defs><path class="cls-1" d="M106.62,82.3c-6.7,0-12.5.13-18.28-.11-1.2-.06-2.69-1.3-3.45-2.39Q77.41,69,70.24,58.07a5.53,5.53,0,0,0-5.32-2.9c-7.87.15-15.75.2-23.61,0-3.32-.09-4.56.73-4.43,4.25.27,7.4.09,14.83.09,22.51H19.64c-.06-1.29-.16-2.41-.16-3.53,0-24.89.05-49.79-.07-74.68,0-3.18.87-4.2,4.1-4.16,19,.25,37.92.15,56.87.5,13.86.25,23.73,10.26,24.85,24,.86,10.6-3.08,18.7-11.6,24.86-5.51,4-5.49,4-1.81,9.87ZM36.91,38.6c12.75,0,24.82-.2,36.88.09C79,38.82,85.58,31.38,86,26.94c.37-4.2-6.16-11.51-11.19-11.72-11.81-.51-23.65-.54-35.48-.59A3.17,3.17,0,0,0,37,16.76C36.84,24,36.91,31.3,36.91,38.6Z" transform="translate(-19.41 0.51)"/><path class="cls-1" d="M505.51-.51h84.35V13.63h-4.34c-19.23,0-38.47.08-57.7-.08-3.4,0-4.57.88-4.35,4.31.29,4.46.07,9,.07,13.8,2,.11,3.59.27,5.22.28,14.84,0,29.69.1,44.53-.06,3.39,0,5,.9,4.93,4.43-.05,3.3.26,6.62.43,10.34-1.85.09-3.34.21-4.84.22-15.36,0-30.73.1-46.09-.07-3.4,0-4.49.91-4.32,4.33.28,5.62.08,11.26.08,17.38h66.4V82.6H505.51Z" transform="translate(-19.41 0.51)"/><path class="cls-1" d="M118,.23h83.23c0,4,.21,7.91-.17,11.8-.08.78-2.37,1.92-3.65,1.93-14.46.14-28.93.09-43.39.1H135.4c0,5.73-.15,11,.17,16.17.05.74,2.37,1.92,3.65,1.93,14.85.14,29.7.09,44.55.1,5.65,0,5.65,0,5.79,5.7.22,8.92.22,8.92-8.92,8.92-13.82,0-27.64.07-41.45-.06-3,0-4.09.78-4,3.9.24,5.75.07,11.51.07,17.67h65.54V81.91H118Z" transform="translate(-19.41 0.51)"/><path class="cls-1" d="M228.47,82H211.86V1C213,.87,214,.69,215,.69c17.16,0,34.32-.26,51.46.14a41,41,0,0,1,14.91,3.3c9.74,4.18,14.95,12.09,15.06,22.68s-5,18.59-14.71,22.87a44.09,44.09,0,0,1-15.62,3.75c-10.55.44-21.15-.07-31.72-.39-5.77-.17-5.86-.26-5.86,5.47C228.46,66.19,228.47,73.88,228.47,82Zm.77-41.85h4.85l31-.19c7.13-.05,12.09-4.69,12.34-11.51A12.29,12.29,0,0,0,265.73,16c-2.7-.19-5.41-.26-8.12-.27-9.4,0-18.79,0-28.37,0Z" transform="translate(-19.41 0.51)"/><path class="cls-1" d="M383.38.09c-4.66,5.36-8.68,10.14-12.92,14.7-.7.75-2.4.74-3.65.77-4.13.09-8.27.22-12.38,0-3.37-.2-4.42.9-4.4,4.33.16,19.12.08,38.24.08,57.36V82H334.84V15.6H313.66c-11.23,0-11.14,0-11.16-11.17,0-3.15.63-4.46,4.25-4.43,24.26.17,48.52.09,72.79.09Z" transform="translate(-19.41 0.51)"/><path class="cls-1" d="M494,69.23c.33,4.52.64,8.55,1,13-1.87.15-3.36.38-4.85.38-23.61,0-47.22,0-70.83.09-3.61,0-4.85-.84-4.82-4.67.18-24.5.09-49,.09-73.5V.13c5.06,0,9.91-.14,14.73.16.64,0,1.6,2.3,1.63,3.54.14,8.47.07,16.93.08,25.4,0,11.93.11,23.86-.07,35.79-.06,3.44,1.1,4.31,4.44,4.28,17.93-.15,35.86-.07,53.8-.07Z" transform="translate(-19.41 0.51)"/><path class="cls-1" d="M400.12.44V82.27c-4.55,0-8.9,0-13.24,0-2.65,0-2.15-2.11-2.17-3.66q-.21-14.22-.29-28.45c-.05-9.49-.14-19,.09-28.46a10.22,10.22,0,0,1,2.21-5.75C390.82,10.85,395.25,6,400.12.44Z" transform="translate(-19.41 0.51)"/></svg>