<svg width="24" height="24" viewBox="0 0 24 24" fill="none" xmlns="http://www.w3.org/2000/svg">
<path fill-rule="evenodd" clip-rule="evenodd" d="M9.7782 1.21632C5.507 2.04993 2.06513 5.48319 1.22292 9.74146C-0.366963 17.7767 6.88204 23.7667 12.3435 22.9202C14.1139 22.6452 14.9818 20.5741 14.1697 18.9799C13.1771 17.0291 14.5951 14.7517 16.7866 14.7517H20.2113C21.7496 14.7517 22.9957 13.4798 23 11.9458C22.9785 5.17381 16.8166 -0.154402 9.7782 1.21632ZM5.12457 14.7517C4.36401 14.7517 3.74954 14.1372 3.74954 13.3767C3.74954 12.6161 4.36401 12.0016 5.12457 12.0016C5.88514 12.0016 6.49961 12.6161 6.49961 13.3767C6.49961 14.1372 5.88514 14.7517 5.12457 14.7517ZM5.12457 7.87658C5.12457 8.63714 5.73904 9.25161 6.49961 9.25161C7.26017 9.25161 7.87464 8.63714 7.87464 7.87658C7.87464 7.11603 7.26017 6.50156 6.49961 6.50156C5.73904 6.50156 5.12457 7.11603 5.12457 7.87658ZM11.9997 6.50156C11.2392 6.50156 10.6247 5.8871 10.6247 5.12654C10.6247 4.36598 11.2392 3.75152 11.9997 3.75152C12.7603 3.75152 13.3748 4.36598 13.3748 5.12654C13.3748 5.8871 12.7603 6.50156 11.9997 6.50156ZM16.1248 7.87658C16.1248 8.63714 16.7393 9.25161 17.4999 9.25161C18.2604 9.25161 18.8749 8.63714 18.8749 7.87658C18.8749 7.11603 18.2604 6.50156 17.4999 6.50156C16.7393 6.50156 16.1248 7.11603 16.1248 7.87658Z" fill="url(#paint0_linear)"/>
<defs>
<linearGradient id="paint0_linear" x1="1.03368" y1="0.999969" x2="1.03368" y2="22.9326" gradientUnits="userSpaceOnUse">
<stop stop-color="#EA529E"/>
<stop offset="1" stop-color="#81BFC7"/>
</linearGradient>
</defs>
</svg>
