<?xml version="1.0" encoding="UTF-8"?>
<svg width="55px" height="57px" viewBox="0 0 55 57" version="1.1" xmlns="http://www.w3.org/2000/svg" xmlns:xlink="http://www.w3.org/1999/xlink">
    <!-- Generator: Sketch 53.2 (72643) - https://sketchapp.com -->
    <title>picture_placeholder</title>
    <desc>Created with Sketch.</desc>
    <g id="Upload-designs" stroke="none" stroke-width="1" fill="none" fill-rule="evenodd">
        <g id="Content---Issues---Progress-indicators-+-New-placeholder" transform="translate(-484.000000, -380.000000)" fill="#A5A5A5" fill-rule="nonzero">
            <g id="no_image_placeholder" transform="translate(465.000000, 380.000000)">
                <g id="picture_placeholder" transform="translate(19.000000, 0.000000)">
                    <path d="M4,53 L51,53 L51,19 L4,19 L4,53 Z M49,51 L7.649,51 L21.973,38.389 L32.275,48.69 C32.666,49.081 33.298,49.081 33.689,48.69 C34.08,48.299 34.08,47.667 33.689,47.276 L28.882,42.469 L38.063,32.415 L49,42.44 L49,51 Z M6,21 L49,21 L49,39.727 L38.676,30.263 C38.48,30.084 38.218,29.983 37.956,30.001 C37.691,30.013 37.441,30.13 37.262,30.326 L27.468,41.053 L22.725,36.31 C22.351,35.937 21.753,35.919 21.357,36.266 L6,49.787 L6,21 Z" id="Shape"></path>
                    <path d="M14,24 C10.929,24 8.431,26.498 8.431,29.569 C8.431,32.639 10.929,35.137 14,35.137 C17.071,35.137 19.569,32.639 19.569,29.569 C19.569,26.498 17.071,24 14,24 Z M14,33.138 C12.032,33.138 10.431,31.537 10.431,29.57 C10.431,27.603 12.032,26 14,26 C15.968,26 17.569,27.602 17.569,29.569 C17.569,31.536 15.968,33.138 14,33.138 Z" id="Shape"></path>
                    <path d="M48.38,15 C46.59,13.414 37.067,5.042 31.632,1.585 C30.72,0.615 29.434,0 28,0 C26.566,0 25.28,0.615 24.368,1.585 C18.933,5.042 9.41,13.414 7.62,15 L0,15 L0,57 L55,57 L55,15 L48.38,15 Z M25.069,4.369 C25.078,4.326 25.097,4.286 25.108,4.244 C25.253,3.709 25.523,3.295 25.768,3.02 C25.773,3.015 25.774,3.008 25.779,3.002 C26.328,2.391 27.116,2 28,2 C28.884,2 29.672,2.391 30.221,3.002 C30.226,3.007 30.227,3.014 30.232,3.02 C30.477,3.295 30.747,3.71 30.892,4.245 C30.903,4.287 30.921,4.327 30.931,4.37 C30.974,4.564 31,4.774 31,5 C31,6.654 29.654,8 28,8 C26.346,8 25,6.654 25,5 C25,4.774 25.026,4.564 25.069,4.369 Z M23,4.95 C23,4.967 23,4.983 23,5 C23,7.757 25.243,10 28,10 C30.757,10 33,7.757 33,5 C33,4.983 33,4.967 33,4.95 C37.17,7.983 42.504,12.531 45.345,15 L10.655,15 C13.496,12.531 18.831,7.983 23,4.95 Z M53,55 L2,55 L2,17 L8,17 L48,17 L53,17 L53,55 Z" id="Shape"></path>
                </g>
            </g>
        </g>
    </g>
</svg>