<svg width="66" height="35" viewBox="0 0 66 35" fill="none" xmlns="http://www.w3.org/2000/svg">
<path fill-rule="evenodd" clip-rule="evenodd" d="M48.7618 3.61792C48.7618 3.40519 48.7932 1.45865 48.7932 1.45865L48.7953 1.46291C48.7953 1.35654 48.8997 1.37781 48.8893 1.38845C49.3281 1.45227 58.5211 2.84569 62.3863 5.14324C63.6503 5.87718 64.5488 7.43015 65.9904 12.5464C66.0585 12.8237 65.7463 13.0549 65.6354 13.137L65.6143 13.1527C62.8042 15.1525 59.6806 17.0458 50.4458 10.8446C51.5218 13.4799 51.5634 13.5233 51.5888 13.5499C51.5908 13.5519 51.5927 13.5539 51.595 13.5569C52.1591 13.8548 57.4764 16.6097 60.1194 16.5565C62.2505 16.514 64.5279 15.4503 65.4367 14.8972C65.4367 14.8972 65.9068 14.61 65.771 15.1525C65.7659 15.1721 65.7586 15.2024 65.7492 15.2417C65.6612 15.6069 65.3888 16.7374 65.0397 17.0352C64.9353 17.1415 61.2163 20.056 54.2693 20.0135C53.1509 19.9868 52.0891 19.8639 51.1164 19.7513C48.2095 19.4147 46.0996 19.1704 45.6613 21.8643C45.3688 23.6832 46.2985 25.8531 47.6357 27.7996H42.5586C42.2739 27.2818 42.0159 26.7281 41.754 26.166L41.754 26.1659C40.4879 23.4485 39.1302 20.5347 34.2223 20.5347C28.8318 20.5347 29.1661 25.9275 29.7616 27.7996H24.9666C23.0026 20.4815 17.7375 17.3117 14.2692 16.7054C6.5074 15.3439 2.46456 21.9387 5.18068 27.172C7.59385 31.8097 13.6842 31.8629 15.5959 29.3419C17.6017 26.6827 15.9929 22.6514 12.6187 22.3536C11.3337 22.2366 9.97567 22.8429 9.95478 24.1512V24.1576C9.95478 25.317 10.9994 25.6255 11.2084 25.6467C11.7242 25.6179 11.9676 25.5356 12.1649 25.4689C12.2592 25.437 12.343 25.4086 12.4411 25.3914C12.9843 25.2957 14.1961 25.5829 14.1961 26.87C14.1961 27.7634 13.4857 28.2634 12.8067 28.4548C12.2757 28.6422 11.7181 28.7392 11.1561 28.742C9.35932 28.742 6.85214 27.1678 6.8208 24.2108C6.7999 22.5408 7.62519 21.0197 9.07726 20.0411C10.7383 18.9243 13.632 18.5413 16.3063 20.2113C19.597 22.2642 20.4536 26.2849 19.597 29.0292C18.3539 32.9967 14.8333 35.1135 10.1951 34.6986C6.90437 34.4008 3.85396 32.6351 2.03625 29.9759C1.24428 28.8247 0.660555 27.5387 0.312559 26.1786C-0.43124 23.1939 0.312559 20.0028 0.885033 18.5839C3.51045 11.9685 9.01293 8.39435 11.1501 7.00615L11.2899 6.91533C21.7508 0.367189 29.1547 0.628651 34.5756 0.820084L34.5858 0.820446C40.9896 1.05446 47.8112 3.29882 48.7618 3.61792ZM56.347 6.41205C55.5844 7.13664 55.1367 8.14073 55.1029 9.20224C54.988 12.7656 59.1876 14.6908 61.7156 12.2763C64.2646 9.84045 62.6558 5.46872 59.1667 5.34108C58.1243 5.30205 57.1096 5.68745 56.347 6.41205ZM59.1353 6.51113C57.6217 6.46106 56.3544 7.66888 56.3034 9.20999C56.2525 10.7511 57.4373 12.0429 58.9508 12.0965C60.4643 12.1502 61.7344 10.9453 61.7888 9.40434C61.8172 8.66144 61.5529 7.93777 61.0545 7.39438C60.5562 6.851 59.8652 6.53299 59.1353 6.51113ZM59.5845 7.91519C57.9758 7.91519 57.9758 9.57453 59.5845 9.57453V9.57878C61.1933 9.57878 61.1933 7.91519 59.5845 7.91519Z" fill="url(#paint0_linear)"/>
<defs>
<linearGradient id="paint0_linear" x1="-9.42776" y1="0.75" x2="-9.42776" y2="44.4634" gradientUnits="userSpaceOnUse">
<stop stop-color="#81BFC7"/>
<stop offset="1" stop-color="#557E82"/>
</linearGradient>
</defs>
</svg>
