<svg width="20" height="18" viewBox="0 0 20 18" fill="none" xmlns="http://www.w3.org/2000/svg">
<path d="M8.51001 0.0090332H14.8472C17.3758 0.0090332 19.4257 2.08585 19.4257 4.64772C19.4257 7.20956 17.3758 9.28641 14.8472 9.28641H8.51001V0.0090332Z" fill="#0321C7"/>
<path d="M0.119278 9.45288L8.50893 17.9897H0.119263L0.119278 9.45288Z" fill="#730CE1"/>
<path d="M8.51 17.9879L0.120361 9.45105H8.51V17.9879Z" fill="black"/>
<path d="M8.51001 17.991C11.7593 17.9974 15.008 17.9877 18.2568 17.9877H19.4114C19.19 16.2703 18.8978 14.3453 17.4763 12.5781C16.493 11.3555 14.7889 9.61383 11.1676 9.48748C10.9006 9.45821 9.85683 9.4459 8.51001 9.44312V17.991Z" fill="#EE542A"/>
</svg>
