<svg width="162" height="24" viewBox="0 0 162 24" fill="none" xmlns="http://www.w3.org/2000/svg">
<path d="M11.51 3.00909H17.8472C20.3758 3.00909 22.4257 5.08591 22.4257 7.64778C22.4257 10.2096 20.3758 12.2865 17.8472 12.2865H11.51V3.00909Z" fill="#0321C7"/>
<path d="M3.11928 12.4529L11.5089 20.9897H3.11926L3.11928 12.4529Z" fill="#730CE1"/>
<path d="M11.51 20.9879L3.12036 12.451H11.51V20.9879Z" fill="black"/>
<path d="M35.4947 20.9804H31.9346V3.01224H45.7146C46.7122 2.98336 47.7057 3.15374 48.6387 3.51369C50.2265 4.17427 51.2233 5.33147 51.4607 7.09381C51.6254 8.08043 51.4404 9.09439 50.9385 9.95553C50.4824 10.7043 49.8116 11.2932 49.0161 11.6431C48.0108 12.0829 46.9254 12.3023 45.8309 12.2868C45.2779 12.2868 44.7273 12.3013 44.1695 12.3109C44.1031 12.3087 44.037 12.3202 43.975 12.3447C44.4354 12.417 44.8982 12.4676 45.3515 12.5664C46.7361 12.8707 47.9891 13.6155 48.9283 14.6928C50.1149 16.0092 51.0026 17.5401 51.8476 19.0926C52.1822 19.7074 52.505 20.3294 52.8468 20.9731C52.7684 20.9731 52.7162 20.99 52.664 20.99C51.3918 20.99 50.1221 20.99 48.85 20.99C48.7942 20.9945 48.7387 20.9808 48.6912 20.9509C48.6439 20.9209 48.6071 20.8763 48.5865 20.8237C47.8057 19.4446 47.0343 18.0608 46.2368 16.6939C45.817 15.9752 45.3194 15.3064 44.7534 14.7001C44.3857 14.2918 43.9394 13.9645 43.4422 13.7385C42.945 13.5125 42.4073 13.3926 41.8626 13.3861C40.6047 13.3524 39.3468 13.3621 38.0889 13.3572H35.4947V20.9804ZM35.4947 6.01375V10.3871H35.7795C38.7653 10.3871 41.7495 10.3871 44.7321 10.3871C45.0847 10.3892 45.4372 10.3731 45.7882 10.3388C46.3105 10.3066 46.8138 10.1289 47.2431 9.82531C47.8365 9.3769 47.9718 8.74043 47.9243 8.03406C47.9217 7.6192 47.7838 7.21693 47.5321 6.8902C47.2805 6.56345 46.9293 6.33069 46.5335 6.22831C45.9761 6.07053 45.3981 6.00061 44.8199 6.02098C41.7851 6.02098 38.7495 6.02098 35.7131 6.02098L35.4947 6.01375Z" fill="black"/>
<path d="M54.8397 3.02039H71.8761V6.07011H58.4212V9.98296H70.3903V12.8109H58.4307V17.9075H71.8832V20.9788H54.8397V3.02039Z" fill="black"/>
<path d="M158.697 20.9787H141.656V3.02271H158.692V6.07002H145.24V9.98526H157.192V12.818H145.244V17.9097H158.697V20.9787Z" fill="black"/>
<path d="M75.3614 3.0125H87.872C89.0969 2.97286 90.3089 3.28003 91.3726 3.89969C92.0496 4.29377 92.6273 4.84199 93.0606 5.50126C93.4939 6.16053 93.7705 6.91289 93.8691 7.6992C94.0219 8.70923 93.9157 9.74208 93.5603 10.6983C93.2157 11.6407 92.5776 12.4432 91.7424 12.9838C90.7353 13.6225 89.5692 13.9569 88.3817 13.9481C86.7204 13.9819 85.0592 13.9626 83.4116 13.965H78.9452V20.9565H75.3614V3.0125ZM78.9215 10.9683H79.1064C81.8528 10.9683 84.6014 10.9683 87.347 10.9683C87.7895 10.9703 88.2304 10.9275 88.6644 10.8405C89.4737 10.6766 90.0552 10.2209 90.2569 9.36753C90.3799 8.83875 90.3876 8.289 90.2783 7.75705C90.2256 7.4203 90.0827 7.10462 89.8664 6.84415C89.6494 6.58368 89.3667 6.38833 89.0488 6.27921C88.4757 6.08479 87.8728 5.9966 87.2691 6.01883C84.5678 6.01883 81.8658 6.01883 79.1637 6.01883H78.9261L78.9215 10.9683Z" fill="black"/>
<path d="M116.037 3.02875L112.492 6.06884H106.327V20.9704H102.741V6.07366H94.9083V3.02875H116.037Z" fill="black"/>
<path d="M139.737 17.9025V20.9715H123.836V3.02271H127.396V17.9025H139.737Z" fill="black"/>
<path d="M119.836 3.02417V20.9754H116.276V6.07511L119.836 3.02417Z" fill="black"/>
<path d="M11.51 20.9909C14.7593 20.9974 18.008 20.9877 21.2568 20.9877H22.4114C22.19 19.2702 21.8978 17.3452 20.4763 15.578C19.493 14.3555 17.7889 12.6138 14.1676 12.4874C13.9006 12.4582 12.8568 12.4458 11.51 12.4431V20.9909Z" fill="#EE542A"/>
</svg>
