<?xml version="1.0" encoding="utf-8"?>
<!-- Generator: Adobe Illustrator 22.1.0, SVG Export Plug-In . SVG Version: 6.00 Build 0)  -->
<svg version="1.1" xmlns="http://www.w3.org/2000/svg" xmlns:xlink="http://www.w3.org/1999/xlink" x="0px" y="0px"
	 viewBox="0 0 1163.8 1156.9" style="enable-background:new 0 0 1163.8 1156.9;" xml:space="preserve">
<style type="text/css">
	.st0{fill:#EEEDEE;}
	.st1{fill:#EBDEDE;}
	.st2{fill:#F8E7E1;}
	.st3{fill:#DDDDD7;}
	.st4{fill:#FFFFFF;}
	.st5{fill:#EABA5C;}
	.st6{fill:#DF8744;}
	.st7{opacity:5.000000e-02;fill:#2A303D;}
	.st8{opacity:6.000000e-02;fill:#253041;}
	.st9{fill:url(#SVGID_1_);}
	.st10{fill:url(#SVGID_2_);}
	.st11{fill:#E2C8C0;}
	.st12{fill:#8376A2;}
	.st13{opacity:0.4;fill:url(#SVGID_3_);}
	.st14{fill:#BACFDA;}
	.st15{fill:url(#SVGID_4_);}
	.st16{opacity:0.4;fill:url(#SVGID_5_);}
	.st17{opacity:0.21;fill:url(#SVGID_6_);}
	.st18{opacity:0.33;fill:url(#SVGID_7_);}
	.st19{opacity:0.33;fill:url(#SVGID_8_);}
	.st20{fill:#31445A;}
	.st21{fill:#000105;}
	.st22{fill:#C0846F;}
	.st23{fill:#2A303D;}
	.st24{opacity:0.28;fill:url(#SVGID_9_);}
	.st25{fill:#3D6658;}
	.st26{opacity:9.000000e-02;fill:#2A303D;}
	.st27{opacity:0.4;fill:url(#SVGID_10_);}
	.st28{opacity:0.4;fill:url(#SVGID_11_);}
	.st29{opacity:0.28;fill:url(#SVGID_12_);}
	.st30{fill:none;}
	.st31{opacity:0.5;fill:#31445A;}
	.st32{opacity:0.6;fill:#2A303D;}
	.st33{opacity:0.6;fill:#3D6658;}
	.st34{opacity:0.2;fill:url(#SVGID_13_);}
	.st35{opacity:0.1;fill:#2A303D;}
	.st36{fill:#182828;}
	.st37{opacity:0.7;fill:#BACFDA;}
	.st38{opacity:0.2;fill:url(#SVGID_14_);}
	.st39{opacity:0.15;fill:#FFFFFF;}
	.st40{opacity:0.6;fill:#31445A;}
	.st41{opacity:4.000000e-02;fill:#2A303D;}
	.st42{fill:url(#SVGID_15_);}
	.st43{fill:#C78E7F;}
	.st44{fill:url(#SVGID_16_);}
	.st45{opacity:0.11;fill:url(#SVGID_17_);}
	.st46{opacity:0.35;}
	.st47{opacity:0.4;fill:#31445A;}
	.st48{opacity:0.23;fill:#FFFFFF;}
</style>
<g id="background">
	<g id="general">
		<g id="figures">
			<g id="figure2">
				<path class="st0" d="M1095.7,1069.1c-53.6,47.7-114.2,3.7-254.3-16.8c-36.5-5.3-78.5-9.1-127.1-9.2
					c-218.1-0.4-286.8,73.1-486.6,30.8c-135.6-28.7-171.9-77.1-182.9-93.1c-37-53.9-17.5-95.1-20.8-251.7
					C20.3,548-8.2,487.5,18.5,473.7c55.4-28.8,168.7,236.2,391,256.8c50.6,4.7,126.9-1.6,196.9-39.9c35.4-19.4,44.9-33.7,151.3-137
					c75-72.8,112.5-109.2,148.4-137c72.8-56.2,181.4-140.1,231.2-110.3c49.7,29.7-8,143.7-18.2,386.6c-0.2,4.8-0.4,9.5-0.5,14.1
					C1110.6,940.2,1154.2,1017.1,1095.7,1069.1z"/>
				<path class="st1" d="M1095.7,1069.1c-53.6,47.7-114.2,3.7-254.3-16.8c-21.2-35.4-33.4-76.9-33.4-121.2
					c0-130.4,105.7-236.2,236.2-236.2c26,0,51,4.2,74.3,12C1110.6,940.2,1154.2,1017.1,1095.7,1069.1z"/>
			</g>
			<g id="figure1">
				<path class="st1" d="M1123.5,237.3c-47.2,55.4-79.6,47.6-178.3,114.8c-44.5,30.3-80.6,61-97.5,75.4c-0.8,0.6-11,9.4-21.8,19
					C729.3,533,670.2,617.7,593.2,660.1C495,714,386.5,689,373.9,685.9c-79.3-19.5-132-74.3-237.6-183.7
					C90.4,454.6,60.9,424,42.2,395.8C34.7,384.5,29,373.5,24.6,362C2.4,303.4-5.3,232.4,3.7,173.7c7.6-49.5,27.1-90.2,59.7-107.4
					c28.6-15,54.7-5.5,87.7,9c1,0.4,2,0.9,3,1.3c3.9,1.7,7.9,3.5,12,5.3c1.4,0.6,2.8,1.2,4.2,1.9c33.6,14.7,74.6,30.4,130.7,31
					c104.8,1.2,123.4-51.9,203.9-82.3c2.2-0.8,4.4-1.6,6.7-2.4c14.2-4.9,30.2-9.1,48.9-12.3c69-11.6,124.9-0.3,177.3,19.2
					c0.9,0.3,1.9,0.7,2.8,1c1.5,0.6,3,1.2,4.6,1.8c1,0.4,2,0.8,3,1.2c97.2,38.4,184,101.8,322.5,93.2c18.6-1.2,79.7-6.2,91.2,19.1
					C1173.4,178.7,1131.3,228.2,1123.5,237.3z"/>
				<path class="st0" d="M116.8,288.4c0,49.2-31,91.2-74.5,107.4C34.7,384.5,29,373.5,24.6,362C2.4,303.4-5.3,232.4,3.7,173.7
					C66.3,174.6,116.8,225.6,116.8,288.4z"/>
			</g>
		</g>
		<g id="posters">
			<g id="poster2">
				<path class="st2" d="M1070.5,53.7v302c0,7.1-5.8,12.9-12.9,12.9H853.7c-7.2,0-12.9-5.8-12.9-12.9v-302c0-7.1,5.8-12.9,12.9-12.9
					h203.9C1064.7,40.8,1070.5,46.6,1070.5,53.7z"/>
				<g>
					<g>
						<path class="st3" d="M1001.1,232.2c-8.4,1.3-17.9,2.2-28.3,2.3c-10.8,0.1-20.7-0.7-29.3-2c-1.7-12-3.7-24.3-5.9-37
							c-2.4-13.8-5-27.1-7.7-39.8c14.1,0.7,72.5,0.7,85.9,0c-2.7,12.6-5.4,25.5-7.9,38.8C1005.4,207.3,1003.2,219.9,1001.1,232.2z"
							/>
						<path class="st3" d="M971.3,237c-9.4,0-18.8-0.7-28.1-2c-1.1-0.2-2-1-2.1-2.1c-1.8-12.3-3.7-24.7-5.9-36.9
							c-2.3-13.2-4.9-26.6-7.7-39.8c-0.2-0.8,0-1.6,0.5-2.1c0.5-0.6,1.3-0.9,2-0.9c13.6,0.7,72.1,0.7,85.7,0c0.8,0,1.5,0.3,2,0.9
							s0.7,1.4,0.5,2.1c-2.8,12.8-5.5,25.9-7.9,38.8c-2.4,12.4-4.6,25.1-6.7,37.6c-0.2,1.1-1,1.9-2.1,2.1
							c-9.5,1.5-19.1,2.3-28.7,2.4C972.3,237,971.8,237,971.3,237z M1001.1,232.2L1001.1,232.2L1001.1,232.2z M945.7,230.3
							c9,1.2,18.1,1.8,27.1,1.7c8.7-0.1,17.5-0.8,26.2-2c2-12,4.2-24.1,6.4-35.9c2.3-11.9,4.7-23.9,7.3-35.7
							c-16.7,0.5-63,0.5-79.7,0c2.6,12.2,4.9,24.5,7.1,36.8C942.1,206.7,944,218.6,945.7,230.3z"/>
					</g>
					<path class="st0" d="M943.5,232.5c-2.7,6.7-5.4,13.5-8,20.2c24.4,0,48.8,0,73.3,0c-2.5-6.9-5.1-13.7-7.6-20.6
						c-8.7,1.3-18.6,2.2-29.5,2.3C961.3,234.5,951.9,233.7,943.5,232.5z"/>
					<g>
						<path class="st3" d="M935.5,252.7c-2.6,28.5-5.2,56.9-7.8,85.4c29.8,0,59.5,0,89.3,0c-2.7-28.5-5.5-56.9-8.2-85.4H935.5z"/>
						<path class="st3" d="M1016.9,340.6h-89.3c-0.7,0-1.4-0.3-1.8-0.8s-0.7-1.2-0.6-1.9l7.8-85.4c0.1-1.3,1.2-2.3,2.5-2.3h73.2
							c1.3,0,2.4,1,2.5,2.3l8.2,85.4c0.1,0.7-0.2,1.4-0.6,1.9S1017.6,340.6,1016.9,340.6z M930.4,335.6h83.8l-7.7-80.4h-68.7
							L930.4,335.6z"/>
					</g>
					<path class="st0" d="M932.1,333.3c1.9-13.6,4.3-29.5,7.3-48c1.5-9.2,3.5-21,10-23.7c1-0.4,2.8-1.1,4.4-0.4
						c5.5,2.6,1.4,18.5,0.5,37.2c-0.4,8.5-0.2,20.5,2.4,34.9C948.5,333.3,940.3,333.3,932.1,333.3z"/>
					<path class="st0" d="M1011.7,333.3c-2.4-19.4-4.9-35.6-6.8-48c-1.2-7.7-3.2-19.2-9.3-20.7c-0.4-0.1-2.4-0.6-4.2,0.5
						c-5.4,3.2-1.8,17.1-0.5,30.1c0.9,9.1,1.1,22.1-2.3,38.2C996.3,333.3,1004,333.3,1011.7,333.3z"/>
					<path class="st0" d="M936,162.8c1.9,11.3,4.2,24.5,7.2,39.9c1.5,7.7,3.4,17.5,9.4,19.6c0.9,0.3,2.6,0.9,4.1,0.2
						c4.9-2.4,0-16.1-0.7-32.9c-0.3-6.7,0.1-16,2.7-27.2C951.2,162.5,943.6,162.6,936,162.8z"/>
					<path class="st0" d="M1008.8,163.2c-2.2,11.4-5,24.8-8.3,40.4c-1.7,7.7-3.9,17.7-9.4,19.5c-0.8,0.3-2.3,0.7-3.7,0
						c-4.8-2.4-0.2-15.9,1.8-33.1c0.7-6.5,1.4-15.8,0.7-27.3C996.2,162.8,1002.5,163,1008.8,163.2z"/>
					<path class="st0" d="M983.7,333.3c-0.4-16.4-0.2-29.6,0-38.4c0.4-17.2,1.2-27.7-4.3-31.5c-2.5-1.7-6-1.7-8.6-0.4
						c-4.7,2.5-6.7,9.7-8.2,33.6c-0.6,9.5-1.1,21.9-1,36.7C969,333.3,976.4,333.3,983.7,333.3z"/>
					<path class="st0" d="M964.1,162.6c0.3,13.2,0.3,23.6,0.3,30.1c0,17.7-0.4,26.5,4.4,29.7c1.9,1.3,4.7,1.7,6.9,0.6
						c4.1-2,5.5-8.6,6.7-31.4c0.4-7.1,0.8-16.7,1-28.3C977,163.1,970.5,162.8,964.1,162.6z"/>
					<path class="st3" d="M935.9,184.2l-30.7-28.7c7.9,1.3,15.9,2.6,23.8,3.9"/>
					<polygon class="st3" points="968.2,156.2 960.4,127.9 987.4,127.9 981.2,155.9 					"/>
					<path class="st3" d="M1017.7,155.5c8.3,1,16.6,1.9,24.9,2.9c0.9,0.1,1.6,0.7,2,1.7l13.1,31.5c0.4,1,0.3,2.2-0.2,3.1
						c-10.2,16.8-20.4,33.7-30.7,50.5c-1.2,2.1-3.9,1.5-4.5-0.9c-0.3-1.5-0.7-3-1-4.4c-0.2-0.8-0.1-1.6,0.2-2.3
						c6.5-14.2,13-28.4,19.5-42.6l0,0l-9.4-20.5c-0.5-1.2-1.7-1.8-2.8-1.5l-13.1,3.7c-1.8,0.5-3.4-1.3-3.1-3.5
						c0.7-5.1,1.5-10.2,2.2-15.2C1015.2,156.4,1016.4,155.3,1017.7,155.5z"/>
					<path class="st3" d="M1022.1,342.2h-100c-1.3,0-2.4-1.1-2.4-2.4v-0.4c0-1.3,1.1-2.4,2.4-2.4h100c1.3,0,2.4,1.1,2.4,2.4v0.4
						C1024.5,341.1,1023.4,342.2,1022.1,342.2z"/>
					<path class="st3" d="M987.6,130.5h-27.8c-1.3,0-2.4-1.1-2.4-2.4v-0.4c0-1.3,1.1-2.4,2.4-2.4h27.8c1.3,0,2.4,1.1,2.4,2.4v0.4
						C990,129.4,988.9,130.5,987.6,130.5z"/>
				</g>
				<path class="st4" d="M935.4,109.4c-14.3-8.3-27.2,36.9-29.5,45.7c0,0,0,0,0,0c2.7-9.7,27.4-100.6-3.4-98.5
					c-18.1,1.2-15.1,31.9-8.8,58.8c-7.5-19.9-18.1-38.2-29.6-30.9c-10,6.3-3.2,20.8,7.5,35c-0.6-0.3-1.2-0.7-1.8-1
					c-6.8-3.5-18.5-9.5-29-9v47.7c15.4,4.5,38.3,4.5,64.9-0.9c-0.1,0.2-0.1,0.3-0.1,0.3s0.2-0.1,0.5-0.4c0.1,0,0.3-0.1,0.4-0.1
					c0-0.1-0.1-0.1-0.1-0.2C912.4,150.7,950,117.9,935.4,109.4z"/>
				<path class="st0" d="M896.8,343.8c-0.3,2.9-1.8,14.2-7,25h-36c-7.2,0-12.9-5.8-12.9-12.9v-130c3.1,1.2,5.7,2.8,7.7,4.9
					c13.5,14.8-8,49.5,5.5,59.2c6.7,4.8,13.3-2.6,23.7,1.8C893.5,298.6,898.8,325.1,896.8,343.8z"/>
				<path class="st0" d="M1070.5,53.7v41.5c-12.6-15.4-19.2-36.6-24.2-54.5h11.2C1064.7,40.8,1070.5,46.6,1070.5,53.7z"/>
			</g>
			<g id="poster1">
				<path class="st2" d="M274,519.7v194.8c0,4.6-5.1,8.4-11.5,8.4H81.6c-6.4,0-11.5-3.7-11.5-8.4V519.7c0-4.6,5.1-8.4,11.5-8.4
					h180.8C268.8,511.3,274,515.1,274,519.7z"/>
				<path class="st4" d="M99.7,621.5c2.3,39.1,30.9,70,65.8,70s63.5-30.9,65.8-70H99.7z"/>
				<path class="st3" d="M230,622.4H100.7c-1.7,0-3.1-1.4-3.1-3.1v-0.9c0-1.7,1.4-3.1,3.1-3.1H230c1.7,0,3.1,1.4,3.1,3.1v0.9
					C233.1,621,231.7,622.4,230,622.4z"/>
				<path class="st3" d="M184.8,696.6h-36c-1.7,0-3.1-1.4-3.1-3.1v-1.8c0-1.7,1.4-3.1,3.1-3.1h36c1.7,0,3.1,1.4,3.1,3.1v1.8
					C187.8,695.3,186.4,696.6,184.8,696.6z"/>
				<path class="st3" d="M207.2,672.9c-1.1,0-2.2-0.8-2.4-1.9c-0.3-1.3,0.5-2.7,1.9-3l31.6-7.4c4.9-3.8,7-10.3,5.1-16
					c-2.2-6.5-8.9-10.5-15.9-9.5c-1.4,0.2-2.6-0.8-2.8-2.1c-0.2-1.4,0.8-2.6,2.1-2.8c9.4-1.3,18.4,4.1,21.3,12.9
					c2.7,7.9-0.3,17-7.3,22c-0.3,0.2-0.6,0.3-0.9,0.4l-32.1,7.5C207.6,672.9,207.4,672.9,207.2,672.9z"/>
				<circle class="st3" cx="122.9" cy="638.5" r="6.2"/>
				<circle class="st3" cx="143" cy="669.3" r="6.2"/>
				<circle class="st3" cx="202.3" cy="638.5" r="6.2"/>
				<circle class="st3" cx="163.1" cy="638.5" r="6.2"/>
				<circle class="st3" cx="183.2" cy="669.3" r="6.2"/>
				<path class="st4" d="M171.8,603c-12.3-8.4-50.8-35.8-46.1-50.8c0.8-2.4,2.9-5.1,5.7-6.3c11.2-4.8,28.3,18.4,28.3,18.4
					c-8.6-19.9-3.7-38.4,5.7-43.1c6.3-3.2,16.1-0.8,20.4,5.7c8.4,12.5-3.2,40.6-3.2,40.6l0,0c8.5-18.9,20.3-29.2,28.2-26.7
					c3.5,1.1,6.5,4.8,7.6,8.8c0.6,2.2,2,9-8,22.8C204.7,580.1,193.2,593.1,171.8,603z"/>
			</g>
		</g>
		<g id="lamps">
			<path class="st4" d="M155.6,241.7c0,2.1,0.1,4.2,0.1,6.3c0,0.8-0.7,1.5-1.5,1.5c-0.8,0-1.5-0.7-1.5-1.5c0-2.1-0.1-4.2-0.1-6.3
				c-0.4-28.2-0.7-56.4-1-84c-0.4-37.9-0.6-64.5-0.5-82.5c1,0.4,2,0.9,3,1.3c0,21.8,0.2,51.7,0.5,81.2
				C154.9,185.3,155.2,213.5,155.6,241.7z"/>
			<path class="st4" d="M737.6,37c0.9,0.3,1.9,0.7,2.8,1c-8.3,23.5-22.8,44.5-42.1,60.3c-26.1,21.3-58.6,31.2-89.2,27.2
				c-47.2-6.2-87-44.6-100.4-94.2l10.8,278.2l0.2,6.2c0,0,0,0,0,0.1c0,0.8-0.6,1.5-1.5,1.5h-0.1c-0.8,0-1.5-0.6-1.5-1.4l-0.2-6.3
				l-10-258.6c-4.9,47-20.7,91.1-46.1,127.1c-29.9,42.4-69.4,68.6-108.3,71.9c-31.6,2.7-63.5-10-94.9-37.7
				c-42.3-37.3-74.3-93.6-91.2-130.6c1.4,0.6,2.8,1.2,4.2,1.9c3.8,8.2,8.4,17.4,13.7,27.1c15.8,29,41.6,69.7,75.2,99.4
				c30.7,27.1,61.9,39.6,92.7,37c38.1-3.2,76.7-29,106.1-70.7c28.3-40.2,44.7-90.7,46.9-144c2.2-0.8,4.4-1.6,6.7-2.4
				c12.9,48.8,51.9,86.5,98,92.5c29.8,3.9,61.4-5.8,86.9-26.6C715.4,80.6,729.5,60,737.6,37z"/>
			<path class="st4" d="M748.1,173.8v6.3c0,0.8-0.7,1.5-1.5,1.5s-1.5-0.7-1.5-1.5v-6.3l0-134c1,0.4,2,0.8,3,1.2L748.1,173.8z"/>
			<path class="st3" d="M145.9,276.2c0-8.8,0-17.6,0-26.3c0-4.5,3.7-8.3,8.3-8.3h0c4.5,0,8.3,3.7,8.3,8.3c0,8.8,0,17.6,0,26.3
				c-0.6,0.6-3.5,3.4-8.3,3.4C149.5,279.6,146.5,276.7,145.9,276.2z"/>
			<circle class="st4" cx="154.2" cy="284.4" r="17.6"/>
			<path class="st3" d="M510,344.1c0-8.8,0-17.6,0-26.3c0-4.5,3.7-8.3,8.3-8.3h0c4.5,0,8.3,3.7,8.3,8.3c0,8.8,0,17.6,0,26.3
				c-0.6,0.6-3.5,3.4-8.3,3.4C513.6,347.5,510.6,344.6,510,344.1z"/>
			<path class="st3" d="M738.3,208.3c0-8.8,0-17.6,0-26.3c0-4.5,3.7-8.3,8.3-8.3h0c4.5,0,8.3,3.7,8.3,8.3c0,8.8,0,17.6,0,26.3
				c-0.6,0.6-3.5,3.4-8.3,3.4C741.9,211.7,738.9,208.8,738.3,208.3z"/>
			<circle class="st4" cx="518.3" cy="352.3" r="17.6"/>
			<circle class="st4" cx="746.6" cy="216.5" r="17.6"/>
		</g>
	</g>
</g>
<g id="main">
	<g id="general_1_">
		<g id="chair">
			<path class="st5" d="M803,792.4c-72.5-4.6-145-9.2-217.4-13.7c1.2-33.6,8.7-93.2,47.9-147.2c13.6-18.8,32.9-44.5,67-54.3
				c8.8-2.5,31.9-8.8,57.4,1.5c3.5,1.4,14.4,5.8,24.7,15c5.3,4.7,10.4,10.7,14.3,18.1c5.5,10.7,6.6,21.1,5.7,31.9
				c-0.9,12.1-4.2,24.7-6.5,38.6C791.9,708.3,790.5,745.1,803,792.4z"/>
			<path class="st6" d="M790.6,791.8c-72.5-4.6-145-9.2-217.5-13.7c0.3-9.5,1.2-21.2,3.1-34.2c4.9-32.8,16.6-74.4,44.7-113
				c13.6-18.8,32.9-44.5,67-54.2c8.8-2.5,31.9-8.8,57.4,1.5c5.3,2.1,27.8,11.2,39,33.1c6.8,13.3,6.8,26.2,4.8,40
				c-1.4,9.6-3.8,19.7-5.6,30.6C779.5,707.7,778.1,744.6,790.6,791.8z"/>
			<path class="st7" d="M790.6,791.8c-72.5-4.6-145-9.2-217.5-13.7c0.3-9.5,1.2-21.2,3.1-34.2l212.9-92.7
				c-1.4,9.6-3.8,19.7-5.6,30.6C779.5,707.7,778.1,744.6,790.6,791.8z"/>
			<path class="st8" d="M802.5,643.7l-45.7-37.8l25.7-12.3c5.3,4.7,10.4,10.7,14.3,18.1C802.3,622.4,803.4,632.9,802.5,643.7z"/>
		</g>
		<g id="woman">
			<g id="hair">
				<linearGradient id="SVGID_1_" gradientUnits="userSpaceOnUse" x1="661.7547" y1="516.7596" x2="803.0182" y2="516.7596">
					<stop  offset="0.3245" style="stop-color:#2A303D"/>
					<stop  offset="1" style="stop-color:#31445A"/>
				</linearGradient>
				<path class="st9" d="M665.3,404.3c-1.3,4.7-12,46,11.2,68.3c2.8,2.7,6.5,5.4,11.2,7.7c-3,3.2-7,8.4-9,15.7
					c-2,7.2-0.4,11.1-0.9,22.1c-0.6,15.4-3.7,13.5-2.7,21.7c1.7,14.6,10.1,24.1,16.3,30.9c1.6,1.8,2.8,3,3.1,3.3
					c20.9,21,30,56.1,49.1,63c18.6,6.8,51-11.8,57.9-38.8c3.1-12,1.8-28.4-7.4-40c-11.3-14.2-26.9-12-29.5-22.5
					c-3-12.3,17.3-20.9,13.8-32.9c-2.8-9.3-15.1-7.3-28-23.5c-4.6-5.8-9.1-11.4-9-19c0.1-8.9,6.5-12.2,6.7-22.4
					c0.2-6.7-2.5-11.7-4.5-15.7c-9.7-19.4-31.6-25-34.7-25.7C686.6,391.2,668.7,402.1,665.3,404.3z"/>
				<linearGradient id="SVGID_2_" gradientUnits="userSpaceOnUse" x1="491.8737" y1="546.4589" x2="672.1343" y2="546.4589">
					<stop  offset="0.3245" style="stop-color:#2A303D"/>
					<stop  offset="1" style="stop-color:#31445A"/>
				</linearGradient>
				<path class="st10" d="M633.9,497.5c18.2-11.4-13.1-81.5-13.1-81.5c-37.4,17.7-45.7,30.2-44.8,38.8c0.8,8.4,10.1,10.3,11.6,21.2
					c2.1,15.3-14.5,20.9-14.7,37.7c-0.1,16.7,16.5,24.2,13.1,31.7c-3.8,8.4-24.3-1.2-46.3,6.2c-26.6,8.9-50,40.6-47.5,72.5
					c0.2,2.4,3,33.4,24.1,44c19.3,9.7,29.3-10.1,56.8-1.4c13.5,4.2,28.3,14.4,46,8.6c0,0,0.2-0.1,0.4-0.2
					c36.5-12.1,51.6-55.4,52.6-85.5c1.3-40.8-23.1-69.4-30.1-77C639.7,507.6,636.9,502.4,633.9,497.5z"/>
			</g>
			<g id="body">
				<path class="st11" d="M741.4,602.3C741.4,602.3,741.4,602.3,741.4,602.3c-0.7,4-1.6,7.4-2.1,9.7c0,0.1-0.1,0.3-0.1,0.4
					c-0.2,1-0.5,2.1-0.8,3.2c-2.6,10.3-12.7,44.9-54.1,175.9c-21.2-1-42.3-2-63.5-3.1c-9.1-0.6-18.1-1.2-27.2-1.8
					c0.9-18.1-2.3-29.4-5.6-36.5c0,0-5.2-16.9-10.5-35c0-0.1,0-0.1,0-0.2c-4.9-17-10-35-10.9-41.6c-0.1-0.5-0.1-0.9-0.2-1.2
					c-0.2-2-0.2-3.9-0.2-5.6c0-0.2,0-0.4,0-0.6c0-0.3,0-0.6,0-0.9c0-0.4,0-0.7,0.1-1.1c0-0.3,0.1-0.7,0.1-1c0-0.3,0.1-0.7,0.1-1
					c0-0.3,0.1-0.7,0.1-1c0.4-2.4,1-4.5,1.7-6.5c0.1-0.3,0.2-0.7,0.4-1c0.6-1.6,1.3-3.3,2.1-4.9c0.1-0.2,0.2-0.4,0.2-0.6
					c0.6-1.5,1.3-3,2-4.7c0.1-0.2,0.2-0.4,0.2-0.6c0.6-1.5,1.1-3.1,1.7-4.8c0.1-0.3,0.2-0.6,0.2-0.8c0.2-0.5,0.3-1.1,0.4-1.6
					c0.1-0.3,0.1-0.6,0.2-0.8c0-0.1,0.1-0.3,0.1-0.4c0.1-0.2,0.1-0.5,0.2-0.7c0.7-3.1,1.4-6.6,1.8-10.7c2.6-18.6,0.1-27.1,0.7-32.9
					c0-0.2,0-0.3,0-0.5c0-0.3,0.1-0.6,0.1-0.9c0-0.2,0.1-0.4,0.2-0.7c0-0.1,0.1-0.3,0.1-0.4c0.1-0.2,0.1-0.4,0.2-0.6
					c0-0.1,0.1-0.3,0.2-0.4c0.1-0.3,0.3-0.6,0.4-0.8c0.4-0.7,0.8-1.3,1.4-2c2.9-3.2,8.2-5.6,18.3-9.6c1.3-0.5,2.6-1.1,4.1-1.6
					c0,0,1.1-0.4,4.5-1.7c0.9-0.3,1.8-0.7,2.7-1.1c8.9-3.7,17.6-8.9,22.8-13.1c0.3-0.2,0.6-0.5,0.9-0.7c0.6-0.5,1.1-0.9,1.5-1.3
					c3-2.8,5.3-6.3,6.9-10c5.5-12.5,4.5-28.3,3.7-35.5l35-12.3c0,1.1,0,2.2,0,3.3c0.1,28.4,4.9,44.4,11.4,53.3
					c0.2,0.3,0.5,0.6,0.7,0.9c2.6,3.3,5.4,5.5,8.4,7c0.6,0.3,1.1,0.5,1.7,0.8c11.3,4.7,23.2-0.4,31.9,8.2
					C743.9,577.9,743.2,591.9,741.4,602.3z"/>
				<path class="st8" d="M668.3,489.4c6.4,2.1,7.7,17.6,4,28.8c-6.1,18.3-25.8,25-29.1,26.1c5.5-12.5,4.5-28.3,3.7-35.5
					C653.8,495.6,662.9,487.6,668.3,489.4z"/>
				<path class="st8" d="M631.7,636.4c0.7-5.7,1.6-19.3-5.4-34.3c-8.1-17.3-21.7-25.6-26.6-28.3c0.7-0.3,1.3-0.5,2-0.8
					c0.7-0.3,1.4-0.5,2.1-0.8c0,0,1.1-0.4,4.5-1.7c0.9-0.3,1.8-0.7,2.7-1.1c9.4,4.9,14.3,10.6,17,14.9c7.6,11.9,10.3,23,10.3,23
					c0.8,3.4,1.5,7.5,5,10.2c3.7,2.8,6.9,1.3,8.3,3.5c2.4,4-4.1,15.9-13,16.8C635.7,638.1,633.2,637.1,631.7,636.4z"/>
			</g>
			<g id="finger_left">
				<polygon class="st11" points="448.5,602.6 469.1,574.8 471.4,580.4 462.4,593.9 				"/>
				<g>
					<polygon class="st8" points="448.5,602.6 469.1,574.8 471.4,580.4 462.4,593.9 					"/>
				</g>
			</g>
			<g id="shirt">
				<path class="st12" d="M743.7,569.9c-0.7,10.8-1.5,21.6-2.2,32.3c0,0,0,0,0,0.1c-0.2,0.9-0.4,1.7-0.5,2.6
					c-0.5,2.4-1.1,4.8-1.6,7.1c0,0.1-0.1,0.3-0.1,0.4c-0.4,1.8-0.7,3.1-0.8,3.2c-0.2,0.9,0,3.3,1.9,9.2c-2.1,11.7-4.5,23.6-7.1,35.8
					c-2.5,12.1-5.3,24.4-8.3,36.9c-2.2,9.2-4.5,18.6-7,28c-1.7,6.4-3.4,12.8-5.1,19c-1.4,5-2.8,9.9-4.2,14.8
					c-3.2,11-6.4,21.7-9.7,32.2c-19.4-0.4-35.2-1-46.3-1.5c-7.7-0.3-15.9-0.8-31.7-1.6c-4.5-0.2-9-0.5-13.4-0.7
					c-4.6-0.2-9.2-0.5-13.7-0.7c0-0.1,0-0.3,0-0.4c0-0.4,0-0.9,0-1.4c-0.1-4.1-1.1-10.5-2.8-18.2c-1.7-7.7-3.9-16.8-6.4-26.2
					c-2.2-8.5-4.6-17.3-6.9-25.7c0-0.1,0-0.1,0-0.2c-5.2-19-10-35.7-10.9-41.6c-0.1-0.5-0.1-0.9-0.2-1.2c-0.2-2-0.2-3.9-0.2-5.6
					c0-0.2,0-0.4,0-0.6c0-0.3,0-0.6,0-0.9c0-0.4,0-0.7,0.1-1.1c0-0.3,0.1-0.7,0.1-1c0-0.3,0.1-0.7,0.1-1c0-0.3,0.1-0.7,0.1-1
					c0.4-2.4,1-4.5,1.7-6.5c0.1-0.3,0.2-0.7,0.4-1c0.6-1.6,1.3-3.3,2.1-4.9c0.1-0.2,0.2-0.4,0.2-0.6c0.6-1.5,1.3-3,2-4.7
					c0.1-0.2,0.2-0.4,0.2-0.6c0.6-1.5,1.1-3.1,1.7-4.8c0.1-0.3,0.2-0.6,0.2-0.8c0.2-0.5,0.3-1.1,0.4-1.6c0.1-0.3,0.1-0.6,0.2-0.8
					c0-0.1,0.1-0.3,0.1-0.4c0.1-0.2,0.1-0.5,0.2-0.7c0.7-3.1,1.2-6.2,1.8-10.7c2.6-18.6,0.1-27.1,0.7-32.9c0-0.2,0-0.3,0-0.5
					c0-0.3,0.1-0.6,0.1-0.9c0-0.2,0.1-0.4,0.2-0.7c0-0.1,0.1-0.3,0.1-0.4c0.1-0.2,0.1-0.4,0.2-0.6c0-0.1,0.1-0.2,0.1-0.4
					c0,0,0,0,0,0c0.1-0.3,0.3-0.6,0.4-0.8c0.5-0.8,1-1.4,1.4-2c1.6-2.2,6.3-8.6,14.5-11.6c0.7-0.3,1.5-0.5,2.3-0.7
					c2.1-0.5,5.6-1.2,10.1-0.6c8.5,6.4,19.7,17,25.7,33c4,10.6,3.6,17.7,7.8,19c7.1,2.1,15.5-15.4,35.8-36.9
					c10.3-10.9,19.8-18.8,26.3-23.8c2.4-0.8,7-2,12.9-2c3,0,6.4,0.3,10,1.3c3.1,0.8,6,2.1,6.3,2.2c0.1,0.1,0.2,0.1,0.4,0.2
					c0.2,0.1,0.3,0.2,0.5,0.2c0.1,0,0.2,0.1,0.3,0.1C738.5,565.7,741.6,568.1,743.7,569.9z"/>
				<linearGradient id="SVGID_3_" gradientUnits="userSpaceOnUse" x1="590.9885" y1="775.3649" x2="708.6268" y2="775.3649">
					<stop  offset="0" style="stop-color:#302E40"/>
					<stop  offset="1" style="stop-color:#9375A1"/>
				</linearGradient>
				<path class="st13" d="M708.6,759.3c-3.2,11-6.4,21.7-9.7,32.2c-19.4-0.4-35.2-1-46.3-1.5c-7.7-0.3-15.9-0.8-31.7-1.6
					c-4.5-0.2-9-0.5-13.4-0.7c-4.6-0.2-9.2-0.5-13.7-0.7c0-0.1,0-0.3,0-0.4c0-0.4,0-0.9,0-1.4c-0.1-4.1-1.1-10.5-2.8-18.2
					C608,765.6,669.4,761.7,708.6,759.3z"/>
			</g>
			<g id="smartphone">
				<path class="st14" d="M688,711.8L688,711.8c0-0.2,0-0.3-0.1-0.5l-32.4-36.8c-0.9-1-3.6-1.3-6.1-0.8l-23.5,5.3
					c-1.6,0.4-2.6,1.1-2.7,1.8c0,0,0,0,0,0c0,0.1-0.8,3.4-0.8,3.4l2.9-0.9l27.2,26.3l6.5,6.2c0.7,0.7,2.9,1,5,0.6l20.6-3.2l2.7,2
					L688,711.8z"/>
				
					<linearGradient id="SVGID_4_" gradientUnits="userSpaceOnUse" x1="1064.6816" y1="346.8371" x2="1132.9656" y2="346.8371" gradientTransform="matrix(0.9921 0.1257 -0.1257 0.9921 -391.5505 216.2185)">
					<stop  offset="0.4713" style="stop-color:#2A303D"/>
					<stop  offset="1" style="stop-color:#302E40"/>
				</linearGradient>
				<path class="st15" d="M687.1,714.9l-32.4-36.8c-0.9-1-3.6-1.3-6.1-0.8l-23.5,5.3c-1.6,0.4-2.6,1.1-2.7,1.8c0,0,0,0,0,0
					c0,0.1,0,0.2,0,0.4c0,0,0,0,0,0c0.1,0.1,0.1,0.3,0.3,0.4l7,6.7l7.6,7.4l14.4,13.9l6.5,6.2c0.7,0.7,2.9,1,5,0.6l21.1-3.3
					c1.6-0.3,2.7-0.8,3-1.3C687.3,715.3,687.2,715.1,687.1,714.9z"/>
			</g>
			<g id="hand_right">
				<path class="st12" d="M797.9,725.6c-0.2,13.2-3.7,22.9-11.7,29c-19.6,14.8-54.3,0.4-73.4-10.1c-3.9-2.1-7.1-4.1-9.4-5.6
					c-4.8-3.1-8.3-6-10.8-9c-2.8-3.3-4.3-6.5-4.9-10c-0.5-3-0.2-6.2,0.6-9.2c1.9-7.5,7.3-14.2,14-16.5c4.9-1.7,9.7-0.4,19,2.2
					c1.3,0.4,2.5,0.7,3.6,1.1c13.3,4.3,18.1,8.9,21,6.7c3.7-2.8-0.1-13.1-4.5-25.7c-2.7-7.8-5.6-13.6-8.2-17.9
					c-4.3-7.1-8.1-10-9.7-11.2c-4.2-3-5.8-2.9-7.8-4.5c-5.9-4.7-7.5-18.4,6.2-54.6c3-7.9,6.7-16.9,11.2-27.1
					c0.1,0.1,0.2,0.1,0.4,0.2c0.2,0.1,0.3,0.2,0.5,0.2c0.1,0,0.2,0.1,0.3,0.1c1.8,0.9,4.4,2.2,7.1,4c15.2,10,22.4,25.5,26.3,36.5
					c0.6,1.8,1.2,3.4,1.6,4.9C785.5,659.5,798.2,699.3,797.9,725.6z"/>
				<linearGradient id="SVGID_5_" gradientUnits="userSpaceOnUse" x1="692.6046" y1="743.2093" x2="797.8682" y2="743.2093">
					<stop  offset="0" style="stop-color:#9375A1"/>
					<stop  offset="1" style="stop-color:#302E40"/>
				</linearGradient>
				<path class="st16" d="M797.9,725.6c-0.2,13.2-3.7,22.9-11.7,29c-23.6,17.7-69-6.6-82.8-15.7c-4.8-3.1-8.3-6-10.8-9
					c15.2,5.4,44,12.9,77.6,5.3C780.9,732.7,790.2,729.2,797.9,725.6z"/>
				<linearGradient id="SVGID_6_" gradientUnits="userSpaceOnUse" x1="716.6575" y1="582.9145" x2="767.7593" y2="582.9145">
					<stop  offset="0" style="stop-color:#FFFFFF"/>
					<stop  offset="1" style="stop-color:#9375A1"/>
				</linearGradient>
				<path class="st17" d="M767.8,604.2c-11.2,2.5-20,2.5-26.9,0.7c-9.4-2.3-15.4-7.9-19-14.6c-5.1-9.5-5.6-21.5-5.1-30.6
					c3,0,6.4,0.3,10,1.3c3.1,0.8,6,2.1,6.3,2.2c0.1,0.1,0.2,0.1,0.4,0.2c0.2,0.1,0.3,0.2,0.5,0.2c0.1,0,0.2,0.1,0.3,0.1
					c1.8,0.9,4.4,2.2,7.1,4C756.7,577.7,763.9,593.2,767.8,604.2z"/>
				<g>
					<path class="st11" d="M711.8,727.2c-2.9,1.5-6-0.2-9.6-2.7c-5.3-3.7-11.5-9.4-19.4-10c-1-0.1-2-0.1-3,0c0,0-13.1,1.2-19.3,0.7
						c0,0-0.9-0.1-2.1-0.2c-0.4,0-0.7-0.1-1.1-0.1c-8.1-0.6-15.8-1.1-20.7-2.2c-0.4-0.1-0.7-0.2-1.1-0.3c-1.2-0.3-2.2-0.7-2.9-1.2
						c-0.4-0.3-0.7-0.6-0.9-0.9c-0.5-0.9-0.3-1.5-0.5-2.6c-0.3-2.1-1.3-2.3-1-3.8c0-0.3,0.2-1.4,1.2-2c0.5-0.3,1-0.3,1.5-0.2
						c0,0,0,0,0,0c0.6,0.1,1.1,0.3,1.3,0.3c0,0,0,0,0.1,0s0,0,0,0c-0.4-0.3-3.7-1.1-4.2-3c-0.2-0.9,0.2-2,0.9-2.6
						c0.9-0.7,2.1-0.5,4.1,0.2c0.8,0.3,1.8,0.6,2.9,0.9c0.2,0.1,0.5,0.1,0.7,0.2c6.1,1.9,10.5,2.1,11.7,2.2c2.3,0.1,4.1,0,5.3-0.2
						c-7.2-2.3-12.8-4.1-17.2-5.7c-1-0.4-2-0.7-2.9-1c-6.7-2.5-9.7-4-10.7-5c-0.3-0.3-0.5-0.6-0.4-0.8c0.1-0.7,2.3-0.9,3.8-1
						c3.2-0.3,5.9,0.3,8.3,1.1c1,0.3,1.9,0.7,2.9,1c0.2,0.1,0.4,0.1,0.6,0.2c2.7,1,12.1,3.1,17.7,4.5c2.8,0.7,4.1,1.2,6.1,0.9
						c0.7-0.1,2-0.3,3.2-0.9c0.7-0.4,1.4-0.9,1.8-1.7c1.6-2.5,0.2-6-1.1-7.8c-1.4-2.1-2.5-1.8-4.8-4.5c-1-1.2-2.3-3-2.6-4.2
						c-0.1-0.4-0.1-0.7,0-0.9c0.6-0.7,3.6,1.1,6.6,2.8c4.1,2.4,6.1,3.5,7.2,4.9c3,3.6,2,6.8,5.2,10.1c1.4,1.5,3.1,2.6,3.1,2.6
						c1.2,0.7,2.2,1.3,2.9,1.6c5.8,2.7,18.7,6,25.9,11.5c2.1,1.6,3.6,3.4,4.4,5.3C717.8,718,715.8,725.2,711.8,727.2z"/>
					<linearGradient id="SVGID_7_" gradientUnits="userSpaceOnUse" x1="636.6833" y1="712.408" x2="682.7921" y2="712.408">
						<stop  offset="0" style="stop-color:#E2C8C0"/>
						<stop  offset="1" style="stop-color:#DD8093;stop-opacity:0.4"/>
					</linearGradient>
					<path class="st18" d="M682.8,714.6c-1-0.1-2-0.1-3,0c0,0-13.1,1.2-19.3,0.7c0,0-0.9-0.1-2.1-0.2c-0.4,0-0.7-0.1-1.1-0.1
						c-8.1-0.6-15.8-1.1-20.7-2.2c11.4-2.5,36.1-6.8,45.2,0.8C682.3,714,682.6,714.3,682.8,714.6z"/>
					<path class="st8" d="M671.8,689c-1.1,2.8-2.9,3.9-4.6,4.4c0.7-0.4,1.4-0.9,1.8-1.7c1.6-2.5,0.2-6-1.1-7.8
						c-1.4-2.1-2.5-1.8-4.8-4.5c-1-1.2-2.3-3-2.6-4.2C664.5,677.7,673.7,684.1,671.8,689z"/>
					<linearGradient id="SVGID_8_" gradientUnits="userSpaceOnUse" x1="625.1617" y1="694.2086" x2="656.3363" y2="694.2086">
						<stop  offset="0" style="stop-color:#E2C8C0"/>
						<stop  offset="1" style="stop-color:#DD8093;stop-opacity:0.4"/>
					</linearGradient>
					<path class="st19" d="M655.9,700.1c-7.2-2.3-12.8-4.1-17.2-5.7c-1-0.4-2-0.7-2.9-1c-6.7-2.5-9.7-4-10.7-5
						C634.1,690.4,660.2,697.4,655.9,700.1z"/>
				</g>
				<path class="st8" d="M711.8,727.2c-2.9,1.5-6-0.2-9.6-2.7c0.7-0.5,1.7-0.9,2.9-1.4c7.9-3.1,7.8-10,6.4-15.3
					c2.1,1.6,3.6,3.4,4.4,5.3C717.8,718,715.8,725.2,711.8,727.2z"/>
			</g>
			<g id="necklace">
				<path class="st20" d="M693.9,553.9c-13.7,12.3-25.9,18.5-36.4,18.5c-2.2,0-4.3-0.3-6.4-0.8c-8.9-2.4-14.3-9.7-17.3-15.3
					c0.3-0.2,0.6-0.5,0.9-0.7c2.8,5.4,8.1,12.6,16.7,14.9c11.4,3.1,25.4-2.8,41.8-17.5C693.4,553.3,693.7,553.6,693.9,553.9z"/>
				<circle class="st6" cx="655" cy="572.4" r="4.3"/>
			</g>
			<g id="head_1_">
				<path id="head" class="st11" d="M694.4,477.1c-1.1,2-2.6,4.7-4.5,7.8c-10.9,17.5-38.2,51.2-60.4,44.8
					c-9.9-2.9-15.7-12.9-17.9-16.8c-2.1-3.6-5.2-10.3-5.6-26.9c-0.3-11.4-0.6-25.9,5.6-43.6c0.5-1.4,2.8-7.8,6.4-15.5
					c3.1-6.4,7.2-13.7,12.1-19.6c5.6-6.7,12.2-11.6,19.5-11.4c8.9,0.3,15.3,8,19.5,13.1c0.1,0.2,0.7,0.9,1.5,1.9
					c2.4,3.4,7.1,10.7,8.6,19c0.7,4,0.7,8.2-0.6,12.4c-1.2,3.8-3.6,8-4.5,15.7c-0.4,3.7-0.4,6.8,1.1,10.1c0.2,0.5,1.6,3.3,4.5,5.6
					C685.7,478.3,692.9,477.3,694.4,477.1z"/>
				<path class="st8" d="M679.4,430c-7.3-2.1-22-5.9-31.2-5.1c-9,0.8-22.7,1.6-30.1,2c3.1-6.4,7.2-13.7,12.1-19.6l40.6,3.7
					C673.2,414.4,677.9,421.7,679.4,430z"/>
			</g>
			<g id="eyes_2_">
				<circle class="st21" cx="651.5" cy="470" r="3.3"/>
				<circle class="st21" cx="619.7" cy="467.3" r="3.3"/>
			</g>
			<path id="smile" class="st21" d="M633.2,510.6c-4.5,0-8-1.8-9.4-2.6c-0.3-0.2-0.4-0.6-0.2-0.9c0.2-0.3,0.6-0.4,0.9-0.2
				c1.6,1,5.9,3.1,11.4,2.2c6.3-1,9.9-5.5,10.8-6.8c0.2-0.3,0.6-0.3,0.9-0.1c0.3,0.2,0.3,0.6,0.1,0.9c-1,1.4-4.9,6.2-11.7,7.3
				C635,510.5,634.1,510.6,633.2,510.6z"/>
			<path id="nose_2_" class="st22" d="M633.3,460.4c-1.4,2-3.3,4.9-5.3,8.5c-5.1,9.1-7.7,13.8-5.9,16.8c2.3,4,11,3,13,2.7
				C634.4,479.1,633.9,469.7,633.3,460.4z"/>
			<path id="forelock" class="st23" d="M701.4,470c-6.8-30.7-18.6-42.2-28.8-46.7c-22.4-10-46.5,9.3-61.1-4.1
				c-6.9-6.4-8.9-17.5-6.1-25.2c5.4-15.1,29.5-19.6,45.5-17.5c28.2,3.7,51.4,31,55.1,59.5C707.9,450.6,704.2,462.8,701.4,470z"/>
			<g id="brows">
				<path class="st23" d="M660.8,455.1l-19.4-5.1c-0.4-0.1-0.7-0.5-0.6-1l0.5-1.7c0.1-0.4,0.5-0.7,1-0.6l19.4,5.1
					c0.4,0.1,0.7,0.5,0.6,1l-0.5,1.7C661.6,455,661.2,455.2,660.8,455.1z"/>
				<path class="st23" d="M621.1,450.7l-18.2,3.5c-0.4,0.1-0.8-0.2-0.9-0.6l-0.3-1.7c-0.1-0.4,0.2-0.8,0.6-0.9l18.2-3.5
					c0.4-0.1,0.8,0.2,0.9,0.6l0.3,1.7C621.8,450.2,621.5,450.6,621.1,450.7z"/>
			</g>
			<g id="ear">
				<path class="st11" d="M703.4,484.8c-0.2,7.7-6.7,13.8-14.4,13.5c-7.7-0.2-13.8-6.7-13.5-14.4c0-0.3,0-0.5,0-0.8
					c0.6-7.4,6.9-13,14.4-12.8c3.8,0.1,7.2,1.8,9.7,4.3C702,477.3,703.5,480.9,703.4,484.8z"/>
				<linearGradient id="SVGID_9_" gradientUnits="userSpaceOnUse" x1="675.4746" y1="476.7456" x2="699.4968" y2="476.7456">
					<stop  offset="0" style="stop-color:#E2C8C0"/>
					<stop  offset="1" style="stop-color:#DD8093;stop-opacity:0.4"/>
				</linearGradient>
				<path class="st24" d="M699.5,474.7l-24,8.5c0.6-7.4,6.9-13,14.4-12.8C693.6,470.5,697,472.1,699.5,474.7z"/>
			</g>
			<g id="coffee">
				<g>
					<path class="st25" d="M511.4,553.2c-0.1,0.9-0.2,1.7-0.3,2.5c-2.5,23.8-5,47.5-7.4,71.3h-30.9c-2.5-23.7-5-47.5-7.5-71.3
						c-0.1-0.9-0.2-1.7-0.3-2.5H511.4z"/>
					<path class="st14" d="M516.5,553c0,0.7-0.3,1.4-0.8,1.9c-0.5,0.5-1.2,0.8-1.9,0.8h-51.1c-1.5,0-2.7-1.2-2.7-2.7
						c0-0.7,0.3-1.4,0.8-1.9c0.5-0.5,1.2-0.8,1.9-0.8h51.1C515.3,550.4,516.5,551.6,516.5,553z"/>
				</g>
				<path class="st26" d="M516.5,553c0,0.7-0.3,1.4-0.8,1.9c-0.5,0.5-1.2,0.8-1.9,0.8h-2.7c-2.5,23.8-5,47.5-7.4,71.3h-18.1
					c-12-13-12.9-18.2-11.5-20.5c2.2-3.6,10.3-1,20.8-6.6c1.3-0.7,5.4-3.1,7.6-7.7c0.3-0.6,1.3-2.9,0.7-3.3c-1-0.8-5.2,5.6-12.1,9.1
					c-8.9,4.5-18.9,2.4-19,1.4c-0.1-0.8,7.3-0.8,17.5-5.3c8.6-3.8,15.1-9.1,14.7-9.8c-0.4-0.7-6,2.6-16.6,5.7
					c-7.6,2.2-17.6,4.3-18.1,3c-0.3-1,4.9-3.6,5.6-4c6.9-3.5,17.2-6.1,20.7-6.9c1.3-0.3,3.9-1,4.5-2.8c0.3-0.9,0.1-2.1-0.6-2.8
					c-1.8-1.8-6.1,0.6-12.9,2.9c-7,2.4-15.1,4.1-15.5,3.2c-0.3-0.8,4.7-3.6,7.6-5.2c11.3-6.2,15.3-5.9,16.2-9.3
					c0.9-3.5-2.3-8.8-1.9-12.4c0-0.1,0.1-1.1,0.3-2.5c0.1-1,0.2-1.9,0.3-2.8h19.9C515.3,550.4,516.5,551.6,516.5,553z"/>
				<path class="st14" d="M500.3,544.8c-0.1,0-0.2,0-0.3-0.1c-0.3-0.1-0.3-0.5-0.2-0.7c4.8-8.6,6.1-15.5,3.8-20.7
					c-0.5-1.1-1.2-2.2-1.8-3.3c-1.5-2.4-3-4.8-3.2-8.5c-0.2-2.8,0.5-5.8,1.9-8.6c0.1-0.3,0.4-0.4,0.7-0.2c0.3,0.1,0.4,0.4,0.2,0.7
					c-1.4,2.7-2,5.4-1.8,8.1c0.2,3.4,1.7,5.8,3.1,8c0.7,1.1,1.4,2.2,1.9,3.5c2.4,5.5,1.1,12.8-3.9,21.6
					C500.7,544.7,500.5,544.8,500.3,544.8z"/>
				<path class="st14" d="M488.1,544.8c-0.1,0-0.2,0-0.3-0.1c-0.3-0.1-0.3-0.5-0.2-0.7c4.8-8.6,6.1-15.5,3.8-20.7
					c-0.7-1.7-1.4-3-2.1-4.3c-1.1-2.3-2.1-4.3-3-7.4c-1.9-6.9-0.2-14.9,5.1-24c0.1-0.3,0.5-0.3,0.7-0.2c0.3,0.1,0.3,0.5,0.2,0.7
					c-5.1,8.8-6.8,16.6-5,23.2c0.8,3,1.8,5,2.9,7.2c0.6,1.2,1.3,2.6,2.1,4.4c2.4,5.5,1.1,12.8-3.9,21.6
					C488.5,544.7,488.3,544.8,488.1,544.8z"/>
				<path class="st14" d="M473,544.5c-0.1,0-0.2,0-0.3-0.1c-0.3-0.1-0.3-0.5-0.2-0.7c4.8-8.6,6.1-15.5,3.8-20.7
					c-0.6-1.5-1.3-2.7-1.9-3.8c-1.2-2.2-2.3-4.4-3.2-7.9c-1.2-5.1-0.7-10.7,1.5-16.5c0.1-0.3,0.4-0.4,0.7-0.3
					c0.3,0.1,0.4,0.4,0.3,0.7c-2.1,5.6-2.6,10.9-1.4,15.8c0.8,3.4,1.9,5.5,3.1,7.7c0.6,1.2,1.3,2.4,1.9,3.9
					c2.4,5.5,1.1,12.8-3.9,21.6C473.3,544.4,473.2,544.5,473,544.5z"/>
			</g>
			<g id="hand_left">
				<path class="st12" d="M606,647.1c-2,10.1-5.3,23.7-11.2,39.2c-5.9,15.5-35.9,94.2-77.2,94c-18.3-0.1-31.8-15.7-51.2-39.4
					c-0.8-1-1.7-2.1-2.6-3.1c-2.7-3.3-25.3-31.7-33.6-73.8c-0.7-3.3-1.1-6.4-1.5-9.1c-2.3-18,1.7-23.9,4.8-26.7
					c5.2-4.6,13.6-5.7,20.1-3.4c11.9,4.2,14.5,18.7,21.3,34.7c6.6,15.5,19.5,38,31.8,48.3c4.5,3.8,9,5.9,12.9,5.4
					c15-1.8,25.9-40.7,38-83.9c1.4-5,5.5-20.3,16.8-36.9c2.2-3.2,4.2-5.9,5.8-7.8c0.3-0.4,0.7-0.8,1-1.2
					C589.6,604.6,597.8,625.9,606,647.1z"/>
				<linearGradient id="SVGID_10_" gradientUnits="userSpaceOnUse" x1="506.9499" y1="659.1943" x2="580.4823" y2="659.1943">
					<stop  offset="0" style="stop-color:#302E40"/>
					<stop  offset="1" style="stop-color:#9375A1"/>
				</linearGradient>
				<path class="st27" d="M580.5,584.5c-0.1,25.1-2.8,122-38.9,143.3c-28.5,16.8-34-4.8-34.6-20.1c4.5,3.8,9,5.9,12.9,5.4
					c15-1.8,25.9-40.7,38-83.9c1.4-5,5.5-20.3,16.8-36.9C576.9,589.1,578.9,586.4,580.5,584.5z"/>
				<linearGradient id="SVGID_11_" gradientUnits="userSpaceOnUse" x1="428.9085" y1="697.8493" x2="470.2556" y2="697.8493">
					<stop  offset="0" style="stop-color:#FFFFFF"/>
					<stop  offset="1" style="stop-color:#9375A1"/>
				</linearGradient>
				<path class="st28" d="M469.9,733.9c-0.6,3.3-1.7,5.6-3.4,7c-0.8-1-1.7-2.1-2.6-3.1c-2.7-3.3-25.3-31.7-33.6-73.8
					c-0.7-3.3-1.1-6.4-1.5-9.1C444.1,672.1,474,710.4,469.9,733.9z"/>
				<g>
					<path class="st11" d="M504.2,584.2c-1.7,3.4-21.3,10-30.8,13c-0.7,0.1-1.3,0.7-1.1,1.4c0.1,0.7,0.9,1.2,1.6,0.9
						c11.9-1.4,18.5-4.5,22.5-7.3c1.4-1,5.9-4.3,6.8-3.4c0.5,0.5-0.3,2.1-0.5,2.6c-3.1,6.3-18.5,12.7-27,13.2c-0.7,0.3-1,1-0.9,1.4
						c0.2,0.5,17.1-2.7,19.4-4.3c0.6-0.4,3.5-2.6,4.2-2c0.4,0.4-0.5,2-0.6,2.3c-1.3,2.2-3.4,3.3-4,3.6c-4,2-13.7,4.5-15.1,4.8
						c-2,0.5-4.9,1.3-8.4,2.4c-10.9,4.4-14.8,9.8-16.4,14.2c-2.2,6.2,0,11.8-0.4,16.1c-0.2,1.5-0.7,2.9-1.8,4.1
						c-3,3-8.9,3.5-12.3,1.1c-2.6-1.8-3.7-5.3-3.9-9.6c-0.3-7.7,2.5-17.7,5-23.9c0,0,0-0.1,0-0.1c1.7-4.2,4.4-11.1,11.2-17.9
						c4.8-4.8,13.4-10.3,13.3-10.6c6.6-4,12.5-6.3,16.9-7.7c6.9-2.1,17.3-4.2,18.1-2.7c0.1,0.2,0,0.4-0.2,0.7
						c-1,1.8-19.7,7.4-28.7,12.3c-1.1,0.4-1.4,1.7-1,2.3c0.3,0.5,1.2,0.8,2,0.4C482.3,588.1,506,580.7,504.2,584.2z"/>
					<path class="st8" d="M453.5,643.1c-0.2,1.5-0.7,2.9-1.8,4.1c-3,3-8.9,3.5-12.3,1.1c-2.6-1.8-3.7-5.3-3.9-9.6
						C439.8,641.7,446.3,644.7,453.5,643.1z"/>
					<linearGradient id="SVGID_12_" gradientUnits="userSpaceOnUse" x1="440.4106" y1="605.7884" x2="451.6954" y2="605.7884">
						<stop  offset="0" style="stop-color:#E2C8C0"/>
						<stop  offset="1" style="stop-color:#DD8093;stop-opacity:0.4"/>
					</linearGradient>
					<path class="st29" d="M440.4,614.8c0,0,0-0.1,0-0.1c1.7-4.2,4.4-11.1,11.2-17.9C452.4,608.5,445.4,613.1,440.4,614.8z"/>
				</g>
			</g>
			<path class="st14" d="M623.6,665.6c-0.4,0-0.8-0.2-1.1-0.5l-10.5-10.4c-0.6-0.6-0.6-1.6,0-2.2c0.6-0.6,1.6-0.6,2.2,0l10.5,10.4
				c0.6,0.6,0.6,1.6,0,2.2C624.4,665.4,624,665.6,623.6,665.6z"/>
			<path class="st14" d="M535.8,711.7c-0.2,0.1-0.4,0.1-0.6,0.1c-0.6,0-1.2-0.3-1.4-1l-2.8-6.3c0.7-1,1.4-2.1,2-3.2l3.6,8.3
				C537,710.4,536.7,711.4,535.8,711.7z"/>
			<path class="st14" d="M509.9,769.3c-0.6,0-1.2-0.4-1.5-0.9l-5.9-13.5c-0.3-0.8,0-1.7,0.8-2.1c0.8-0.3,1.7,0,2.1,0.8l5.9,13.5
				c0.3,0.8,0,1.7-0.8,2.1C510.4,769.3,510.1,769.3,509.9,769.3z"/>
			<path class="st14" d="M574.9,699.9c-0.4,0-0.8-0.2-1.1-0.5l-10.5-10.4c-0.6-0.6-0.6-1.6,0-2.2c0.6-0.6,1.6-0.6,2.2,0l10.5,10.4
				c0.6,0.6,0.6,1.6,0,2.2C575.7,699.8,575.3,699.9,574.9,699.9z"/>
			<path class="st14" d="M465.8,665.5c-0.4,0-0.8-0.2-1.1-0.5l-10.5-10.4c-0.6-0.6-0.6-1.6,0-2.2c0.6-0.6,1.6-0.6,2.2,0l10.5,10.4
				c0.6,0.6,0.6,1.6,0,2.2C466.7,665.4,466.2,665.5,465.8,665.5z"/>
			<path class="st14" d="M788.3,687.5c-0.4,0-0.8-0.2-1.1-0.5l-10.5-10.4c-0.6-0.6-0.6-1.6,0-2.2c0.6-0.6,1.6-0.6,2.2,0l10.5,10.4
				c0.6,0.6,0.6,1.6,0,2.2C789.1,687.4,788.7,687.5,788.3,687.5z"/>
			<path class="st14" d="M603.3,601.9c0,0-0.1,0-0.1,0l-14.7-1.3c-0.9-0.1-1.5-0.8-1.4-1.7c0.1-0.9,0.8-1.5,1.7-1.4l14.7,1.3
				c0.9,0.1,1.5,0.8,1.4,1.7C604.8,601.3,604.1,601.9,603.3,601.9z"/>
			<path class="st14" d="M630.9,756.5c0,0-0.1,0-0.1,0l-14.7-1.3c-0.9-0.1-1.5-0.8-1.4-1.7c0.1-0.9,0.8-1.5,1.7-1.4l14.7,1.3
				c0.9,0.1,1.5,0.8,1.4,1.7C632.4,755.8,631.7,756.5,630.9,756.5z"/>
			<path class="st14" d="M450.4,684c-0.3,0-0.6-0.1-0.9-0.3l-11.9-8.7c-0.7-0.5-0.9-1.5-0.3-2.2c0.5-0.7,1.5-0.9,2.2-0.3l11.9,8.7
				c0.7,0.5,0.9,1.5,0.3,2.2C451.4,683.8,450.9,684,450.4,684z"/>
			<path class="st14" d="M471.7,726.1c-0.3,0-0.6-0.1-0.9-0.3l-11.9-8.7c-0.7-0.5-0.9-1.5-0.3-2.2c0.5-0.7,1.5-0.9,2.2-0.3l11.9,8.7
				c0.7,0.5,0.9,1.5,0.3,2.2C472.7,725.9,472.2,726.1,471.7,726.1z"/>
			<path class="st14" d="M759.2,592c-0.3,0-0.6-0.1-0.9-0.3l-11.9-8.7c-0.7-0.5-0.9-1.5-0.3-2.2c0.5-0.7,1.5-0.9,2.2-0.3l11.9,8.7
				c0.7,0.5,0.9,1.5,0.3,2.2C760.1,591.8,759.6,592,759.2,592z"/>
			<path class="st14" d="M753.2,651.3c-0.3,0-0.6-0.1-0.9-0.3l-11.9-8.7c-0.7-0.5-0.9-1.5-0.3-2.2c0.5-0.7,1.5-0.9,2.2-0.3l11.9,8.7
				c0.7,0.5,0.9,1.5,0.3,2.2C754.2,651.1,753.7,651.3,753.2,651.3z"/>
			<path class="st14" d="M585,653.7c-0.6,0-1.2-0.4-1.5-1l-5.2-13.8c-0.3-0.8,0.1-1.7,0.9-2c0.8-0.3,1.7,0.1,2,0.9l5.2,13.8
				c0.3,0.8-0.1,1.7-0.9,2C585.3,653.7,585.1,653.7,585,653.7z"/>
			<path class="st14" d="M485.8,680.3l-2.7,7.9c-0.2,0.7-0.8,1.1-1.5,1.1c-0.2,0-0.3,0-0.5-0.1c-0.8-0.3-1.3-1.2-1-2l3.6-10.6
				C484.3,677.9,485,679.1,485.8,680.3z"/>
			<path class="st14" d="M635,633.3c-0.6,0-1.1-0.3-1.4-0.9c-0.4-0.8-0.1-1.7,0.7-2.1l13.1-6.8c0.8-0.4,1.7-0.1,2.1,0.7
				c0.4,0.8,0.1,1.7-0.7,2.1l-13.1,6.8C635.5,633.3,635.3,633.3,635,633.3z"/>
			<path class="st14" d="M773.5,622.1l-8.1,4.2c-0.2,0.1-0.5,0.2-0.7,0.2c-0.6,0-1.1-0.3-1.4-0.8c-0.4-0.8-0.1-1.7,0.7-2.1l8.6-4.5
				C772.9,620,773.2,621.1,773.5,622.1z"/>
			<path class="st14" d="M682,584.3c-0.6,0-1.1-0.3-1.4-0.8c-0.4-0.8-0.1-1.7,0.7-2.1l13.1-6.8c0.8-0.4,1.7-0.1,2.1,0.7
				c0.4,0.8,0.1,1.7-0.7,2.1l-13.1,6.8C682.5,584.2,682.2,584.3,682,584.3z"/>
			<path class="st14" d="M592.2,718.1l-12,6.2c-0.3-1-0.5-2-0.8-2.9c-0.6,1.2-1.2,2.3-1.8,3.5c-0.3-0.2-0.5-0.4-0.6-0.7
				c-0.4-0.8-0.1-1.7,0.7-2.1l13.1-6.8c0.8-0.4,1.7-0.1,2.1,0.7C593.3,716.8,593,717.7,592.2,718.1z"/>
			<path class="st14" d="M493.9,725.2c-0.6,0-1.1-0.3-1.4-0.9c-0.4-0.8-0.1-1.7,0.7-2.1l13.1-6.8c0.8-0.4,1.7-0.1,2.1,0.7
				c0.4,0.8,0.1,1.7-0.7,2.1l-13.1,6.8C494.4,725.1,494.2,725.2,493.9,725.2z"/>
			<path class="st14" d="M535.5,744.9c-0.6,0-1.2-0.4-1.5-1c-0.3-0.8,0.1-1.7,0.9-2l13.8-5.1c0.8-0.3,1.7,0.1,2,0.9
				c0.3,0.8-0.1,1.7-0.9,2l-13.8,5.1C535.9,744.9,535.7,744.9,535.5,744.9z"/>
			<path class="st14" d="M668.6,661.5c0,0-0.1,0-0.1,0l-14.7-1.1c-0.9-0.1-1.5-0.8-1.5-1.7c0.1-0.9,0.8-1.5,1.7-1.5l14.7,1.1
				c0.9,0.1,1.5,0.8,1.5,1.7C670.1,660.9,669.4,661.5,668.6,661.5z"/>
			<path class="st14" d="M725.7,671.3c0,0-0.1,0-0.1,0l-14.7-1.1c-0.9-0.1-1.5-0.8-1.5-1.7c0.1-0.9,0.8-1.5,1.7-1.5l14.7,1.1
				c0.9,0.1,1.5,0.8,1.5,1.7C727.2,670.7,726.5,671.3,725.7,671.3z"/>
			<path class="st14" d="M730.8,602.5c0,0-0.1,0-0.1,0l-14.7-1.1c-0.9-0.1-1.5-0.8-1.5-1.7c0.1-0.9,0.8-1.5,1.7-1.5l14.7,1.1
				c0.9,0.1,1.5,0.8,1.5,1.7C732.3,601.9,731.6,602.5,730.8,602.5z"/>
			<path class="st14" d="M725,560.5c-0.2,0.7-0.8,1.2-1.5,1.2c0,0-0.1,0-0.1,0l-14.7-1.1c-0.1,0-0.2,0-0.4-0.1
				C712.3,559.7,718.2,559.1,725,560.5z"/>
			<path class="st14" d="M646.6,725.2c0,0-0.1,0-0.1,0l-14.7-1.1c-0.9-0.1-1.5-0.8-1.5-1.7c0.1-0.9,0.8-1.5,1.7-1.5l14.7,1.1
				c0.9,0.1,1.5,0.8,1.5,1.7C648.1,724.5,647.4,725.2,646.6,725.2z"/>
			<path class="st14" d="M746.3,724.6c0,0-0.1,0-0.1,0l-14.7-1.1c-0.9-0.1-1.5-0.8-1.5-1.7c0.1-0.9,0.8-1.5,1.7-1.5l14.7,1.1
				c0.9,0.1,1.5,0.8,1.5,1.7C747.8,724,747.1,724.6,746.3,724.6z"/>
			<path class="st14" d="M681.6,752.2c-0.6,0-1.1-0.3-1.4-0.8l-7-13c-0.4-0.8-0.1-1.7,0.6-2.1c0.8-0.4,1.7-0.1,2.1,0.6l7,13
				c0.4,0.8,0.1,1.7-0.6,2.1C682.2,752.1,681.9,752.2,681.6,752.2z"/>
			<path class="st14" d="M777.7,742.4c-0.7,0-1.4-0.5-1.5-1.2l-3.2-14.4c-0.2-0.9,0.4-1.7,1.2-1.9c0.9-0.2,1.7,0.4,1.9,1.2l3.2,14.4
				c0.2,0.9-0.4,1.7-1.2,1.9C778,742.4,777.9,742.4,777.7,742.4z"/>
			<path class="st14" d="M754.8,699.4c-0.7,0-1.4-0.5-1.5-1.2l-3.2-14.4c-0.2-0.9,0.4-1.7,1.2-1.9c0.9-0.2,1.7,0.4,1.9,1.2l3.2,14.4
				c0.2,0.9-0.4,1.7-1.2,1.9C755,699.4,754.9,699.4,754.8,699.4z"/>
			<path class="st14" d="M695.4,699.4c-0.4,0-0.8-0.2-1.2-0.5l-10.1-10.8c-0.6-0.6-0.6-1.6,0.1-2.2c0.6-0.6,1.6-0.6,2.2,0.1
				l10.1,10.8c0.6,0.6,0.6,1.6-0.1,2.2C696.2,699.2,695.8,699.4,695.4,699.4z"/>
			<path class="st14" d="M702.2,645.4c-0.2,0-0.4,0-0.6-0.1l-13.7-5.4c-0.8-0.3-1.2-1.2-0.9-2.1c0.3-0.8,1.2-1.2,2.1-0.9l13.7,5.4
				c0.8,0.3,1.2,1.2,0.9,2.1C703.5,645,702.9,645.4,702.2,645.4z"/>
			<path class="st14" d="M684.5,615c-0.3,0-0.5-0.1-0.8-0.2l-12.8-7.4c-0.8-0.4-1-1.4-0.6-2.2c0.4-0.8,1.4-1,2.2-0.6l12.8,7.4
				c0.8,0.4,1,1.4,0.6,2.2C685.6,614.7,685,615,684.5,615z"/>
			<path class="st30" d="M773.5,622.1c-0.3-1-0.6-2-1-3.1v0c-1-3.3-2.1-6.6-3.2-9.9c-3.5-10.8-10.3-29.8-28-41.4
				c-3.3-2.2-6.3-3.7-8.2-4.5c0,0,0,0-0.1,0c-0.2-0.1-3.1-1.4-6.2-2.2c-0.7-0.2-1.3-0.3-1.9-0.4c-6.8-1.4-12.6-0.8-16.7,0.1
				c-1.8,0.4-3.2,0.8-4.3,1.2c-5.5,4.2-13.1,10.5-21.5,18.9l0,0c-0.7,0.7-1.3,1.3-2,2c-0.9,0.9-1.8,1.9-2.8,2.9
				c-20.3,21.5-28.7,39-35.8,36.9c-4.3-1.3-3.8-8.4-7.8-19c-6-16-17.2-26.6-25.7-33c-4.5-0.6-8,0-10.1,0.6c-0.8,0.2-1.5,0.4-2.3,0.7
				c-8.2,3-12.9,9.4-14.5,11.6c0,0,0,0,0,0c-1.6,2-4,5-6.7,8.9c-11.2,16.6-15.4,31.9-16.8,36.9c-8.3,29.6-16,57.1-24.9,72.1
				c-0.7,1.1-1.4,2.2-2,3.2c-3.5,5-7.2,8.1-11.1,8.6c-10.5,1.2-23.9-15.4-34.1-32.8c-0.7-1.2-1.4-2.4-2.1-3.7
				c-3.4-6-6.3-12-8.5-17.2c-6.8-16-9.3-30.5-21.3-34.7c-6.6-2.3-14.9-1.3-20.1,3.4c-3.7,3.3-8.3,10.6-3.4,35.8
				c8.3,42.2,30.9,70.5,33.6,73.9c20.8,25.5,34.6,42.4,53.7,42.5c25.2,0.1,46.1-29,60-55.3c0.6-1.2,1.2-2.3,1.8-3.5
				c0.3,1,0.5,2,0.8,2.9c7,25.7,14,52.9,13.5,62.2c0,0.1,0,0.3,0,0.4c9.1,0.5,18.1,1,27.2,1.4c15.8,0.8,24,1.2,31.7,1.6
				c11.1,0.5,26.8,1.1,46.3,1.5c4.8-15.1,9.4-30.8,13.9-47c19.1,10.5,53.8,24.8,73.4,10.1C808.8,737.6,795.4,690.7,773.5,622.1z
				 M733.2,660.6c2.6,4.3,5.4,10,8.2,17.9c4.4,12.7,8.1,23,4.5,25.7c-2.9,2.2-7.6-2.4-21-6.7C727.9,684.9,730.7,672.6,733.2,660.6z"
				/>
		</g>
		<path id="line" class="st31" d="M686.5,675.2c-0.2,0-0.4-0.1-0.6-0.2c-0.5-0.3-0.6-1-0.3-1.5l222.7-321.2c0.3-0.5,1-0.6,1.5-0.3
			c0.5,0.3,0.6,1,0.3,1.5L687.4,674.8C687.2,675.1,686.9,675.2,686.5,675.2z"/>
		<g id="message">
			<path class="st14" d="M719.5,423c-12.3-26.4-2.4-63.9,17.5-85.2c27.4-29.4,72.4-26.4,93.9-25c75.7,5,83.2,51.8,157.6,56
				c13.6,0.8,36.1,0.5,47.4,15.5c9.6,12.8,6.9,31.2,4.3,38.8C1018.6,487,758.1,505.8,719.5,423z"/>
			<path class="st32" d="M937.7,395.3h-181c-2.3,0-4.2-1.9-4.2-4.2s1.9-4.2,4.2-4.2h181c2.3,0,4.2,1.9,4.2,4.2
				S940,395.3,937.7,395.3z"/>
			<path class="st32" d="M903.6,419.4h-147c-2.3,0-4.2-1.9-4.2-4.2c0-2.3,1.9-4.2,4.2-4.2h147c2.3,0,4.2,1.9,4.2,4.2
				C907.9,417.5,906,419.4,903.6,419.4z"/>
			<path class="st33" d="M976.1,407.4l-15.4,19l-3.1,3.7l-4,4.9c-0.5,0.6-1.2,0.9-1.9,0.9c-0.5,0-1-0.2-1.5-0.5l-18.6-14.5
				c-1.1-0.8-1.2-2.3-0.4-3.4c0.8-1.1,2.3-1.2,3.4-0.4l16.7,13l2.4-2.9l3.1-3.7l15.5-19c0.8-1,2.4-1.2,3.4-0.4
				C976.8,404.8,976.9,406.4,976.1,407.4z"/>
			<path class="st33" d="M990.1,407.4l-22.4,27.6c-0.5,0.6-1.2,0.9-1.9,0.9c-0.5,0-1-0.2-1.5-0.5l-6.7-5.2l-3.8-3l3.1-3.7l3.8,3
				l4.8,3.7l20.9-25.7c0.8-1,2.4-1.2,3.4-0.4C990.8,404.8,990.9,406.4,990.1,407.4z"/>
		</g>
		<g id="table">
			<g>
				<path class="st6" d="M974.7,884.5c-0.1,0.3-0.3,0.5-0.4,0.8c-0.1,0.3-0.3,0.5-0.4,0.8c-0.6,1.1-1.2,2-1.9,2.9
					c-0.2,0.2-0.3,0.4-0.5,0.6c-0.2,0.2-0.3,0.4-0.5,0.6c-9.8,11.3-27.1,8.4-48.7,22.8c-0.4,0.2-0.7,0.5-1.1,0.7
					c-0.4,0.3-0.8,0.5-1.1,0.8c-1.7,1.2-3.3,2.5-5,3.9c-5,3.8-19.9,15.2-25.7,32.4c-0.2,0.5-0.3,0.9-0.5,1.4
					c-2.1,7-4,16.2-11.6,27.9c-2.2,3.4-5.2,6.8-9.6,10.6c-32,27.6-69.5,12.7-164.8,37.7c-41.3,10.8-61.9,16.3-82.8,29.3
					c-31,19.3-43.8,41.1-89.7,66.5c-9.3,5.2-24.5,12.9-44.1,12.4c-16.3-0.5-28.6-6.4-35.5-10c-32.6-17.1-57.3-42.2-83.8-67.8
					c-11.1-10.7-22.5-21.5-34.9-31.7c-18.7-15.5-36-29.9-62.8-42.5c-72.8-34.3-156.9-28-161.9-52.4c-0.7-3.6-2.6-21.9-2.6-21.9
					c0.2-2.1,0.6-4.1,1-5.8c0.4-1.7,0.9-3.3,1.3-4.6c0,0,0,0,0,0c0.1-0.3,0.2-0.5,0.3-0.8c10.9-6.1,28.4-14.8,51.2-21.7
					c119.7-36,192.1,38.9,297.5,71.5h0c27.4,8.5,57,14.1,90.2,14.2c1.8,0,3.5,0,5.3,0c70.1-1,130.4-26.5,185.3-53.8
					c77.9-38.8,145.1-81.2,214.5-62.3c3.9,1.1,7.9,2.3,11.9,3.8c4,1.5,7.9,3.2,11.9,5.1c0,0,0,0,0,0c0,0,0,0.1,0.1,0.1l0.6,1.9
					c0,0.1,0.1,0.2,0.1,0.4c0.1,0.5,0.3,1.1,0.4,1.6c0,0,0,0.1,0,0.1C978.7,870.6,977.6,878.5,974.7,884.5z"/>
				<path class="st26" d="M974.7,884.5c-0.1,0.3-0.3,0.5-0.4,0.8c-0.1,0.3-0.3,0.5-0.4,0.8c-0.6,1.1-1.2,2-1.9,2.9
					c-0.2,0.2-0.3,0.4-0.5,0.6c-0.2,0.2-0.3,0.4-0.5,0.6c-9.5,10.5-26.6,7.8-48.7,22.8c-0.4,0.2-0.7,0.5-1.1,0.7
					c-0.4,0.3-0.8,0.5-1.1,0.8c-1.7,1.2-3.3,2.5-5,3.9c-5,3.8-19.9,15.2-25.7,32.4c-0.2,0.5-0.3,0.9-0.5,1.4
					c-2.1,7-4,16.2-11.6,27.9c-2.2,3.4-5.2,6.8-9.6,10.6c-32,27.6-69.5,12.7-164.8,37.7c-41.3,10.8-61.9,16.3-82.8,29.3
					c-31,19.3-43.8,41.1-89.7,66.5c-9.3,5.2-24.5,12.9-44.1,12.4c-16.3-0.5-28.6-6.4-35.5-10c-32.6-17.1-57.3-42.2-83.8-67.8v-42.2
					L551.7,963l185.3-53.8l214.5-62.3c3.9,1.1,7.9,2.3,11.9,3.8c7.5,2.8,10.4,2.5,11.9,5.1c0,0,0,0,0,0c0,0,0,0.1,0.1,0.1l0.6,1.9
					c0,0.1,0.1,0.2,0.1,0.4c0.1,0.5,0.3,1.1,0.4,1.6c0,0,0,0.1,0,0.1C978.7,870.6,977.6,878.5,974.7,884.5z"/>
			</g>
			<path class="st5" d="M976.5,863.9c-2,14.4-26.5,16.6-52.2,30.2c-8.7,4.6-17.5,10.4-25.6,18.5c-6.4,6.3-10.7,11.9-13.9,17.2
				c-0.1,0.1-0.1,0.1-0.1,0.1c-0.2,0.3-0.4,0.6-0.6,0.9c-0.2,0.3-0.4,0.6-0.5,0.9c-0.5,0.9-1,1.8-1.5,2.7c-0.2,0.3-0.3,0.6-0.5,0.9
				c-0.9,1.7-1.6,3.3-2.3,4.9c-0.2,0.4-0.3,0.7-0.5,1.1c-0.9,2.1-1.7,4.2-2.6,6.2c-0.2,0.4-0.3,0.8-0.5,1.2l0,0
				c-0.3,0.8-0.7,1.6-1,2.4c0,0,0,0,0,0c-0.3,0.8-0.7,1.6-1.1,2.4c-0.1,0.3-0.3,0.6-0.4,0.9c-0.7,1.4-1.4,2.7-2.1,4.1
				c-0.3,0.5-0.6,1.1-0.9,1.6c0,0-0.1,0.1-0.1,0.1c-0.2,0.3-0.3,0.5-0.5,0.8c-0.2,0.4-0.5,0.7-0.7,1.1c-0.2,0.3-0.4,0.7-0.7,1
				c-0.7,1.1-1.5,2.1-2.3,3.2c-0.4,0.5-0.8,1-1.3,1.6c-0.2,0.3-0.4,0.5-0.7,0.8c-0.3,0.3-0.6,0.7-0.9,1
				c-31.4,35.2-87.5,30.7-156.1,44.1c-143.3,28-140.3,95-226.1,92.1c0,0-16.5-0.5-31.9-5c-34.3-10-51.1-49.5-81.8-84.2
				c-4.6-5.2-9.4-10.2-14.7-15.1c-24.8-22.7-48.8-31.7-81.3-43.8c-84.6-31.5-156.2-18.8-163.9-47.4c-0.3-1-1-4.3,0.1-10.5
				c11.5-61.4,201.2-164,365.9-144.6c10.1,1.2,20.8,2.9,32.1,4.9c15.6,2.8,32.5,6.1,51.1,9.4c11.1,1.9,22.8,3.8,35.3,5.6
				c1,0.1,1.9,0.3,2.9,0.4c5.2,0.7,10.6,1.4,16.1,2.1c1.1,0.1,2.2,0.3,3.2,0.4c2.1,0.2,4.3,0.5,6.4,0.7c1.4,0.1,2.8,0.3,4.2,0.4
				c0.1,0,0.3,0,0.4,0c2.1,0.2,4.2,0.4,6.4,0.6c1.1,0.1,2.1,0.2,3.2,0.3c3.1,0.3,6.2,0.5,9.4,0.8c1.7,0.1,3.3,0.3,5,0.4l2.3,0.2
				c0.8,0.1,1.5,0.1,2.3,0.2c2.2,0.1,4.4,0.3,6.6,0.4c1.4,0.1,2.9,0.2,4.3,0.2c1.4,0.1,2.8,0.1,4.1,0.2c2,0.1,3.9,0.2,5.9,0.3
				c20.4,0.8,35.4,0.5,48.6,0.6c120.6,0.6,238.9,34.3,252.2,72.4C976,858.3,976.9,860.7,976.5,863.9z"/>
			<g>
				<path class="st6" d="M189.3,835.5c7.8,28.5,13.2,67,1.5,102c-0.7-0.1-1.4-0.2-2.1-0.3c11.7-34.6,6.3-72.8-1.4-101.1
					c-1.2-4.5-2.6-9-3.9-13.2c0.6-0.4,1.2-0.7,1.9-1.1C186.6,826.1,188,830.7,189.3,835.5z"/>
				<path class="st6" d="M288.7,964.4c-0.7-0.3-1.4-0.5-2.1-0.8c-0.5-31.2-8.3-65.4-16-98.7c-6.4-27.9-12.6-55-13.5-77.7
					c0.7-0.3,1.4-0.5,2.1-0.8c0.7,22.7,7,49.9,13.5,78.1C280.4,898.1,288.3,932.7,288.7,964.4z"/>
				<path class="st6" d="M356.4,1005.3c-0.6-0.6-1.3-1.2-2-1.9c5.4-60.5-3.8-114.2-11.3-145.4c-8.4-34.9-20.6-66.5-33.4-88.2
					c0.7-0.2,1.5-0.4,2.2-0.6c12.7,21.8,24.7,53,33.2,88.3C352.7,889.2,362.1,943.8,356.4,1005.3z"/>
				<path class="st6" d="M381.3,1034.1c-0.7-0.9-1.4-1.9-2.2-2.8c-0.4-41.2-5.8-96.5-21.6-168.6c-9.1-41.2-19.1-76.5-25.7-98.3
					c0.7-0.2,1.4-0.3,2.1-0.5c6.7,21.9,16.7,57.2,25.7,98.3C370.2,910.4,381,974.1,381.3,1034.1z"/>
				<path class="st6" d="M416.9,867.6c-8.7,68.3-10.3,137.8-4.9,206.9c-0.8-0.9-1.5-1.8-2.3-2.7c-5.2-68.3-3.4-136.9,5.1-204.4
					c4.9-38.3,12-76.7,21.3-114.5c0.7,0,1.5,0,2.2,0C428.9,790.7,421.8,829.2,416.9,867.6z"/>
				<path class="st6" d="M149,931.2c-0.8-0.1-1.5-0.2-2.2-0.4l-13.2-71.1c0.6-0.6,1.2-1.1,1.8-1.7L149,931.2z"/>
				<path class="st6" d="M480.7,933.6c0.9,85.5,5.4,139.2,11.3,172.2c-0.7,0-1.4,0.1-2.1,0.1c-6.6-37.2-10.4-94.8-11.3-172.3
					c-0.8-69.5,1.1-138.7,2.5-177.4c0.7,0.1,1.4,0.2,2.1,0.3C481.8,795.3,479.9,864.3,480.7,933.6z"/>
				<path class="st6" d="M556.6,1082.4c-0.8,0.5-1.5,1-2.3,1.5c3.1-34.6-9.2-69.5-22-105.8c-17.1-48.4-34.7-98.5-21.7-155.9
					c5.3-23.3,10.3-42.5,14.9-58.4c0.7,0.1,1.4,0.3,2.1,0.4c-4.6,15.9-9.6,35.1-15,58.5c-12.9,56.8,4.6,106.6,21.6,154.7
					C547,1013.4,559.2,1048.1,556.6,1082.4z"/>
				<path class="st6" d="M602.7,868c18.4,77.9,40.6,131.2,64.5,155.4c-0.8,0.2-1.5,0.5-2.3,0.7c-24.1-24.8-45.7-77.1-64.3-155.6
					c-8.6-36.2-14.7-70.9-18.5-94.8c0.7,0.1,1.4,0.2,2.2,0.3C588.1,797.8,594.2,832.2,602.7,868z"/>
				<path class="st6" d="M727.6,1010.1c-0.7,0.1-1.5,0.2-2.2,0.3c-4.9-12.2-17-27.6-30.3-44.6c-31.5-40.1-70.7-90.1-52.2-139
					c6.2-16.2,13.7-31.2,21.9-44.6c0.8,0,1.6,0.1,2.3,0.1c-8.6,13.9-16.2,29.3-22.3,45.2c-18.1,47.8,20.7,97.2,51.8,136.9
					C710.8,982.4,722.8,997.7,727.6,1010.1z"/>
				<path class="st6" d="M735.9,967.2c11.5,14.2,22.4,27.2,31.2,37.5c-0.8,0.1-1.7,0.2-2.5,0.3c-30.5-35.5-84.3-101.4-104.6-146.6
					c-7.3-16.3-6.6-28.5,2.3-38.6c7.8-8.8,21-14.7,34.9-21c10.3-4.6,20.8-9.3,29.6-15.4c1.2,0,2.3,0,3.5,0
					c-9.7,7.1-21.3,12.3-32.2,17.3c-13.7,6.2-26.6,12-34.2,20.5c-8.3,9.4-8.9,20.9-2,36.3C677,890.9,710.5,935.6,735.9,967.2z"/>
				<path class="st6" d="M804.5,998.7c-1,0.2-1.9,0.4-2.9,0.6c-6.5-4.5-13.6-9.9-20.3-16.2c-30.1-28.2-40.9-61.2-31.1-95.4
					c11.8-41.8,26.2-76.7,37.4-101c0.7,0.1,1.5,0.2,2.2,0.2c-11.2,24.2-25.7,59.3-37.6,101.3c-9.6,33.9,0.7,65.3,30.5,93.3
					C790.1,988.3,797.6,994.1,804.5,998.7z"/>
				<path class="st6" d="M846.8,795.3L873,954.7c-0.5,1-1,2.1-1.6,3.1l-26.8-162.9C845.3,795.1,846,795.2,846.8,795.3z"/>
				<path class="st6" d="M899.5,911.6c-0.3,0.3-0.6,0.6-0.9,0.8c-0.4,0.4-0.7,0.7-1.1,1.1c-4.9-32.4-9.4-74.3-6.9-107.7
					c0.7,0.2,1.4,0.4,2.2,0.6C890.5,838.9,894.8,879.7,899.5,911.6z"/>
				<path class="st6" d="M914.1,899.9c-0.6,0.4-1.2,0.8-1.7,1.2c-10-21.8-10-60.4-9-91.3c0.7,0.2,1.4,0.5,2.1,0.7
					C904.5,841,904.6,878.9,914.1,899.9z"/>
				<path class="st6" d="M964,877.1c-0.6,0.3-1.3,0.6-1.9,0.9c-2.7-3.8-6-7.7-9.5-11.8c-11.1-13.2-24.3-28.9-25.3-47.5
					c0.7,0.3,1.4,0.6,2.1,0.9c1.3,17.3,13.7,31.9,24.8,45.2C957.7,869.1,961.1,873.2,964,877.1z"/>
			</g>
			<path class="st30" d="M976.5,863.8c-0.8,5.9-5.5,9.8-12.5,13.2c-0.6,0.3-1.3,0.6-1.9,0.9c-9.9,4.5-23.7,8.5-37.8,16
				c-3.4,1.8-6.7,3.7-10.1,5.9c-0.6,0.4-1.2,0.8-1.7,1.2c-4.4,3-8.8,6.5-12.9,10.5c-0.3,0.3-0.6,0.6-0.9,0.8
				c-0.4,0.4-0.7,0.7-1.1,1.1c-5.8,5.9-9.8,11.2-12.8,16.1c0,0.1-0.1,0.1-0.1,0.1c-0.2,0.3-0.4,0.6-0.6,0.9
				c-0.2,0.3-0.3,0.6-0.5,0.9c-0.5,0.9-1,1.8-1.5,2.7c-0.1,0.3-0.3,0.6-0.5,0.9c-0.9,1.7-1.6,3.3-2.3,4.9c-0.2,0.4-0.3,0.7-0.5,1.1
				c-0.9,2.1-1.8,4.2-2.6,6.2c-0.2,0.4-0.3,0.8-0.5,1.2l0,0c-0.3,0.8-0.7,1.6-1,2.4c0,0,0,0,0,0c-0.3,0.8-0.7,1.6-1.1,2.4
				c-0.1,0.3-0.3,0.6-0.4,0.9c-0.1,0.1-0.1,0.3-0.2,0.4c-0.5,1-1,2.1-1.6,3.1c-0.1,0.2-0.2,0.4-0.3,0.6c-0.3,0.5-0.6,1.1-0.9,1.6
				c0,0-0.1,0.1-0.1,0.1c-0.2,0.2-0.3,0.5-0.5,0.8c-0.2,0.4-0.5,0.8-0.7,1.1c-0.2,0.3-0.4,0.7-0.7,1c-0.7,1-1.5,2.1-2.3,3.2
				c-0.4,0.5-0.8,1-1.3,1.6c-0.2,0.3-0.5,0.5-0.7,0.8c-0.3,0.3-0.6,0.7-0.9,1c-14.5,16.3-34.4,24.1-58.4,29.1
				c-1,0.2-1.9,0.4-2.9,0.6c-10.8,2.1-22.3,3.7-34.6,5.3c-0.8,0.1-1.7,0.2-2.5,0.3c-11.8,1.5-24.1,3.1-37,5.1
				c-0.7,0.1-1.5,0.2-2.2,0.3c-6.1,1-12.3,2.1-18.6,3.3c-14.7,2.9-27.8,6.1-39.7,9.7c-0.8,0.2-1.5,0.5-2.3,0.7
				c-55.8,17.2-82.8,40.8-108.3,58.3c-0.8,0.5-1.5,1-2.3,1.5c-17.9,12-35.5,20.7-62.3,21.9c-0.7,0-1.4,0.1-2.1,0.1
				c-2.9,0.1-5.9,0.1-9.1,0c0,0-16.6-0.5-31.9-5c-14.7-4.3-26.2-13.9-36.9-26.3c-0.8-0.9-1.5-1.8-2.3-2.7
				c-9.3-11.2-18.2-24.4-28.3-37.7c-0.7-0.9-1.4-1.9-2.2-2.8c-3.8-4.9-7.8-9.9-12.1-14.7c-3.4-3.8-6.9-7.6-10.7-11.3
				c-0.6-0.6-1.3-1.2-2-1.9c-0.7-0.7-1.4-1.3-2.1-1.9c-20.1-18.4-39.7-27.8-63.7-37.1c-0.7-0.3-1.4-0.5-2.1-0.8
				c-5-1.9-10.1-3.8-15.5-5.8c-28.9-10.8-56.4-16.4-80.2-20.2c-0.7-0.1-1.4-0.2-2.1-0.3c-14.8-2.3-28.2-4-39.7-5.9
				c-0.8-0.1-1.5-0.2-2.2-0.4c-22-3.8-36.4-8.5-39.7-20.5c-0.3-1-1-4.3,0.1-10.5c2.3-12.2,11.6-26,26.3-40.1
				c0.6-0.6,1.2-1.1,1.8-1.7c12.6-11.8,28.9-23.7,48-35.2c0.6-0.4,1.2-0.7,1.9-1.1c21.1-12.5,45.5-24.3,72-34.5
				c0.7-0.3,1.4-0.5,2.1-0.8c16.2-6.2,33.1-11.7,50.5-16.4c0.7-0.2,1.5-0.4,2.2-0.6c6.6-1.8,13.2-3.4,19.9-4.9
				c0.7-0.2,1.4-0.3,2.1-0.5c33.3-7.4,68-11.5,102.2-11.1c0.7,0,1.5,0,2.2,0c11.7,0.2,23.4,1,34.9,2.3c2.6,0.3,5.2,0.6,7.9,1
				c0.7,0.1,1.4,0.2,2.1,0.3c7.1,1,14.5,2.3,22.1,3.6c6.5,1.2,13.3,2.4,20.3,3.8c0.7,0.1,1.4,0.3,2.1,0.4c9.1,1.7,18.6,3.5,28.7,5.2
				c8.2,1.4,16.8,2.9,25.8,4.2c0.7,0.1,1.4,0.2,2.2,0.3c2.4,0.4,4.9,0.7,7.3,1.1c1,0.1,1.9,0.3,2.9,0.4c5.2,0.7,10.6,1.4,16.1,2.1
				c1.1,0.1,2.2,0.2,3.2,0.4c2.1,0.2,4.2,0.5,6.4,0.7c1.4,0.2,2.8,0.3,4.2,0.4c0.1,0,0.3,0,0.4,0c2.1,0.2,4.2,0.4,6.4,0.6
				c1.1,0.1,2.1,0.2,3.2,0.3c3.1,0.3,6.2,0.5,9.4,0.8c1.7,0.1,3.3,0.3,5,0.4l2.3,0.2c0.8,0.1,1.5,0.1,2.3,0.2
				c2.2,0.2,4.4,0.3,6.6,0.4c1.4,0.1,2.8,0.2,4.2,0.2c0.2,0,0.4,0,0.6,0c0.8,0,1.6,0.1,2.3,0.1c0.4,0,0.8,0,1.2,0.1
				c2,0.1,3.9,0.2,5.9,0.3c20.4,0.8,35.4,0.5,48.6,0.6c1.3,0,2.6,0,3.9,0c1.2,0,2.3,0,3.5,0c19.4,0.3,38.6,1.5,57.4,3.3
				c0.7,0.1,1.5,0.2,2.2,0.2c18.9,2,37.3,4.7,54.7,8c0.7,0.1,1.5,0.3,2.2,0.4c15.6,3,30.3,6.6,43.9,10.5c0.7,0.2,1.4,0.4,2.2,0.6
				c3.6,1.1,7.2,2.2,10.7,3.3c0.7,0.2,1.4,0.5,2.1,0.7c7.7,2.6,15,5.3,21.7,8.2c0.7,0.3,1.4,0.6,2.1,0.9
				c24.7,10.8,41.3,23.2,45.9,36.2C976,858.3,976.9,860.7,976.5,863.8z"/>
			<path class="st30" d="M976.5,863.8c-2,14.4-26.5,16.6-52.2,30.2c-8.7,4.6-17.5,10.4-25.6,18.5c-6.4,6.3-10.7,11.9-13.9,17.2
				c-0.1,0.1-0.1,0.1-0.1,0.1c-0.2,0.3-0.4,0.6-0.6,0.9c-0.2,0.3-0.4,0.6-0.5,0.9c-0.5,0.9-1,1.8-1.5,2.7c-0.2,0.3-0.3,0.6-0.5,0.9
				c-0.9,1.7-1.6,3.3-2.3,4.9c-0.2,0.4-0.3,0.7-0.5,1.1c-0.9,2.1-1.7,4.2-2.6,6.2c-0.2,0.4-0.3,0.8-0.5,1.2l0,0
				c-0.3,0.8-0.7,1.6-1,2.4c0,0,0,0,0,0c-0.3,0.8-0.7,1.6-1.1,2.4c-0.1,0.3-0.3,0.6-0.4,0.9c-0.7,1.4-1.4,2.7-2.1,4.1
				c-0.3,0.5-0.6,1.1-0.9,1.6c0,0-0.1,0.1-0.1,0.1c-0.2,0.3-0.3,0.5-0.5,0.8c-0.2,0.4-0.5,0.7-0.7,1.1c-0.2,0.3-0.4,0.7-0.7,1
				c-0.7,1.1-1.5,2.1-2.3,3.2c-0.4,0.5-0.8,1-1.3,1.6c-0.2,0.3-0.4,0.5-0.7,0.8c-0.3,0.3-0.6,0.7-0.9,1
				c-31.4,35.2-87.5,30.7-156.1,44.1c-143.3,28-140.3,95-226.1,92.1c0,0-16.5-0.5-31.9-5c-34.3-10-51.1-49.5-81.8-84.2
				c-4.6-5.2-9.4-10.2-14.7-15.1c-24.8-22.7-48.8-31.7-81.3-43.8c-84.6-31.5-156.2-18.8-163.9-47.4c-0.3-1-1-4.3,0.1-10.5
				c11.5-61.4,201.2-164,365.9-144.6c10.1,1.2,20.8,2.9,32.1,4.9c15.6,2.8,32.5,6.1,51.1,9.4c11.1,1.9,22.8,3.8,35.3,5.6
				c1,0.1,1.9,0.3,2.9,0.4c5.2,0.7,10.6,1.4,16.1,2.1c1.1,0.1,2.2,0.3,3.2,0.4c2.1,0.2,4.3,0.5,6.4,0.7c1.4,0.1,2.8,0.3,4.2,0.4
				c0.1,0,0.3,0,0.4,0c2.1,0.2,4.2,0.4,6.4,0.6c1.1,0.1,2.1,0.2,3.2,0.3c3.1,0.3,6.2,0.5,9.4,0.8c1.7,0.1,3.3,0.3,5,0.4l2.3,0.2
				c0.8,0.1,1.5,0.1,2.3,0.2c2.2,0.1,4.4,0.3,6.6,0.4c1.4,0.1,2.9,0.2,4.3,0.2c1.4,0.1,2.8,0.1,4.1,0.2c2,0.1,3.9,0.2,5.9,0.3
				c20.4,0.8,35.4,0.5,48.6,0.6c120.6,0.6,238.9,34.3,252.2,72.4C976,858.3,976.9,860.7,976.5,863.8z"/>
			<linearGradient id="SVGID_13_" gradientUnits="userSpaceOnUse" x1="367.0908" y1="933.0471" x2="976.5749" y2="933.0471">
				<stop  offset="0" style="stop-color:#DF8744"/>
				<stop  offset="1" style="stop-color:#EABA5C"/>
			</linearGradient>
			<path class="st34" d="M976.5,863.9c-2,14.4-26.5,16.6-52.2,30.2c-9,4.3-17.8,10.1-25.6,18.5c-6.7,7.2-13.1,16.1-13.9,17.2
				c-0.1,0.1-0.1,0.1-0.1,0.1c-0.2,0.3-0.4,0.6-0.6,0.9c-0.2,0.3-0.4,0.6-0.5,0.9c-0.5,0.9-1,1.8-1.5,2.7c-0.2,0.3-0.3,0.6-0.5,0.9
				c-0.9,1.7-1.6,3.3-2.3,4.9c-0.2,0.4-0.3,0.7-0.5,1.1c-0.9,2.1-1.7,4.2-2.6,6.2c-0.2,0.4-0.3,0.8-0.5,1.2l0,0
				c-0.3,0.8-0.7,1.6-1,2.4c0,0,0,0,0,0c-0.3,0.8-0.7,1.6-1.1,2.4c-0.1,0.3-0.3,0.6-0.4,0.9c-0.7,1.4-1.4,2.7-2.1,4.1
				c-0.3,0.5-0.6,1.1-0.9,1.6c0,0-0.1,0.1-0.1,0.1c-0.2,0.3-0.3,0.5-0.5,0.8c-0.2,0.4-0.5,0.7-0.7,1.1c-0.2,0.3-0.4,0.7-0.7,1
				c-0.7,1.1-1.5,2.1-2.3,3.2c-0.4,0.5-0.8,1-1.3,1.6c-0.2,0.3-0.4,0.5-0.7,0.8c-0.3,0.3-0.6,0.7-0.9,1
				c-31.4,35.2-87.5,30.7-156.1,44.1c-143.3,28-140.3,95-226.1,92.1c0,0-16.5-0.5-31.9-5c-34.3-10-51.1-49.5-81.8-84.2
				c0.7-0.7,1.5-1.4,2.3-2.1c14.5-13.1,23.6-18.1,58.6-44.5c11.2-8.5,20.5-15.4,28.2-21.2c23.9-18.1,33.3-26.3,42.5-42.8
				c29.4-52.8,10-105.5,6.6-145.9c15.6,2.8,32.5,6.1,51.1,9.4c11.1,1.9,22.8,3.8,35.3,5.6c1,0.1,1.9,0.3,2.9,0.4
				c5.2,0.7,10.6,1.4,16.1,2.1c1.1,0.1,2.2,0.2,3.2,0.4c2.1,0.2,4.3,0.5,6.4,0.7c1.4,0.1,2.8,0.3,4.2,0.4c0.1,0,0.3,0,0.4,0
				c2.1,0.2,4.3,0.4,6.4,0.6c1.1,0.1,2.1,0.2,3.2,0.3c3.1,0.3,6.2,0.5,9.4,0.8c1.7,0.1,3.3,0.3,5,0.4c1.5,0.1,3,0.2,4.6,0.3
				c2.2,0.1,4.4,0.3,6.6,0.4c1.4,0.1,2.8,0.2,4.3,0.2c1.4,0.1,2.7,0.1,4.1,0.2c2,0.1,3.9,0.2,5.9,0.3c15.3,0.6,31.5,0.9,48.6,0.6
				c120.6,0.6,238.9,34.3,252.2,72.4C976,858.3,976.9,860.7,976.5,863.9z"/>
			<path class="st7" d="M286.5,861.3c26.4,10.6,48.3,12.1,62.4,11.9c11.3-0.2,41.4-0.8,45.5-13.7c1.5-4.7-1.1-9.4-1.7-10.4
				c-11.3-19-65-5-67.5-4.3C312.3,850.3,299.4,855.8,286.5,861.3z"/>
			<path class="st7" d="M757.8,979.3c0,0,83.5-45.1,83.4-58.7s-84.8,46.1-84.8,50.8C756.3,976.1,757.8,979.3,757.8,979.3"/>
			<path class="st35" d="M503.6,910.4c8,6.4,21,14.6,38.7,17.8c8.4,1.5,32.5,5.8,52.4-8.6c5.5-4,18.5-13.5,18.7-29
				c0.2-15-11.8-25-13.8-26.6C567.6,879.4,535.6,894.9,503.6,910.4z"/>
		</g>
		<g id="plate">
			<path class="st36" d="M609.6,888.4c0,19.9-25.8,36.1-57.9,36.4c-0.4,0-0.7,0-1.1,0c-32.6,0-59-16.3-59-36.4c0-0.2,0-0.5,0-0.7
				c0.6-19.8,26.8-35.7,59-35.7c9.2,0,17.9,1.3,25.7,3.6c17.9,5.4,30.8,16.2,32.9,29c0,0,0,0,0,0
				C609.5,885.9,609.6,887.1,609.6,888.4z"/>
			<path class="st25" d="M609.3,884c0,0.2,0,0.4,0,0.6c0,0,0,0,0,0c-0.6,19.8-26.7,35.8-59,35.8c-30.5,0-55.7-14.4-58.7-32.7
				c-0.2-1.2-0.3-2.4-0.3-3.7c0-20.1,26.4-36.4,59-36.4c8,0,15.7,1,22.7,2.8C594.4,855.9,609.3,868.9,609.3,884z"/>
			<path class="st37" d="M550,897.2c-12.5,0-22.7-7.3-22.7-16.4c0-9,10.2-16.4,22.7-16.4c12.5,0,22.7,7.3,22.7,16.4
				C572.6,889.9,562.5,897.2,550,897.2z M550,867.7c-10.8,0-19.5,5.9-19.5,13.2c0,7.3,8.7,13.2,19.5,13.2c10.8,0,19.5-5.9,19.5-13.2
				C569.5,873.6,560.7,867.7,550,867.7z"/>
			<linearGradient id="SVGID_14_" gradientUnits="userSpaceOnUse" x1="550.3734" y1="887.6158" x2="609.629" y2="887.6158">
				<stop  offset="0.4713" style="stop-color:#2A303D"/>
				<stop  offset="1" style="stop-color:#302E40"/>
			</linearGradient>
			<path class="st38" d="M609.6,888.4c0,19.9-25.8,36.1-57.9,36.4l-1.4-4.4c42.1-20.5,35.9-47.7,26-64.8c-1.1-1.9-2.2-3.6-3.3-5.2
				c21.3,5.5,36.3,18.5,36.3,33.6c0,0.2,0,0.4,0,0.6c0,0,0,0,0,0C609.5,885.9,609.6,887.1,609.6,888.4z"/>
			<path class="st39" d="M520.5,910.7c-1.7-0.5-20.2-6.5-23-21.1c-1.5-7.7,1.2-18.3,5.9-19.3c2.1-0.5,4.5,1.1,5.8,2.8
				c2.8,3.9,0.2,9.1-0.5,14C508.1,892.5,509.9,900.3,520.5,910.7z"/>
		</g>
		<g id="menu">
			<path class="st14" d="M729.4,851.1c-28.4,13.6-56.9,27.2-85.3,40.8c-0.1,0.5-0.1,1.1-0.2,1.6c37.5,28.6,75,57.2,112.4,85.8
				c28.3-19.6,56.5-39.1,84.8-58.7c0-0.9,0.1-1.8,0.1-2.8C804,895.6,766.7,873.3,729.4,851.1z"/>
			<polygon class="st4" points="841.3,917.8 756.3,976.1 644.1,891.8 673.8,876.5 729.4,847.9 814.6,901.1 			"/>
			<path class="st40" d="M762.6,947.9c-0.5,0-1-0.2-1.3-0.7c-0.5-0.7-0.3-1.7,0.4-2.2l44.4-31.6c0.7-0.5,1.7-0.3,2.2,0.4
				c0.5,0.7,0.3,1.7-0.4,2.2l-44.4,31.6C763.2,947.8,762.9,947.9,762.6,947.9z"/>
			<path class="st40" d="M754.6,928.4c-0.2,0-0.4-0.1-0.5-0.3c-0.1-0.3-0.1-0.6,0.2-0.7l39.1-23.3c0.2-0.1,0.6-0.1,0.7,0.2
				c0.1,0.3,0.1,0.6-0.2,0.7l-39.1,23.3C754.8,928.4,754.7,928.4,754.6,928.4z"/>
			<path class="st40" d="M735.2,944c-0.2,0-0.3-0.1-0.4-0.2c-0.2-0.2-0.1-0.6,0.1-0.7l10.7-8.6c0.2-0.2,0.6-0.1,0.7,0.1
				c0.2,0.2,0.1,0.6-0.1,0.7l-10.7,8.6C735.5,943.9,735.3,944,735.2,944z"/>
			<path class="st40" d="M725.1,935.4c-0.2,0-0.3-0.1-0.4-0.2c-0.2-0.2-0.1-0.6,0.1-0.7l10.7-8.6c0.2-0.2,0.6-0.1,0.7,0.1
				c0.2,0.2,0.1,0.6-0.1,0.7l-10.7,8.6C725.3,935.3,725.2,935.4,725.1,935.4z"/>
			<path class="st40" d="M710,924.3c-0.2,0-0.3-0.1-0.4-0.2c-0.2-0.2-0.1-0.6,0.1-0.7l10.7-8.6c0.2-0.2,0.6-0.1,0.7,0.1
				c0.2,0.2,0.1,0.6-0.1,0.7l-10.7,8.6C710.3,924.3,710.2,924.3,710,924.3z"/>
			<path class="st40" d="M699.3,916.8c-0.2,0-0.3-0.1-0.4-0.2c-0.2-0.2-0.1-0.6,0.1-0.7l10.7-8.6c0.2-0.2,0.6-0.1,0.7,0.1
				c0.2,0.2,0.1,0.6-0.1,0.7l-10.7,8.6C699.5,916.8,699.4,916.8,699.3,916.8z"/>
			<path class="st40" d="M743.5,922.6c-0.2,0-0.3-0.1-0.4-0.2c-0.2-0.2-0.1-0.6,0.1-0.7l35.7-28.2c0.2-0.2,0.6-0.1,0.7,0.1
				c0.2,0.2,0.1,0.6-0.1,0.7l-35.7,28.2C743.7,922.6,743.6,922.6,743.5,922.6z"/>
			<path class="st40" d="M728,910.5c-0.2,0-0.4-0.1-0.5-0.3c-0.1-0.3,0-0.6,0.2-0.7l40.2-21.2c0.3-0.1,0.6,0,0.7,0.2
				c0.1,0.3,0,0.6-0.2,0.7l-40.2,21.2C728.2,910.4,728.1,910.5,728,910.5z"/>
			<path class="st40" d="M715.4,904.6c-0.2,0-0.3-0.1-0.4-0.2c-0.2-0.2-0.1-0.6,0.2-0.7l38-24.9c0.2-0.2,0.6-0.1,0.7,0.2
				c0.2,0.2,0.1,0.6-0.2,0.7l-38,24.9C715.6,904.6,715.5,904.6,715.4,904.6z"/>
			<path class="st40" d="M700.1,893.9c-0.1,0-0.1,0-0.2,0c-0.2-0.1-0.3-0.2-0.3-0.4c-0.1-0.5-2.8-11.7,4.5-16.4
				c7.3-4.7,16.4,2.3,16.8,2.6c0.1,0.1,0.2,0.3,0.2,0.4c0,0.2-0.1,0.3-0.2,0.4l-20.5,13.2C700.3,893.9,700.2,893.9,700.1,893.9z
				 M709.7,876.6c-1.7,0-3.4,0.4-5,1.4c-5.7,3.7-4.6,12-4.2,14.6l19.2-12.4C718.2,879.1,714,876.6,709.7,876.6z"/>
			<path class="st40" d="M695.3,895.9c-0.4,0-0.7-0.1-1-0.2c-0.4-0.2-0.9-0.7-0.9-1.8c-0.1-4,5.8-7,6-7.1c0.3-0.1,0.6,0,0.7,0.2
				c0.1,0.3,0,0.6-0.2,0.7c-0.1,0-5.5,2.8-5.4,6.2c0,0.7,0.3,0.9,0.4,0.9c0.9,0.5,3.5-0.7,5-1.8c0.2-0.2,0.6-0.1,0.7,0.1
				c0.2,0.2,0.1,0.6-0.1,0.7C700.1,894.1,697.3,895.9,695.3,895.9z"/>
			<path class="st41" d="M814.6,901.1c-31.4-6.2-105.4-18.7-140.7-24.6l55.6-28.6L814.6,901.1z"/>
		</g>
		<g id="vase_and_plants">
			<g id="plants">
				<path class="st25" d="M370.9,486.3c3.1,6.8,2.8,14.4-3.2,33.2c-4,12.5-7.9,21.5-11.6,28.8c-7.3,14.7-13.8,22.7-18.6,38.2
					c-11.6,37.1,2.8,63.5-5.4,66.7c0,0-0.1,0-0.1,0.1c-1.6,0.6-3.6,0.1-5.7-1.3c0,0,0,0,0,0c-10.9-6.7-27.9-34-39.5-52.8
					c-32-51.8-66.1-106.8-46.9-131.4c11.4-14.6,31.1-5.9,37.9-19.4c10.9-21.6-37.4-47.9-40.9-101.3c-1.8-27.1,8.3-56.9,22.5-60.1
					c0.6-0.1,1.3-0.2,1.9-0.3c10.9-0.6,18.5,14.8,28.9,11.7c7.5-2.2,9.3-12.1,11.6-23.4c2.5-12,5.5-25.6,16.4-33.4
					c0.4-0.3,0.7-0.5,1.1-0.7c11.3-7.3,28.4-8,34.1-0.8c9,11.1-15.2,33.9-5.6,52.4c6.7,12.8,21.5,7.9,30.5,20.5
					c11.5,15.9,1,42.1-10.4,69.8c-0.8,1.9-1.5,3.7-2.3,5.4c-18.5,42.6-36.6,58-29.3,72.5c0.9,1.8,2.1,3.3,3.5,4.6
					c7.4,7,20.3,7,27.9,16C368.9,482.7,370,484.4,370.9,486.3z"/>
				
					<linearGradient id="SVGID_15_" gradientUnits="userSpaceOnUse" x1="248.4732" y1="502.1852" x2="371.2118" y2="502.1852" gradientTransform="matrix(0.9303 -0.3669 0.3669 0.9303 -146.359 151.3565)">
					<stop  offset="0.4985" style="stop-color:#3D6658"/>
					<stop  offset="1" style="stop-color:#FFFFFF;stop-opacity:0.6"/>
				</linearGradient>
				<path class="st42" d="M329.1,677.9c-0.1,0-0.1,0-0.2,0c-0.6-0.1-1-0.6-0.9-1.2c2.6-15.6,4.1-31.6,4.3-47.4
					c0.6-43.4-5.2-84.2-17.2-121.3c-1-3.1-2-6.1-3-8.9c-4.8-13.9-8.5-24.8-7.5-41c1-16.1,5.9-27,11.2-38.6
					c4.8-10.6,9.8-21.6,11.7-37.2c1.9-16,0.1-32.5-5.4-49c-0.2-0.6,0.1-1.1,0.7-1.3c0.6-0.2,1.1,0.1,1.3,0.7
					c5.6,16.9,7.4,33.7,5.5,50c-1.9,15.9-7,27.1-11.8,37.8c-5.2,11.4-10,22.2-11,37.9c-1,15.8,2.7,26.6,7.4,40.2c1,2.9,2,5.8,3,9
					c12.1,37.3,17.9,78.3,17.3,122c-0.2,15.9-1.7,32-4.3,47.7C330.1,677.5,329.6,677.9,329.1,677.9z"/>
				<path class="st7" d="M367.7,481.3l-11.6,67.1L336.5,662c0,0-1.7-3.2-4.5-8.8c-10.4-20.9-35.4-75-38.8-113.4
					c-3.2-37.3,30.6-64.1,46.6-74.6C347.3,472.2,360.1,472.2,367.7,481.3z"/>
				<path class="st43" d="M436,471.8c-17.9,16.6-39.9,18.1-41.2,31.9c-1.1,12,14.9,15.1,16.4,28.9c2.2,20.3-30.9,27.4-51.8,62.2
					c-16.6,27.6-14.2,53.9-17.7,60.6c-0.5,1.1-1.2,1.6-2.1,1.7c-4.1,0.2-6.9-10.8-21.1-68.8c-9.3-38-13.9-57.2-8.7-70.2
					c7.2-18.2,19.1-16.1,38.3-35.9c39.6-40.6,22.7-83.2,57.6-103.2c14.3-8.2,35-11.4,46-2.5c3.4,2.7,5.9,6.6,7.7,11.3
					C467.7,410,459.2,450.2,436,471.8z"/>
				
					<linearGradient id="SVGID_16_" gradientUnits="userSpaceOnUse" x1="313.1324" y1="560.0535" x2="407.3311" y2="560.0535" gradientTransform="matrix(0.9971 -7.561179e-02 7.561179e-02 0.9971 -31.8429 28.0575)">
					<stop  offset="0" style="stop-color:#C78E7F"/>
					<stop  offset="1" style="stop-color:#FFFFFF;stop-opacity:0.6"/>
				</linearGradient>
				<path class="st44" d="M334.1,699.9c-0.1,0-0.1,0-0.2,0c-0.6-0.1-0.9-0.7-0.8-1.2c2.1-10.8,3.6-21.9,4.6-32.9
					c3.5-38.8-1-64.3-4.6-84.7c-3.8-21.3-6.5-36.8,3.2-54.5c7-12.9,15.9-18.6,25.3-24.6c10.7-6.8,21.7-13.9,31.2-32.7
					c7.5-14.7,11.3-31.4,11.4-49.6c0-0.6,0.5-1,1.1-1c0,0,0,0,0,0c0.6,0,1.1,0.5,1,1.1c-0.1,18.5-4,35.5-11.6,50.5
					c-9.8,19.2-21.1,26.5-32,33.5c-9.2,5.9-17.8,11.4-24.6,23.9c-9.3,17.1-6.8,31.4-3,53.2c3.6,20.6,8.1,46.1,4.6,85.2
					c-1,11.1-2.6,22.2-4.7,33.1C335,699.5,334.6,699.9,334.1,699.9z"/>
				<path class="st26" d="M367.9,382.7c-0.8,1.9-1.5,3.7-2.3,5.4c-12.8-21.1-18.8-39.3-21.9-52c-6-24.7-4.4-42.9-18-53.8
					c-7.9-6.3-17.5-7.4-24-7.4c2.5-12,5.5-25.6,16.4-33.4c0.4-0.3,0.7-0.5,1.1-0.7c11.3-7.3,28.4-8,34.1-0.8
					c9,11.1-15.2,33.9-5.6,52.4c6.7,12.8,21.5,7.9,30.5,20.5C389.8,328.8,379.3,355,367.9,382.7z"/>
				<path class="st26" d="M436,471.8c-17.9,16.6-39.9,18.1-41.2,31.9c-1.1,12,14.9,15.1,16.4,28.9c2.2,20.3-30.9,27.4-51.8,62.2
					c-16.6,27.6-14.2,53.9-17.7,60.6c-0.1,1.6-0.2,3.2-0.3,4.8c0.8-58.7,17.8-85.2,34.4-98.4c9.8-7.8,26.7-16.6,26.1-29.2
					c-0.6-13-19-16.8-19-28.3c0-13,23.3-19,40.5-32.5c15.9-12.6,32-36.1,35.9-83.8C467.7,410,459.2,450.2,436,471.8z"/>
				<linearGradient id="SVGID_17_" gradientUnits="userSpaceOnUse" x1="234.2688" y1="469.3195" x2="326.2967" y2="469.3195">
					<stop  offset="0" style="stop-color:#FFFFFF"/>
					<stop  offset="1" style="stop-color:#9375A1"/>
				</linearGradient>
				<path class="st45" d="M326.3,651.9c-10.9-6.7-27.9-34-39.5-52.8c-32-51.8-66.1-106.8-46.9-131.4c11.4-14.6,31.1-5.9,37.9-19.4
					c10.9-21.6-37.4-47.9-40.9-101.3c-1.8-27.1,8.3-56.9,22.5-60.1c0.6-0.1,1.3-0.2,1.9-0.3c-7.1,17.7-14.8,44.8-8.9,75.3
					c8.9,45.9,44.2,76.2,32.3,93.9c-7.4,11-26.9,7.8-32.5,22.7c-2.5,6.7-1,13.2,0.6,17.7C263.1,526.9,325.8,651,326.3,651.9z"/>
			</g>
			<g id="vase">
				<path class="st14" d="M380.5,744.4v113.1c0,1.3-0.1,2.5-0.1,3.8h-93.8c-0.1-1.3-0.1-2.5-0.1-3.8V744.4
					c0-14.8,5.3-28.3,13.8-38.1c3.6-4.1,7.7-7.5,12.3-10.1l-13-40.9l-2.2-6.8h72.2l-2.2,6.8l-13,40.9
					C369.9,705.1,380.5,723.4,380.5,744.4z"/>
				<g class="st46">
					<polygon class="st47" points="304.3,648.5 304.3,670.3 301.1,660.4 301.1,648.5 					"/>
					<path class="st47" d="M304.3,702.2v159.1h-3.2V705.4C302.1,704.3,303.2,703.2,304.3,702.2z"/>
					<rect x="323.6" y="648.5" class="st47" width="3.2" height="212.8"/>
					<path class="st47" d="M348.1,650.2v211.1h-3.2V650.2c0-0.9,0.7-1.6,1.6-1.6C347.4,648.7,348.1,649.4,348.1,650.2z"/>
					<polygon class="st47" points="369.6,648.5 367.6,654.7 367.6,648.5 					"/>
					<path class="st47" d="M370.8,711.7v149.6h-3.2V707.4C368.7,708.8,369.8,710.2,370.8,711.7z"/>
					<polygon class="st47" points="358.5,683.5 357.5,686.7 309.5,686.7 308.5,683.5 					"/>
					<path class="st47" d="M376.5,722.8h-86.1c0.4-1.1,0.8-2.1,1.3-3.2h83.5C375.7,720.7,376.1,721.7,376.5,722.8z"/>
					<rect x="286.4" y="754.5" class="st47" width="94.1" height="3.2"/>
					<rect x="286.4" y="789.1" class="st47" width="94.1" height="3.2"/>
					<rect x="286.4" y="823.8" class="st47" width="94.1" height="3.2"/>
				</g>
				<path class="st30" d="M380.5,744.4v113.1c0,1.3-0.1,2.5-0.1,3.8h-93.9c-0.1-1.3-0.1-2.5-0.1-3.8V744.4c0-7.7,1.4-15,4-21.6
					c0.4-1.1,0.8-2.1,1.3-3.2c2.2-4.9,5.1-9.4,8.5-13.3c0.3-0.3,0.6-0.6,0.9-1c1-1.1,2.1-2.2,3.2-3.2c2.5-2.3,5.3-4.3,8.2-6l-3-9.5
					l-1-3.2l-4.2-13.2l-3.2-10l-1.6-5l-2.2-6.8h72.2l-2,6.2l-0.2,0.6l-8.9,28.2l-1,3.2l-3,9.5c4.9,2.9,9.4,6.7,13.2,11.2
					c1.1,1.3,2.2,2.8,3.2,4.2c1.7,2.5,3.2,5.2,4.4,8c0.5,1,0.9,2.1,1.3,3.2C379.1,729.4,380.5,736.7,380.5,744.4z"/>
				<path class="st20" d="M380.5,854.5v3c0,1.3-0.1,2.5-0.1,3.8h-93.8c-0.1-1.3-0.1-2.5-0.1-3.8v-3H380.5z"/>
				<polygon class="st20" points="369.6,648.5 367.4,655.3 299.5,655.3 297.4,648.5 				"/>
				<path class="st26" d="M380.5,744.4v113.1c0,1.3-0.1,2.5-0.1,3.8h-40.6V648.5h29.7l-2.2,6.8l-13,40.9
					C369.9,705.1,380.5,723.4,380.5,744.4z"/>
				<circle class="st48" cx="305.5" cy="730.9" r="8.2"/>
			</g>
		</g>
	</g>
</g>
</svg>
